<svg width="89" height="96" viewBox="0 0 89 96" fill="none" xmlns="http://www.w3.org/2000/svg">
<g clip-path="url(#clip0_205_8349)">
<path d="M44.517 48.369C45.7712 48.369 46.788 47.3473 46.788 46.0869C46.788 44.8265 45.7712 43.8047 44.517 43.8047C43.2628 43.8047 42.2461 44.8265 42.2461 46.0869C42.2461 47.3473 43.2628 48.369 44.517 48.369Z" fill="white"/>
<path d="M29.405 50.5083C25.8851 50.5083 22.7058 49.6818 20.1527 48.686C14.3687 46.4315 10.4634 42.8353 10.4255 42.8007C10.3567 42.735 10.3154 42.6486 10.3154 42.5518C10.3154 42.4584 10.3498 42.365 10.4187 42.2993C10.5941 42.123 14.8126 37.9909 20.3832 37.9355C20.5106 37.9425 20.6207 37.9978 20.6826 38.105C20.7548 38.226 28.0459 50.2074 41.5545 46.0303C41.7197 45.9785 41.8952 46.058 41.9674 46.2136C42.0397 46.3692 41.9881 46.5559 41.847 46.6493C37.546 49.5089 33.2725 50.5048 29.4085 50.5048L29.405 50.5083Z" fill="white"/>
<path d="M37.2464 46.086C31.3523 46.086 26.2289 43.2264 22.2548 37.6627C18.5387 32.4621 17.1108 26.6599 17.097 26.6011C17.0729 26.4974 17.097 26.3902 17.1624 26.3072C17.2278 26.2242 17.3276 26.1758 17.4342 26.1758H25.6715C25.8539 26.1758 26.0019 26.3176 26.0156 26.5008C26.0259 26.6703 27.2405 43.5895 41.6885 44.8862C41.8571 44.9 41.9913 45.0383 42.0016 45.2077C42.0119 45.3772 41.8984 45.5293 41.7332 45.5673C40.1986 45.9166 38.6984 46.0895 37.2499 46.0895L37.2464 46.086Z" fill="white"/>
<path d="M42.3079 44.2323C42.3079 44.2323 42.2907 44.2323 42.2838 44.2323C38.234 43.9384 34.9067 42.2752 32.3846 39.2945C28.8612 35.1278 27.5675 29.0732 27.103 24.7266C26.6006 20.0378 26.9275 16.2688 26.9309 16.2307C26.9412 16.1339 26.9894 16.044 27.0651 15.9852C27.1408 15.9264 27.2406 15.9022 27.3369 15.9195C27.5572 15.961 32.8113 16.9776 36.4482 20.0309C36.5618 20.1277 36.603 20.2868 36.548 20.4251C36.4861 20.5876 30.3167 36.6112 42.4799 43.5822C42.621 43.6618 42.6864 43.8278 42.6382 43.9834C42.5935 44.1286 42.4593 44.2289 42.3079 44.2289V44.2323Z" fill="white"/>
<path d="M49.2548 18.2028C47.1697 13.9773 44.8127 10.9725 44.7886 10.9413C44.7852 10.9344 44.7783 10.9344 44.7714 10.9275C44.7577 10.9137 44.7508 10.8964 44.737 10.886C44.7267 10.8756 44.7129 10.8756 44.6992 10.8687C44.6854 10.8583 44.6716 10.8514 44.6544 10.848C44.6303 10.8376 44.6063 10.8272 44.5787 10.8238C44.5581 10.8203 44.5374 10.8203 44.5168 10.8203C44.4962 10.8203 44.4755 10.8203 44.4549 10.8238C44.4308 10.8272 44.4067 10.8376 44.3792 10.848C44.3654 10.8549 44.3482 10.8618 44.3344 10.8687C44.3241 10.8756 44.3103 10.8791 44.2966 10.886C44.2828 10.8964 44.2725 10.9137 44.2622 10.9275C44.2587 10.9344 44.2519 10.9344 44.245 10.9413C44.2209 10.9725 41.8639 13.9773 39.7788 18.2028C37.8451 22.1205 35.7531 27.9262 36.7681 33.3343C37.5595 37.5563 40.1022 40.9554 44.3276 43.4347C44.3826 43.4692 44.448 43.49 44.5134 43.49C44.5787 43.49 44.6441 43.4692 44.6992 43.4347C48.9245 40.9519 51.4672 37.5529 52.2586 33.3343C53.2702 27.9262 51.1782 22.1205 49.2479 18.2028H49.2548Z" fill="white"/>
<path d="M7.76906 43.1462C8.46077 43.1462 9.02151 42.5827 9.02151 41.8876C9.02151 41.1924 8.46077 40.6289 7.76906 40.6289C7.07734 40.6289 6.5166 41.1924 6.5166 41.8876C6.5166 42.5827 7.07734 43.1462 7.76906 43.1462Z" fill="#98AD8F"/>
<path d="M3.95301 42.2415C4.4718 42.2415 4.89235 41.8189 4.89235 41.2975C4.89235 40.7762 4.4718 40.3535 3.95301 40.3535C3.43423 40.3535 3.01367 40.7762 3.01367 41.2975C3.01367 41.8189 3.43423 42.2415 3.95301 42.2415Z" fill="#98AD8F"/>
<path d="M0.760419 41.5674C1.18039 41.5674 1.52084 41.2253 1.52084 40.8032C1.52084 40.3812 1.18039 40.0391 0.760419 40.0391C0.340451 40.0391 0 40.3812 0 40.8032C0 41.2253 0.340451 41.5674 0.760419 41.5674Z" fill="#98AD8F"/>
<path d="M15.1089 26.0173C15.8006 26.0173 16.3614 25.4538 16.3614 24.7587C16.3614 24.0635 15.8006 23.5 15.1089 23.5C14.4172 23.5 13.8564 24.0635 13.8564 24.7587C13.8564 25.4538 14.4172 26.0173 15.1089 26.0173Z" fill="#98AD8F"/>
<path d="M11.7948 23.7102C12.3136 23.7102 12.7342 23.2876 12.7342 22.7663C12.7342 22.2449 12.3136 21.8223 11.7948 21.8223C11.276 21.8223 10.8555 22.2449 10.8555 22.7663C10.8555 23.2876 11.276 23.7102 11.7948 23.7102Z" fill="#98AD8F"/>
<path d="M9.02507 21.8604C9.44503 21.8604 9.78549 21.5183 9.78549 21.0962C9.78549 20.6742 9.44503 20.332 9.02507 20.332C8.6051 20.332 8.26465 20.6742 8.26465 21.0962C8.26465 21.5183 8.6051 21.8604 9.02507 21.8604Z" fill="#98AD8F"/>
<path d="M25.9126 14.9509C26.6043 14.9509 27.1651 14.3874 27.1651 13.6922C27.1651 12.9971 26.6043 12.4336 25.9126 12.4336C25.2209 12.4336 24.6602 12.9971 24.6602 13.6922C24.6602 14.3874 25.2209 14.9509 25.9126 14.9509Z" fill="#98AD8F"/>
<path d="M24.2509 11.138C24.7696 11.138 25.1902 10.7153 25.1902 10.194C25.1902 9.67264 24.7696 9.25 24.2509 9.25C23.7321 9.25 23.3115 9.67264 23.3115 10.194C23.3115 10.7153 23.7321 11.138 24.2509 11.138Z" fill="#98AD8F"/>
<path d="M22.861 8.02641C23.281 8.02641 23.6214 7.68428 23.6214 7.26223C23.6214 6.84018 23.281 6.49805 22.861 6.49805C22.441 6.49805 22.1006 6.84018 22.1006 7.26223C22.1006 7.68428 22.441 8.02641 22.861 8.02641Z" fill="#98AD8F"/>
<path d="M47.1566 46.6532C47.012 46.5598 46.9639 46.3731 47.0361 46.2175C47.1084 46.0619 47.2839 45.9858 47.449 46.0343C60.9576 50.2113 68.2487 38.2299 68.321 38.1089C68.3829 38.0017 68.493 37.9464 68.6203 37.9395C74.1944 37.9948 78.4094 42.1269 78.5849 42.3032C78.6503 42.3689 78.6881 42.4623 78.6881 42.5557C78.6881 42.649 78.6469 42.7389 78.578 42.8046C78.5402 42.8392 74.6349 46.4354 68.8509 48.6899C66.2978 49.6857 63.1185 50.5122 59.5985 50.5122C55.7345 50.5122 51.461 49.5163 47.16 46.6567L47.1566 46.6532Z" fill="white"/>
<path d="M47.27 45.5634C47.1049 45.5254 46.9913 45.3733 47.0016 45.2038C47.0119 45.0344 47.1461 44.8961 47.3147 44.8822C61.7627 43.5856 62.9773 26.6663 62.9876 26.4969C62.998 26.3136 63.1493 26.1719 63.3317 26.1719H71.569C71.6757 26.1719 71.7755 26.2203 71.8408 26.3033C71.9062 26.3863 71.9303 26.4969 71.9062 26.5972C71.8924 26.656 70.4645 32.4582 66.7484 37.6588C62.7709 43.2259 57.6509 46.0821 51.7568 46.0821C50.3082 46.0821 48.8115 45.9092 47.2734 45.56L47.27 45.5634Z" fill="white"/>
<path d="M46.361 43.9873C46.3129 43.8317 46.3817 43.6657 46.5193 43.5862C58.6826 36.6117 52.5132 20.5881 52.4513 20.429C52.3962 20.2907 52.4375 20.1316 52.551 20.0348C56.188 16.9781 61.4387 15.9649 61.6623 15.9234C61.7552 15.9061 61.855 15.9304 61.9341 15.9891C62.0133 16.0479 62.0614 16.1378 62.0683 16.2346C62.0683 16.2727 62.3986 20.0417 61.8963 24.7306C61.4318 29.0771 60.1346 35.1317 56.6146 39.2984C54.096 42.2791 50.7653 43.9389 46.7154 44.2362C46.7086 44.2362 46.6982 44.2362 46.6913 44.2362C46.5399 44.2362 46.4058 44.1359 46.361 43.9907V43.9873Z" fill="white"/>
<path d="M81.231 43.1462C81.9227 43.1462 82.4834 42.5827 82.4834 41.8876C82.4834 41.1924 81.9227 40.6289 81.231 40.6289C80.5393 40.6289 79.9785 41.1924 79.9785 41.8876C79.9785 42.5827 80.5393 43.1462 81.231 43.1462Z" fill="#98AD8F"/>
<path d="M85.0468 42.2415C85.5655 42.2415 85.9861 41.8189 85.9861 41.2975C85.9861 40.7762 85.5655 40.3535 85.0468 40.3535C84.528 40.3535 84.1074 40.7762 84.1074 41.2975C84.1074 41.8189 84.528 42.2415 85.0468 42.2415Z" fill="#98AD8F"/>
<path d="M88.2399 41.5674C88.6599 41.5674 89.0003 41.2253 89.0003 40.8032C89.0003 40.3812 88.6599 40.0391 88.2399 40.0391C87.8199 40.0391 87.4795 40.3812 87.4795 40.8032C87.4795 41.2253 87.8199 41.5674 88.2399 41.5674Z" fill="#98AD8F"/>
<path d="M73.8911 26.0173C74.5828 26.0173 75.1436 25.4538 75.1436 24.7587C75.1436 24.0635 74.5828 23.5 73.8911 23.5C73.1994 23.5 72.6387 24.0635 72.6387 24.7587C72.6387 25.4538 73.1994 26.0173 73.8911 26.0173Z" fill="#98AD8F"/>
<path d="M77.2011 23.7102C77.7198 23.7102 78.1404 23.2876 78.1404 22.7663C78.1404 22.2449 77.7198 21.8223 77.2011 21.8223C76.6823 21.8223 76.2617 22.2449 76.2617 22.7663C76.2617 23.2876 76.6823 23.7102 77.2011 23.7102Z" fill="#98AD8F"/>
<path d="M79.9743 21.8604C80.3943 21.8604 80.7347 21.5183 80.7347 21.0962C80.7347 20.6742 80.3943 20.332 79.9743 20.332C79.5543 20.332 79.2139 20.6742 79.2139 21.0962C79.2139 21.5183 79.5543 21.8604 79.9743 21.8604Z" fill="#98AD8F"/>
<path d="M63.0835 14.9509C63.7752 14.9509 64.336 14.3874 64.336 13.6922C64.336 12.9971 63.7752 12.4336 63.0835 12.4336C62.3918 12.4336 61.8311 12.9971 61.8311 13.6922C61.8311 14.3874 62.3918 14.9509 63.0835 14.9509Z" fill="#98AD8F"/>
<path d="M64.746 11.138C65.2648 11.138 65.6853 10.7153 65.6853 10.194C65.6853 9.67264 65.2648 9.25 64.746 9.25C64.2272 9.25 63.8066 9.67264 63.8066 10.194C63.8066 10.7153 64.2272 11.138 64.746 11.138Z" fill="#98AD8F"/>
<path d="M66.1393 8.02641C66.5593 8.02641 66.8997 7.68428 66.8997 7.26223C66.8997 6.84018 66.5593 6.49805 66.1393 6.49805C65.7194 6.49805 65.3789 6.84018 65.3789 7.26223C65.3789 7.68428 65.7194 8.02641 66.1393 8.02641Z" fill="#98AD8F"/>
<path d="M44.521 9.15012C45.2127 9.15012 45.7735 8.5866 45.7735 7.89147C45.7735 7.19633 45.2127 6.63281 44.521 6.63281C43.8293 6.63281 43.2686 7.19633 43.2686 7.89147C43.2686 8.5866 43.8293 9.15012 44.521 9.15012Z" fill="#98AD8F"/>
<path d="M44.5204 4.95439C45.0392 4.95439 45.4597 4.53175 45.4597 4.0104C45.4597 3.48905 45.0392 3.06641 44.5204 3.06641C44.0016 3.06641 43.5811 3.48905 43.5811 4.0104C43.5811 4.53175 44.0016 4.95439 44.5204 4.95439Z" fill="#98AD8F"/>
<path d="M44.5202 1.52837C44.9402 1.52837 45.2806 1.18623 45.2806 0.764183C45.2806 0.342136 44.9402 0 44.5202 0C44.1002 0 43.7598 0.342136 43.7598 0.764183C43.7598 1.18623 44.1002 1.52837 44.5202 1.52837Z" fill="#98AD8F"/>
<path d="M48.4571 90.5807C48.3332 90.1762 48.1543 89.7958 48.027 89.3912C47.8997 88.9867 47.7827 88.589 47.5763 88.219C47.4008 87.9044 46.9535 88.0634 46.9363 88.3919C46.9225 88.6513 46.9707 88.9348 46.9191 89.1872C46.8778 89.3843 46.7333 89.533 46.6473 89.7128C46.4408 90.1347 46.4752 90.6568 46.3823 91.1063C46.2791 91.5973 46.1311 92.0814 45.9419 92.5482C45.7733 92.9632 45.6047 93.3574 45.5324 93.7965C45.3879 94.0524 45.2572 94.3152 45.1299 94.5745C44.9372 94.9722 45.529 95.3249 45.7251 94.9238C45.7561 94.8581 45.7905 94.7889 45.8249 94.7198C46.2722 94.7785 46.747 94.3498 47.0533 94.0904C47.4799 93.7274 47.9479 93.3297 48.2335 92.8422C48.6429 92.1471 48.7014 91.3415 48.464 90.5807H48.4571Z" fill="#98AC8F"/>
<path d="M63.9335 56.1654C59.7977 52.7386 53.095 53.0706 47.7996 55.1833C46.1996 53.164 45.1777 50.7227 44.8198 47.9807C44.7957 47.7905 44.6237 47.6556 44.4345 47.6833C44.2452 47.7075 44.1145 47.8804 44.1385 48.0706C44.5033 50.8714 45.5321 53.3749 47.1389 55.46C46.4129 55.7781 45.7179 56.1273 45.0676 56.5077C44.8611 56.6253 44.6547 56.7463 44.4482 56.8639C42.5076 55.3632 40.6048 54.3189 38.7571 53.7345C36.0251 52.87 28.273 51.8777 25.2898 54.5436C24.2713 55.4565 23.8997 56.6944 24.1887 58.2262C24.667 60.7539 27.6605 61.9987 32.6256 61.7256C37.1055 61.4801 40.9007 59.6682 44.3897 57.6937C46.1686 59.1149 47.9888 60.9303 49.8365 63.1295C50.0395 63.3715 50.2701 63.6447 50.5247 63.9386C49.6851 64.2567 48.8731 64.6198 48.092 64.9932C47.2662 65.3874 46.4336 65.8577 45.5527 66.3556C45.0022 66.6668 44.4482 66.9815 43.8874 67.2789C43.736 67.106 43.588 66.9331 43.4435 66.7637C42.5317 65.6883 40.1128 63.171 37.3705 62.9911C36.1524 62.9116 35.041 63.3162 34.0776 64.1945C33.1108 65.0728 33.0591 65.9787 33.1864 66.5838C33.4755 67.9566 34.8759 69.0043 36.0561 69.3916C38.7262 70.2734 41.324 69.3674 43.7291 68.1399C44.259 68.7312 44.8198 69.319 45.4185 69.8688C44.7441 70.346 44.1489 70.9303 43.7532 71.6046C43.4125 72.1855 43.0616 73.1987 42.979 74.2049C42.6039 74.6199 42.3218 75.1282 42.1566 75.5742C41.0005 78.669 42.6143 80.8059 44.173 82.8737C45.3394 84.4194 46.5437 86.0169 46.6228 88.0467C46.6779 89.4298 46.1686 90.7265 45.6766 91.9817C45.2155 93.1608 44.7373 94.378 44.7269 95.6574C44.7269 95.6677 44.7304 95.6781 44.7338 95.6885C44.7338 95.7127 44.7407 95.7334 44.7476 95.7576C44.7545 95.7784 44.7613 95.7991 44.7717 95.8199C44.782 95.8372 44.7923 95.8545 44.8061 95.8717C44.8198 95.8925 44.837 95.9063 44.8542 95.9236C44.8611 95.9305 44.868 95.9409 44.8749 95.9444C44.8886 95.9547 44.9024 95.9582 44.9127 95.9651C44.9265 95.972 44.9368 95.9789 44.9506 95.9824C44.9884 95.9962 45.0263 96.0066 45.0641 96.0066C45.0641 96.0066 45.0641 96.0066 45.0676 96.0066C45.1192 96.0066 45.1673 95.9928 45.2121 95.972C45.2258 95.9651 45.2327 95.9582 45.2465 95.9478C45.2775 95.9271 45.3084 95.9029 45.3291 95.8752C45.336 95.8683 45.3428 95.8648 45.3463 95.8579C45.4873 95.6539 45.9553 95.2839 46.406 94.9278C46.8706 94.5612 47.4004 94.1428 47.8168 93.7279C50.012 91.546 48.966 89.7479 47.8581 87.8461C47.4761 87.1857 47.0804 86.5045 46.7914 85.7714C46.2891 84.5577 45.4908 83.4961 44.7097 82.4588C43.1958 80.4532 41.7678 78.5583 42.7898 75.8197C42.8482 75.6607 42.9205 75.4982 43.0065 75.3391C43.034 75.5085 43.0788 75.671 43.1338 75.8232C43.3437 76.4076 43.7429 76.8225 44.2865 77.0196C45.0366 77.2928 45.7454 77.0404 46.1377 76.3661C46.5402 75.6745 46.523 74.5818 45.797 73.9456C45.1261 73.3612 44.5067 73.3612 44.1076 73.4649C43.9872 73.4961 43.8667 73.541 43.7566 73.5963C43.8874 72.9497 44.1145 72.3411 44.3416 71.9539C44.7132 71.3211 45.2878 70.7747 45.9415 70.3356C46.8293 71.0929 47.7892 71.7533 48.8249 72.2097C50.0533 72.7526 52.6752 73.4719 53.8244 72.3169C54.6537 71.4836 54.5539 70.7989 54.3233 70.3702C53.4976 68.8384 49.5303 68.2886 48.4602 68.5099C47.7067 68.6689 46.8327 69.0009 46.0138 69.4781C45.4289 68.949 44.8749 68.3785 44.3553 67.8045C44.8749 67.5244 45.3876 67.2374 45.8865 66.9538C46.757 66.4628 47.5794 65.996 48.3845 65.6122C49.2241 65.2111 50.1049 64.8203 51.0133 64.4884C52.7922 66.4594 55.4382 68.8971 58.3801 68.8971C58.7861 68.8971 59.1955 68.8522 59.6119 68.7519C61.1878 68.3715 61.5353 67.5901 61.549 67.0022C61.5903 65.4877 59.3745 63.6793 57.919 63.247C55.6893 62.5831 53.3909 62.9462 51.2266 63.6827C50.9342 63.3508 50.6451 63.0188 50.363 62.6799C48.56 60.5361 46.7811 58.7484 45.0332 57.3237C45.1605 57.2511 45.2878 57.1785 45.4151 57.1024C46.0998 56.7048 46.8293 56.3383 47.5966 56.0132C48.9075 57.5485 50.5488 58.8348 52.4894 59.8134C55.7685 61.4697 59.1921 62.0956 62.1237 61.5838C63.9507 61.2622 65.1688 60.4427 65.4613 59.3258C65.7262 58.3162 65.186 57.1924 63.9404 56.1585L63.9335 56.1654ZM32.5843 61.034C29.9349 61.1792 25.4068 60.9925 24.8597 58.0948C24.6154 56.8016 24.9044 55.8092 25.744 55.0589C27.1547 53.8002 29.7938 53.5167 31.8789 53.5167C31.9925 53.5167 32.106 53.5167 32.2161 53.5167C34.783 53.5547 37.2982 53.9938 38.5472 54.3915C40.2436 54.9275 41.9984 55.8784 43.791 57.2304C40.4431 59.108 36.8096 60.7989 32.5809 61.0306L32.5843 61.034ZM36.266 68.7346C35.2613 68.4027 34.0742 67.4863 33.8574 66.4386C33.7267 65.8197 33.9572 65.2353 34.5387 64.7062C35.2957 64.0181 36.1455 63.6723 37.078 63.6723C37.1606 63.6723 37.2432 63.6723 37.3257 63.6793C39.8754 63.8452 42.2495 66.4213 42.9171 67.2097C43.0272 67.3411 43.1407 67.4725 43.2543 67.6039C40.9833 68.7519 38.6539 69.5265 36.266 68.7346ZM47.3351 93.23C46.9463 93.6172 46.4336 94.0218 45.9828 94.378C45.8073 94.5163 45.6422 94.6477 45.4942 94.7687C45.6422 93.9284 45.9691 93.0951 46.3097 92.2306C46.8017 90.9789 47.3041 89.6822 47.3041 88.2507C48.3776 90.0972 49.1312 91.4457 47.3385 93.23H47.3351ZM44.2796 74.1358C44.6375 74.0424 44.9884 74.1531 45.3497 74.4677C45.8005 74.8619 45.8039 75.5777 45.5493 76.0134C45.4185 76.2381 45.1123 76.577 44.5239 76.3661C44.1695 76.2381 43.9287 75.9823 43.7876 75.5846C43.674 75.2699 43.6362 74.893 43.6465 74.4988C43.8426 74.3225 44.056 74.1911 44.2796 74.1358ZM48.6013 69.1876C49.5957 68.9767 53.0984 69.5541 53.7178 70.6987C53.7831 70.8197 53.9793 71.1828 53.3393 71.8294C52.5238 72.6489 50.3079 72.1095 49.1036 71.577C48.2021 71.1793 47.3557 70.6122 46.5643 69.9587C47.2525 69.5853 47.9716 69.3225 48.6013 69.1911V69.1876ZM57.7194 63.9109C58.9237 64.2705 60.885 65.8542 60.8574 66.985C60.8437 67.4898 60.3689 67.8563 59.4467 68.0776C56.6803 68.745 54.0481 66.7291 51.7324 64.2394C53.6971 63.6066 55.7547 63.3231 57.7229 63.9075L57.7194 63.9109ZM64.7868 59.1529C64.5701 59.9828 63.5241 60.6364 61.9963 60.9061C59.2093 61.3936 55.9371 60.7885 52.7887 59.1979C51.0064 58.2989 49.489 57.1301 48.2606 55.7401C53.3152 53.776 59.6153 53.4855 63.4897 56.6979C64.5185 57.5485 64.9761 58.4199 64.7834 59.1529H64.7868Z" fill="white"/>
</g>
<defs>
<clipPath id="clip0_205_8349">
<rect width="89" height="96" fill="white"/>
</clipPath>
</defs>
</svg>
