<svg width="77" height="76" viewBox="0 0 77 76" fill="none" xmlns="http://www.w3.org/2000/svg">
<path d="M50.54 49.192C59.556 42.724 66.416 31.748 66.416 19.792C66.416 10.188 60.732 4.89601 54.264 4.896C48.384 4.896 43.876 9.6 43.876 15.284C43.876 21.164 47.796 25.28 53.284 25.28C54.264 25.28 55.636 25.084 55.832 25.084C55.244 31.356 49.56 39.196 43.288 43.312L50.54 49.192ZM19.18 49.192C28.196 42.724 35.056 31.748 35.056 19.792C35.056 10.188 29.372 4.896 22.904 4.896C17.024 4.896 12.32 9.6 12.32 15.284C12.32 21.164 16.436 25.28 21.924 25.28C22.904 25.28 24.276 25.084 24.472 25.084C23.688 31.356 18.2 39.196 11.928 43.312L19.18 49.192Z" fill="#CCB667"/>
</svg>
