<svg width="164" height="237" viewBox="0 0 164 237" fill="none" xmlns="http://www.w3.org/2000/svg">
<path d="M92.7898 125.11C99.6989 125.11 105.3 119.509 105.3 112.6C105.3 105.691 99.6989 100.09 92.7898 100.09C85.8807 100.09 80.2798 105.691 80.2798 112.6C80.2798 119.509 85.8807 125.11 92.7898 125.11Z" fill="white"/>
<path d="M103.62 236.409C110.971 236.409 116.93 230.45 116.93 223.099C116.93 215.748 110.971 209.789 103.62 209.789C96.2692 209.789 90.3101 215.748 90.3101 223.099C90.3101 230.45 96.2692 236.409 103.62 236.409Z" fill="white"/>
<path d="M57.8402 119.49C64.4179 119.49 69.7502 114.158 69.7502 107.58C69.7502 101.002 64.4179 95.6699 57.8402 95.6699C51.2625 95.6699 45.9302 101.002 45.9302 107.58C45.9302 114.158 51.2625 119.49 57.8402 119.49Z" fill="white"/>
<path d="M154.05 127.88C159.396 127.88 163.73 123.546 163.73 118.2C163.73 112.853 159.396 108.52 154.05 108.52C148.704 108.52 144.37 112.853 144.37 118.2C144.37 123.546 148.704 127.88 154.05 127.88Z" fill="white"/>
<path d="M84.6699 181.43C90.7451 181.43 95.6699 176.505 95.6699 170.43C95.6699 164.355 90.7451 159.43 84.6699 159.43C78.5948 159.43 73.6699 164.355 73.6699 170.43C73.6699 176.505 78.5948 181.43 84.6699 181.43Z" fill="white"/>
<path d="M29.8902 97.7706C34.6896 97.7706 38.5802 93.88 38.5802 89.0806C38.5802 84.2813 34.6896 80.3906 29.8902 80.3906C25.0908 80.3906 21.2002 84.2813 21.2002 89.0806C21.2002 93.88 25.0908 97.7706 29.8902 97.7706Z" fill="white"/>
<path d="M120.17 138.191C124.969 138.191 128.86 134.3 128.86 129.501C128.86 124.701 124.969 120.811 120.17 120.811C115.371 120.811 111.48 124.701 111.48 129.501C111.48 134.3 115.371 138.191 120.17 138.191Z" fill="white"/>
<path d="M41.17 172.159C45.9693 172.159 49.86 168.269 49.86 163.469C49.86 158.67 45.9693 154.779 41.17 154.779C36.3706 154.779 32.48 158.67 32.48 163.469C32.48 168.269 36.3706 172.159 41.17 172.159Z" fill="white"/>
<path d="M75.9802 213.84C80.8182 213.84 84.7402 209.918 84.7402 205.08C84.7402 200.242 80.8182 196.32 75.9802 196.32C71.1422 196.32 67.2202 200.242 67.2202 205.08C67.2202 209.918 71.1422 213.84 75.9802 213.84Z" fill="white"/>
<path d="M40.17 64.4796C44.417 64.4796 47.86 61.0367 47.86 56.7896C47.86 52.5425 44.417 49.0996 40.17 49.0996C35.9229 49.0996 32.48 52.5425 32.48 56.7896C32.48 61.0367 35.9229 64.4796 40.17 64.4796Z" fill="white"/>
<path d="M68.0499 90.3595C71.8717 90.3595 74.9699 87.2613 74.9699 83.4395C74.9699 79.6177 71.8717 76.5195 68.0499 76.5195C64.2281 76.5195 61.1299 79.6177 61.1299 83.4395C61.1299 87.2613 64.2281 90.3595 68.0499 90.3595Z" fill="white"/>
<path d="M126.05 100.359C130.722 100.359 134.51 96.5718 134.51 91.8995C134.51 87.2271 130.722 83.4395 126.05 83.4395C121.378 83.4395 117.59 87.2271 117.59 91.8995C117.59 96.5718 121.378 100.359 126.05 100.359Z" fill="white"/>
<path d="M6.92 125.119C10.7418 125.119 13.84 122.021 13.84 118.199C13.84 114.377 10.7418 111.279 6.92 111.279C3.09819 111.279 0 114.377 0 118.199C0 122.021 3.09819 125.119 6.92 125.119Z" fill="white"/>
<path d="M71.5401 149.301C75.3619 149.301 78.4601 146.203 78.4601 142.381C78.4601 138.559 75.3619 135.461 71.5401 135.461C67.7183 135.461 64.6201 138.559 64.6201 142.381C64.6201 146.203 67.7183 149.301 71.5401 149.301Z" fill="white"/>
<path d="M113.26 204.86C117.082 204.86 120.18 201.761 120.18 197.94C120.18 194.118 117.082 191.02 113.26 191.02C109.438 191.02 106.34 194.118 106.34 197.94C106.34 201.761 109.438 204.86 113.26 204.86Z" fill="white"/>
<path d="M112.22 163.481C116.042 163.481 119.14 160.382 119.14 156.561C119.14 152.739 116.042 149.641 112.22 149.641C108.398 149.641 105.3 152.739 105.3 156.561C105.3 160.382 108.398 163.481 112.22 163.481Z" fill="white"/>
<path d="M135.24 196.32C139.537 196.32 143.02 192.837 143.02 188.54C143.02 184.243 139.537 180.76 135.24 180.76C130.943 180.76 127.46 184.243 127.46 188.54C127.46 192.837 130.943 196.32 135.24 196.32Z" fill="white"/>
<path d="M101.33 57.7502C105.152 57.7502 108.25 54.652 108.25 50.8302C108.25 47.0083 105.152 43.9102 101.33 43.9102C97.5083 43.9102 94.4102 47.0083 94.4102 50.8302C94.4102 54.652 97.5083 57.7502 101.33 57.7502Z" fill="white"/>
<path d="M155.34 15.56C159.637 15.56 163.12 12.0768 163.12 7.78C163.12 3.48322 159.637 0 155.34 0C151.043 0 147.56 3.48322 147.56 7.78C147.56 12.0768 151.043 15.56 155.34 15.56Z" fill="white"/>
<path d="M89.2299 81.3494C93.5764 81.3494 97.0999 77.8259 97.0999 73.4794C97.0999 69.1329 93.5764 65.6094 89.2299 65.6094C84.8834 65.6094 81.3599 69.1329 81.3599 73.4794C81.3599 77.8259 84.8834 81.3494 89.2299 81.3494Z" fill="white"/>
<path d="M35.5399 137.371C39.8864 137.371 43.4099 133.847 43.4099 129.501C43.4099 125.154 39.8864 121.631 35.5399 121.631C31.1935 121.631 27.6699 125.154 27.6699 129.501C27.6699 133.847 31.1935 137.371 35.5399 137.371Z" fill="white"/>
<path d="M96.2499 24.3103C101.563 24.3103 105.87 20.0033 105.87 14.6903C105.87 9.37733 101.563 5.07031 96.2499 5.07031C90.9369 5.07031 86.6299 9.37733 86.6299 14.6903C86.6299 20.0033 90.9369 24.3103 96.2499 24.3103Z" fill="white"/>
<path d="M131.31 34.3691C136.165 34.3691 140.1 30.4336 140.1 25.5791C140.1 20.7245 136.165 16.7891 131.31 16.7891C126.455 16.7891 122.52 20.7245 122.52 25.5791C122.52 30.4336 126.455 34.3691 131.31 34.3691Z" fill="white"/>
<path d="M126.97 26.8696C126.82 26.8696 126.67 26.8396 126.52 26.7896L99.9099 16.7596C99.2499 16.5096 98.9099 15.7696 99.1599 15.1096C99.4099 14.4496 100.14 14.1096 100.81 14.3596L127.42 24.3896C128.08 24.6396 128.42 25.3796 128.17 26.0396C127.98 26.5496 127.49 26.8696 126.97 26.8696Z" fill="white"/>
<path d="M135.45 21.8507C135.07 21.8507 134.69 21.6807 134.44 21.3507C134.01 20.7907 134.11 19.9907 134.67 19.5507L151.19 6.76066C151.75 6.33066 152.55 6.43066 152.99 6.99066C153.42 7.55066 153.32 8.35066 152.76 8.79066L136.24 21.5807C136.01 21.7607 135.73 21.8507 135.46 21.8507H135.45Z" fill="white"/>
<path d="M103.72 49.9091C103.37 49.9091 103.03 49.7691 102.78 49.4891C102.3 48.9691 102.33 48.1591 102.86 47.6791L124.5 27.7891C125.02 27.3191 125.83 27.3391 126.31 27.8691C126.79 28.3891 126.76 29.1991 126.23 29.6791L104.59 49.5691C104.34 49.7991 104.03 49.9091 103.72 49.9091Z" fill="white"/>
<path d="M101.33 49.0308C100.73 49.0308 100.19 48.6008 100.07 47.9908L94.9901 21.6708C94.8601 20.9708 95.3101 20.3008 96.0101 20.1708C96.7001 20.0408 97.3701 20.4908 97.5101 21.1908L102.59 47.5108C102.72 48.2108 102.27 48.8808 101.57 49.0108C101.49 49.0308 101.41 49.0308 101.32 49.0308H101.33Z" fill="white"/>
<path d="M91.4499 70.3893C91.2199 70.3893 90.9799 70.3293 90.7699 70.1893C90.1699 69.8093 89.9899 69.0193 90.3599 68.4293L98.3599 55.6293C98.7399 55.0293 99.5299 54.8493 100.12 55.2193C100.72 55.5993 100.9 56.3893 100.53 56.9793L92.5299 69.7793C92.2899 70.1693 91.8699 70.3793 91.4399 70.3793L91.4499 70.3893Z" fill="white"/>
<path d="M120.17 92.5598C119.91 92.5598 119.66 92.4798 119.44 92.3298L94.72 75.0698C94.14 74.6598 93.9999 73.8698 94.3999 73.2898C94.8099 72.7098 95.6099 72.5698 96.1799 72.9698L120.9 90.2298C121.48 90.6398 121.62 91.4298 121.22 92.0098C120.97 92.3698 120.57 92.5598 120.17 92.5598V92.5598Z" fill="white"/>
<path d="M150.89 115.19C150.58 115.19 150.27 115.08 150.03 114.85L130.71 97.2498C130.19 96.7698 130.15 95.9598 130.63 95.4398C131.11 94.9198 131.92 94.8798 132.44 95.3598L151.76 112.96C152.28 113.44 152.32 114.25 151.84 114.77C151.59 115.05 151.24 115.19 150.89 115.19V115.19Z" fill="white"/>
<path d="M121.52 126.401C121.43 126.401 121.34 126.391 121.25 126.371C120.56 126.221 120.12 125.541 120.26 124.851L125.97 98.2205C126.12 97.5205 126.81 97.1005 127.49 97.2305C128.18 97.3805 128.62 98.0605 128.48 98.7505L122.77 125.381C122.64 125.981 122.11 126.391 121.52 126.391V126.401Z" fill="white"/>
<path d="M126.05 127.309C125.48 127.309 124.96 126.929 124.81 126.349C124.63 125.659 125.05 124.969 125.73 124.789L147.72 119.079C148.41 118.909 149.11 119.319 149.28 119.999C149.46 120.689 149.04 121.379 148.36 121.559L126.37 127.269C126.26 127.299 126.15 127.309 126.05 127.309V127.309Z" fill="white"/>
<path d="M113.63 126.399C113.39 126.399 113.16 126.339 112.95 126.199L101.97 119.289C101.37 118.909 101.19 118.119 101.57 117.519C101.95 116.919 102.74 116.739 103.34 117.119L114.32 124.029C114.92 124.409 115.1 125.199 114.72 125.799C114.48 126.189 114.06 126.399 113.64 126.399H113.63Z" fill="white"/>
<path d="M115.34 154.289C115.26 154.289 115.18 154.289 115.11 154.269C114.41 154.139 113.95 153.469 114.08 152.779L117.4 134.719C117.53 134.019 118.2 133.569 118.89 133.689C119.59 133.819 120.05 134.489 119.92 135.179L116.6 153.239C116.48 153.859 115.95 154.289 115.34 154.289Z" fill="white"/>
<path d="M92.7902 166.86C92.3302 166.86 91.8902 166.61 91.6602 166.18C91.3302 165.55 91.5702 164.78 92.2002 164.45L107.55 156.33C108.17 156 108.95 156.24 109.28 156.87C109.61 157.5 109.37 158.27 108.74 158.6L93.3902 166.72C93.2002 166.82 92.9902 166.87 92.7902 166.87V166.86Z" fill="white"/>
<path d="M80.9401 162.799C80.4901 162.799 80.0602 162.559 79.8202 162.139L71.9302 148.019C71.5802 147.399 71.8001 146.619 72.4201 146.279C73.0401 145.939 73.8201 146.149 74.1601 146.769L82.0501 160.889C82.4001 161.509 82.1801 162.289 81.5601 162.629C81.3601 162.739 81.1502 162.789 80.9302 162.789L80.9401 162.799Z" fill="white"/>
<path d="M108.94 196.921C108.6 196.921 108.27 196.791 108.02 196.531L90.5301 178.471C90.0401 177.961 90.0501 177.151 90.5601 176.661C91.0701 176.171 91.8801 176.181 92.3701 176.691L109.86 194.751C110.35 195.261 110.34 196.071 109.83 196.561C109.58 196.801 109.26 196.921 108.94 196.921V196.921Z" fill="white"/>
<path d="M76.9901 200.24C76.8401 200.24 76.68 200.21 76.53 200.15C75.87 199.9 75.5401 199.16 75.7901 198.5L83.5401 178.15C83.7901 177.49 84.5301 177.16 85.1901 177.41C85.8501 177.66 86.1801 178.4 85.9301 179.06L78.1801 199.41C77.9901 199.92 77.5001 200.24 76.9801 200.24H76.9901Z" fill="white"/>
<path d="M82.76 206.359C82.18 206.359 81.65 205.959 81.51 205.369C81.35 204.679 81.78 203.989 82.47 203.829L108.65 197.709C109.37 197.549 110.03 197.979 110.19 198.669C110.35 199.359 109.92 200.049 109.23 200.209L83.05 206.329C82.95 206.349 82.85 206.359 82.76 206.359V206.359Z" fill="white"/>
<path d="M109.51 217.16C109.36 217.16 109.21 217.13 109.07 217.08C108.41 216.84 108.06 216.1 108.31 215.44L113.11 202.29C113.35 201.63 114.09 201.29 114.75 201.53C115.41 201.77 115.76 202.51 115.51 203.17L110.71 216.32C110.52 216.84 110.03 217.16 109.51 217.16Z" fill="white"/>
<path d="M118.54 197.599C118.01 197.599 117.52 197.269 117.33 196.739C117.09 196.069 117.45 195.339 118.12 195.109L131.15 190.539C131.82 190.299 132.55 190.659 132.78 191.329C133.02 191.999 132.66 192.729 131.99 192.959L118.96 197.529C118.82 197.579 118.68 197.599 118.54 197.599V197.599Z" fill="white"/>
<path d="M74.9698 140.551C74.7498 140.551 74.5198 140.491 74.3198 140.371C73.7098 140.011 73.5098 139.221 73.8698 138.621L86.3598 117.551C86.7198 116.941 87.5098 116.741 88.1098 117.101C88.7198 117.461 88.9198 118.251 88.5598 118.851L76.0698 139.921C75.8298 140.321 75.3998 140.551 74.9698 140.551Z" fill="white"/>
<path d="M47.38 161.44C46.99 161.44 46.61 161.27 46.36 160.93C45.93 160.37 46.04 159.56 46.6 159.14L66.44 144.02C67 143.59 67.81 143.69 68.23 144.26C68.66 144.82 68.55 145.63 67.99 146.05L48.15 161.17C47.92 161.35 47.65 161.43 47.37 161.43L47.38 161.44Z" fill="white"/>
<path d="M67.2302 142.721C67.0802 142.721 66.9402 142.691 66.7902 142.641L40.7302 133.161C40.0602 132.921 39.7202 132.181 39.9602 131.521C40.2002 130.851 40.9402 130.511 41.6002 130.751L67.6602 140.231C68.3302 140.471 68.6702 141.211 68.4302 141.871C68.2402 142.391 67.7502 142.711 67.2302 142.711V142.721Z" fill="white"/>
<path d="M38.27 158.74C37.59 158.74 37.02 158.2 36.99 157.51L36.03 134.99C36 134.28 36.55 133.69 37.26 133.65C38.02 133.62 38.56 134.17 38.6 134.88L39.56 157.4C39.59 158.11 39.04 158.7 38.33 158.74H38.27Z" fill="white"/>
<path d="M29.8899 130.02C29.7299 130.02 29.56 129.99 29.4 129.92L10.7499 122.21C10.0999 121.94 9.78994 121.19 10.0599 120.54C10.3299 119.89 11.08 119.57 11.73 119.85L30.3799 127.56C31.0299 127.83 31.3399 128.58 31.0699 129.23C30.8699 129.72 30.3899 130.02 29.8899 130.02V130.02Z" fill="white"/>
<path d="M40.4402 126.86C40.1302 126.86 39.8202 126.75 39.5702 126.52C39.0502 126.04 39.0102 125.23 39.4902 124.71L50.0202 113.2C50.5002 112.68 51.3102 112.64 51.8302 113.12C52.3502 113.6 52.3902 114.41 51.9102 114.93L41.3802 126.44C41.1302 126.72 40.7802 126.86 40.4302 126.86H40.4402Z" fill="white"/>
<path d="M63.2798 99.2909C63.0898 99.2909 62.8898 99.2509 62.7098 99.1609C62.0798 98.8509 61.8198 98.0809 62.1298 97.4409L66.9098 87.7809C67.2198 87.1409 67.9998 86.8909 68.6298 87.2009C69.2598 87.5109 69.5198 88.2809 69.2098 88.9209L64.4298 98.5809C64.2098 99.0309 63.7498 99.2909 63.2798 99.2909Z" fill="white"/>
<path d="M37.2901 90.9405C36.7001 90.9405 36.1701 90.5305 36.0401 89.9305C35.8901 89.2405 36.3301 88.5605 37.0301 88.4105L62.3201 82.9805C63.0001 82.8505 63.6901 83.2705 63.8401 83.9705C63.9901 84.6605 63.5501 85.3405 62.8501 85.4905L37.5601 90.9205C37.4701 90.9405 37.3801 90.9505 37.2901 90.9505V90.9405Z" fill="white"/>
<path d="M31.6502 83.9298C31.5002 83.9298 31.3502 83.8998 31.2102 83.8498C30.5402 83.5998 30.2102 82.8698 30.4502 82.2098L38.0502 61.6398C38.3002 60.9798 39.0402 60.6298 39.6902 60.8798C40.3602 61.1298 40.6902 61.8598 40.4502 62.5198L32.8502 83.0898C32.6602 83.6098 32.1702 83.9298 31.6502 83.9298Z" fill="white"/>
<path d="M63.2798 81.68C62.9498 81.68 62.6298 81.56 62.3798 81.31L43.0198 62.24C42.5098 61.74 42.5098 60.93 42.9998 60.43C43.4998 59.92 44.3098 59.92 44.8098 60.41L64.1698 79.48C64.6798 79.98 64.6798 80.79 64.1898 81.29C63.9398 81.55 63.6098 81.67 63.2798 81.67V81.68Z" fill="white"/>
<path d="M73.2198 82.6294C72.7098 82.6294 72.2298 82.3194 72.0298 81.8194C71.7698 81.1594 72.0898 80.4194 72.7498 80.1494L83.4998 75.8694C84.1698 75.6194 84.8998 75.9294 85.1698 76.5894C85.4298 77.2494 85.1098 77.9894 84.4498 78.2594L73.6998 82.5394C73.5398 82.5994 73.3798 82.6294 73.2198 82.6294Z" fill="white"/>
<path d="M92.7799 103.851C92.1499 103.851 91.5999 103.381 91.5099 102.741L88.4399 79.3706C88.3499 78.6706 88.8399 78.0206 89.5399 77.9306C90.2299 77.8406 90.8899 78.3306 90.9799 79.0306L94.0499 102.401C94.1399 103.101 93.6498 103.751 92.9498 103.841C92.8898 103.841 92.8399 103.851 92.7799 103.851V103.851Z" fill="white"/>
</svg>
