<svg width="97" height="38" viewBox="0 0 97 38" fill="none" xmlns="http://www.w3.org/2000/svg">
<path d="M14.5438 1.21669C14.447 0.888045 14.2361 0.308085 13.7971 0.125813C13.7671 0.0893318 13.7267 0.0590472 13.6792 0.0374449C13.6317 0.0158426 13.5785 0.00353448 13.5239 0.00153307C13.0261 -0.0260839 12.7046 0.324651 12.4868 0.6312C12.1411 1.08412 11.8299 1.55913 11.4496 2.01205C10.7582 2.84056 9.80745 3.51717 9.06415 4.31807C8.70059 4.69895 8.41149 5.1217 8.20675 5.57188C7.99539 6.13529 7.85752 6.71464 7.79534 7.3007C7.69162 7.93037 7.61212 8.56832 7.46692 9.19522C7.34825 9.47694 7.29551 9.77371 7.31134 10.0707C7.30818 10.1073 7.31557 10.144 7.33295 10.178C7.35033 10.212 7.37723 10.2424 7.41159 10.2668C7.73657 10.4905 8.01314 10.7501 8.31392 10.9958C8.6147 11.2416 8.93276 11.4598 9.22663 11.7056C9.49608 11.9467 9.78356 12.1744 10.0875 12.3877C10.1912 12.4568 10.3018 12.5203 10.4055 12.5894C10.4539 12.6225 10.5023 12.6556 10.5473 12.6915L10.5818 12.7219C10.6149 12.7517 10.6507 12.7794 10.689 12.8048L10.7098 12.8213C10.7519 12.8537 10.7983 12.8824 10.8481 12.9069C10.8603 12.9209 10.8755 12.9331 10.893 12.9428C10.9027 12.9534 10.9144 12.9627 10.9276 12.9705C10.9562 13.0123 10.9979 13.0475 11.0486 13.0726C11.068 13.0824 11.0897 13.0886 11.1124 13.091C11.135 13.0934 11.1581 13.0918 11.18 13.0865C11.2036 13.0823 11.2253 13.0727 11.2422 13.0588C11.2614 13.0495 11.2769 13.0361 11.2871 13.0202C11.2973 13.0033 11.3054 12.9858 11.3113 12.9677C11.3313 12.9083 11.3395 12.8468 11.3355 12.7854C11.3355 12.7081 11.3355 12.6308 11.3355 12.5534C11.3355 12.0729 11.3736 11.5924 11.3666 11.1118C11.3666 10.7031 11.3182 10.2833 11.2837 9.88565C11.2837 9.6371 11.2837 9.38854 11.2837 9.13999C11.2658 8.40284 11.2946 7.66545 11.3701 6.93063C11.5602 6.65446 11.7504 6.39486 11.9544 6.12974C12.6078 5.27914 13.2888 4.43682 13.8662 3.55032C14.3468 2.82675 14.7962 2.03967 14.5438 1.21669Z" fill="#CCB667"/>
<path d="M18.9708 2.18308C18.8718 1.80575 18.4819 1.33096 17.9811 1.30847H17.9421C16.9433 1.30847 16.7154 2.40048 16.3915 2.99022C16.078 3.46404 15.7284 3.92061 15.3448 4.35711C14.9789 4.84189 14.634 5.35666 14.3191 5.85644C14.0042 6.35621 13.8002 6.87348 13.5423 7.38326C13.2844 7.89303 12.9664 8.3978 12.7055 8.91756C12.4446 9.43733 12.2197 9.9521 11.9647 10.4669C11.8329 10.704 11.7469 10.957 11.7098 11.2165C11.7023 11.3064 11.7023 11.3966 11.7098 11.4864C11.6853 11.6766 11.6853 11.8685 11.7098 12.0587C11.8118 12.6909 12.3096 13.2006 12.7475 13.6929C13.2274 14.1832 13.8159 14.5921 14.481 14.8974C14.8246 15.0749 15.1824 15.2327 15.5517 15.3697C15.8828 15.5268 16.2409 15.6406 16.6134 15.707C16.6538 15.7127 16.6953 15.7095 16.7337 15.6977C16.7721 15.6858 16.8062 15.6658 16.8324 15.6395C16.8649 15.6303 16.8949 15.6158 16.9206 15.5967C16.9462 15.5777 16.9671 15.5546 16.9819 15.5287C16.9967 15.5029 17.0052 15.4748 17.0068 15.4462C17.0084 15.4176 17.0031 15.3891 16.9913 15.3622C16.7546 14.6017 16.454 13.856 16.0916 13.1307C15.6777 12.381 15.2728 11.6788 15.4288 10.8417C15.5697 10.092 15.9356 9.36487 16.0826 8.59271C16.166 8.12554 16.2211 7.65515 16.2475 7.18334C16.2778 7.17432 16.3047 7.15881 16.3255 7.13836C16.7964 6.63859 17.1083 6.07884 17.5432 5.57157C18.0148 5.06775 18.4041 4.51399 18.7008 3.9248C18.8224 3.63628 18.903 3.33687 18.9408 3.0327C19.0068 2.7528 19.017 2.46573 18.9708 2.18308Z" fill="#CCB667"/>
<path d="M29.2213 8.30334C29.1401 7.77273 28.9808 7.06238 28.4671 6.71149C28.4429 6.67149 28.409 6.63663 28.3678 6.60933C28.3266 6.58203 28.2791 6.56295 28.2286 6.55344C28.1782 6.54393 28.1259 6.54421 28.0756 6.55427C28.0253 6.56432 27.9781 6.5839 27.9372 6.61165C27.7536 6.77222 27.6252 6.97488 27.5666 7.19647C27.4327 7.46983 27.2382 7.7171 26.9945 7.92392C26.4854 8.37828 25.9423 8.80239 25.369 9.1934C24.7968 9.60134 24.2247 10.0121 23.672 10.4401C23.0908 10.8428 22.5372 11.2753 22.014 11.7352C21.9821 11.7667 21.9586 11.804 21.9451 11.8445C21.9316 11.8849 21.9285 11.9275 21.936 11.9691C21.919 12.0148 21.9173 12.0639 21.9311 12.1104C21.945 12.1569 21.9737 12.199 22.014 12.2316C22.205 12.4128 22.3759 12.6096 22.5244 12.8193C22.7146 13.0594 22.9254 13.2863 23.1551 13.4982C23.3307 13.6637 23.4802 13.8291 23.6557 14.006C23.7533 14.1087 23.8411 14.2314 23.9483 14.3255C23.994 14.3628 24.051 14.3877 24.1124 14.3973C24.1738 14.4069 24.237 14.4009 24.2946 14.3798C24.3522 14.3588 24.4016 14.3236 24.4371 14.2786C24.4725 14.2336 24.4924 14.1805 24.4945 14.1258C24.4945 14.1258 24.4945 14.1258 24.4945 14.103C24.8358 13.2472 25.6746 12.534 26.4971 11.992C27.1863 11.5384 28.0088 11.1818 28.5062 10.5428C29.0277 9.88934 29.28 9.09945 29.2213 8.30334Z" fill="#CCB667"/>
<path d="M39.4576 31.8022C39.3974 31.0809 39.2653 30.3657 39.0629 29.6651C38.7112 28.4467 38.2816 27.247 37.776 26.072C37.298 24.9079 36.6365 23.8098 35.8112 22.8101C34.876 21.784 33.7448 20.9114 32.4691 20.2322C31.7187 19.8074 30.9382 19.4521 30.1486 19.0888C29.7719 18.9125 29.4133 18.7121 29.0215 18.5545L28.4971 18.3622C28.4694 18.34 28.4365 18.3235 28.4007 18.3141C28.2621 18.2553 27.6804 18.0469 27.5358 17.9641C27.2917 17.8546 27.1832 17.8118 26.9331 17.697C25.8492 17.2123 24.8659 16.5683 24.0249 15.7922C23.117 14.9106 22.283 13.9713 21.5296 12.9819C20.8792 12.042 20.0656 11.1991 19.1188 10.4841C18.8174 10.2757 17.6119 9.53036 17.2262 9.96314C17.181 9.97824 17.1413 10.0041 17.1117 10.0379C16.509 10.7005 16.509 11.542 16.7681 12.33C17.1111 13.282 17.5773 14.1955 18.1574 15.0522C18.766 15.9071 19.4664 16.7078 20.2489 17.4432C20.6256 17.8199 21.0113 18.1939 21.391 18.5705C21.7707 18.9472 22.0631 19.3319 22.4187 19.7006C22.4729 19.7567 22.5241 19.8181 22.5784 19.8769C22.8586 20.299 23.1299 20.7264 23.4222 21.1405C23.8954 21.7763 24.2704 22.4654 24.5372 23.1895C24.6427 23.4994 24.8717 23.9001 24.7331 24.226C24.5945 24.5519 24.3715 24.4637 24.1485 24.3275C24.1033 24.2233 24.0581 24.1191 24.0159 24.0149C23.7145 23.2563 23.4674 22.4762 23.0847 21.7415C22.4071 20.4551 21.3019 19.383 19.9174 18.6694C19.1668 18.32 18.3845 18.0269 17.5788 17.7931C16.6768 17.5132 15.796 17.1821 14.9419 16.802C14.089 16.4067 13.2723 15.9311 12.4496 15.485C12.062 15.2845 11.7002 15.0472 11.3707 14.7771C11.0574 14.5046 10.722 14.2528 10.3672 14.0237C9.51093 13.4609 8.72943 12.8139 8.03768 12.0949C7.76947 11.8278 7.50428 11.5607 7.25113 11.2775C7.01306 10.9516 6.78101 10.6257 6.53691 10.3051C6.17226 9.83224 5.78954 9.37542 5.41283 8.90791C5.03613 8.44041 4.75284 8.03435 4.37915 7.62295C3.68462 6.86853 2.85486 6.22052 1.92306 5.70485C1.4891 5.45641 0.606111 4.90341 0.247491 5.51785C0.182395 5.54741 0.132715 5.59814 0.108858 5.65943C0.0310207 5.80728 -0.00601695 5.96942 0.000795131 6.13246C0.00760722 6.29551 0.0580751 6.45478 0.148036 6.59711C0.369392 6.91591 0.611905 7.22278 0.87431 7.51609C1.13714 7.82827 1.422 8.12539 1.72717 8.40568C2.03607 8.73339 2.30856 9.08677 2.54085 9.4609C2.71865 9.71469 2.8844 9.97382 3.04412 10.2383C3.08028 10.3318 3.11645 10.4253 3.16165 10.5054C3.46301 11.0985 3.78547 11.6568 4.02354 12.2686C4.44846 13.3612 4.81613 14.526 5.57556 15.4743C7.10347 17.3871 9.53545 18.4263 11.3918 20.0345C11.645 20.2536 11.862 20.502 12.1061 20.7291C12.3502 20.9561 12.6395 21.1805 12.9107 21.4023L13.0222 21.4931L13.194 21.6614C13.6222 22.0205 13.9869 22.4348 14.2759 22.8903C14.3347 22.9838 14.3832 23.0822 14.4205 23.1841C14.4205 23.1841 14.4205 23.2001 14.4205 23.2108C14.4205 23.2215 14.4205 23.2108 14.4205 23.2563C14.4205 23.3017 14.4055 23.3124 14.3964 23.3418C14.3874 23.3711 14.3964 23.3418 14.3964 23.3418L14.3783 23.3738C14.3731 23.3837 14.3659 23.3927 14.3572 23.4005H14.3392H14.3211H14.2397C14.2089 23.4014 14.1781 23.3969 14.1493 23.3872C14.1051 23.3766 14.0618 23.3632 14.0197 23.3471L13.9444 23.315C13.6631 23.0906 13.3919 22.8582 13.1307 22.6178C12.6937 22.2117 12.2688 21.7977 11.8168 21.4023C11.3138 21.0402 10.8516 20.6358 10.4365 20.1948C10.4027 20.15 10.3544 20.1152 10.2979 20.0952C10.2414 20.0752 10.1795 20.0708 10.1201 20.0826H10.102C10.0778 20.0878 10.0545 20.0959 10.0327 20.1066L9.99653 20.1253L9.94832 20.16C9.8986 20.1987 9.86459 20.2507 9.85152 20.3082C9.83845 20.3656 9.84705 20.4253 9.876 20.478C10.099 20.9107 10.2135 21.3756 10.3943 21.8137C10.5638 22.217 10.7852 22.6015 11.0543 22.9597C11.563 23.6622 12.2337 24.2613 13.0222 24.7175C13.8721 25.1877 14.7942 25.5644 15.6651 26.0052C16.1081 26.2269 16.5301 26.4753 16.9821 26.6837L17.1298 26.7505C17.5939 26.9989 18.061 27.2474 18.5431 27.4745C19.9867 28.1503 21.3338 28.9625 22.7622 29.6731C25.4135 30.9515 27.9442 32.4175 30.3294 34.0569L30.3837 34.113C30.8357 34.5778 31.3179 35.0213 31.7548 35.4995C32.1686 35.9231 32.5521 36.3692 32.903 36.8352C33.124 37.2038 33.3801 37.5551 33.6685 37.8851C33.6999 37.9203 33.7428 37.9461 33.7913 37.959C33.8398 37.9719 33.8916 37.9713 33.9397 37.9572H34H34.0331H34.0784H34.1085H34.1326C35.3652 37.6126 36.3235 36.6856 37.2667 35.943C37.9418 35.4087 38.7133 34.7889 39.102 34.0302C39.1403 34.0158 39.1736 33.9926 39.1985 33.963C39.2234 33.9335 39.239 33.8986 39.2437 33.8619C39.4097 33.1857 39.4816 32.494 39.4576 31.8022Z" fill="#CCB667"/>
<path d="M81.9017 1.21669C81.9763 0.888045 82.1477 0.308085 82.4959 0.125813C82.5199 0.0893318 82.5522 0.0590472 82.5901 0.0374449C82.6281 0.0158426 82.6706 0.00353448 82.7143 0.00153307C83.115 -0.0260839 83.3693 0.324651 83.5572 0.6312C83.8336 1.08412 84.0796 1.55913 84.3725 2.01205C84.9253 2.84056 85.6853 3.51717 86.2823 4.31807C86.5721 4.69905 86.8022 5.12181 86.965 5.57188C87.1339 6.13529 87.2441 6.71464 87.2938 7.3007C87.3768 7.93037 87.4403 8.56832 87.5702 9.19522C87.6628 9.47744 87.704 9.77395 87.6918 10.0707C87.6943 10.1071 87.6886 10.1435 87.6752 10.1774C87.6618 10.2113 87.6411 10.2419 87.6144 10.2668C87.3519 10.4905 87.1308 10.7501 86.8903 10.9958C86.6499 11.2416 86.3956 11.4598 86.1607 11.7056C85.946 11.9473 85.7161 12.1752 85.4725 12.3877C85.3896 12.4568 85.3012 12.5203 85.2182 12.5894C85.1796 12.6225 85.1409 12.6556 85.1049 12.6915L85.0773 12.7219C85.0493 12.7511 85.0198 12.7787 84.9888 12.8048L84.975 12.8213C84.9404 12.8538 84.9024 12.8825 84.8617 12.9069C84.8521 12.9201 84.841 12.9322 84.8286 12.9428L84.7982 12.9705C84.7753 13.0123 84.742 13.0475 84.7014 13.0726C84.6859 13.0824 84.6685 13.0886 84.6504 13.091C84.6323 13.0934 84.6139 13.0918 84.5964 13.0865C84.5777 13.0816 84.5606 13.0721 84.5466 13.0588C84.532 13.0487 84.5197 13.0355 84.5107 13.0202C84.5023 13.0037 84.4967 12.986 84.4941 12.9677C84.4759 12.9088 84.4684 12.847 84.472 12.7854C84.472 12.7081 84.472 12.6308 84.472 12.5534C84.472 12.0729 84.4416 11.5924 84.4471 11.1118C84.4471 10.7031 84.4858 10.2833 84.5162 9.88565C84.5162 9.6371 84.5162 9.38854 84.5162 9.13999C84.5162 8.39433 84.5162 7.65696 84.4444 6.93063C84.2924 6.65446 84.1404 6.39486 83.9773 6.12974C83.455 5.27914 82.9105 4.43682 82.4489 3.55032C82.0675 2.82675 81.7083 2.03967 81.9017 1.21669Z" fill="#CCB667"/>
<path d="M77.4928 2.18308C77.5719 1.80575 77.8838 1.33096 78.2869 1.30847H78.318C79.1145 1.30847 79.2969 2.40048 79.5584 2.99022C79.8074 3.46455 80.0863 3.92118 80.3932 4.35711C80.6859 4.84189 80.9642 5.35666 81.2137 5.85644C81.4632 6.35621 81.6311 6.87348 81.8351 7.38326C82.039 7.89303 82.2981 8.3978 82.5068 8.91756C82.7155 9.43733 82.893 9.9521 83.097 10.4669C83.2024 10.704 83.2712 10.957 83.3009 11.2165C83.3069 11.3064 83.3069 11.3966 83.3009 11.4864C83.3177 11.677 83.3137 11.869 83.2889 12.0587C83.2073 12.6909 82.8235 13.2006 82.4612 13.6929C82.0759 14.1827 81.6045 14.5915 81.0722 14.8974C80.7973 15.0749 80.5112 15.2327 80.2157 15.3697C79.9511 15.5272 79.6646 15.641 79.3664 15.707C79.3341 15.7127 79.3009 15.7095 79.2702 15.6977C79.2395 15.6858 79.2123 15.6658 79.1913 15.6395C79.1391 15.6203 79.0964 15.5803 79.0726 15.5283C79.0488 15.4763 79.0457 15.4165 79.0642 15.3622C79.2535 14.6017 79.494 13.856 79.7839 13.1307C80.1149 12.381 80.4388 11.6788 80.3141 10.8417C80.2013 10.092 79.9086 9.36487 79.7935 8.59271C79.7243 8.12585 79.6803 7.65532 79.6615 7.18334C79.6363 7.17495 79.6139 7.15937 79.5967 7.13836C79.2225 6.63859 78.973 6.07884 78.6227 5.57157C78.2454 5.06775 77.934 4.51399 77.6967 3.9248C77.6005 3.63595 77.5362 3.33667 77.5048 3.0327C77.4559 2.75212 77.4519 2.46504 77.4928 2.18308Z" fill="#CCB667"/>
<path d="M65.7769 8.30327C65.8582 7.77265 66.0175 7.0623 66.5345 6.71141C66.5583 6.67148 66.5919 6.63665 66.6328 6.60936C66.6737 6.58206 66.721 6.56298 66.7712 6.55345C66.8214 6.54393 66.8734 6.54421 66.9235 6.55425C66.9737 6.56429 67.0206 6.58385 67.0612 6.61156C67.2446 6.7727 67.374 6.97503 67.4351 7.19639C67.5666 7.47018 67.7602 7.71767 68.0041 7.92384C68.514 8.37753 69.057 8.80159 69.6298 9.19334C70.2052 9.60129 70.7742 10.0121 71.327 10.44C71.9089 10.842 72.4627 11.2746 72.9852 11.7352C73.0171 11.7667 73.0406 11.804 73.0541 11.8445C73.0676 11.8849 73.0707 11.9275 73.0632 11.9691C73.0802 12.0148 73.0819 12.0638 73.0681 12.1104C73.0542 12.1569 73.0255 12.199 72.9852 12.2316C72.7941 12.4128 72.6232 12.6096 72.4747 12.8192C72.2876 13.059 72.08 13.286 71.8537 13.4982C71.6781 13.6637 71.5286 13.8291 71.353 14.006C71.2555 14.1087 71.1677 14.2314 71.0604 14.3255C71.0147 14.3628 70.9577 14.3877 70.8963 14.3973C70.8349 14.4069 70.7716 14.4009 70.7141 14.3798C70.6565 14.3588 70.607 14.3236 70.5715 14.2786C70.5361 14.2336 70.5162 14.1805 70.5141 14.1258V14.103C70.1695 13.2472 69.3306 12.534 68.5113 11.9919C67.822 11.5383 66.9994 11.1817 66.4987 10.5427C65.9764 9.88932 65.7219 9.09989 65.7769 8.30327Z" fill="#CCB667"/>
<path d="M55.76 33.8515C55.7648 33.8882 55.781 33.9232 55.8068 33.9528C55.8325 33.9825 55.867 34.0057 55.9067 34.0202C56.3094 34.7808 57.1085 35.4048 57.8109 35.9378C58.7879 36.6824 59.7775 37.6117 61.0573 37.9572H61.0792H61.1104H61.1604H61.1916H61.254C61.3038 37.9713 61.3575 37.9719 61.4077 37.959C61.458 37.9461 61.5024 37.9202 61.5349 37.8849C61.8336 37.554 62.0989 37.2019 62.3278 36.8323C62.6924 36.3651 63.0907 35.9179 63.5203 35.4932C63.9698 35.0138 64.4567 34.5692 64.9375 34.1032L64.9936 34.047C67.4643 32.4034 70.0856 30.9336 72.832 29.6519C74.3053 28.9395 75.7007 28.1254 77.2022 27.4478C77.7016 27.2201 78.1855 26.971 78.6693 26.722L78.8223 26.655C79.2874 26.4461 79.7275 26.197 80.1833 25.9747C81.0854 25.5328 82.0406 25.1552 82.9209 24.6838C83.7386 24.2273 84.4335 23.6265 84.9593 22.9215C85.2403 22.5636 85.4699 22.1778 85.643 21.7725C85.8334 21.3253 85.9551 20.8593 86.1799 20.4334C86.2098 20.3806 86.2188 20.3208 86.2052 20.2632C86.1917 20.2056 86.1564 20.1534 86.1049 20.1147L86.055 20.0799L86.0175 20.0611C85.995 20.0504 85.9708 20.0423 85.9457 20.037H85.927C85.8679 20.028 85.807 20.0339 85.7516 20.0538C85.6962 20.0738 85.6488 20.107 85.6149 20.1495C85.2028 20.6191 84.7387 21.0532 84.2289 21.4458C83.7575 21.8422 83.3205 22.2493 82.8647 22.6644C82.5921 22.9055 82.3112 23.1385 82.0219 23.3634C81.9968 23.3757 81.9708 23.3865 81.9439 23.3956C81.9003 23.4117 81.8555 23.4252 81.8096 23.4357C81.7798 23.4455 81.7479 23.4501 81.716 23.4491H81.6317H81.613H81.5943C81.5862 23.4407 81.5789 23.4317 81.5724 23.4224L81.5537 23.3902C81.5537 23.3608 81.5349 23.334 81.5287 23.3045C81.5225 23.2751 81.5287 23.3045 81.5287 23.259V23.2322C81.5665 23.1302 81.6156 23.0315 81.6754 22.9376C81.9758 22.4816 82.3534 22.0664 82.7961 21.7056L82.974 21.5369L83.0895 21.4458C83.3704 21.2235 83.6639 21.0092 83.923 20.7709C84.1821 20.5325 84.4006 20.2942 84.6628 20.0745C86.5857 18.4676 89.1048 17.4204 90.6874 15.5028C91.4772 14.5466 91.8549 13.3789 92.2951 12.2889C92.5417 11.6756 92.8882 11.1158 93.1878 10.5212C93.2346 10.4302 93.2721 10.3364 93.3096 10.2534C93.4781 9.98558 93.6498 9.71776 93.8309 9.47404C94.0715 9.09895 94.3537 8.74467 94.6737 8.41612C94.9898 8.13513 95.2849 7.83725 95.5571 7.52427C95.8289 7.23022 96.0801 6.92257 96.3094 6.60295C96.4026 6.46025 96.4549 6.30058 96.4619 6.13712C96.469 5.97366 96.4306 5.81111 96.35 5.66289C96.3253 5.60144 96.2738 5.55058 96.2064 5.52094C95.8349 4.89959 94.9203 5.45934 94.4708 5.70842C93.5056 6.2254 92.6461 6.87506 91.9267 7.6314C91.5396 8.04385 91.2181 8.49112 90.8591 8.91964C90.5001 9.34816 90.0694 9.84631 89.6916 10.3204C89.4388 10.6418 89.1984 10.9685 88.9518 11.2952C88.6896 11.5631 88.418 11.847 88.1402 12.1148C87.4218 12.835 86.6114 13.4836 85.7241 14.0485C85.3566 14.2782 85.0092 14.5306 84.6846 14.8037C84.3445 15.0757 83.9696 15.3138 83.5671 15.5135C82.7149 15.9607 81.869 16.4375 80.9887 16.8339C80.1034 17.214 79.1912 17.5458 78.2573 17.8275C77.4215 18.0613 76.6101 18.3552 75.8318 18.7059C74.3984 19.4222 73.2538 20.4967 72.551 21.7859C72.1546 22.5225 71.9111 23.3045 71.5864 24.0651C71.5427 24.1696 71.4959 24.274 71.4491 24.3785C71.2181 24.5151 70.9809 24.5847 70.8435 24.2767C70.7062 23.9687 70.9372 23.5482 71.0464 23.2376C71.3241 22.5121 71.7125 21.8213 72.2014 21.1833C72.5136 20.7682 72.7883 20.3397 73.0786 19.9165C73.1316 19.8576 73.1847 19.796 73.244 19.7398C73.6092 19.3702 73.9276 18.9657 74.3053 18.6069C74.6831 18.248 75.0982 17.8543 75.4884 17.4766C76.2989 16.7387 77.0254 15.9361 77.6579 15.0796C78.2579 14.2206 78.7398 13.3047 79.0939 12.3505C79.3748 11.547 79.3561 10.7167 78.738 10.0525C78.7086 10.0175 78.6671 9.99127 78.6194 9.97755C78.2229 9.54367 76.9681 10.2909 76.659 10.4998C75.6791 11.2173 74.8364 12.0623 74.1618 13.004C73.3806 13.997 72.5156 14.9396 71.574 15.8242C70.7028 16.6022 69.6843 17.2479 68.5616 17.7338C68.315 17.8516 68.2026 17.8944 67.9529 18.0016C67.8 18.0739 67.1975 18.2935 67.0539 18.3524C67.0168 18.3619 66.9827 18.3784 66.954 18.4006C66.7761 18.4676 66.5919 18.5292 66.4109 18.5935C66.0051 18.7435 65.6367 18.9443 65.2434 19.1291C64.4255 19.4934 63.6202 19.8496 62.8398 20.2754C61.5184 20.9564 60.3466 21.8312 59.3779 22.8599C58.5115 23.8327 57.8075 24.9046 57.2864 26.0444C56.763 27.2207 56.318 28.4216 55.9535 29.6412C55.7439 30.3437 55.607 31.0607 55.5446 31.7838C55.5175 32.478 55.5899 33.1724 55.76 33.8515Z" fill="#CCB667"/>
</svg>
