<svg width="115" height="70" viewBox="0 0 115 70" fill="none" xmlns="http://www.w3.org/2000/svg">
<g clip-path="url(#clip0_210_7965)">
<path d="M17.2326 39.2907C17.3799 39.2907 17.4994 39.1714 17.4994 39.0243C17.4994 38.8771 17.3799 38.7578 17.2326 38.7578C17.0853 38.7578 16.9658 38.8771 16.9658 39.0243C16.9658 39.1714 17.0853 39.2907 17.2326 39.2907Z" fill="white"/>
<path d="M16.6989 35.6977L21.4676 44.1286C21.4926 44.1703 21.5051 44.2161 21.5051 44.2619L21.8136 52.5763C21.8178 52.7428 21.6844 52.8844 21.5176 52.8844H19.9044C19.7919 52.8844 19.6918 52.8219 19.6376 52.722L15.4775 44.5866C15.4525 44.5367 15.44 44.4825 15.4441 44.4284L16.1445 35.8226C16.1695 35.5311 16.5571 35.4437 16.6989 35.7018V35.6977Z" fill="white"/>
<path d="M21.5139 52.935H19.9007C19.7673 52.935 19.6506 52.86 19.5881 52.7434L15.4279 44.6081C15.3988 44.5498 15.3863 44.4873 15.3904 44.4207L16.0907 35.8149C16.1032 35.6567 16.2116 35.5359 16.3659 35.5026C16.5201 35.4693 16.6702 35.5359 16.7452 35.6733L21.5139 44.1043C21.5431 44.1542 21.5556 44.2084 21.5598 44.2625L21.8682 52.5769C21.8682 52.6727 21.8391 52.7643 21.7724 52.8309C21.7057 52.9016 21.614 52.9391 21.5181 52.9391L21.5139 52.935ZM16.4409 35.5984C16.4409 35.5984 16.4034 35.5984 16.3867 35.6025C16.2992 35.6233 16.2075 35.69 16.1949 35.8232L15.4946 44.429C15.4946 44.4748 15.4988 44.5206 15.5197 44.5623L19.6798 52.6976C19.7215 52.7809 19.8049 52.8309 19.8966 52.8309H21.5098C21.5765 52.8309 21.639 52.8059 21.689 52.7559C21.7349 52.706 21.7599 52.6435 21.7557 52.5769L21.4472 44.2625C21.4472 44.225 21.4347 44.1834 21.4139 44.1501L16.6451 35.7191C16.5951 35.6275 16.5118 35.5942 16.4367 35.5942L16.4409 35.5984Z" fill="white"/>
<path d="M17.2329 33.4862L19.9257 30.7009C20.0674 30.5552 20.3134 30.6592 20.305 30.8633L20.0674 37.3249C20.0591 37.5414 19.7798 37.6164 19.6631 37.4415L17.2079 33.7693C17.1495 33.6819 17.162 33.5695 17.2329 33.4946V33.4862Z" fill="white"/>
<path d="M19.8463 37.5868C19.7587 37.5868 19.6712 37.541 19.6212 37.4661L17.166 33.7939C17.0951 33.6856 17.1076 33.5441 17.1951 33.4525L19.888 30.6672C19.9672 30.5839 20.0839 30.5589 20.1923 30.6047C20.2965 30.6505 20.3632 30.7504 20.359 30.867L20.1214 37.3287C20.1172 37.4494 20.038 37.5493 19.9213 37.5826C19.8963 37.591 19.8713 37.5951 19.8421 37.5951L19.8463 37.5868ZM20.0839 30.6838C20.0422 30.6838 20.0005 30.6963 19.963 30.7379L17.2702 33.5233C17.216 33.5816 17.2076 33.669 17.2535 33.7356L19.7087 37.4078C19.7587 37.4827 19.8379 37.491 19.8963 37.4785C19.9547 37.4619 20.0172 37.4119 20.0172 37.3203L20.2548 30.8587C20.2548 30.7712 20.2048 30.7171 20.1506 30.6963C20.1297 30.688 20.1089 30.6838 20.0839 30.6838Z" fill="white"/>
<path d="M22.2597 30.9381L28.9585 37.966C29.0293 38.041 29.146 38.0326 29.2086 37.9535L30.8801 35.8052C30.9427 35.7261 30.9177 35.6095 30.8343 35.5596L22.464 30.6842C22.2972 30.5884 22.1263 30.8007 22.2597 30.9423V30.9381Z" fill="white"/>
<path d="M29.0795 38.0708C29.0212 38.0708 28.9628 38.0459 28.9211 38.0042L22.2224 30.9763C22.1473 30.8972 22.139 30.7807 22.2099 30.6932C22.2807 30.6058 22.3933 30.585 22.4892 30.6391L30.8595 35.5145C30.9137 35.5478 30.9512 35.5978 30.9637 35.6602C30.9762 35.7227 30.9637 35.7851 30.922 35.8351L29.2504 37.9834C29.2129 38.0334 29.1546 38.0625 29.0879 38.0667H29.0754L29.0795 38.0708ZM22.3766 30.7099C22.3391 30.7099 22.3057 30.7307 22.2891 30.7557C22.2599 30.7931 22.2474 30.8514 22.2974 30.9056L28.9962 37.9335C29.017 37.9584 29.0503 37.9668 29.0837 37.9668C29.117 37.9668 29.1462 37.9501 29.1671 37.921L30.8386 35.7726C30.8595 35.7476 30.8678 35.7143 30.8595 35.681C30.8553 35.6477 30.8345 35.6227 30.8053 35.6061L22.435 30.7307C22.435 30.7307 22.3933 30.714 22.3766 30.714V30.7099Z" fill="white"/>
<path d="M29.0537 39.9318L32.2509 36.3887L34.7228 37.8584L29.5414 42.4715L29.0537 39.9318Z" fill="white"/>
<path d="M29.5416 42.5221C29.5416 42.5221 29.5291 42.5221 29.525 42.5221C29.5083 42.518 29.4958 42.5013 29.4916 42.4847L29.0039 39.945C29.0039 39.945 29.0039 39.9116 29.0164 39.8992L32.2136 36.3561C32.2136 36.3561 32.2595 36.3353 32.2803 36.3477L34.7522 37.8174C34.7522 37.8174 34.7772 37.8424 34.7772 37.8591C34.7772 37.8757 34.7731 37.8924 34.7606 37.9049L29.5833 42.518C29.5833 42.518 29.5625 42.5305 29.55 42.5305L29.5416 42.5221ZM29.1081 39.945L29.575 42.3681L34.6314 37.8632L32.2595 36.4518L29.1081 39.9408V39.945Z" fill="white"/>
<path d="M29.3008 44.1034L35.8161 39.9316L39.9888 51.8224L35.8536 55.2406L29.3883 48.8706L29.3008 44.1034Z" fill="white"/>
<path d="M35.8534 55.2909C35.8534 55.2909 35.8284 55.2868 35.8159 55.2743L29.3506 48.9042C29.3506 48.9042 29.3339 48.8834 29.3339 48.8667L29.2422 44.0996C29.2422 44.0996 29.2505 44.0663 29.2672 44.0538L35.7825 39.882C35.7825 39.882 35.8117 39.8695 35.8284 39.8779C35.8451 39.8862 35.8534 39.8945 35.8617 39.9112L40.0344 51.802C40.0344 51.802 40.0344 51.8436 40.0177 51.8603L35.8826 55.2784C35.8826 55.2784 35.8617 55.2909 35.8492 55.2909H35.8534ZM29.4381 48.8459L35.8534 55.166L39.9218 51.802L35.7825 40.0069L29.3464 44.1246L29.4339 48.8418L29.4381 48.8459Z" fill="white"/>
<path d="M35.891 56.7609L40.368 52.8848L34.3945 60.7453L35.891 56.7609Z" fill="white"/>
<path d="M34.3944 60.7955C34.3944 60.7955 34.3778 60.7955 34.3694 60.7872C34.3486 60.7747 34.3361 60.7456 34.3444 60.7247L35.8451 56.7403C35.8451 56.7403 35.8534 56.7237 35.8617 56.7195L40.3345 52.8433C40.3345 52.8433 40.3845 52.8267 40.4054 52.8433C40.4262 52.86 40.4262 52.8933 40.4095 52.9141L34.4361 60.7747C34.4361 60.7747 34.4111 60.7955 34.3944 60.7955ZM35.9368 56.7903L34.5695 60.4291L40.026 53.2514L35.9409 56.7903H35.9368Z" fill="white"/>
<path d="M29.2998 51.9506V61.0977C29.2998 61.3059 29.4707 61.4766 29.6791 61.4766H32.101C32.2553 61.4766 32.397 61.3808 32.4553 61.2393L34.302 56.6387C34.3562 56.5013 34.327 56.3431 34.2269 56.239L29.9584 51.6883C29.7208 51.4385 29.2998 51.6051 29.2998 51.9465V51.9506Z" fill="white"/>
<path d="M32.1015 61.5307H29.6796C29.442 61.5307 29.2461 61.335 29.2461 61.0977V51.9506C29.2461 51.7674 29.3503 51.6175 29.5212 51.5509C29.688 51.4843 29.8714 51.5259 29.9964 51.655L34.2649 56.2056C34.3817 56.3264 34.415 56.5054 34.3525 56.6636L32.5058 61.2642C32.4391 61.4308 32.2807 61.5349 32.1057 61.5349L32.1015 61.5307ZM29.6796 51.6217C29.6338 51.6217 29.5921 51.63 29.5546 51.6467C29.4545 51.6883 29.3461 51.7882 29.3461 51.9506V61.0977C29.3461 61.2767 29.492 61.4266 29.6754 61.4266H32.0973C32.2307 61.4266 32.3516 61.3475 32.4016 61.2184L34.2483 56.6178C34.2941 56.5013 34.2691 56.3639 34.1816 56.2723L29.913 51.7258C29.8422 51.6508 29.7546 51.6217 29.6754 51.6217H29.6796Z" fill="white"/>
<path d="M22.1386 33.0236L27.5451 39.1813C27.6076 39.2521 27.641 39.3437 27.6451 39.4353L27.8285 49.4359C27.8369 49.8272 27.3325 49.9938 27.1032 49.6732L22.9806 43.886C22.9806 43.886 22.9639 43.861 22.9556 43.8485L21.3674 40.9757C21.3341 40.9133 21.3174 40.8467 21.3174 40.7759L21.4341 33.2817C21.4383 32.9153 21.8926 32.7529 22.1344 33.0236H22.1386Z" fill="white"/>
<path d="M27.4289 49.8938C27.2871 49.8938 27.1537 49.8272 27.0662 49.7023L22.9436 43.9151C22.9436 43.9151 22.9227 43.886 22.9144 43.8693L21.3262 40.9966C21.2887 40.9258 21.2678 40.8508 21.272 40.7717L21.3887 33.2775C21.3887 33.086 21.5054 32.9278 21.6847 32.8612C21.8639 32.7946 22.0557 32.8445 22.1807 32.9861L27.5873 39.1438C27.6581 39.2229 27.6956 39.327 27.6998 39.4311L27.8832 49.4317C27.8832 49.6315 27.7665 49.8064 27.5748 49.8689C27.5247 49.8855 27.4789 49.8938 27.4289 49.8938ZM21.8431 32.9403C21.7972 32.9403 21.7556 32.9486 21.718 32.9611C21.6097 32.9986 21.4929 33.1068 21.4929 33.2817L21.3762 40.7759C21.3762 40.8342 21.3887 40.8966 21.4179 40.9466L23.0061 43.8194C23.0061 43.8194 23.0186 43.8402 23.0269 43.8527L27.1496 49.644C27.2413 49.7689 27.3913 49.8189 27.5414 49.7731C27.6873 49.7231 27.7832 49.5941 27.779 49.4359L27.5956 39.4353C27.5956 39.352 27.5622 39.2729 27.5081 39.2146L22.1015 33.0569C22.0265 32.9694 21.9306 32.9403 21.8431 32.9403Z" fill="white"/>
<path d="M14.877 56.1433L17.2697 57.5755C17.4156 57.6629 17.599 57.5797 17.6365 57.4173L18.3702 54.099C18.3827 54.0449 18.3744 53.9908 18.3535 53.9408L15.6899 48.2452C15.5815 48.0162 15.2355 48.0787 15.223 48.3327L14.7561 55.9143C14.752 56.0059 14.7978 56.0933 14.877 56.1391V56.1433Z" fill="white"/>
<path d="M17.3991 57.663C17.3449 57.663 17.2949 57.6505 17.2449 57.6214L14.8522 56.1891C14.7563 56.1309 14.7021 56.0268 14.7063 55.9144L15.1731 48.3327C15.1815 48.1953 15.2774 48.0829 15.4149 48.0579C15.5525 48.033 15.6817 48.0996 15.7401 48.2245L18.4037 53.9201C18.4329 53.9783 18.4371 54.045 18.4246 54.1116L17.6909 57.4298C17.6701 57.5256 17.6075 57.6005 17.5158 57.638C17.4783 57.6547 17.4366 57.663 17.3991 57.663ZM14.9064 56.0975L17.2991 57.5298C17.3533 57.5631 17.4158 57.5672 17.4741 57.5423C17.5325 57.5173 17.5742 57.4673 17.5867 57.4049L18.3204 54.0866C18.3287 54.045 18.3245 54.0033 18.3078 53.9617L15.6442 48.2661C15.5983 48.1662 15.5025 48.1454 15.4316 48.1579C15.3649 48.1703 15.2815 48.2245 15.2732 48.3369L14.8063 55.9185C14.8022 55.9893 14.8397 56.0601 14.898 56.0975H14.9064Z" fill="white"/>
<path d="M19.4953 54.2129L18.5824 58.114C18.5491 58.2598 18.5991 58.4096 18.7158 58.5054L21.392 60.737C21.6504 60.9493 22.0381 60.7703 22.0381 60.4331V54.6084C22.0381 54.3919 21.863 54.2129 21.6421 54.2129H19.4953Z" fill="white"/>
<path d="M21.6424 60.8822C21.5423 60.8822 21.4381 60.8489 21.3589 60.7781L18.6828 58.5465C18.5535 58.4382 18.4952 58.2675 18.5327 58.101L19.4456 54.1998C19.4498 54.1749 19.4706 54.1582 19.4956 54.1582H21.6424C21.8883 54.1582 22.0884 54.358 22.0884 54.6037V60.4283C22.0884 60.6032 21.9884 60.7573 21.83 60.8322C21.7674 60.8613 21.7049 60.8738 21.6382 60.8738L21.6424 60.8822ZM19.5373 54.2665L18.6327 58.126C18.6036 58.2509 18.6452 58.3841 18.7453 58.4674L21.4214 60.699C21.5257 60.7864 21.6632 60.8031 21.7883 60.7448C21.9133 60.6865 21.9842 60.5699 21.9842 60.4367V54.612C21.9842 54.4247 21.83 54.2706 21.6424 54.2706H19.5373V54.2665Z" fill="white"/>
<path d="M23.3973 47.4766L27.6784 53.3013C27.7075 53.3388 27.7242 53.3887 27.7242 53.4387L27.9701 61.4991C27.9743 61.6365 27.8659 61.7489 27.7284 61.7489H24.0643C23.9351 61.7489 23.8308 61.649 23.8225 61.5241L22.9596 47.639C22.943 47.3975 23.2514 47.2851 23.3973 47.4808V47.4766Z" fill="white"/>
<path d="M27.7327 61.7981H24.0686C23.9144 61.7981 23.7852 61.6773 23.7769 61.5233L22.9098 47.6382C22.9015 47.505 22.9765 47.3884 23.1016 47.3426C23.2266 47.2968 23.36 47.3384 23.4392 47.4467L27.7202 53.2713C27.7578 53.3213 27.7744 53.3754 27.7786 53.4379L28.0245 61.4983C28.0245 61.5774 27.9954 61.6565 27.9412 61.7107C27.887 61.7689 27.8119 61.7981 27.7286 61.7981H27.7327ZM23.2058 47.43C23.1808 47.43 23.1599 47.4342 23.1391 47.4425C23.0765 47.4675 23.0099 47.53 23.014 47.634L23.8811 61.5191C23.8852 61.6191 23.9686 61.6982 24.0686 61.6982H27.7327C27.7828 61.6982 27.8328 61.6773 27.8703 61.6399C27.9078 61.6024 27.9245 61.5524 27.9245 61.5025L27.6786 53.4421C27.6786 53.4046 27.666 53.3671 27.641 53.3338L23.36 47.5091C23.3183 47.4509 23.2641 47.43 23.2099 47.43H23.2058Z" fill="white"/>
<path d="M101.174 22.4238C100.919 21.4162 100.407 20.417 99.6062 19.7342C98.6725 18.9348 97.472 18.3145 96.3715 17.7732C95.221 17.207 93.9704 16.9447 92.8074 16.4201C92.8033 16.4201 92.7949 16.4159 92.7908 16.4118C91.7486 15.9121 90.6815 15.4542 89.6102 15.0253C88.7015 14.6631 87.7803 14.3342 86.8549 14.0219C86.3463 13.7638 85.8377 13.5057 85.325 13.2517C83.1324 12.165 80.994 11.12 78.6221 10.4664C76.3086 9.82936 74.0243 9.18819 71.7483 8.41378C69.3889 7.6144 67.0337 6.8067 64.6535 6.07393C62.2525 5.33284 59.8264 4.72081 57.3837 4.14209C57.0627 4.06715 56.7459 3.98804 56.425 3.90894C55.4162 3.53839 54.3491 3.34687 53.3778 2.8764C52.5733 2.48504 51.9272 1.87718 51.2394 1.31511C49.8971 0.220126 48.3256 -0.487659 46.6665 0.399154C45.9079 0.807172 45.2826 1.42336 44.6407 1.98959C43.8445 2.68905 42.9316 3.24279 42.0187 3.77571C41.4393 4.11295 40.8474 4.41688 40.2388 4.68334C39.676 4.87486 39.1049 5.03723 38.5338 5.19961C36.2328 5.84494 33.9193 6.41117 31.6434 7.12728C29.5216 7.58526 27.3915 8.0474 25.3198 8.6969C22.7228 9.50877 20.1925 10.5163 17.6373 11.4364C15.2404 12.2983 12.7476 12.8978 10.4341 13.9761C8.30404 14.967 6.22396 16.0246 4.06052 16.9447C2.95588 17.4152 1.82622 18.1521 0.642371 19.1263C0.0921322 19.755 -0.253852 20.5502 0.238029 21.3121C0.559002 21.8118 1.2343 21.9325 1.77203 22.0324C2.03464 22.0824 2.29309 22.1365 2.55153 22.1906C2.65575 22.2198 2.75996 22.2448 2.86 22.2697C4.95258 22.8151 7.066 23.0858 9.18775 22.6361C11.322 22.1865 13.4021 21.4828 15.4113 20.646C17.2496 19.8799 19.0087 19.0264 20.9304 18.4727C24.9696 17.3027 29.2673 17.4526 33.3316 16.4492C40.097 14.7839 48.6758 14.5715 49.5053 14.534C51.5437 14.4425 54.545 14.9712 56.5875 14.9379C60.5392 14.8671 64.3909 16.0495 68.2801 16.5866C75.2748 17.5442 82.4738 17.6192 88.714 21.3121C89.5018 21.7784 90.2897 22.2572 91.0817 22.7194C91.5402 23.0483 91.9904 23.3939 92.4573 23.7103C93.5411 24.443 94.6958 25.0634 95.9671 25.3965C96.5591 25.5505 97.1802 25.6588 97.7388 25.9294C98.2473 26.175 98.66 26.5914 99.1936 26.7871C100.219 27.1618 100.953 26.2916 101.211 25.384C101.482 24.443 101.411 23.3772 101.169 22.4363L101.174 22.4238Z" fill="white"/>
<path d="M39.0252 24.4056C36.9493 23.3315 34.615 22.7361 32.4724 21.8077C30.6008 20.9958 28.9709 19.8758 26.8783 19.7301C24.6273 19.5761 22.3763 19.9716 20.2754 20.7585C18.7623 21.3289 17.2575 22.045 15.6818 22.4114C15.4442 22.4447 15.2107 22.478 14.9731 22.4988C14.5521 22.5363 14.1353 22.5612 13.7142 22.5571C13.4058 22.5571 12.7513 22.5363 12.447 22.911C12.3261 23.0609 12.2261 23.2316 12.1969 23.4189C12.1761 23.5646 12.1719 23.6854 12.1969 23.8311C12.2136 23.9269 12.2553 24.0143 12.297 24.1017C12.4262 24.3682 12.6846 24.6097 12.6971 24.6221C12.9848 24.8886 13.3849 24.9927 13.7934 25.0343C14.5188 25.1093 15.2441 24.9719 15.9694 25.0343C16.7697 25.1051 17.4367 25.4215 18.1537 25.7629C19.5126 26.4083 20.9757 26.3375 22.4389 26.4083C23.2309 26.4457 24.0271 26.4874 24.8232 26.4957C25.0733 26.4957 25.336 26.4999 25.5986 26.4957C26.4906 26.5706 27.3785 26.6539 28.2747 26.6664C29.5961 26.6872 30.9676 26.554 32.2806 26.758C34.1106 27.0411 35.6655 28.236 37.4662 28.6315C38.6793 28.898 40.5301 28.8356 40.801 27.2951C41.0136 26.0918 40.034 24.9261 39.0294 24.4056H39.0252Z" fill="white"/>
<path d="M45.6116 22.5859C46.3286 22.003 47.1039 21.5242 47.7626 20.8622C48.2544 20.3709 48.8089 19.6839 48.317 19.0053C48.1211 18.7347 47.8334 18.5848 47.5291 18.4724C47.0706 18.3058 46.6371 18.0602 46.1577 17.9478C45.1406 17.7021 44.0443 17.7354 43.0147 17.8687C42.1726 17.9769 41.3056 18.0227 40.4636 18.1435C40.2801 18.1684 40.0967 18.1809 39.9133 18.1726C38.9004 18.1226 37.8916 18.081 36.8828 18.2184C36.3368 18.2933 35.749 18.2517 35.2988 18.6139C35.007 18.8512 34.8194 19.1635 34.7903 19.5132C34.6902 19.9213 34.8695 20.2751 35.2154 20.475C35.2363 20.4875 35.2571 20.4958 35.2821 20.5083C35.3822 20.5583 35.4906 20.5999 35.6114 20.6249C36.1075 20.7206 36.6202 20.6623 37.1204 20.7664C37.5706 20.858 38.0083 21.0121 38.4585 21.1078C39.4214 21.3077 40.351 21.595 41.1889 22.1404C41.9267 22.6192 42.4269 23.3311 43.369 23.4144C44.2194 23.4852 44.9697 23.1105 45.6075 22.59L45.6116 22.5859Z" fill="white"/>
<path d="M58.3215 22.9619C58.7258 22.7663 59.1301 22.5581 59.5303 22.3457C59.5678 22.3291 59.6054 22.3166 59.6304 22.2916C60.1014 22.0418 60.5724 21.7878 61.0476 21.5505C61.6562 21.2424 62.3065 20.8053 62.9985 20.722C63.6905 20.6429 64.2157 20.7262 64.8243 20.2932C65.1119 20.0892 65.3287 19.7269 65.2036 19.3606C64.7868 18.124 63.5196 17.6327 62.3315 17.4204C60.9976 17.1831 59.6429 17.1831 58.2965 17.1664C56.404 17.1414 54.3447 16.9249 52.5231 17.5661C52.1896 17.6827 51.9145 17.8451 51.6978 18.0407C51.6686 18.0532 51.6394 18.0616 51.6144 18.0782C51.3976 18.2031 51.21 18.3863 51.0766 18.5986C50.789 19.0441 50.6723 19.6562 50.8432 20.1641C51.01 20.6554 51.4101 20.9926 51.7853 21.3215C52.2605 21.7337 52.769 22.1792 53.1275 22.6996C53.4485 23.1659 53.6945 23.6572 54.228 23.9154C54.7616 24.1777 55.3827 24.1652 55.9538 24.0444C56.5707 23.9154 57.1793 23.6198 57.7337 23.3283C57.9338 23.2242 58.1255 23.091 58.3215 22.9619Z" fill="white"/>
<path d="M51.7642 24.6049C51.4516 23.9887 50.9347 23.1894 50.2761 22.9187C50.0802 22.8396 49.8967 22.7689 49.6925 22.7897C49.6508 22.7855 49.6091 22.7814 49.5716 22.7814C48.938 22.773 48.4795 23.2851 48.0376 23.6682C47.4207 24.2052 46.7412 24.6882 46.0201 25.0712C45.3156 25.4418 44.4819 25.625 43.8858 26.1746C42.7853 27.1904 43.1938 28.9682 43.4815 30.2381C43.669 31.0791 44.6736 34.1018 44.8946 35.0052C45.1322 35.9753 45.7574 37.5741 46.1701 41.088C46.6203 44.9392 46.8037 48.857 45.7866 52.6124C45.3156 54.3444 44.6903 56.0265 44.1567 57.7418C43.7024 59.2073 43.2439 60.6978 43.4856 62.2425C43.9483 65.2277 46.662 67.1179 48.1293 69.5868C48.5878 70.357 49.5716 69.9324 49.6716 69.1705C50.0426 66.3685 53.0273 64.7863 53.59 62.001C53.936 60.3023 53.6859 58.5911 53.2649 56.9299C52.7938 55.0855 52.3728 53.3077 52.2061 51.405C52.0227 49.2734 51.9768 47.1333 51.9601 44.9933C51.956 44.0815 51.7809 43.2946 52.1436 41.2504C52.402 39.7724 53.1231 38.5275 53.5858 37.1036C54.0819 35.5756 54.678 34.0268 54.9239 32.4281C55.1532 30.9667 55.024 29.447 54.2195 28.1772C53.4441 26.949 52.427 25.9081 51.7684 24.6049H51.7642Z" fill="white"/>
<path d="M89.4011 23.9977C88.5966 23.5897 87.6879 23.5772 86.8959 23.1608C86.1664 22.7778 85.5411 22.274 84.7699 21.9618C83.1693 21.3123 81.381 20.9251 79.7136 20.4629C78.2088 20.0466 76.7248 19.2472 75.1783 19.0515C73.4567 18.835 71.6184 19.4595 70.0552 20.1215C68.2336 20.8918 66.537 21.9243 64.6987 22.6529C63.0522 23.3065 61.514 23.5355 59.7757 23.6771C58.6252 23.7729 57.6707 24.2308 57.5081 25.4549C57.5039 25.4882 57.5081 25.5257 57.4998 25.559C57.4956 25.584 57.4831 25.6048 57.4831 25.6339C57.4831 25.7172 57.4789 25.8046 57.4747 25.8879C57.4706 25.9878 57.4622 26.0877 57.4622 26.1918C57.4414 26.6165 57.4122 27.037 57.4497 27.4658C57.4956 27.9613 57.4956 28.5442 57.654 29.0188C57.9458 29.9098 58.917 29.8598 59.6799 29.7932C60.822 29.6974 61.9309 29.5642 63.0605 29.3477C63.1939 29.3227 63.3315 29.2977 63.4649 29.2728C63.9192 29.2228 64.3694 29.1645 64.8238 29.1395C65.6616 29.0979 66.4828 29.227 67.3124 29.3435C68.6171 29.5267 69.8093 29.1687 70.9681 28.5816C72.127 27.9946 73.2233 27.2368 74.5155 26.9787C74.7031 26.9412 74.8948 26.9121 75.0866 26.8871C76.1954 26.858 77.325 26.9329 78.3755 26.9204C81.9771 26.8871 85.6954 26.3334 89.1927 25.5048C89.8638 25.3466 90.0222 24.3141 89.3886 23.9935L89.4011 23.9977Z" fill="white"/>
<path d="M17.5663 46.4147C17.7965 46.4147 17.9831 46.2283 17.9831 45.9984C17.9831 45.7684 17.7965 45.582 17.5663 45.582C17.336 45.582 17.1494 45.7684 17.1494 45.9984C17.1494 46.2283 17.336 46.4147 17.5663 46.4147Z" fill="#256547"/>
<path d="M20.742 48.0417C20.9723 48.0417 21.1589 47.8553 21.1589 47.6253C21.1589 47.3954 20.9723 47.209 20.742 47.209C20.5118 47.209 20.3252 47.3954 20.3252 47.6253C20.3252 47.8553 20.5118 48.0417 20.742 48.0417Z" fill="#256547"/>
<path d="M16.7362 43.9753C16.9664 43.9753 17.153 43.7889 17.153 43.5589C17.153 43.329 16.9664 43.1426 16.7362 43.1426C16.506 43.1426 16.3193 43.329 16.3193 43.5589C16.3193 43.7889 16.506 43.9753 16.7362 43.9753Z" fill="#256547"/>
<path d="M19.0461 45.531C19.1934 45.531 19.3129 45.4117 19.3129 45.2645C19.3129 45.1173 19.1934 44.998 19.0461 44.998C18.8987 44.998 18.7793 45.1173 18.7793 45.2645C18.7793 45.4117 18.8987 45.531 19.0461 45.531Z" fill="#256547"/>
<path d="M19.4963 48.1579C19.6436 48.1579 19.7631 48.0386 19.7631 47.8915C19.7631 47.7443 19.6436 47.625 19.4963 47.625C19.3489 47.625 19.2295 47.7443 19.2295 47.8915C19.2295 48.0386 19.3489 48.1579 19.4963 48.1579Z" fill="#256547"/>
<path d="M19.9924 50.99C20.1397 50.99 20.2592 50.8707 20.2592 50.7235C20.2592 50.5763 20.1397 50.457 19.9924 50.457C19.845 50.457 19.7256 50.5763 19.7256 50.7235C19.7256 50.8707 19.845 50.99 19.9924 50.99Z" fill="#256547"/>
<path d="M18.1828 48.0798C18.3301 48.0798 18.4496 47.9605 18.4496 47.8133C18.4496 47.6662 18.3301 47.5469 18.1828 47.5469C18.0355 47.5469 17.916 47.6662 17.916 47.8133C17.916 47.9605 18.0355 48.0798 18.1828 48.0798Z" fill="#256547"/>
<path d="M20.776 49.9575C20.944 49.9575 21.0803 49.8214 21.0803 49.6535C21.0803 49.4857 20.944 49.3496 20.776 49.3496C20.6079 49.3496 20.4717 49.4857 20.4717 49.6535C20.4717 49.8214 20.6079 49.9575 20.776 49.9575Z" fill="#256547"/>
<path d="M20.4758 44.6364C20.6231 44.6364 20.7425 44.5171 20.7425 44.37C20.7425 44.2228 20.6231 44.1035 20.4758 44.1035C20.3284 44.1035 20.209 44.2228 20.209 44.37C20.209 44.5171 20.3284 44.6364 20.4758 44.6364Z" fill="#256547"/>
<path d="M16.8283 41.031C16.9756 41.031 17.0951 40.9117 17.0951 40.7645C17.0951 40.6173 16.9756 40.498 16.8283 40.498C16.681 40.498 16.5615 40.6173 16.5615 40.7645C16.5615 40.9117 16.681 41.031 16.8283 41.031Z" fill="#256547"/>
<path d="M19.4963 43.1462C19.6436 43.1462 19.7631 43.0269 19.7631 42.8797C19.7631 42.7326 19.6436 42.6133 19.4963 42.6133C19.3489 42.6133 19.2295 42.7326 19.2295 42.8797C19.2295 43.0269 19.3489 43.1462 19.4963 43.1462Z" fill="#256547"/>
<path d="M19.2626 49.6901C19.4928 49.6901 19.6794 49.5037 19.6794 49.2738C19.6794 49.0438 19.4928 48.8574 19.2626 48.8574C19.0323 48.8574 18.8457 49.0438 18.8457 49.2738C18.8457 49.5037 19.0323 49.6901 19.2626 49.6901Z" fill="#256547"/>
<path d="M17.8124 41.7135C18.0426 41.7135 18.2292 41.5271 18.2292 41.2972C18.2292 41.0673 18.0426 40.8809 17.8124 40.8809C17.5821 40.8809 17.3955 41.0673 17.3955 41.2972C17.3955 41.5271 17.5821 41.7135 17.8124 41.7135Z" fill="#256547"/>
<path d="M34.6442 46.1641C34.9066 46.1641 35.1194 45.9516 35.1194 45.6895C35.1194 45.4273 34.9066 45.2148 34.6442 45.2148C34.3817 45.2148 34.1689 45.4273 34.1689 45.6895C34.1689 45.9516 34.3817 46.1641 34.6442 46.1641Z" fill="#256547"/>
<path d="M32.9354 49.6198C33.1656 49.6198 33.3523 49.4334 33.3523 49.2035C33.3523 48.9735 33.1656 48.7871 32.9354 48.7871C32.7052 48.7871 32.5186 48.9735 32.5186 49.2035C32.5186 49.4334 32.7052 49.6198 32.9354 49.6198Z" fill="#256547"/>
<path d="M37.9793 51.5729C38.2096 51.5729 38.3962 51.3865 38.3962 51.1566C38.3962 50.9266 38.2096 50.7402 37.9793 50.7402C37.7491 50.7402 37.5625 50.9266 37.5625 51.1566C37.5625 51.3865 37.7491 51.5729 37.9793 51.5729Z" fill="#256547"/>
<path d="M30.9178 45.694C31.148 45.694 31.3347 45.5076 31.3347 45.2777C31.3347 45.0477 31.148 44.8613 30.9178 44.8613C30.6876 44.8613 30.501 45.0477 30.501 45.2777C30.501 45.5076 30.6876 45.694 30.9178 45.694Z" fill="#256547"/>
<path d="M34.2775 43.1618C34.4249 43.1618 34.5443 43.0425 34.5443 42.8954C34.5443 42.7482 34.4249 42.6289 34.2775 42.6289C34.1302 42.6289 34.0107 42.7482 34.0107 42.8954C34.0107 43.0425 34.1302 43.1618 34.2775 43.1618Z" fill="#256547"/>
<path d="M31.5969 47.8923C31.7442 47.8923 31.8636 47.773 31.8636 47.6258C31.8636 47.4787 31.7442 47.3594 31.5969 47.3594C31.4495 47.3594 31.3301 47.4787 31.3301 47.6258C31.3301 47.773 31.4495 47.8923 31.5969 47.8923Z" fill="#256547"/>
<path d="M34.7238 47.6247C34.8712 47.6247 34.9906 47.5054 34.9906 47.3583C34.9906 47.2111 34.8712 47.0918 34.7238 47.0918C34.5765 47.0918 34.457 47.2111 34.457 47.3583C34.457 47.5054 34.5765 47.6247 34.7238 47.6247Z" fill="#256547"/>
<path d="M36.5783 50.49C36.7256 50.49 36.8451 50.3707 36.8451 50.2235C36.8451 50.0763 36.7256 49.957 36.5783 49.957C36.431 49.957 36.3115 50.0763 36.3115 50.2235C36.3115 50.3707 36.431 50.49 36.5783 50.49Z" fill="#256547"/>
<path d="M36.8449 45.9567C36.9922 45.9567 37.1117 45.8375 37.1117 45.6903C37.1117 45.5431 36.9922 45.4238 36.8449 45.4238C36.6976 45.4238 36.5781 45.5431 36.5781 45.6903C36.5781 45.8375 36.6976 45.9567 36.8449 45.9567Z" fill="#256547"/>
<path d="M33.2023 45.5446C33.3497 45.5446 33.4691 45.4253 33.4691 45.2782C33.4691 45.131 33.3497 45.0117 33.2023 45.0117C33.055 45.0117 32.9355 45.131 32.9355 45.2782C32.9355 45.4253 33.055 45.5446 33.2023 45.5446Z" fill="#256547"/>
<path d="M35.4113 41.8962C35.5587 41.8962 35.6781 41.7769 35.6781 41.6297C35.6781 41.4826 35.5587 41.3633 35.4113 41.3633C35.264 41.3633 35.1445 41.4826 35.1445 41.6297C35.1445 41.7769 35.264 41.8962 35.4113 41.8962Z" fill="#256547"/>
<path d="M35.9406 52.5349C36.088 52.5349 36.2074 52.4156 36.2074 52.2684C36.2074 52.1213 36.088 52.002 35.9406 52.002C35.7933 52.002 35.6738 52.1213 35.6738 52.2684C35.6738 52.4156 35.7933 52.5349 35.9406 52.5349Z" fill="#256547"/>
<path d="M37.1115 49.2028C37.2588 49.2028 37.3783 49.0835 37.3783 48.9364C37.3783 48.7892 37.2588 48.6699 37.1115 48.6699C36.9642 48.6699 36.8447 48.7892 36.8447 48.9364C36.8447 49.0835 36.9642 49.2028 37.1115 49.2028Z" fill="#256547"/>
<path d="M35.2616 43.8444C35.4918 43.8444 35.6784 43.658 35.6784 43.4281C35.6784 43.1981 35.4918 43.0117 35.2616 43.0117C35.0314 43.0117 34.8447 43.1981 34.8447 43.4281C34.8447 43.658 35.0314 43.8444 35.2616 43.8444Z" fill="#256547"/>
<path d="M30.8929 67.3486C29.2755 67.3486 27.679 66.824 26.4201 65.7873C24.4484 64.1677 23.8732 61.7695 24.8403 59.209C24.9195 58.9925 25.1612 58.8843 25.378 58.9675C25.5947 59.0466 25.7031 59.2881 25.6198 59.5046C24.7861 61.7113 25.2696 63.768 26.9453 65.1461C28.942 66.7865 32.0392 66.9572 34.3069 65.5541C35.4449 64.8463 36.4703 63.9637 37.4582 63.1102C38.5629 62.1567 39.7009 61.17 41.039 60.3914C43.44 58.9925 46.2496 58.1182 48.9632 57.8726C50.268 54.904 53.8654 53.4385 57.3711 52.0063C60.2515 50.828 63.0277 49.6955 64.42 47.7887C63.011 47.3141 61.873 46.4106 61.452 44.8535C61.131 43.6544 61.3811 42.5511 62.1398 41.835C62.7484 41.2604 63.5946 41.0564 64.3491 41.302C65.2203 41.5893 65.8414 42.4303 66.0582 43.6086C66.3208 45.0575 66.1624 46.2565 65.7038 47.2724C67.5046 47.593 69.5972 47.339 70.9728 47.0018C74.441 46.1483 76.4002 43.7793 78.4761 41.2687C80.2393 39.1371 82.061 36.9346 84.8663 35.798C86.8839 34.9819 89.3891 35.0152 91.5943 35.0402C91.9944 35.0444 92.403 35.0569 92.7781 35.0527C97.5219 35.0527 101.144 33.862 103.795 31.4222C99.2059 30.5937 94.2538 29.5403 92.2237 26.3053C90.623 23.7573 90.1103 20.7388 90.8439 18.2324C91.44 16.2048 92.8281 14.631 94.8665 13.6734C97.3509 12.5077 100.648 12.9282 103.27 14.7518C106.463 16.9709 108.277 19.4856 108.664 22.2335C109.044 24.9189 108.035 27.7459 105.675 30.6353C105.609 30.7144 105.546 30.7935 105.479 30.8726C107.122 31.1682 108.648 31.4638 109.823 31.8552C113.325 33.0293 115.471 36.4475 114.925 39.9906C114.446 43.1007 111.699 46.4689 105.421 46.5855H105.413C105.188 46.5855 105 46.4023 104.996 46.1774C104.996 45.9484 105.175 45.7569 105.404 45.7528C109.181 45.682 113.45 44.0999 114.1 39.8657C114.583 36.7264 112.67 33.6913 109.556 32.6462C108.314 32.2299 106.617 31.9218 104.813 31.6012C101.974 34.4782 98.0221 35.8812 92.7823 35.8812C92.403 35.8771 91.9944 35.8771 91.5901 35.8687C89.3558 35.8396 87.0465 35.8105 85.1832 36.564C82.5737 37.6216 80.8938 39.6492 79.1222 41.7933C77.0504 44.2956 74.912 46.8852 71.1771 47.8053C69.6431 48.1842 67.3087 48.4465 65.2953 48.0177C63.8155 50.2701 60.7225 51.5316 57.6962 52.7682C54.4156 54.1088 51.2642 55.3953 49.947 57.8018C51.0475 57.7601 52.1188 57.8268 53.1275 58.0058C56.8417 58.6678 57.271 60.254 57.2002 61.145C57.0459 62.9603 54.4698 64.8338 52.0979 64.8547C52.0854 64.8547 52.0688 64.8547 52.0562 64.8547C50.0345 64.8547 48.7423 63.539 48.5089 61.2408C48.413 60.304 48.4797 59.4755 48.6756 58.7302C46.2037 59.0092 43.6609 59.8294 41.4725 61.1034C40.2053 61.8403 39.0923 62.8021 38.021 63.7305C37.008 64.609 35.9618 65.5125 34.7654 66.2536C33.5857 66.9822 32.2435 67.3444 30.9096 67.3444L30.8929 67.3486ZM49.5635 58.6553C49.3176 59.3881 49.23 60.2166 49.3259 61.1617C49.5677 63.5473 50.9433 64.0469 52.0771 64.0261C53.9988 64.0095 56.2414 62.469 56.3581 61.0784C56.4457 60.0334 55.2451 59.234 52.9733 58.8301C51.8978 58.6386 50.7473 58.5845 49.5677 58.6553H49.5635ZM63.6988 42.0306C63.3487 42.0306 62.9943 42.1722 62.7109 42.4387C62.1815 42.9383 62.0147 43.7418 62.2565 44.637C62.6067 45.9401 63.6071 46.6854 64.8535 47.0684C65.3078 46.1525 65.4704 45.07 65.2328 43.7543C65.0744 42.8717 64.6659 42.2805 64.0865 42.0889C63.9614 42.0473 63.828 42.0265 63.6988 42.0265V42.0306ZM97.9304 13.8525C96.9674 13.8525 96.042 14.0398 95.2167 14.427C93.4034 15.2805 92.1654 16.6753 91.6401 18.4655C90.9815 20.7138 91.4734 23.545 92.924 25.8598C94.8457 28.92 100.144 29.9233 104.508 30.7019C104.683 30.5104 104.854 30.3147 105.021 30.1107C107.23 27.4086 108.176 24.794 107.83 22.35C107.476 19.8395 105.78 17.5121 102.787 15.4346C101.29 14.3937 99.5561 13.8525 97.9262 13.8525H97.9304Z" fill="white"/>
<path d="M105.404 46.585C105.196 46.585 105.017 46.431 104.992 46.2186C104.962 45.9896 105.125 45.7815 105.354 45.7523C105.729 45.7065 106.455 44.8697 107.005 43.8496C107.714 42.5423 108.61 41.9261 110.202 41.6513C110.436 41.6097 110.677 41.5889 110.919 41.5639C111.549 41.5014 112.141 41.4431 112.591 41.0976C113.55 40.3606 113.766 40.1733 114.2 39.1866C114.292 38.9784 114.537 38.8826 114.75 38.9742C114.959 39.0658 115.054 39.3115 114.963 39.5238C114.45 40.6854 114.108 40.9852 113.095 41.7596C112.457 42.2509 111.682 42.3258 110.998 42.3924C110.773 42.4132 110.552 42.4382 110.34 42.4715C109.002 42.7005 108.318 43.1626 107.735 44.2451C107.455 44.7614 106.467 46.4518 105.454 46.5767C105.438 46.5767 105.421 46.5767 105.404 46.5767V46.585Z" fill="white"/>
</g>
<defs>
<clipPath id="clip0_210_7965">
<rect width="115" height="70" fill="white"/>
</clipPath>
</defs>
</svg>
