<svg width="14" height="14" viewBox="0 0 14 14" fill="none" xmlns="http://www.w3.org/2000/svg">
<g clip-path="url(#clip0_4_1015)">
<path d="M13.2969 7C13.2969 3.25391 10.4785 0.21875 7 0.21875C3.52148 0.21875 0.703125 3.25391 0.703125 7C0.703125 10.3846 3.0058 13.1901 6.01611 13.6992V8.96027H4.4165V7H6.01611V5.50594C6.01611 3.80652 6.95557 2.86781 8.39445 2.86781C9.08356 2.86781 9.80414 3.00016 9.80414 3.00016V4.66813H9.00992C8.22789 4.66813 7.98389 5.19094 7.98389 5.72715V7H9.73025L9.45096 8.96027H7.98389V13.6992C10.9942 13.1901 13.2969 10.3846 13.2969 7Z" fill="black"/>
</g>
<defs>
<clipPath id="clip0_4_1015">
<rect width="13" height="14" fill="white" transform="translate(0.5)"/>
</clipPath>
</defs>
</svg>
