<svg width="14" height="14" viewBox="0 0 14 14" fill="none" xmlns="http://www.w3.org/2000/svg">
<g clip-path="url(#clip0_4_1014)">
<path d="M7.01504 0.21875C3.18609 0.21875 0.21875 3.01711 0.21875 6.79684C0.21875 8.77379 1.03113 10.4822 2.35348 11.6624C2.5818 11.8677 2.53477 11.9867 2.57359 13.2546C2.57665 13.3434 2.60139 13.4301 2.64566 13.5072C2.68992 13.5843 2.75237 13.6493 2.82755 13.6967C2.90274 13.7441 2.98837 13.7723 3.07698 13.779C3.16559 13.7857 3.2545 13.7706 3.33594 13.735C4.7827 13.0979 4.80129 13.0476 5.04656 13.1143C9.23809 14.268 13.7812 11.5855 13.7812 6.79684C13.7812 3.01711 10.8443 0.21875 7.01504 0.21875ZM11.0958 5.2809L9.09973 8.44102C9.02435 8.55985 8.92524 8.66183 8.80861 8.74057C8.69198 8.8193 8.56035 8.87311 8.42195 8.8986C8.28356 8.92409 8.1414 8.92072 8.00437 8.8887C7.86734 8.85669 7.73839 8.79671 7.62563 8.71254L6.0375 7.52391C5.9665 7.47066 5.88015 7.44188 5.79141 7.44188C5.70266 7.44188 5.61631 7.47066 5.54531 7.52391L3.40238 9.14922C3.11637 9.36606 2.74176 9.02344 2.93453 8.72074L4.93062 5.56063C5.00597 5.44176 5.10507 5.33975 5.2217 5.26099C5.33833 5.18223 5.46997 5.12841 5.60837 5.10292C5.74678 5.07742 5.88896 5.0808 6.02599 5.11284C6.16303 5.14488 6.29197 5.20489 6.40473 5.2891L7.9923 6.47746C8.0633 6.53071 8.14965 6.55949 8.2384 6.55949C8.32714 6.55949 8.4135 6.53071 8.48449 6.47746L10.6285 4.85379C10.914 4.63559 11.2886 4.97793 11.0958 5.2809Z" fill="black"/>
</g>
<defs>
<clipPath id="clip0_4_1014">
<rect width="14" height="14" fill="white"/>
</clipPath>
</defs>
</svg>
