<svg width="24" height="21" viewBox="0 0 24 21" fill="none" xmlns="http://www.w3.org/2000/svg">
<path fill-rule="evenodd" clip-rule="evenodd" d="M11.556 17.7452C11.6989 17.829 11.8516 17.8661 12 17.8643C12.1484 17.8661 12.3011 17.829 12.444 17.7452L13.7112 17.0021C16.1966 15.5446 19.2363 15.3065 21.9274 16.3586C22.9201 16.7467 24 16.0322 24 14.9871V2.26687C24 1.6363 23.6072 1.06927 23.0082 0.835083C19.5421 -0.520022 15.627 -0.213417 12.4259 1.66384L12 1.9136L11.5741 1.66384C8.37295 -0.213417 4.45794 -0.520022 0.991794 0.835083C0.392785 1.06927 0 1.6363 0 2.26687V14.9871C0 16.0322 1.07988 16.7467 2.07261 16.3586C4.76374 15.3065 7.80337 15.5446 10.2888 17.0021L11.556 17.7452ZM1.67442 2.33105V14.7544C4.7953 13.611 8.28479 13.9184 11.1502 15.5987L11.1628 15.6061V3.33117L10.7126 3.06717C7.97887 1.46402 4.63963 1.19307 1.67442 2.33105ZM12.8498 15.5987L12.8372 15.6061V3.33117L13.2874 3.06717C16.0211 1.46402 19.3604 1.19307 22.3256 2.33105V14.7544C19.2047 13.611 15.7152 13.9184 12.8498 15.5987Z" fill="#668C65"/>
<path d="M8.95832 18.1884C6.69913 16.9004 3.90552 16.9004 1.64633 18.1884L1.53164 18.2538C1.13225 18.4816 0.997346 18.9826 1.23032 19.373C1.4633 19.7633 1.97594 19.8952 2.37533 19.6675L2.49002 19.6021C4.22786 18.6113 6.37679 18.6113 8.11463 19.6021L9.32831 20.294C10.9793 21.2353 13.0207 21.2353 14.6717 20.294L15.8854 19.6021C17.6232 18.6113 19.7721 18.6113 21.51 19.6021L21.6247 19.6675C22.0241 19.8952 22.5367 19.7633 22.7697 19.373C23.0027 18.9826 22.8678 18.4816 22.4684 18.2538L22.3537 18.1884C20.0945 16.9004 17.3009 16.9004 15.0417 18.1884L13.828 18.8804C12.6984 19.5245 11.3016 19.5245 10.172 18.8804L8.95832 18.1884Z" fill="#668C65"/>
</svg>
