<svg width="14" height="14" viewBox="0 0 14 14" fill="none" xmlns="http://www.w3.org/2000/svg">
<g clip-path="url(#clip0_4_1013)">
<path d="M7.00088 3.85537C5.26182 3.85537 3.85908 5.25811 3.85908 6.99717C3.85908 8.73623 5.26182 10.139 7.00088 10.139C8.73994 10.139 10.1427 8.73623 10.1427 6.99717C10.1427 5.25811 8.73994 3.85537 7.00088 3.85537ZM7.00088 9.03975C5.87705 9.03975 4.9583 8.12373 4.9583 6.99717C4.9583 5.8706 5.87432 4.95459 7.00088 4.95459C8.12744 4.95459 9.04346 5.8706 9.04346 6.99717C9.04346 8.12373 8.12471 9.03975 7.00088 9.03975ZM11.004 3.72686C11.004 4.13428 10.6759 4.45967 10.2712 4.45967C9.86377 4.45967 9.53838 4.13154 9.53838 3.72686C9.53838 3.32217 9.8665 2.99404 10.2712 2.99404C10.6759 2.99404 11.004 3.32217 11.004 3.72686ZM13.0849 4.47061C13.0384 3.48896 12.8142 2.61943 12.095 1.90303C11.3786 1.18662 10.5091 0.962402 9.52744 0.913184C8.51572 0.855762 5.4833 0.855762 4.47158 0.913184C3.49268 0.959668 2.62314 1.18389 1.904 1.90029C1.18486 2.6167 0.963379 3.48623 0.91416 4.46787C0.856738 5.47959 0.856738 8.51201 0.91416 9.52373C0.960645 10.5054 1.18486 11.3749 1.904 12.0913C2.62314 12.8077 3.48994 13.0319 4.47158 13.0812C5.4833 13.1386 8.51572 13.1386 9.52744 13.0812C10.5091 13.0347 11.3786 12.8104 12.095 12.0913C12.8114 11.3749 13.0356 10.5054 13.0849 9.52373C13.1423 8.51201 13.1423 5.48232 13.0849 4.47061ZM11.7778 10.6093C11.5646 11.1452 11.1517 11.5581 10.613 11.7741C9.80635 12.094 7.89228 12.0202 7.00088 12.0202C6.10947 12.0202 4.19268 12.0913 3.38877 11.7741C2.85283 11.5608 2.43994 11.1479 2.22393 10.6093C1.904 9.80264 1.97783 7.88857 1.97783 6.99717C1.97783 6.10576 1.90674 4.18896 2.22393 3.38506C2.43721 2.84912 2.8501 2.43623 3.38877 2.22021C4.19541 1.90029 6.10947 1.97412 7.00088 1.97412C7.89228 1.97412 9.80908 1.90303 10.613 2.22021C11.1489 2.4335 11.5618 2.84639 11.7778 3.38506C12.0978 4.1917 12.0239 6.10576 12.0239 6.99717C12.0239 7.88857 12.0978 9.80537 11.7778 10.6093Z" fill="black"/>
</g>
<defs>
<clipPath id="clip0_4_1013">
<rect width="14" height="14" fill="white"/>
</clipPath>
</defs>
</svg>
