<svg width="45" height="40" viewBox="0 0 45 40" fill="none" xmlns="http://www.w3.org/2000/svg">
<path d="M43.8403 24.8902C43.8403 21.1102 43.7103 17.3802 43.5103 13.6102C43.3303 10.1902 43.5003 6.77018 43.5303 3.36018C43.7703 2.98018 43.7603 2.44018 43.4603 2.10018C43.2103 1.48018 42.3703 1.36018 41.8803 1.74018C40.0603 1.64018 38.2603 1.34018 36.4403 1.25018C34.4403 1.15018 32.3903 1.48018 30.4303 1.90018C28.5103 2.31018 27.2703 3.39018 25.9203 4.74018C24.9303 5.72018 23.6503 6.61018 23.2103 7.98018C22.9903 8.00018 22.7703 8.07018 22.5803 8.23018C22.3903 8.38018 22.2303 8.56018 22.1003 8.76018C22.1003 8.73018 22.1003 8.70018 22.0803 8.67018C21.6403 6.82018 20.0703 5.35018 18.9403 3.89018C17.7303 2.33018 16.6403 1.96018 14.7603 1.59018C12.6303 1.17018 10.8103 0.650182 8.61033 0.820182C7.60033 0.900182 6.58033 0.970182 5.58033 1.08018C4.70033 1.17018 3.72033 1.38018 2.85033 1.14018C2.47033 1.04018 2.17034 1.15018 1.96034 1.36018C1.51034 1.41018 1.09034 1.72018 1.09034 2.31018C1.09034 4.71018 1.20034 7.10018 1.40034 9.49018C1.59034 11.8302 2.04033 14.1902 2.02033 16.5502C2.00033 18.8902 1.47034 21.1602 0.760338 23.3802C0.440338 24.3702 0.110339 25.3602 0.120339 26.4102C0.130339 27.4402 0.52033 28.4302 0.72033 29.4302C0.98033 30.7502 0.450336 32.2202 1.82034 32.9502C3.23034 33.7002 4.86033 33.9702 6.44033 33.8802C8.63033 33.7702 10.7903 33.4902 12.9703 33.3402C14.1603 33.2602 15.3103 33.4602 16.4803 33.6302C17.4603 33.7802 17.9703 33.7102 18.5503 34.4902C18.9003 34.9602 19.4703 35.0002 19.8903 34.8002C20.3903 34.9802 20.9503 34.7602 21.1703 34.1602C21.5303 33.1802 21.7603 32.1502 22.1703 31.1902C22.1703 32.4202 22.1903 33.6502 22.1903 34.8802C22.1903 35.4002 22.5103 35.7002 22.9003 35.8002C23.0203 35.8602 23.1503 35.8902 23.2903 35.8802C23.5503 35.8702 23.8103 35.7802 24.0003 35.5902C24.0203 35.5702 24.0503 35.5502 24.0703 35.5302C24.2403 35.4202 24.4203 35.3302 24.6103 35.2402C24.7203 35.1902 24.8203 35.1402 24.9203 35.0702C25.0203 35.0102 25.1103 34.9202 25.2103 34.8402C26.2803 34.3002 27.4403 34.1802 28.6103 34.0302C29.8803 33.8702 31.1303 33.6202 32.4003 33.4902C34.8103 33.2302 37.3803 33.0102 39.8003 33.2702C40.6503 33.3602 41.4003 33.4002 42.0903 32.8202C42.7503 32.2602 43.3303 31.4402 43.6303 30.6302C44.2903 28.8402 43.8503 26.7802 43.8303 24.9202L43.8403 24.8902Z" fill="#C7D2BE"/>
<path d="M15.28 17.4997C14.93 16.6097 14.48 15.7497 13.88 14.9997C13.48 14.4897 13.01 14.0297 12.52 13.5797C12.05 12.9297 11.55 12.3497 10.88 11.8697C10.63 11.6897 10.36 11.5297 10.09 11.3797C10.02 11.3297 9.94996 11.2897 9.87996 11.2497C9.50996 11.0397 9.12996 10.8297 8.76996 10.6097C8.47996 10.4297 8.17995 10.4397 7.91995 10.5597C7.84995 10.5497 7.77996 10.5297 7.70996 10.5197C7.16996 10.4697 6.70996 11.0197 6.70996 11.5197C6.70996 11.8697 6.88996 12.1297 7.12996 12.2997C7.12996 13.2797 7.36995 14.2297 7.74995 15.1397C8.17995 16.1597 8.69996 17.2497 9.39996 18.1097C10.01 18.8597 10.85 19.3497 11.69 19.7997C12.06 19.9997 12.44 20.1897 12.76 20.4497C12.78 20.4697 12.82 20.4997 12.85 20.5297C13.02 20.8497 13.2 21.1597 13.44 21.4497C13.72 21.7897 14.3 21.8097 14.65 21.6097C15.04 21.3797 15.17 20.9497 15.11 20.5197C15.17 20.4597 15.24 20.3997 15.29 20.3097C15.78 19.4297 15.61 18.3997 15.26 17.5097L15.28 17.4997Z" fill="#FCFAF7"/>
<path d="M43.96 0H33.38C28.51 0 24.32 2.91 22.48 7.07C20.64 2.92 16.45 0 11.58 0H1C0.45 0 0 0.45 0 1V30.18C0 32.63 1.99 34.63 4.44 34.63H12.25C12.31 34.62 19.22 34.55 21.59 38.92C21.61 38.96 21.64 38.98 21.66 39.02C21.68 39.05 21.69 39.07 21.72 39.09C21.74 39.11 21.75 39.13 21.76 39.15C21.76 39.15 21.77 39.15 21.78 39.16C21.84 39.22 21.91 39.27 21.99 39.31C22.01 39.32 22.03 39.32 22.05 39.33C22.07 39.34 22.1 39.35 22.12 39.36C22.15 39.37 22.17 39.39 22.2 39.39C22.28 39.41 22.37 39.42 22.45 39.42C22.53 39.42 22.62 39.41 22.7 39.39C22.73 39.39 22.76 39.37 22.78 39.36C22.81 39.36 22.83 39.34 22.86 39.33C22.88 39.33 22.9 39.32 22.92 39.31C22.99 39.27 23.06 39.22 23.13 39.16C23.13 39.16 23.14 39.16 23.15 39.15C23.17 39.13 23.18 39.11 23.19 39.09C23.21 39.07 23.23 39.04 23.25 39.02C23.27 38.99 23.3 38.96 23.32 38.92C25.69 34.55 32.58 34.63 32.68 34.63H40.47C42.92 34.63 44.92 32.64 44.92 30.18V1C44.92 0.45 44.47 0 43.92 0H43.96ZM12.25 32.62H4.46001C3.11001 32.62 2.02 31.52 2.02 30.17V2H11.6C17.06 2 21.5 6.39 21.5 11.78V32.65C20.82 31.25 19.93 29.85 18.63 28.53C17.45 27.33 16.95 25.99 16.38 24.45C16.32 24.29 16.26 24.12 16.2 23.96C16.08 16.43 15.23 13.5 12.62 11.46C10.95 10.15 8.77 9.46 7.33 9.01C7.07 8.93 6.83001 8.85 6.62001 8.78C6.28001 8.66 5.89001 8.74 5.62001 8.99C5.35001 9.24 5.24 9.61 5.33 9.97C5.59 10.99 5.7 11.92 5.8 12.82C6.09 15.25 6.35 17.54 9.52 19.6C9.8 19.78 10.08 19.96 10.35 20.13C12.01 21.17 13.21 21.93 13.94 23.68C14.05 23.95 14.15 24.21 14.25 24.47C14.25 24.5 14.27 24.53 14.28 24.55C14.36 24.75 14.43 24.95 14.5 25.15C14.84 26.07 15.18 26.95 15.64 27.81C14.24 27.71 12.76 27.87 11.73 28.23C11.21 28.41 10.93 28.98 11.11 29.5C11.29 30.02 11.86 30.3 12.38 30.12C13.88 29.6 16.39 29.67 17.48 30.25C18.74 31.61 19.56 33.06 20.2 34.69C16.76 32.56 12.47 32.61 12.24 32.62H12.25ZM14.04 20.36C13.25 19.6 12.34 19.02 11.4 18.44C11.14 18.27 10.87 18.11 10.59 17.93C8.21001 16.39 8.04 14.88 7.77 12.6C7.72 12.16 7.66001 11.7 7.59001 11.21C8.83001 11.62 10.26 12.18 11.37 13.05C12.84 14.2 13.7 15.75 14.04 20.38V20.36ZM42.97 30.17C42.97 31.52 41.87 32.62 40.52 32.62H32.76C32.49 32.62 27.04 32.55 23.5 35.64V11.78C23.5 6.39 27.94 2 33.4 2H42.98V30.18L42.97 30.17Z" fill="#3D3B37"/>
<path d="M28.2298 16.3902C29.8698 15.4902 30.7198 15.4102 32.5698 16.0002L32.9298 16.1202C34.0398 16.4802 35.0998 16.8202 36.2498 16.8202C36.9898 16.8202 37.7598 16.6802 38.5898 16.3002C39.0898 16.0702 39.3098 15.4802 39.0898 14.9802C38.8598 14.4802 38.2698 14.2502 37.7698 14.4802C36.3598 15.1202 35.2398 14.7602 33.5598 14.2202L33.1898 14.1002C30.8198 13.3502 29.3898 13.4802 27.2698 14.6402C26.7898 14.9102 26.6098 15.5102 26.8798 16.0002C27.1498 16.4802 27.7598 16.6602 28.2398 16.3902H28.2298Z" fill="#211B10"/>
<path d="M37.76 19.8298C36.35 20.4698 35.23 20.1098 33.55 19.5698L33.18 19.4498C30.81 18.6998 29.38 18.8298 27.26 19.9898C26.78 20.2598 26.6 20.8598 26.87 21.3498C27.14 21.8398 27.75 22.0098 28.23 21.7398C29.87 20.8398 30.72 20.7598 32.57 21.3498L32.93 21.4698C34.04 21.8298 35.1 22.1698 36.25 22.1698C36.99 22.1698 37.76 22.0298 38.59 21.6498C39.09 21.4198 39.31 20.8298 39.09 20.3298C38.86 19.8298 38.27 19.5998 37.77 19.8298H37.76Z" fill="#211B10"/>
</svg>
