<svg width="48" height="41" viewBox="0 0 48 41" fill="none" xmlns="http://www.w3.org/2000/svg">
<path d="M47.0087 0H36.1966C31.2198 0 26.9379 3.02663 25.0576 7.35337C23.1772 3.03703 18.8953 0 13.9185 0H3.11666C2.5546 0 2.09473 0.468037 2.09473 1.04008V31.3896C2.09473 33.9378 4.12837 36.018 6.63211 36.018H14.6134C14.6747 36.0076 21.7363 35.9348 24.1583 40.48C24.1787 40.5216 24.2094 40.5424 24.2298 40.584C24.2502 40.6152 24.2605 40.636 24.2911 40.6568C24.3116 40.6776 24.3218 40.6984 24.332 40.7192C24.332 40.7192 24.3422 40.7192 24.3524 40.7296C24.4137 40.792 24.4853 40.844 24.567 40.8856C24.5875 40.896 24.6079 40.896 24.6284 40.9064C24.6488 40.9168 24.6795 40.9272 24.6999 40.9376C24.7305 40.948 24.751 40.9688 24.7816 40.9688C24.8634 40.9896 24.9554 41 25.0371 41C25.1189 41 25.2109 40.9896 25.2926 40.9688C25.3233 40.9688 25.3539 40.948 25.3744 40.9376C25.405 40.9376 25.4255 40.9168 25.4561 40.9064C25.4766 40.9064 25.497 40.896 25.5174 40.8856C25.589 40.844 25.6605 40.792 25.732 40.7296C25.732 40.7296 25.7423 40.7296 25.7525 40.7192C25.7729 40.6984 25.7831 40.6776 25.7934 40.6568C25.8138 40.636 25.8342 40.6048 25.8547 40.584C25.8751 40.5528 25.9058 40.5216 25.9262 40.48C28.3482 35.9348 35.3893 36.018 35.4915 36.018H43.4524C45.9561 36.018 48 33.9482 48 31.3896V1.04008C48 0.468037 47.5401 0 46.978 0H47.0087ZM14.6032 33.9274H6.64233C5.26272 33.9274 4.14881 32.7834 4.14881 31.3792V2.06977H13.9287C19.5085 2.06977 24.0459 6.63572 24.0459 12.2418V33.9483C23.3509 32.4921 22.4414 31.036 21.1129 29.6631C19.907 28.415 19.3961 27.0213 18.8136 25.4196C18.7522 25.2532 18.6909 25.0764 18.6296 24.9099C18.507 17.0781 17.6383 14.0307 14.9711 11.9089C13.2645 10.5464 11.0366 9.82877 9.56506 9.36073C9.29936 9.27752 9.05409 9.19432 8.83949 9.12152C8.49203 8.99671 8.09347 9.0799 7.81755 9.33993C7.54163 9.59995 7.42922 9.98477 7.52119 10.3592C7.78689 11.4201 7.89931 12.3874 8.0015 13.3234C8.29786 15.8508 8.56356 18.2326 11.8031 20.3752C12.0892 20.5624 12.3754 20.7496 12.6513 20.9264C14.3477 22.0081 15.574 22.7986 16.32 24.6187C16.4324 24.8995 16.5346 25.17 16.6368 25.4404C16.6368 25.4716 16.6573 25.5028 16.6675 25.5236C16.7492 25.7316 16.8208 25.9396 16.8923 26.1476C17.2398 27.1045 17.5872 28.0198 18.0573 28.9143C16.6266 28.8103 15.1142 28.9767 14.0616 29.3511C13.5302 29.5383 13.244 30.1312 13.428 30.672C13.6119 31.2128 14.1944 31.5041 14.7258 31.3168C16.2587 30.776 18.8238 30.8488 19.9377 31.4521C21.2253 32.8666 22.0633 34.3747 22.7173 36.07C19.2019 33.8546 14.8178 33.9067 14.5827 33.917L14.6032 33.9274ZM16.4325 21.1761C15.6251 20.3856 14.6952 19.7823 13.7345 19.1791C13.4688 19.0023 13.1929 18.8359 12.9068 18.6486C10.4746 17.0469 10.3008 15.4764 10.0249 13.105C9.97383 12.6474 9.91252 12.1689 9.84098 11.6593C11.1082 12.0857 12.5695 12.6682 13.7039 13.5731C15.2061 14.7692 16.085 16.3813 16.4325 21.1969V21.1761ZM45.997 31.3792C45.997 32.7834 44.8728 33.9274 43.4932 33.9274H35.563C35.2871 33.9274 29.7176 33.8546 26.0999 37.0685V12.2522C26.0999 6.64612 30.6373 2.08016 36.2171 2.08016H46.0072V31.3896L45.997 31.3792Z" fill="#3D3B37"/>
<path d="M30.934 17.0364C32.61 16.1004 33.4787 16.0172 35.3692 16.6308L35.7371 16.7556C36.8715 17.13 37.9547 17.4837 39.1299 17.4837C39.8862 17.4837 40.6731 17.338 41.5213 16.9428C42.0322 16.7036 42.2571 16.09 42.0322 15.5699C41.7972 15.0499 41.1942 14.8107 40.6833 15.0499C39.2424 15.7155 38.0978 15.3411 36.3809 14.7794L36.0028 14.6546C33.5808 13.8746 32.1195 14.0098 29.953 15.2163C29.4625 15.4971 29.2785 16.1212 29.5544 16.6308C29.8304 17.13 30.4537 17.3173 30.9443 17.0364H30.934Z" fill="#3D3B37"/>
<path d="M40.6725 20.6246C39.2316 21.2902 38.087 20.9158 36.3702 20.3541L35.9921 20.2293C33.5701 19.4493 32.1087 19.5845 29.9422 20.791C29.4517 21.0718 29.2678 21.6959 29.5437 22.2055C29.8196 22.7151 30.443 22.892 30.9335 22.6111C32.6095 21.6751 33.4781 21.5919 35.3687 22.2055L35.7366 22.3303C36.8709 22.7047 37.9542 23.0584 39.1294 23.0584C39.8857 23.0584 40.6725 22.9128 41.5207 22.5175C42.0317 22.2783 42.2565 21.6647 42.0317 21.1446C41.7967 20.6246 41.1937 20.3854 40.6828 20.6246H40.6725Z" fill="#3D3B37"/>
</svg>
