<svg width="26" height="22" viewBox="0 0 26 22" fill="none" xmlns="http://www.w3.org/2000/svg">
<path d="M23.8547 13.743C23.8547 11.6559 23.7855 9.59637 23.6789 7.51478C23.583 5.62644 23.6736 3.7381 23.6896 1.85528C23.8174 1.64547 23.8121 1.34731 23.6523 1.15958C23.5191 0.817248 23.0716 0.75099 22.8105 0.960806C21.8409 0.905591 20.882 0.739947 19.9123 0.690254C18.8468 0.635039 17.7547 0.817248 16.7105 1.04915C15.6876 1.27553 15.027 1.87185 14.3077 2.61724C13.7803 3.15835 13.0984 3.64976 12.864 4.4062C12.7468 4.41724 12.6296 4.45589 12.5283 4.54423C12.4271 4.62706 12.3419 4.72644 12.2726 4.83687C12.2726 4.82031 12.2726 4.80374 12.262 4.78718C12.0275 3.76571 11.1911 2.95405 10.5891 2.14792C9.94446 1.28657 9.36376 1.08228 8.36218 0.877984C7.22741 0.646082 6.25778 0.358966 5.08572 0.452831C4.54763 0.497003 4.00422 0.535653 3.47147 0.596389C3.00264 0.646082 2.48054 0.762033 2.01704 0.629518C1.81459 0.574303 1.65477 0.635039 1.54289 0.75099C1.30315 0.778597 1.07939 0.949763 1.07939 1.27553C1.07939 2.60068 1.13799 3.92031 1.24455 5.23994C1.34577 6.53196 1.58551 7.83503 1.57485 9.13809C1.5642 10.4301 1.28184 11.6835 0.903582 12.9092C0.7331 13.4559 0.557291 14.0025 0.562618 14.5823C0.567946 15.151 0.775716 15.6976 0.882267 16.2497C1.02078 16.9786 0.738426 17.7902 1.4683 18.1933C2.21949 18.6074 3.08788 18.7565 3.92964 18.7068C5.09637 18.646 6.24713 18.4914 7.40854 18.4086C8.04252 18.3645 8.65519 18.4749 9.27852 18.5687C9.80062 18.6516 10.0723 18.6129 10.3813 19.0436C10.5678 19.3031 10.8715 19.3252 11.0952 19.2148C11.3616 19.3141 11.6599 19.1927 11.7771 18.8614C11.9689 18.3203 12.0915 17.7516 12.3099 17.2215C12.3099 17.9007 12.3206 18.5798 12.3206 19.2589C12.3206 19.546 12.491 19.7117 12.6988 19.7669C12.7627 19.8 12.832 19.8166 12.9066 19.8111C13.0451 19.8056 13.1836 19.7559 13.2848 19.651C13.2955 19.6399 13.3115 19.6289 13.3221 19.6178C13.4127 19.5571 13.5086 19.5074 13.6098 19.4577C13.6684 19.4301 13.7217 19.4025 13.775 19.3638C13.8283 19.3307 13.8762 19.281 13.9295 19.2368C14.4995 18.9387 15.1175 18.8724 15.7409 18.7896C16.4175 18.7013 17.0834 18.5632 17.76 18.4914C19.044 18.3479 20.4131 18.2264 21.7024 18.37C22.1552 18.4197 22.5548 18.4418 22.9224 18.1215C23.274 17.8123 23.583 17.3595 23.7429 16.9123C24.0945 15.924 23.8601 14.7865 23.8494 13.7596L23.8547 13.743Z" fill="#EFECE3"/>
<path d="M8.63994 9.66271C8.45348 9.1713 8.21374 8.69646 7.89408 8.28235C7.68098 8.00075 7.43059 7.74676 7.16953 7.4983C6.91914 7.1394 6.65276 6.81916 6.29581 6.55413C6.16262 6.45474 6.01878 6.3664 5.87494 6.28358C5.83765 6.25597 5.80035 6.23388 5.76306 6.2118C5.56594 6.09585 5.36349 5.9799 5.1717 5.85842C5.0172 5.75904 4.85737 5.76456 4.71885 5.83082C4.68156 5.8253 4.64427 5.81425 4.60698 5.80873C4.31929 5.78112 4.07422 6.0848 4.07422 6.36088C4.07422 6.55413 4.17011 6.69769 4.29798 6.79155C4.29798 7.33265 4.42583 7.85719 4.62828 8.35965C4.85737 8.92284 5.13441 9.52468 5.50734 9.99952C5.83232 10.4136 6.27983 10.6842 6.72735 10.9326C6.92447 11.0431 7.12692 11.148 7.2974 11.2915C7.30805 11.3026 7.32936 11.3192 7.34535 11.3357C7.43591 11.5124 7.53181 11.6836 7.65967 11.8437C7.80884 12.0314 8.11784 12.0425 8.30431 11.932C8.51208 11.805 8.58134 11.5676 8.54937 11.3302C8.58134 11.2971 8.61864 11.2639 8.64527 11.2142C8.90632 10.7284 8.81576 10.1596 8.62929 9.66823L8.63994 9.66271Z" fill="#FCFAF7"/>
<path d="M23.92 0H18.2834C15.6889 0 13.4567 1.60675 12.4764 3.90367C11.4961 1.61227 9.26385 0 6.66932 0H1.03276C0.739741 0 0.5 0.248466 0.5 0.552146V16.6638C0.5 18.0165 1.56019 19.1208 2.86544 19.1208H7.02627C7.05824 19.1153 10.7396 19.0767 12.0022 21.4895C12.0129 21.5116 12.0289 21.5227 12.0395 21.5447C12.0502 21.5613 12.0555 21.5724 12.0715 21.5834C12.0821 21.5944 12.0875 21.6055 12.0928 21.6165C12.0928 21.6165 12.0981 21.6165 12.1034 21.622C12.1354 21.6552 12.1727 21.6828 12.2153 21.7049C12.226 21.7104 12.2366 21.7104 12.2473 21.7159C12.2579 21.7214 12.2739 21.727 12.2846 21.7325C12.3006 21.738 12.3112 21.749 12.3272 21.749C12.3698 21.7601 12.4178 21.7656 12.4604 21.7656C12.503 21.7656 12.551 21.7601 12.5936 21.749C12.6096 21.749 12.6255 21.738 12.6362 21.7325C12.6522 21.7325 12.6628 21.7214 12.6788 21.7159C12.6895 21.7159 12.7001 21.7104 12.7108 21.7049C12.7481 21.6828 12.7854 21.6552 12.8227 21.622C12.8227 21.622 12.828 21.622 12.8333 21.6165C12.844 21.6055 12.8493 21.5944 12.8546 21.5834C12.8653 21.5724 12.8759 21.5558 12.8866 21.5447C12.8973 21.5282 12.9132 21.5116 12.9239 21.4895C14.1865 19.0767 17.8572 19.1208 17.9105 19.1208H22.0607C23.3659 19.1208 24.4314 18.0221 24.4314 16.6638V0.552146C24.4314 0.248466 24.1917 0 23.8987 0H23.92ZM7.02627 18.011H2.8761C2.15688 18.011 1.57617 17.4036 1.57617 16.6583V1.10429H6.67998C9.58883 1.10429 11.9543 3.52821 11.9543 6.50428V18.0276C11.592 17.2546 11.1178 16.4816 10.4253 15.7527C9.79661 15.0902 9.53023 14.3503 9.22656 13.5C9.19459 13.4116 9.16263 13.3178 9.13067 13.2294C9.06674 9.07176 8.61389 7.45397 7.2234 6.3276C6.33369 5.60428 5.17228 5.2233 4.40511 4.97484C4.26659 4.93067 4.13873 4.88649 4.02686 4.84784C3.84572 4.78159 3.63794 4.82576 3.4941 4.96379C3.35025 5.10183 3.29165 5.30613 3.33959 5.5049C3.47811 6.06809 3.53672 6.58158 3.58999 7.07851C3.74449 8.42023 3.88301 9.68464 5.57185 10.8221C5.72102 10.9215 5.87019 11.0208 6.01404 11.1147C6.89841 11.6889 7.53772 12.1086 7.92663 13.0748C7.98523 13.2239 8.03851 13.3675 8.09178 13.511C8.09178 13.5276 8.10244 13.5441 8.10777 13.5552C8.15039 13.6656 8.18768 13.776 8.22497 13.8865C8.40611 14.3945 8.58725 14.8803 8.83232 15.3552C8.08646 15.3 7.29798 15.3883 6.74924 15.5871C6.47221 15.6865 6.32303 16.0012 6.41893 16.2883C6.51482 16.5754 6.8185 16.73 7.09553 16.6306C7.89467 16.3435 9.23189 16.3822 9.81259 16.7024C10.4839 17.4533 10.9207 18.254 11.2617 19.154C9.42901 17.9779 7.14348 18.0055 7.02095 18.011H7.02627ZM7.97991 11.2417C7.55903 10.8221 7.07422 10.5018 6.57343 10.1816C6.43492 10.0877 6.29107 9.99937 6.1419 9.89998C4.87394 9.04968 4.78337 8.21594 4.63952 6.95704C4.61288 6.7141 4.58092 6.46011 4.54363 6.18956C5.20425 6.41594 5.96609 6.72514 6.55745 7.20551C7.3406 7.84048 7.79877 8.6963 7.97991 11.2527V11.2417ZM23.3926 16.6583C23.3926 17.4036 22.8065 18.011 22.0873 18.011H17.9531C17.8093 18.011 14.9057 17.9724 13.0198 19.6785V6.50428C13.0198 3.52821 15.3852 1.10429 18.2941 1.10429H23.3979V16.6638L23.3926 16.6583Z" fill="#3D3B37"/>
<path d="M15.5402 9.04989C16.4139 8.55296 16.8668 8.50878 17.8524 8.83455L18.0442 8.90081C18.6355 9.09958 19.2002 9.28731 19.8129 9.28731C20.2071 9.28731 20.6174 9.21001 21.0596 9.00019C21.3259 8.8732 21.4431 8.54743 21.3259 8.27136C21.2034 7.99529 20.8891 7.86829 20.6227 7.99529C19.8715 8.34866 19.2748 8.14989 18.3798 7.85173L18.1827 7.78547C16.92 7.37136 16.1582 7.44314 15.0287 8.08363C14.773 8.23271 14.6771 8.564 14.821 8.83455C14.9648 9.09958 15.2898 9.19897 15.5455 9.04989H15.5402Z" fill="#211B10"/>
<path d="M20.6188 10.9489C19.8676 11.3023 19.2709 11.1035 18.3759 10.8053L18.1788 10.7391C16.9161 10.325 16.1543 10.3968 15.0248 11.0372C14.7691 11.1863 14.6732 11.5176 14.8171 11.7882C14.9609 12.0587 15.2859 12.1526 15.5416 12.0035C16.4153 11.5066 16.8682 11.4624 17.8538 11.7882L18.0456 11.8544C18.6369 12.0532 19.2017 12.2409 19.8143 12.2409C20.2086 12.2409 20.6188 12.1636 21.061 11.9538C21.3274 11.8268 21.4446 11.501 21.3274 11.225C21.2048 10.9489 20.8905 10.8219 20.6241 10.9489H20.6188Z" fill="#211B10"/>
</svg>
