<svg width="32" height="41" viewBox="0 0 32 41" fill="none" xmlns="http://www.w3.org/2000/svg">
<path fill-rule="evenodd" clip-rule="evenodd" d="M15.556 27.7452C15.6989 27.829 15.8516 27.8661 16 27.8643C16.1484 27.8661 16.3011 27.829 16.444 27.7452L17.7112 27.0021C20.1966 25.5446 23.2363 25.3065 25.9274 26.3586C26.9201 26.7467 28 26.0322 28 24.9871V12.2669C28 11.6363 27.6072 11.0693 27.0082 10.8351C23.5421 9.47998 19.627 9.78658 16.4259 11.6638L16 11.9136L15.5741 11.6638C12.373 9.78658 8.45794 9.47998 4.99179 10.8351C4.39278 11.0693 4 11.6363 4 12.2669V24.9871C4 26.0322 5.07988 26.7467 6.07261 26.3586C8.76374 25.3065 11.8034 25.5446 14.2888 27.0021L15.556 27.7452ZM5.67442 12.331V24.7544C8.7953 23.611 12.2848 23.9183 15.1502 25.5987L15.1628 25.6061V13.3312L14.7126 13.0672C11.9789 11.464 8.63963 11.1931 5.67442 12.331ZM16.8498 25.5987L16.8372 25.6061V13.3312L17.2874 13.0672C20.0211 11.464 23.3604 11.1931 26.3256 12.331V24.7544C23.2047 23.611 19.7152 23.9183 16.8498 25.5987Z" fill="#668C65"/>
<path d="M12.9583 28.1884C10.6991 26.9004 7.90552 26.9004 5.64633 28.1884L5.53164 28.2538C5.13225 28.4816 4.99735 28.9826 5.23032 29.373C5.4633 29.7633 5.97594 29.8952 6.37533 29.6675L6.49002 29.6021C8.22786 28.6113 10.3768 28.6113 12.1146 29.6021L13.3283 30.294C14.9793 31.2353 17.0207 31.2353 18.6717 30.294L19.8854 29.6021C21.6232 28.6113 23.7721 28.6113 25.51 29.6021L25.6247 29.6675C26.0241 29.8952 26.5367 29.7633 26.7697 29.373C27.0027 28.9826 26.8678 28.4816 26.4684 28.2538L26.3537 28.1884C24.0945 26.9004 21.3009 26.9004 19.0417 28.1884L17.828 28.8804C16.6984 29.5245 15.3016 29.5245 14.172 28.8804L12.9583 28.1884Z" fill="#668C65"/>
</svg>
