<svg width="23" height="20" viewBox="0 0 23 20" fill="none" xmlns="http://www.w3.org/2000/svg">
<path d="M22.5252 0H17.3444C14.9597 0 12.9079 1.4764 12.0069 3.58701C11.1059 1.48148 9.05418 0 6.66946 0H1.49358C1.22426 0 1.00391 0.228311 1.00391 0.507357V15.312C1.00391 16.555 1.97836 17.5698 3.17807 17.5698H7.00244C7.03182 17.5647 10.4155 17.5292 11.576 19.7463C11.5858 19.7666 11.6005 19.7768 11.6103 19.7971C11.6201 19.8123 11.625 19.8224 11.6397 19.8326C11.6495 19.8427 11.6544 19.8529 11.6593 19.863C11.6593 19.863 11.6642 19.863 11.6691 19.8681C11.6984 19.8985 11.7327 19.9239 11.7719 19.9442C11.7817 19.9493 11.7915 19.9493 11.8013 19.9543C11.8111 19.9594 11.8258 19.9645 11.8355 19.9696C11.8502 19.9746 11.86 19.9848 11.8747 19.9848C11.9139 19.9949 11.958 20 11.9971 20C12.0363 20 12.0804 19.9949 12.1196 19.9848C12.1343 19.9848 12.1489 19.9746 12.1587 19.9696C12.1734 19.9696 12.1832 19.9594 12.1979 19.9543C12.2077 19.9543 12.2175 19.9493 12.2273 19.9442C12.2616 19.9239 12.2958 19.8985 12.3301 19.8681C12.3301 19.8681 12.335 19.8681 12.3399 19.863C12.3497 19.8529 12.3546 19.8427 12.3595 19.8326C12.3693 19.8224 12.3791 19.8072 12.3889 19.7971C12.3987 19.7818 12.4134 19.7666 12.4232 19.7463C13.5837 17.5292 16.9576 17.5698 17.0065 17.5698H20.8211C22.0208 17.5698 23.0002 16.5601 23.0002 15.312V0.507357C23.0002 0.228311 22.7798 0 22.5105 0H22.5252ZM6.99754 16.55H3.18297C2.5219 16.55 1.98816 15.9919 1.98816 15.307V1.00964H6.67436C9.34799 1.00964 11.5222 3.23694 11.5222 5.97159V16.5601C11.1892 15.8498 10.7534 15.1395 10.1168 14.4698C9.53897 13.861 9.29413 13.1811 9.01501 12.3998C8.98563 12.3186 8.95625 12.2324 8.92687 12.1512C8.86811 8.3308 8.45188 6.84424 7.17383 5.80923C6.35607 5.1446 5.28857 4.79452 4.58344 4.56621C4.45612 4.52562 4.3386 4.48504 4.23577 4.44952C4.06928 4.38864 3.87831 4.42922 3.74609 4.55606C3.61388 4.6829 3.56002 4.87062 3.60409 5.05327C3.7314 5.57077 3.78527 6.04262 3.83424 6.49924C3.97624 7.73211 4.10356 8.89396 5.65583 9.93912C5.79294 10.0304 5.93005 10.1218 6.06226 10.208C6.87513 10.7357 7.46274 11.1213 7.8202 12.0091C7.87407 12.1461 7.92303 12.278 7.972 12.4099C7.972 12.4252 7.98179 12.4404 7.98669 12.4505C8.02587 12.552 8.06014 12.6535 8.09442 12.7549C8.26091 13.2217 8.4274 13.6682 8.65265 14.1045C7.9671 14.0538 7.24238 14.135 6.73802 14.3176C6.48339 14.4089 6.34628 14.6981 6.43442 14.962C6.52256 15.2258 6.80167 15.3678 7.05631 15.2765C7.79082 15.0127 9.01991 15.0482 9.55366 15.3425C10.1706 16.0325 10.5722 16.7681 10.8856 17.5951C9.20109 16.5145 7.10038 16.5398 6.98775 16.5449L6.99754 16.55ZM7.87407 10.3298C7.48722 9.94419 7.04162 9.64993 6.58132 9.35566C6.454 9.26941 6.32179 9.18823 6.18468 9.0969C5.01925 8.31557 4.93601 7.54947 4.80379 6.3927C4.77931 6.16946 4.74993 5.93607 4.71565 5.68746C5.32285 5.89548 6.02309 6.17961 6.56663 6.62101C7.28645 7.20447 7.70758 7.99087 7.87407 10.3399V10.3298ZM22.0404 15.307C22.0404 15.9919 21.5018 16.55 20.8407 16.55H17.0408C16.9086 16.55 14.2399 16.5145 12.5064 18.0822V5.97666C12.5064 3.24201 14.6806 1.01471 17.3542 1.01471H22.0453V15.312L22.0404 15.307Z" fill="#2D3D25"/>
<path d="M14.8243 8.31062C15.6273 7.854 16.0436 7.81341 16.9495 8.11275L17.1257 8.17363C17.6693 8.35628 18.1883 8.52878 18.7515 8.52878C19.1138 8.52878 19.4909 8.45775 19.8973 8.26495C20.1422 8.14826 20.2499 7.84892 20.1422 7.59525C20.0295 7.34157 19.7406 7.22488 19.4958 7.34157C18.8053 7.66628 18.2569 7.48362 17.4342 7.20965L17.2531 7.14877C16.0925 6.76825 15.3923 6.83421 14.3542 7.42275C14.1191 7.55973 14.031 7.86415 14.1632 8.11275C14.2954 8.35628 14.5941 8.44761 14.8292 8.31062H14.8243Z" fill="#2D3D25"/>
<path d="M19.488 10.0608C18.7975 10.3855 18.2491 10.2029 17.4264 9.92889L17.2453 9.86801C16.0847 9.48749 15.3845 9.55345 14.3464 10.142C14.1113 10.279 14.0232 10.5834 14.1554 10.832C14.2876 11.0806 14.5863 11.1668 14.8214 11.0299C15.6244 10.5732 16.0406 10.5327 16.9465 10.832L17.1228 10.8929C17.6664 11.0755 18.1854 11.248 18.7486 11.248C19.1109 11.248 19.488 11.177 19.8944 10.9842C20.1392 10.8675 20.247 10.5682 20.1392 10.3145C20.0266 10.0608 19.7377 9.94411 19.4929 10.0608H19.488Z" fill="#2D3D25"/>
</svg>
