<svg width="33" height="29" viewBox="0 0 33 29" fill="none" xmlns="http://www.w3.org/2000/svg">
<path d="M32.207 18.3109C32.207 15.5301 32.1115 12.7861 31.9645 10.0126C31.8323 7.49663 31.9572 4.98065 31.9792 2.47203C32.1555 2.19247 32.1482 1.79521 31.9278 1.54509C31.7442 1.08897 31.1271 1.00069 30.7671 1.28025C29.43 1.20668 28.1077 0.985979 26.7706 0.919769C25.3014 0.846202 23.7954 1.08897 22.3555 1.39795C20.945 1.69958 20.034 2.4941 19.0422 3.48725C18.3149 4.2082 17.3746 4.86295 17.0514 5.87081C16.8897 5.88552 16.7281 5.93702 16.5885 6.05473C16.449 6.16508 16.3314 6.2975 16.2359 6.44463C16.2359 6.42256 16.2359 6.40049 16.2212 6.37842C15.898 5.01744 14.7446 3.936 13.9145 2.86193C13.0255 1.71429 12.2248 1.44209 10.8437 1.1699C9.27888 0.860916 7.94183 0.478369 6.32562 0.603432C5.58364 0.662285 4.83431 0.713782 4.09967 0.794705C3.45318 0.860916 2.73324 1.01541 2.0941 0.838845C1.81494 0.765279 1.59455 0.846202 1.44028 1.00069C1.10969 1.03748 0.801143 1.26553 0.801143 1.69958C0.801143 3.46518 0.881952 5.22342 1.02888 6.98167C1.16846 8.70313 1.49905 10.4393 1.48435 12.1755C1.46966 13.8969 1.0803 15.5669 0.558711 17.2001C0.323626 17.9284 0.0811954 18.6567 0.0885418 19.4292C0.0958882 20.1869 0.382391 20.9152 0.529319 21.6509C0.720325 22.622 0.330971 23.7034 1.33743 24.2404C2.37327 24.7922 3.57073 24.9908 4.73146 24.9246C6.34032 24.8437 7.92714 24.6377 9.52865 24.5273C10.4029 24.4685 11.2477 24.6156 12.1072 24.7407C12.8272 24.851 13.2019 24.7995 13.6279 25.3734C13.8851 25.7191 14.3038 25.7485 14.6124 25.6014C14.9797 25.7338 15.3911 25.572 15.5527 25.1306C15.8172 24.4096 15.9861 23.6519 16.2873 22.9456C16.2873 23.8505 16.302 24.7554 16.302 25.6603C16.302 26.0428 16.5371 26.2635 16.8236 26.3371C16.9118 26.3812 17.0073 26.4033 17.1101 26.3959C17.3011 26.3886 17.4921 26.3224 17.6317 26.1826C17.6464 26.1679 17.6685 26.1532 17.6832 26.1384C17.808 26.0575 17.9403 25.9913 18.0799 25.9251C18.1607 25.8883 18.2341 25.8515 18.3076 25.8C18.3811 25.7559 18.4472 25.6897 18.5206 25.6308C19.3067 25.2336 20.1589 25.1453 21.0184 25.0349C21.9514 24.9172 22.8697 24.7333 23.8027 24.6377C25.5732 24.4464 27.4612 24.2846 29.239 24.4758C29.8635 24.542 30.4145 24.5715 30.9214 24.1448C31.4062 23.7328 31.8323 23.1296 32.0527 22.5337C32.5376 21.2168 32.2143 19.7014 32.1996 18.333L32.207 18.3109Z" fill="#C7D2BE"/>
<path d="M11.2251 12.8744C10.9679 12.2196 10.6373 11.587 10.1966 11.0352C9.90271 10.66 9.55743 10.3216 9.19745 9.99056C8.85217 9.51237 8.48485 9.08569 7.99264 8.73257C7.80898 8.60015 7.61064 8.48244 7.41228 8.37209C7.36086 8.33531 7.30943 8.30588 7.258 8.27645C6.98619 8.12196 6.70702 7.96747 6.44255 7.80563C6.22951 7.67321 6.00911 7.68056 5.81811 7.76884C5.76668 7.76149 5.71526 7.74677 5.66384 7.73942C5.26713 7.70263 4.9292 8.10725 4.9292 8.47508C4.9292 8.73257 5.06143 8.92384 5.23775 9.0489C5.23775 9.76986 5.41406 10.4687 5.69322 11.1382C6.00911 11.8886 6.39113 12.6905 6.90538 13.3231C7.35351 13.8749 7.9706 14.2354 8.5877 14.5664C8.85952 14.7135 9.13869 14.8533 9.37377 15.0446C9.38846 15.0593 9.41785 15.0814 9.43989 15.1034C9.56477 15.3389 9.69701 15.5669 9.87332 15.7803C10.079 16.0304 10.5051 16.0451 10.7622 15.898C11.0487 15.7288 11.1442 15.4124 11.1002 15.0961C11.1442 15.0519 11.1957 15.0078 11.2324 14.9416C11.5924 14.2942 11.4675 13.5365 11.2104 12.8817L11.2251 12.8744Z" fill="#216646"/>
<path d="M32.2948 0H24.5223C20.9446 0 17.8664 2.14079 16.5147 5.20117C15.163 2.14815 12.0848 0 8.50713 0H0.734639C0.330588 0 0 0.33105 0 0.735667V22.2024C0 24.0048 1.46193 25.4762 3.2618 25.4762H8.99933C9.04341 25.4688 14.1198 25.4173 15.8609 28.6322C15.8756 28.6616 15.8976 28.6763 15.9123 28.7057C15.927 28.7278 15.9343 28.7425 15.9564 28.7572C15.9711 28.7719 15.9784 28.7867 15.9858 28.8014C15.9858 28.8014 15.9931 28.8014 16.0004 28.8087C16.0445 28.8529 16.096 28.8897 16.1547 28.9191C16.1694 28.9264 16.1841 28.9264 16.1988 28.9338C16.2135 28.9412 16.2355 28.9485 16.2502 28.9559C16.2723 28.9632 16.287 28.9779 16.309 28.9779C16.3678 28.9926 16.4339 29 16.4927 29C16.5514 29 16.6176 28.9926 16.6763 28.9779C16.6984 28.9779 16.7204 28.9632 16.7351 28.9559C16.7571 28.9559 16.7718 28.9412 16.7939 28.9338C16.8085 28.9338 16.8232 28.9264 16.8379 28.9191C16.8894 28.8897 16.9408 28.8529 16.9922 28.8087C16.9922 28.8087 16.9996 28.8087 17.0069 28.8014C17.0216 28.7867 17.0289 28.7719 17.0363 28.7572C17.051 28.7425 17.0657 28.7204 17.0804 28.7057C17.0951 28.6837 17.1171 28.6616 17.1318 28.6322C18.8729 25.4173 23.9346 25.4762 24.008 25.4762H29.7309C31.5307 25.4762 33 24.0122 33 22.2024V0.735667C33 0.33105 32.6694 0 32.2654 0H32.2948ZM8.99933 23.9975H3.2765C2.28473 23.9975 1.48397 23.1882 1.48397 22.1951V1.47133H8.52182C12.533 1.47133 15.7947 4.70091 15.7947 8.66616V24.0195C15.2952 22.9896 14.6414 21.9597 13.6863 20.9886C12.8195 20.1058 12.4521 19.12 12.0334 17.9871C11.9893 17.8694 11.9452 17.7443 11.9012 17.6266C11.813 12.087 11.1886 9.93151 9.27116 8.43075C8.04431 7.46702 6.44279 6.95941 5.38491 6.62836C5.1939 6.56951 5.01759 6.51065 4.86332 6.45916C4.61354 6.37088 4.32703 6.42973 4.12868 6.61365C3.93033 6.79756 3.84951 7.06976 3.91563 7.3346C4.10664 8.08498 4.18745 8.76915 4.26091 9.43125C4.47396 11.2189 4.66496 12.9036 6.99377 14.4191C7.19947 14.5515 7.40517 14.6839 7.60352 14.809C8.82302 15.5741 9.70459 16.1332 10.2409 17.4206C10.3217 17.6192 10.3951 17.8105 10.4686 18.0018C10.4686 18.0238 10.4833 18.0459 10.4907 18.0606C10.5494 18.2078 10.6008 18.3549 10.6523 18.502C10.902 19.1788 11.1518 19.8262 11.4898 20.4589C10.4613 20.3853 9.37401 20.503 8.61733 20.7679C8.23532 20.9003 8.02961 21.3196 8.16184 21.7022C8.29408 22.0847 8.71283 22.2907 9.09484 22.1583C10.1968 21.7758 12.0407 21.8272 12.8415 22.2539C13.7672 23.2544 14.3696 24.3212 14.8397 25.5203C12.3126 23.9533 9.16096 23.9901 8.99199 23.9975H8.99933ZM10.3143 14.9782C9.73398 14.4191 9.06546 13.9924 8.3749 13.5657C8.18389 13.4406 7.98554 13.3229 7.77984 13.1905C6.0314 12.0576 5.9065 10.9467 5.70815 9.26941C5.67142 8.94571 5.62735 8.60731 5.57592 8.24683C6.48687 8.54845 7.53741 8.96043 8.35286 9.60046C9.43278 10.4465 10.0646 11.5868 10.3143 14.9929V14.9782ZM31.5675 22.1951C31.5675 23.1882 30.7594 23.9975 29.7676 23.9975H24.0668C23.8684 23.9975 19.8646 23.946 17.264 26.2192V8.66616C17.264 4.70091 20.5258 1.47133 24.537 1.47133H31.5748V22.2024L31.5675 22.1951Z" fill="#FCFAF5"/>
<path d="M20.739 12.0576C21.9438 11.3955 22.5683 11.3366 23.9274 11.7707L24.1918 11.8589C25.0073 12.1238 25.786 12.3739 26.6308 12.3739C27.1745 12.3739 27.7401 12.2709 28.3499 11.9914C28.7172 11.8222 28.8788 11.3881 28.7172 11.0203C28.5483 10.6524 28.1148 10.4832 27.7475 10.6524C26.7116 11.1233 25.8888 10.8584 24.6547 10.4612L24.3828 10.3729C22.6417 9.82115 21.5912 9.91678 20.0338 10.7702C19.6811 10.9688 19.5489 11.4102 19.7473 11.7707C19.9456 12.1238 20.3938 12.2562 20.7464 12.0576H20.739Z" fill="#216646"/>
<path d="M27.7402 14.588C26.7043 15.0588 25.8815 14.794 24.6473 14.3967L24.3755 14.3084C22.6344 13.7567 21.5839 13.8523 20.0265 14.7057C19.6738 14.9043 19.5416 15.3457 19.7399 15.7062C19.9383 16.0667 20.3864 16.1917 20.7391 15.9931C21.9439 15.331 22.5683 15.2722 23.9274 15.7062L24.1919 15.7945C25.0073 16.0593 25.786 16.3095 26.6309 16.3095C27.1745 16.3095 27.7402 16.2065 28.3499 15.9269C28.7172 15.7577 28.8789 15.3237 28.7172 14.9558C28.5483 14.588 28.1148 14.4188 27.7475 14.588H27.7402Z" fill="#216646"/>
</svg>
