<svg width="32" height="29" viewBox="0 0 32 29" fill="none" xmlns="http://www.w3.org/2000/svg">
<path d="M31.2312 18.3109C31.2312 15.5301 31.1386 12.7861 30.9962 10.0126C30.8679 7.49663 30.989 4.98065 31.0104 2.47203C31.1814 2.19247 31.1743 1.79521 30.9605 1.54509C30.7824 1.08897 30.184 1.00069 29.835 1.28025C28.5385 1.20668 27.2562 0.985979 25.9596 0.919769C24.5349 0.846202 23.0745 1.08897 21.6783 1.39795C20.3105 1.69958 19.4271 2.4941 18.4654 3.48725C17.7602 4.2082 16.8483 4.86295 16.5349 5.87081C16.3782 5.88552 16.2214 5.93702 16.0861 6.05473C15.9507 6.16508 15.8368 6.2975 15.7442 6.44463C15.7442 6.42256 15.7441 6.40049 15.7299 6.37842C15.4165 5.01744 14.298 3.936 13.493 2.86193C12.6311 1.71429 11.8546 1.44209 10.5153 1.1699C8.99794 0.860916 7.70141 0.478369 6.13417 0.603432C5.41467 0.662285 4.68805 0.713782 3.97567 0.794705C3.34878 0.860916 2.65065 1.01541 2.03088 0.838845C1.76018 0.765279 1.54647 0.846202 1.39687 1.00069C1.0763 1.03748 0.777103 1.26553 0.777103 1.69958C0.777103 3.46518 0.855462 5.22342 0.997938 6.98167C1.13329 8.70313 1.45386 10.4393 1.43961 12.1755C1.42536 13.8969 1.0478 15.5669 0.542017 17.2001C0.314056 17.9284 0.0789717 18.6567 0.0860954 19.4292C0.0932192 20.1869 0.37104 20.9152 0.513516 21.6509C0.698734 22.622 0.321178 23.7034 1.29714 24.2404C2.30159 24.7922 3.46276 24.9908 4.58832 24.9246C6.14842 24.8437 7.68716 24.6377 9.24014 24.5273C10.0879 24.4685 10.9071 24.6156 11.7406 24.7407C12.4387 24.851 12.802 24.7995 13.2152 25.3734C13.4645 25.7191 13.8706 25.7485 14.1698 25.6014C14.526 25.7338 14.9249 25.572 15.0816 25.1306C15.3381 24.4096 15.5019 23.6519 15.794 22.9456C15.794 23.8505 15.8083 24.7554 15.8083 25.6603C15.8083 26.0428 16.0362 26.2635 16.3141 26.3371C16.3995 26.3812 16.4921 26.4033 16.5919 26.3959C16.7771 26.3886 16.9623 26.3224 17.0977 26.1826C17.1119 26.1679 17.1333 26.1532 17.1475 26.1384C17.2686 26.0575 17.3969 25.9913 17.5322 25.9251C17.6106 25.8883 17.6818 25.8515 17.7531 25.8C17.8243 25.7559 17.8884 25.6897 17.9596 25.6308C18.7219 25.2336 19.5482 25.1453 20.3817 25.0349C21.2864 24.9172 22.1769 24.7333 23.0816 24.6377C24.7985 24.4464 26.6293 24.2846 28.3532 24.4758C28.9588 24.542 29.493 24.5715 29.9846 24.1448C30.4548 23.7328 30.8679 23.1296 31.0816 22.5337C31.5518 21.2168 31.2384 19.7014 31.2241 18.333L31.2312 18.3109Z" fill="#C7D2BE"/>
<path d="M10.8863 12.8739C10.637 12.2191 10.3164 11.5865 9.889 11.0347C9.60404 10.6595 9.26923 10.3211 8.92016 9.99007C8.58534 9.51189 8.22916 9.0852 7.75186 8.73208C7.57377 8.59966 7.38143 8.48195 7.18909 8.3716C7.13922 8.33482 7.08935 8.30539 7.03949 8.27596C6.77591 8.12147 6.5052 7.96698 6.24875 7.80514C6.04216 7.67272 5.82844 7.68007 5.64322 7.76835C5.59335 7.761 5.54349 7.74628 5.49363 7.73893C5.10894 7.70214 4.78125 8.10676 4.78125 8.4746C4.78125 8.73208 4.90948 8.92335 5.08045 9.04842C5.08045 9.76937 5.25141 10.4683 5.52212 11.1377C5.82844 11.8881 6.19888 12.69 6.69755 13.3226C7.1321 13.8744 7.73049 14.2349 8.32889 14.5659C8.59247 14.7131 8.86318 14.8528 9.09114 15.0441C9.10538 15.0588 9.13388 15.0809 9.15525 15.103C9.27635 15.3384 9.40458 15.5664 9.57555 15.7798C9.77501 16.0299 10.1882 16.0446 10.4375 15.8975C10.7154 15.7283 10.808 15.4119 10.7652 15.0956C10.808 15.0515 10.8578 15.0073 10.8935 14.9411C11.2425 14.2937 11.1214 13.536 10.8721 12.8812L10.8863 12.8739Z" fill="#FCFAF7"/>
<path d="M31.3161 0H23.7792C20.3099 0 17.325 2.14079 16.0143 5.20117C14.7035 2.14815 11.7186 0 8.24933 0H0.712378C0.32057 0 0 0.33105 0 0.735667V22.2024C0 24.0048 1.41763 25.4762 3.16296 25.4762H8.72663C8.76937 25.4688 13.6919 25.4173 15.3802 28.6322C15.3945 28.6616 15.4159 28.6763 15.4301 28.7057C15.4443 28.7278 15.4515 28.7425 15.4728 28.7572C15.4871 28.7719 15.4942 28.7867 15.5013 28.8014C15.5013 28.8014 15.5085 28.8014 15.5156 28.8087C15.5583 28.8529 15.6082 28.8897 15.6652 28.9191C15.6794 28.9264 15.6937 28.9264 15.7079 28.9338C15.7222 28.9412 15.7436 28.9485 15.7578 28.9559C15.7792 28.9632 15.7934 28.9779 15.8148 28.9779C15.8718 28.9926 15.9359 29 15.9929 29C16.0499 29 16.114 28.9926 16.171 28.9779C16.1924 28.9779 16.2137 28.9632 16.228 28.9559C16.2493 28.9559 16.2636 28.9412 16.285 28.9338C16.2992 28.9338 16.3134 28.9264 16.3277 28.9191C16.3776 28.8897 16.4274 28.8529 16.4773 28.8087C16.4773 28.8087 16.4844 28.8087 16.4915 28.8014C16.5058 28.7867 16.5129 28.7719 16.52 28.7572C16.5343 28.7425 16.5485 28.7204 16.5628 28.7057C16.577 28.6837 16.5984 28.6616 16.6127 28.6322C18.301 25.4173 23.2093 25.4762 23.2805 25.4762H28.8299C30.5752 25.4762 32 24.0122 32 22.2024V0.735667C32 0.33105 31.6794 0 31.2876 0H31.3161ZM8.72663 23.9975H3.17721C2.2155 23.9975 1.43901 23.1882 1.43901 22.1951V1.47133H8.26358C12.1532 1.47133 15.3161 4.70091 15.3161 8.66616V24.0195C14.8317 22.9896 14.1977 21.9597 13.2716 20.9886C12.431 20.1058 12.0748 19.12 11.6687 17.9871C11.626 17.8694 11.5833 17.7443 11.5405 17.6266C11.455 12.087 10.8495 9.93151 8.99021 8.43075C7.80054 7.46702 6.24755 6.95941 5.22173 6.62836C5.03651 6.56951 4.86555 6.51065 4.71595 6.45916C4.47374 6.37088 4.19591 6.42973 4.00357 6.61365C3.81123 6.79756 3.73286 7.06976 3.79697 7.3346C3.98219 8.08498 4.06055 8.76915 4.13179 9.43125C4.33838 11.2189 4.5236 12.9036 6.78184 14.4191C6.9813 14.5515 7.18077 14.6839 7.37311 14.809C8.55566 15.5741 9.41051 16.1332 9.93055 17.4206C10.0089 17.6192 10.0801 17.8105 10.1514 18.0018C10.1514 18.0238 10.1656 18.0459 10.1728 18.0606C10.2297 18.2078 10.2796 18.3549 10.3295 18.502C10.5717 19.1788 10.8139 19.8262 11.1416 20.4589C10.1443 20.3853 9.08995 20.503 8.3562 20.7679C7.98576 20.9003 7.78629 21.3196 7.91452 21.7022C8.04274 22.0847 8.4488 22.2907 8.81924 22.1583C9.8878 21.7758 11.6759 21.8272 12.4524 22.2539C13.35 23.2544 13.9341 24.3212 14.39 25.5203C11.9395 23.9533 8.88335 23.9901 8.71951 23.9975H8.72663ZM10.0018 14.9782C9.43901 14.4191 8.79075 13.9924 8.12111 13.5657C7.93589 13.4406 7.74355 13.3229 7.54409 13.1905C5.84863 12.0576 5.72752 10.9467 5.53518 9.26941C5.49956 8.94571 5.45682 8.60731 5.40695 8.24683C6.2903 8.54845 7.309 8.96043 8.09974 9.60046C9.14694 10.4465 9.75958 11.5868 10.0018 14.9929V14.9782ZM30.6109 22.1951C30.6109 23.1882 29.8273 23.9975 28.8655 23.9975H23.3375C23.1452 23.9975 19.2627 23.946 16.7409 26.2192V8.66616C16.7409 4.70091 19.9038 1.47133 23.7934 1.47133H30.618V22.2024L30.6109 22.1951Z" fill="#216646"/>
<path d="M20.11 12.0576C21.2783 11.3955 21.8838 11.3366 23.2017 11.7707L23.4582 11.8589C24.2489 12.1238 25.004 12.3739 25.8232 12.3739C26.3504 12.3739 26.8989 12.2709 27.4902 11.9914C27.8464 11.8222 28.0031 11.3881 27.8464 11.0203C27.6826 10.6524 27.2623 10.4832 26.9061 10.6524C25.9016 11.1233 25.1037 10.8584 23.907 10.4612L23.6434 10.3729C21.955 9.82115 20.9363 9.91678 19.4261 10.7702C19.0842 10.9688 18.9559 11.4102 19.1483 11.7707C19.3406 12.1238 19.7752 12.2562 20.1171 12.0576H20.11Z" fill="#216646"/>
<path d="M26.8983 14.5885C25.8938 15.0593 25.0959 14.7945 23.8991 14.3972L23.6356 14.3089C21.9472 13.7572 20.9285 13.8528 19.4183 14.7062C19.0763 14.9048 18.9481 15.3462 19.1405 15.7067C19.3328 16.0672 19.7674 16.1922 20.1093 15.9936C21.2776 15.3315 21.8831 15.2727 23.201 15.7067L23.4575 15.795C24.2482 16.0598 25.0033 16.3099 25.8226 16.3099C26.3497 16.3099 26.8983 16.207 27.4895 15.9274C27.8457 15.7582 28.0024 15.3242 27.8457 14.9563C27.6819 14.5885 27.2616 14.4193 26.9054 14.5885H26.8983Z" fill="#216646"/>
</svg>
