<svg width="108" height="75" viewBox="0 0 108 75" fill="none" xmlns="http://www.w3.org/2000/svg">
<g clip-path="url(#clip0_402_26052)">
<path d="M61.4494 47.2892H58.3425C56.2712 47.2892 54.5819 45.6223 54.5819 43.5624V42.2086C54.5819 40.1924 56.2345 38.5547 58.269 38.5547H60.8177C62.9551 38.5547 64.9676 37.7322 66.4733 36.2328C67.9864 34.7333 68.8163 32.7463 68.8163 30.6209C68.8163 28.5391 68.8163 26.9014 68.8163 26.8578C68.787 22.8472 67.1931 19.0841 64.3212 16.2599C61.4494 13.4285 57.6373 11.8709 53.5829 11.8709C49.5285 11.8709 45.7606 13.3921 42.874 16.158C39.9801 18.9312 38.3716 22.6215 38.3642 26.5375C38.3642 27.0834 38.3642 28.4081 38.3642 30.4826C38.3642 31.669 38.8343 32.7899 39.679 33.6343C40.5236 34.4786 41.6548 34.9371 42.8593 34.9371H60.3329C61.5889 34.9371 62.7715 34.4495 63.6675 33.5687C64.5636 32.688 65.0484 31.5161 65.0484 30.2642C65.0484 28.692 65.0484 27.3891 65.0484 27.3527C65.0264 24.3393 63.8291 21.5079 61.6697 19.3825C59.5103 17.2571 56.6458 16.0852 53.5976 16.0852C50.5495 16.0852 47.7143 17.228 45.5476 19.3097C43.3735 21.3987 42.1689 24.1646 42.1542 27.1052C42.1542 27.6293 42.1542 28.6192 42.1542 29.5873C42.1542 30.0458 42.3305 30.4753 42.661 30.8028C42.9915 31.1304 43.4249 31.3051 43.8876 31.3051H44.1594C45.9222 31.3051 47.3544 29.8857 47.3544 28.1388C47.3544 24.8852 49.8517 22.1193 53.0468 21.8427C54.8242 21.6899 56.5209 22.2576 57.821 23.444C59.1063 24.6159 59.8482 26.2755 59.8482 28.0078C59.8482 28.4664 59.4736 28.8449 59.0035 28.8449C58.5334 28.8449 58.1588 28.4736 58.1588 28.0078C58.1588 26.7413 57.6227 25.5258 56.6752 24.6741C55.7203 23.808 54.479 23.3931 53.179 23.5023C50.8506 23.7061 49.0217 25.7368 49.0217 28.1388C49.0217 30.8028 46.8329 32.9719 44.1447 32.9719H43.8729C42.9622 32.9719 42.1028 32.6225 41.4564 31.982C40.8101 31.3415 40.4575 30.4898 40.4575 29.5873C40.4575 28.6192 40.4575 27.622 40.4575 27.098C40.4796 20.1031 46.3702 14.4111 53.5829 14.4111C57.0791 14.4111 60.3623 15.7577 62.8376 18.1961C65.3128 20.6345 66.6863 23.8808 66.7083 27.3382C66.7083 27.3382 66.7083 27.3527 66.7083 30.2569C66.7083 31.9456 66.04 33.5396 64.8354 34.7406C63.6308 35.9343 62.0223 36.5967 60.3183 36.5967H42.8446C41.192 36.5967 39.6422 35.9562 38.4744 34.8061C37.3066 33.6488 36.6675 32.113 36.6675 30.4753C36.6675 28.4009 36.6675 27.0688 36.6675 26.5229C36.6822 22.1557 38.467 18.0432 41.6915 14.9498C44.8939 11.8781 49.1099 10.1895 53.5683 10.1895C58.0266 10.1895 62.3014 11.9218 65.4891 15.0589C68.6768 18.1961 70.4469 22.3813 70.4763 26.8359C70.4763 26.8578 70.4763 29.1578 70.4763 30.6063C70.4763 33.1684 69.47 35.5777 67.6412 37.3901C65.8123 39.2025 63.3811 40.1997 60.7957 40.1997H58.247C57.1379 40.1997 56.2418 41.0877 56.2418 42.1868V43.5406C56.2418 44.6761 57.1746 45.6005 58.3204 45.6005H61.4273C65.4817 45.6005 69.2938 44.0356 72.1656 41.1969C75.0302 38.3582 76.6093 34.5732 76.6093 30.5554V29.4999C76.6093 28.3863 76.6093 27.6803 76.6093 27.6439C76.5726 21.5807 74.1561 15.8814 69.8153 11.6088C65.4744 7.32894 59.7013 4.97063 53.5756 4.97063C50.5128 4.97063 47.5234 5.55293 44.7029 6.71025C41.9706 7.82389 39.5027 9.42521 37.38 11.456C32.9951 15.6558 30.5712 21.2313 30.5492 27.1635C30.5492 27.4546 30.5492 27.9277 30.5492 28.5319C30.5492 32.1931 31.9815 35.6286 34.5889 38.2199C37.1964 40.8111 40.6705 42.2377 44.3577 42.2377C44.8204 42.2377 45.2024 42.6089 45.2024 43.0748C45.2024 43.5406 44.8278 43.9118 44.3577 43.9118C40.2151 43.9118 36.3223 42.3105 33.399 39.4063C30.4758 36.5021 28.8599 32.6444 28.8672 28.5391C28.8672 27.935 28.8672 27.4619 28.8672 27.1707C28.8892 20.7873 31.4967 14.7896 36.2122 10.2695C38.4891 8.08593 41.1259 6.37542 44.0639 5.18171C47.09 3.94433 50.2924 3.31836 53.5756 3.31836C60.1493 3.31836 66.3338 5.84408 70.9978 10.437C75.6545 15.0298 78.2472 21.1367 78.2913 27.6439C78.2913 27.6511 78.2913 27.7676 78.2913 29.5072V30.5626C78.2913 35.0245 76.5359 39.2243 73.3555 42.3833C70.1678 45.5423 65.9371 47.2819 61.4273 47.2819L61.4494 47.2892Z" fill="#171B1B" fill-opacity="0.66"/>
<path d="M63.1674 50.6594H58.1509C54.1699 50.6594 50.9308 47.4495 50.9308 43.5044V28.0298C50.9308 27.5713 51.3054 27.1928 51.7754 27.1928C52.2455 27.1928 52.6201 27.564 52.6201 28.0298V43.5044C52.6201 46.5324 55.1027 48.9926 58.1582 48.9926H63.1748C67.6258 48.9926 72.0622 47.2166 75.3601 44.1304C78.7314 40.9641 80.5896 36.8153 80.5896 32.4407C80.5896 29.6312 80.5896 26.8798 80.5896 26.8143C80.5456 19.9941 77.6737 13.6325 72.5029 8.90135C70.0203 6.62311 67.1337 4.83982 63.924 3.59516C60.6334 2.3141 57.1666 1.66629 53.6043 1.66629C50.042 1.66629 46.634 2.29954 43.3508 3.54421C40.1411 4.75975 37.2472 6.50665 34.7499 8.72666C29.535 13.3705 26.6484 19.6011 26.6264 26.2684C26.6264 26.8288 26.6264 28.0735 26.6264 30.0679C26.6264 34.1731 28.3745 38.0672 31.5548 41.0442C34.6617 43.9484 38.841 45.6152 43.0203 45.6152H44.6582C45.4294 45.6152 46.0905 45.295 46.5165 44.7127C46.9939 44.0576 47.0967 43.1841 46.8029 42.2961C46.2227 40.5347 44.5113 40.1853 43.5344 40.1416C40.6111 40.1416 37.8715 39.0062 35.8002 36.9536C33.7289 34.901 32.5905 32.1714 32.5978 29.2672C32.5978 28.1827 32.5978 27.3092 32.5978 26.8652C32.6198 21.4426 34.8307 16.3402 38.841 12.497C42.8146 8.68299 48.0589 6.58671 53.597 6.58671C59.1351 6.58671 64.4455 8.73394 68.4044 12.6426C72.3633 16.544 74.5668 21.741 74.6035 27.2729C74.6035 27.2801 74.6035 27.2947 74.6035 30.1771C74.6035 33.8455 73.1639 37.2957 70.5418 39.8942C67.927 42.4927 64.4455 43.9193 60.7363 43.9193H59.2599C58.7972 43.9193 58.4153 43.5481 58.4153 43.0822C58.4153 42.6164 58.7899 42.2452 59.2599 42.2452H60.7363C63.9901 42.2452 67.0456 40.986 69.3519 38.7077C71.6509 36.4295 72.9215 33.3943 72.9215 30.1698C72.9215 28.4811 72.9215 27.3092 72.9215 27.2729C72.8848 22.185 70.8649 17.4102 67.2219 13.8218C63.5788 10.2334 58.7385 8.25354 53.597 8.25354C48.4555 8.25354 43.6666 10.1897 40.0089 13.698C36.329 17.2209 34.2945 21.9011 34.2798 26.8725C34.2798 27.3165 34.2798 28.19 34.2798 29.2745C34.2798 31.7347 35.242 34.0421 36.9901 35.7817C38.7455 37.5213 41.0739 38.4748 43.5491 38.4748H43.5858C44.6362 38.5258 45.613 38.8024 46.3989 39.2755C47.3611 39.8578 48.0295 40.6948 48.3894 41.7794C48.8522 43.1769 48.6612 44.6035 47.8679 45.6953C47.1261 46.7071 45.9583 47.2894 44.6509 47.2894H43.0129C38.4077 47.2894 33.8024 45.4551 30.387 42.2598C26.8688 38.9625 24.9297 34.6316 24.9297 30.0679C24.9297 28.0662 24.9297 26.8216 24.9297 26.2611C24.9591 19.1134 28.0366 12.4461 33.6114 7.482C36.2629 5.12369 39.3258 3.27489 42.7338 1.97928C46.208 0.66183 49.8584 -0.0078125 53.5896 -0.0078125C57.3209 -0.0078125 61.0374 0.676388 64.5189 2.03751C67.9196 3.36224 70.9825 5.25471 73.6266 7.67124C79.1427 12.7227 82.2055 19.5137 82.2496 26.7997C82.2496 26.8143 82.2496 27.6295 82.2496 32.4335C82.2496 37.2665 80.2077 41.8449 76.4912 45.3314C74.721 46.9982 72.6718 48.3011 70.4096 49.2255C68.0739 50.1717 65.6354 50.6521 63.1528 50.6521L63.1674 50.6594Z" fill="#171B1B" fill-opacity="0.66"/>
<path d="M59.3122 32.9881H58.541C56.3669 32.9881 54.5894 31.234 54.5894 29.0722V28.0968C54.5894 27.5291 54.156 27.056 53.6346 27.0414C53.3628 27.0341 53.1057 27.1288 52.9148 27.318C52.7238 27.5073 52.6136 27.7547 52.6136 28.024C52.6136 28.4826 52.239 28.8611 51.7689 28.8611C51.2989 28.8611 50.9243 28.4899 50.9243 28.024C50.9243 27.3034 51.2107 26.6265 51.7322 26.1243C52.2537 25.6221 52.9441 25.3528 53.6713 25.3746C55.0962 25.4183 56.264 26.6411 56.264 28.0968V29.0722C56.264 30.3096 57.2776 31.3213 58.5336 31.3213H59.3048C59.9365 31.3213 60.5241 31.0811 60.9722 30.6371C61.4202 30.1931 61.6626 29.6108 61.6626 28.9848V27.5655C61.6332 23.191 58.0195 19.6317 53.5978 19.6317C49.1762 19.6317 45.5331 23.2201 45.5331 27.6237C45.5331 28.0823 45.1585 28.4608 44.6884 28.4608C44.2183 28.4608 43.8438 28.0896 43.8438 27.6237C43.8438 22.2957 48.214 17.9648 53.5905 17.9648C56.1833 17.9648 58.6218 18.962 60.4654 20.7744C62.3016 22.5868 63.3225 24.9961 63.3446 27.5655V28.9921C63.3446 30.0621 62.9259 31.0666 62.162 31.8235C61.3982 32.5805 60.3846 32.9954 59.3048 32.9954L59.3122 32.9881Z" fill="#171B1B" fill-opacity="0.66"/>
<path d="M34.1699 63.703C34.6445 63.703 35.0293 63.3152 35.0293 62.8369C35.0293 62.3585 34.6445 61.9707 34.1699 61.9707C33.6953 61.9707 33.3105 62.3585 33.3105 62.8369C33.3105 63.3152 33.6953 63.703 34.1699 63.703Z" fill="#171B1B" fill-opacity="0.66"/>
<path d="M106.092 63.703C106.566 63.703 106.951 63.3152 106.951 62.8369C106.951 62.3585 106.566 61.9707 106.092 61.9707C105.617 61.9707 105.232 62.3585 105.232 62.8369C105.232 63.3152 105.617 63.703 106.092 63.703Z" fill="#171B1B" fill-opacity="0.66"/>
<path d="M18.9282 70.7265C18.6564 70.4863 18.0468 69.955 17.9807 69.6129C17.9292 69.3654 18.0321 69.0597 18.0394 68.8049C18.0394 68.5211 18.0247 68.2226 18.0027 67.9388C17.9513 67.109 17.8484 66.1919 17.2168 65.5877C16.6145 65.0127 15.7698 64.9035 14.9692 64.8453C13.7647 64.7653 12.8098 65.1219 11.7007 65.5222C11.5171 65.5877 11.5318 65.8207 11.6567 65.9007C11.7521 66.0026 11.8697 66.0463 11.9872 66.1191C12.1561 66.221 12.2369 66.403 12.3838 66.5267C12.5674 66.6796 12.92 66.7232 12.9934 66.9707C13.0228 67.0726 13.111 67.1163 13.1918 67.109C13.2799 67.1236 13.3754 67.0799 13.4048 66.9707C13.6692 65.9444 14.9913 65.8425 15.8212 66.2137C16.5117 66.5267 16.7834 67.109 16.8936 67.7641C16.9083 67.8369 16.2326 67.866 16.1738 67.866C15.6376 67.8587 15.1088 67.7495 14.5726 67.7277C14.0364 67.7059 13.4856 67.7568 12.9788 67.9461C11.9358 68.3318 11.2233 69.2781 11.3335 70.4063C11.4363 71.469 12.2443 72.0731 13.2432 72.3133C13.7059 72.4298 14.198 72.4661 14.6754 72.3934C15.667 72.2332 16.4823 71.5854 17.4518 72.1896C17.5914 72.2769 17.7236 72.1677 17.7456 72.0513C17.9439 71.5345 18.5976 71.6437 18.8547 71.1269C18.8914 71.0541 18.9649 71.025 19.0236 70.974C19.0457 70.9522 19.0677 70.9231 19.0604 70.8867C19.0604 70.8575 19.031 70.8284 19.0089 70.8066C18.9869 70.7848 18.9649 70.7629 18.9428 70.7411L18.9282 70.7265ZM15.8359 70.9231C15.1749 71.2943 14.0805 71.3598 13.3754 71.0905C12.7584 70.8648 12.494 70.2825 12.7364 69.6784C12.9567 69.1252 13.4635 68.8996 14.0217 68.7831C14.2862 68.7249 14.602 68.6812 14.9252 68.6739C15.432 68.6739 15.9755 68.7322 16.4529 68.9214C16.6145 68.9942 16.7687 69.0888 16.9009 69.2053C16.7614 69.8895 16.4823 70.5591 15.8433 70.9231H15.8359Z" fill="#171B1B" fill-opacity="0.66"/>
<path d="M101.743 70.7265C101.471 70.4863 100.861 69.955 100.795 69.6129C100.744 69.3654 100.847 69.0597 100.854 68.8049C100.854 68.5211 100.839 68.2226 100.817 67.9388C100.766 67.109 100.663 66.1919 100.031 65.5877C99.429 65.0127 98.5843 64.9035 97.7837 64.8453C96.5791 64.7653 95.6243 65.1219 94.5152 65.5222C94.3316 65.5877 94.3463 65.8207 94.4711 65.9007C94.5666 66.0026 94.6841 66.0463 94.8016 66.1191C94.9706 66.221 95.0514 66.403 95.1983 66.5267C95.3819 66.6796 95.7345 66.7232 95.8079 66.9707C95.8373 67.0726 95.9254 67.1163 96.0062 67.109C96.0944 67.1236 96.1898 67.0799 96.2192 66.9707C96.4836 65.9444 97.8057 65.8425 98.6357 66.2137C99.3261 66.5267 99.5979 67.109 99.7081 67.7641C99.7228 67.8369 99.047 67.866 98.9883 67.866C98.4521 67.8587 97.9232 67.7495 97.3871 67.7277C96.8509 67.7059 96.3 67.7568 95.7932 67.9461C94.7502 68.3318 94.0378 69.2781 94.1479 70.4063C94.2508 71.469 95.0587 72.0731 96.0576 72.3133C96.5204 72.4298 97.0125 72.4661 97.4899 72.3934C98.4815 72.2332 99.2967 71.5854 100.266 72.1896C100.406 72.2769 100.538 72.1677 100.56 72.0513C100.758 71.5345 101.412 71.6437 101.669 71.1269C101.706 71.0541 101.779 71.025 101.838 70.974C101.86 70.9522 101.882 70.9231 101.875 70.8867C101.875 70.8575 101.845 70.8284 101.823 70.8066C101.801 70.7848 101.779 70.7629 101.757 70.7411L101.743 70.7265ZM98.6504 70.9231C97.9893 71.2943 96.895 71.3598 96.1898 71.0905C95.5729 70.8648 95.3084 70.2825 95.5508 69.6784C95.7712 69.1252 96.278 68.8996 96.8362 68.7831C97.1006 68.7249 97.4164 68.6812 97.7396 68.6739C98.2464 68.6739 98.7899 68.7322 99.2674 68.9214C99.429 68.9942 99.5832 69.0888 99.7154 69.2053C99.5759 69.8895 99.2968 70.5591 98.6577 70.9231H98.6504Z" fill="#171B1B" fill-opacity="0.66"/>
<path d="M67.8242 71.9931C67.8242 71.9931 67.8022 71.9567 67.7949 71.9349C67.6553 71.7457 67.479 71.5564 67.3174 71.3817C66.84 70.8649 66.8914 70.8868 66.8694 70.319C66.8621 70.1298 66.8327 69.9478 66.818 69.7658C66.7886 69.2927 66.9208 68.856 66.9135 68.3902C66.9135 67.9971 66.8621 67.5677 66.8106 67.1746C66.7372 66.6433 66.3626 66.1629 65.9366 65.8353C65.5106 65.5078 65.0919 65.3404 64.5704 65.2021C63.6523 64.9546 62.6167 65.1511 61.8748 65.748C61.6839 65.6679 61.5296 65.5223 61.324 65.4714C61.0816 65.4059 60.8465 65.4496 60.6335 65.2821C60.5968 65.253 60.5527 65.2385 60.5087 65.2385C60.3985 65.2239 60.2663 65.2821 60.2516 65.4277C60.2075 65.7407 59.9578 65.8499 59.7375 66.0318C59.6567 66.0974 59.5979 66.1701 59.5391 66.2502C59.473 66.3521 59.4143 66.5341 59.2821 66.5559C59.1278 66.5778 59.1058 66.7597 59.1866 66.8689C59.2747 66.9926 59.5024 66.9854 59.6346 67.029C59.9945 67.1528 60.2149 67.4221 60.2516 67.8006C60.2736 68.0335 60.1782 68.2664 60.2002 68.4993C60.2369 68.9142 60.3324 69.2636 60.303 69.7003C60.2736 70.1443 60.3471 70.683 60.1194 71.0833C60.0019 71.2944 59.8329 71.4618 59.6714 71.6365C59.5465 71.7675 59.3849 71.8839 59.3188 72.0586C59.2527 72.2115 59.3335 72.4298 59.5391 72.3716C59.8183 72.2916 60.0533 72.226 60.3544 72.2624C60.5381 72.2843 60.7143 72.3498 60.9053 72.3498C61.0742 72.3498 61.2358 72.2916 61.3974 72.2624C61.5296 72.2333 61.6692 72.2333 61.8014 72.2624C61.9483 72.2843 62.0878 72.3571 62.2347 72.3134C62.367 72.277 62.4624 72.1605 62.3743 72.0295C62.2788 71.8985 62.1539 71.7893 62.0585 71.6656C61.9483 71.52 61.9116 71.338 61.8014 71.1852C61.6765 71.0105 61.537 70.9304 61.4782 70.7121C61.4709 70.6757 61.4635 70.6393 61.4562 70.6029C61.4782 70.3336 61.5076 70.057 61.5223 69.7877C61.5517 69.3364 61.4635 68.8997 61.4709 68.4484C61.4782 67.4075 62.3523 66.5195 63.3512 66.2793C64.4309 66.0246 65.3857 66.7088 65.6501 67.7205C65.8338 68.4411 65.7897 69.249 65.753 70.0206C65.7383 70.3481 65.7089 70.6684 65.5767 70.9595C65.4665 71.1997 65.2682 71.3744 65.0699 71.5418C64.9009 71.6801 64.688 71.8112 64.5925 72.015C64.497 72.2188 64.7026 72.4662 64.901 72.2988C65.1433 72.1023 65.4298 72.277 65.6942 72.2988C65.8852 72.3207 66.0468 72.277 66.2304 72.2552C66.605 72.2115 67.2073 72.2042 67.5745 72.2988C67.6112 72.3061 67.6406 72.3061 67.67 72.2988C67.8242 72.2697 67.905 72.1314 67.8463 72.0004L67.8242 71.9931Z" fill="#171B1B" fill-opacity="0.66"/>
<path d="M56.8366 65.2692C56.7925 65.2401 56.7411 65.2255 56.6823 65.2401C56.1902 65.3493 55.8523 65.2619 55.3602 65.2401C54.9122 65.2182 54.4495 65.473 54.0161 65.2765C53.9573 65.2474 53.8986 65.2546 53.8398 65.2765C53.7296 65.3056 53.6709 65.4148 53.7003 65.524C53.7811 65.8588 54.0014 66.1063 54.2438 66.3392C54.8534 66.9215 54.5596 67.562 54.2585 68.2462C54.0969 68.6247 53.9059 68.9886 53.715 69.3526C53.6195 69.5418 53.524 69.7311 53.4358 69.9203C53.2889 70.226 53.12 70.59 52.7087 70.5536C52.6353 70.539 52.5691 70.5099 52.4884 70.4662C52.077 70.2187 51.9669 69.6 51.7759 69.1924C51.5335 68.6756 51.2617 68.1443 51.0708 67.5984C50.9018 67.1107 50.99 66.805 51.0928 66.412C51.1002 66.3974 51.1148 66.3756 51.1222 66.361C51.3205 66.0553 51.5776 65.8588 51.7171 65.5167C51.7906 65.342 51.5996 65.2401 51.4454 65.291C50.8064 65.5167 50.2702 65.2474 49.6385 65.291C49.4108 65.3056 49.2199 65.3857 48.9995 65.4366C48.7498 65.4948 48.5441 65.5094 48.287 65.524C48.1622 65.524 48.0887 65.6331 48.1034 65.7569C48.1181 65.9097 48.2209 65.9607 48.3532 66.0044C48.6984 66.1208 49.0876 66.3246 49.2786 66.6449C49.3741 66.805 49.4108 67.0161 49.499 67.1835C49.6605 67.5038 49.9029 67.7658 50.0572 68.0861C50.2261 68.4282 50.2702 68.8067 50.4538 69.1415C50.6962 69.5636 50.9679 69.8766 51.1516 70.3498C51.2617 70.6409 51.3572 70.9393 51.5115 71.2159C51.6878 71.5362 51.9154 71.8346 52.0623 72.1694C52.0844 72.2422 52.1138 72.3223 52.1431 72.3951C52.1946 72.5334 52.2166 72.6717 52.2166 72.81C52.1652 73.3413 51.9889 73.8654 51.4894 74.1347C51.181 74.3021 50.8725 74.3749 50.8872 74.7825C50.8872 74.8698 50.9092 74.9645 50.9679 74.9936C51.0855 75.0518 51.2103 74.9499 51.3278 74.9281C51.4674 74.899 51.5996 74.899 51.7392 74.9062C52.0109 74.9208 52.29 74.9717 52.5618 74.9353C53.0172 74.8771 53.4946 74.5569 53.9794 74.8698C54.2585 75.0518 54.4788 74.717 54.2805 74.5569C53.6709 74.0692 53.142 73.5815 53.3183 72.7517C53.4505 72.133 53.8472 71.5071 54.1336 70.9466C54.4274 70.3716 54.6625 69.7747 54.9269 69.1997C54.9709 69.1051 55.0077 69.0105 55.037 68.9086C55.3015 68.3699 55.5365 67.8168 55.7642 67.2709C56.0653 66.5357 56.7043 66.2373 56.9761 65.5094C57.0275 65.3784 56.932 65.291 56.8219 65.2692H56.8366Z" fill="#171B1B" fill-opacity="0.66"/>
<path d="M91.217 67.7802C91.0848 67.8239 90.9453 67.904 90.8571 67.9185C90.5046 67.9768 90.152 67.8312 89.8141 67.7657C89.1531 67.6419 88.4774 67.8312 87.831 68.0204C87.7502 68.0423 87.6621 68.0714 87.596 68.1296C87.4197 68.2897 87.5372 68.61 87.7502 68.7265C87.9632 68.8429 88.2203 68.8138 88.4627 68.7992C88.7051 68.7847 88.9695 68.7992 89.1458 68.9667C89.3 69.1122 89.3367 69.3306 89.3661 69.5344C89.4322 70.073 89.4028 70.699 88.9621 71.0265C88.7344 71.194 88.4406 71.2449 88.1615 71.274C86.9717 71.4123 85.6716 71.3686 84.7241 70.6408C83.2845 69.5344 83.1964 67.409 83.8574 65.8514C84.1512 65.1599 84.636 64.694 85.297 64.3374C86.0829 63.9079 87.001 63.675 87.8824 63.8206C88.3158 63.8934 88.7785 64.0972 88.9254 64.5121C88.9842 64.6722 88.9842 64.8542 88.9768 65.0289C88.9768 65.2982 88.9768 65.5748 88.9695 65.8441C88.9695 66.0188 89.0356 66.259 89.2119 66.2371C89.3367 66.2226 89.3881 66.077 89.4469 65.9678C89.6158 65.6476 90.0125 65.4947 90.2255 65.1963C90.4605 64.8687 90.4899 64.3447 90.8718 64.2137C90.9526 64.1845 91.0481 64.1773 91.1069 64.119C91.2391 63.9807 91.0554 63.7696 90.8865 63.6823C89.3881 62.8307 87.5813 62.4376 85.9066 62.8307C83.9162 63.3038 82.3443 64.9124 82.1313 66.9432C82.0726 67.5328 82.0652 68.1296 82.1607 68.7192C82.3003 69.5708 82.6455 70.4078 83.2257 71.0557C84.019 71.9364 85.2015 72.4168 86.3841 72.5114C87.5739 72.606 88.7638 72.344 89.8803 71.9291C90.2255 71.7981 90.578 71.6525 90.9526 71.6598C91.0187 71.6598 91.0922 71.6598 91.1436 71.6234C91.2758 71.5288 91.1583 71.325 91.0481 71.2012C90.6074 70.6772 90.5046 69.8911 90.8131 69.2724C91.0261 68.8429 91.408 68.5081 91.5402 68.0495C91.5622 67.984 91.5696 67.9185 91.5402 67.8603C91.4814 67.7293 91.3492 67.7438 91.2097 67.7875L91.217 67.7802Z" fill="#171B1B" fill-opacity="0.66"/>
<path d="M8.40308 72.0016C8.38839 71.6231 8.11663 71.2883 7.88159 70.9681C7.54372 70.4003 7.72 70.2402 7.85956 69.4468C7.87425 69.3449 7.90363 69.1629 7.92566 69.0246C7.94035 68.8936 7.95504 68.7917 7.88159 68.7044C7.68328 68.4642 7.33807 68.8136 7.10303 68.5952C7.02223 68.5151 6.90471 68.5224 6.83126 68.5879C6.77985 68.6316 6.7725 68.6825 6.76516 68.7772C6.61092 69.6506 6.80923 71.1064 5.76625 71.2155C5.11255 71.2446 4.44416 71.1937 3.79046 71.2155C3.41587 71.2301 3.02658 71.3247 2.69606 71.0408C2.29944 70.6915 2.38757 70.0801 2.38757 69.6797C2.38023 68.6753 2.41695 66.0549 2.41695 66.004C2.41695 66.004 2.41695 66.004 2.41695 65.9967C2.41695 65.6837 2.41695 65.3707 2.4243 65.0577C2.4243 64.7884 2.44633 64.5409 2.60792 64.3153C2.82093 64.0169 3.09269 64.046 3.42321 63.9222C3.79046 63.7912 4.20912 63.5146 4.20178 63.0779C4.20178 62.9542 4.09895 62.8887 3.99612 62.8887C3.95939 62.8887 3.91532 62.8887 3.8786 62.9178C3.29835 63.3036 2.62261 62.9396 1.99829 62.9178C1.74857 62.9105 1.5576 62.976 1.30787 63.0124C0.970001 63.0634 0.617444 62.976 0.279577 62.9469C0.154713 62.8887 -0.0142209 62.9469 0.00781396 63.107C0.0739184 63.6602 0.272232 63.8131 0.727618 64.0897C1.01407 64.2571 1.13893 64.5191 1.14628 64.8466C1.14628 65.0141 1.14628 65.5236 1.14628 65.5964C1.14628 65.6764 1.14628 65.7565 1.14628 65.8366C1.14628 65.9967 1.14628 66.1568 1.14628 66.3242C1.14628 66.5717 1.14628 66.8192 1.14628 67.0667C1.14628 67.2559 1.183 69.5997 1.183 69.818C1.20504 70.7861 1.13159 70.9462 0.580719 71.4193C0.338336 71.6231 0.176748 71.6741 0.0298488 71.9944C0.00781396 72.038 0.00781396 72.0744 0.0151589 72.1108C0.0151589 72.2273 0.110643 72.3365 0.250197 72.2928C0.793723 72.1035 1.7045 72.2928 2.29209 72.2928C2.97517 72.2928 3.66559 72.2782 4.34867 72.2928C5.53855 72.3219 6.71375 72.1982 7.89628 72.2346C7.99177 72.2418 8.08725 72.2564 8.18273 72.2782C8.35901 72.3146 8.42512 72.1327 8.41043 72.0016H8.40308Z" fill="#171B1B" fill-opacity="0.66"/>
<path d="M29.6665 68.3835C29.6665 68.3835 29.6591 68.3544 29.6518 68.3399C29.6371 68.1361 29.6077 67.9395 29.5636 67.7357C29.5489 67.6338 29.5343 67.5319 29.5122 67.4373C29.4167 67.0879 29.2478 66.7167 29.0495 66.4183C28.7116 65.9233 28.1828 65.5667 27.6319 65.3338C27.0884 65.1008 26.4788 65.0353 25.8912 65.1154C25.4725 65.1736 25.0098 65.3774 24.5838 65.2683C24.3487 65.2027 24.1945 65.0645 24.077 64.8898C23.8713 64.504 23.8787 63.9508 23.9007 63.4413C23.9227 63.252 23.9448 63.0774 23.9521 62.9172C23.9815 62.5678 23.9521 62.5169 23.6142 62.5387C23.3204 62.5606 22.8651 62.3713 22.6814 62.6989C22.6227 62.808 22.6153 62.9318 22.6006 63.0482C22.5566 63.2884 22.4758 63.5068 22.3362 63.6888C22.2114 63.798 22.0718 63.8853 21.8808 63.9581C21.7486 64.009 21.6164 64.0527 21.543 64.1764C21.5283 64.2056 21.5209 64.2347 21.5283 64.2565C21.5283 64.3002 21.5503 64.3439 21.6091 64.3584C22.2407 64.5113 22.6447 65.0135 22.7255 65.6249C22.7255 65.9743 22.7255 66.3237 22.7255 66.673C22.7108 67.0443 22.7035 67.4082 22.6961 67.7794C22.6814 68.3326 22.8724 69.2716 22.5566 69.8029C22.4758 69.8684 22.3876 69.9266 22.2775 70.0504C22.0277 70.3488 21.8735 70.7273 21.6311 71.0403C21.565 71.1203 21.6311 71.2295 21.7119 71.2368C21.7266 71.2441 21.7413 71.2514 21.756 71.2514C23.1662 72.183 25.2154 72.6707 26.8827 72.3432C28.4252 72.0447 29.4682 70.5308 29.6444 69.0605C29.6665 68.8567 29.6738 68.6529 29.6665 68.4491C29.6738 68.4272 29.6812 68.4054 29.6665 68.3763V68.3835ZM23.9521 69.3662C23.9448 68.9367 23.9374 68.5218 23.9521 68.0924C23.9668 67.8522 23.9815 67.612 24.0035 67.3645C24.1431 66.8769 24.4442 66.4984 25.0759 66.3091C25.9205 66.0471 27.081 66.1126 27.698 66.8041C28.3077 67.4883 28.4399 68.318 28.315 69.206C28.2562 69.6137 28.1461 69.9485 27.9184 70.2979C27.7862 70.4944 27.6466 70.6327 27.4997 70.7564C26.9635 71.1567 26.2878 71.3678 25.5386 71.3314C24.8335 71.295 24.2165 71.2077 24.0402 70.4507C23.9815 70.2032 23.9668 69.9558 23.9521 69.701C23.9521 69.5918 23.9521 69.4826 23.9521 69.3735V69.3662Z" fill="#171B1B" fill-opacity="0.66"/>
<path d="M36.0497 72.0162C35.9616 71.7541 35.9396 71.4994 35.6678 71.3393C35.4842 71.2301 35.2932 71.1864 35.139 71.0335C34.9847 70.8807 34.9186 70.6842 34.8819 70.4804C34.8672 68.799 34.8231 67.1249 34.8231 65.4435C34.8452 65.3707 34.7864 65.2761 34.6909 65.2979C34.3016 65.3634 33.6993 65.014 33.5892 65.6036C33.5378 65.8875 33.457 66.0622 33.1632 66.1714C33.0677 66.2078 32.9722 66.2296 32.8988 66.3024C32.7592 66.4334 32.6123 66.6154 32.5976 66.8119C32.5976 66.8337 32.5976 66.8556 32.605 66.8847C32.7004 67.0739 32.9869 67.0885 33.1411 67.2049C33.2513 67.285 33.3909 67.3942 33.4863 67.4961C33.5451 67.5689 33.5818 67.6635 33.5965 67.7581C33.6112 68.5661 33.6332 69.3886 33.5965 70.1965C33.5892 70.444 33.5745 70.6914 33.479 70.9025C33.3321 71.1282 33.0971 71.2301 32.862 71.3756C32.6417 71.5139 32.4654 71.7978 32.4654 72.0671C32.4581 72.1326 32.5242 72.2564 32.627 72.2127C32.9061 72.0962 33.2733 72.2127 33.5745 72.2127C33.8462 72.2054 34.1033 72.1108 34.3751 72.1035C34.9113 72.089 35.4181 72.2855 35.9689 72.2127C35.9689 72.2127 35.9763 72.2127 35.9836 72.2127C35.991 72.2127 35.9983 72.2127 36.0057 72.2054C36.035 72.1909 36.0571 72.1617 36.0571 72.1254C36.0644 72.0817 36.0571 72.0453 36.0277 72.0162H36.0497Z" fill="#171B1B" fill-opacity="0.66"/>
<path d="M107.972 72.0162C107.883 71.7541 107.861 71.4994 107.59 71.3393C107.406 71.2301 107.215 71.1864 107.061 71.0335C106.907 70.8807 106.84 70.6842 106.804 70.4804C106.789 68.799 106.745 67.1249 106.745 65.4435C106.767 65.3707 106.708 65.2761 106.613 65.2979C106.224 65.3634 105.621 65.014 105.511 65.6036C105.46 65.8875 105.379 66.0622 105.085 66.1714C104.99 66.2078 104.894 66.2296 104.821 66.3024C104.681 66.4334 104.534 66.6154 104.519 66.8119C104.519 66.8337 104.519 66.8556 104.527 66.8847C104.622 67.0739 104.909 67.0885 105.063 67.2049C105.173 67.285 105.313 67.3942 105.408 67.4961C105.467 67.5689 105.504 67.6635 105.518 67.7581C105.533 68.5661 105.555 69.3886 105.518 70.1965C105.511 70.444 105.496 70.6914 105.401 70.9025C105.254 71.1282 105.019 71.2301 104.784 71.3756C104.564 71.5139 104.387 71.7978 104.387 72.0671C104.38 72.1326 104.446 72.2564 104.549 72.2127C104.828 72.0962 105.195 72.2127 105.496 72.2127C105.768 72.2054 106.025 72.1108 106.297 72.1035C106.833 72.089 107.34 72.2855 107.891 72.2127C107.891 72.2127 107.898 72.2127 107.906 72.2127C107.913 72.2127 107.92 72.2127 107.928 72.2054C107.957 72.1909 107.979 72.1617 107.979 72.1254C107.986 72.0817 107.979 72.0453 107.95 72.0162H107.972Z" fill="#171B1B" fill-opacity="0.66"/>
<path d="M45.8759 65.7353C45.8025 65.6625 45.7437 65.5897 45.6556 65.5388C45.6115 65.5097 45.5601 65.4878 45.5087 65.4733C45.494 65.4733 45.4793 65.466 45.4646 65.4587C45.2516 65.3714 45.0019 65.3277 44.8109 65.2767C44.1719 65.1093 43.5329 65.0001 42.8645 65.0875C42.6001 65.1239 42.343 65.1894 42.1006 65.2986C41.6379 65.5097 41.3955 65.8008 40.8006 65.5024C40.5949 65.4005 40.404 65.2549 40.213 65.2476C40.191 65.2476 40.1689 65.2403 40.1395 65.2331C40.0441 65.2258 39.9706 65.2622 39.9192 65.3204C39.9118 65.3277 39.9045 65.335 39.8972 65.3495C39.787 65.5533 39.6988 65.728 39.5446 65.9027C39.4197 66.0483 39.3536 66.2739 39.2067 66.3904C39.0892 66.485 38.8982 66.5214 38.7881 66.616C38.766 66.6306 38.744 66.6451 38.7293 66.6597C38.6412 66.7398 38.6412 66.8708 38.7073 66.9436C38.7073 66.9436 38.7146 66.9581 38.722 66.9654C38.8982 67.1546 39.1774 67.2056 39.3683 67.3803C39.4932 67.4967 39.5593 67.635 39.6107 67.7879C39.6327 68.6759 39.6915 69.5639 39.6548 70.4519C39.6181 71.2235 38.7146 71.2817 38.7146 72.0823C38.7146 72.0823 38.7146 72.0896 38.7146 72.0969C38.7146 72.1042 38.7146 72.1187 38.7146 72.126C38.722 72.1551 38.744 72.1842 38.7807 72.1988C38.979 72.2716 39.3169 72.1042 39.5005 72.1042C39.8678 72.1042 40.1542 72.2279 40.5288 72.1624C40.7859 72.1187 41.0356 72.0314 41.3 72.0168C41.5718 72.0023 41.8068 72.126 42.0639 72.1915C42.2696 72.2425 42.4385 72.2789 42.6515 72.2134C42.7176 72.2134 42.7764 72.1551 42.747 72.0823C42.4532 71.2526 41.3588 71.4855 41.0503 70.6921C40.7712 69.9642 40.9475 69.1199 40.9181 68.3411C40.9254 68.1737 40.9328 68.0135 40.9769 67.8534C41.087 67.4458 41.3661 67.0964 41.6673 66.8053C41.9684 66.5141 42.343 66.3467 42.7543 66.2521C42.8131 66.2375 42.9306 66.2157 43.0555 66.2011C43.0849 66.2011 43.1216 66.2157 43.151 66.223C43.4374 66.3176 43.6578 66.5287 43.7606 66.8125C43.8928 67.1692 43.8267 67.7515 43.7386 68.1154C43.7239 68.1809 43.7679 68.2319 43.8194 68.2465C43.9369 68.2828 44.047 68.3047 44.1719 68.2974C44.3262 68.2828 44.451 68.2756 44.5906 68.3265C44.62 68.3556 44.664 68.3629 44.7081 68.3265C45.0313 68.1154 44.7962 67.4822 44.8623 67.1692C44.9138 66.9072 45.259 66.6815 45.5087 66.4268C45.5381 66.4049 45.5675 66.3685 45.5895 66.3467C45.7437 66.172 45.8172 66.0628 45.8906 65.859C45.9053 65.8154 45.8759 65.7571 45.8466 65.7135L45.8759 65.7353Z" fill="#171B1B" fill-opacity="0.66"/>
<path d="M75.3165 71.6882C75.2798 71.5863 75.1623 71.4844 75.1182 71.4044C75.0668 71.3097 75.0888 71.1423 75.0301 71.055C75.0154 71.0186 74.986 70.9895 74.9272 70.9895C74.9272 70.9895 74.9126 70.9895 74.9052 70.9895C74.9052 70.9895 74.9052 70.9895 74.8905 70.9895C74.8758 70.9895 74.8685 70.9895 74.8611 70.9895C74.6702 71.0186 74.4939 71.1642 74.3103 71.2224C73.7667 71.3898 73.0983 71.4116 72.6797 70.9895C72.261 70.5746 72.3565 69.9777 72.3565 69.4318C72.3565 69.0388 72.3785 68.6457 72.3492 68.2527C72.3492 68.2454 72.3492 68.2381 72.3492 68.2308C72.3492 67.8087 72.3198 67.3574 72.3785 66.9279C72.5034 66.6586 72.6797 66.3966 72.9882 66.3238C73.1204 66.2947 73.2967 66.3238 73.4289 66.3238C73.7521 66.3238 74.0679 66.3238 74.3911 66.3384C74.4572 66.3384 74.5747 66.3602 74.6849 66.3529C74.6849 66.3529 74.6995 66.3529 74.7069 66.3529H74.7216C74.7289 66.3529 74.7363 66.3529 74.7436 66.3529C74.8244 66.3384 74.8905 66.3093 74.9199 66.2437C74.9346 66.2292 74.9419 66.2146 74.9493 66.1928C74.986 66.12 74.986 66.0399 74.9787 65.9599C74.964 65.8289 74.9346 65.7342 74.9566 65.6032C74.9713 65.4868 74.9713 65.2975 74.8171 65.2611C74.773 65.2538 74.7216 65.2611 74.6702 65.283C74.3396 65.3412 74.0091 65.2684 73.6786 65.2757C73.2452 65.2757 72.7605 65.3412 72.474 64.97C72.2243 64.6497 72.3124 64.3222 72.3565 63.9655C72.3712 63.8272 72.4226 63.6671 72.3565 63.5579C72.3198 63.4997 72.2684 63.4487 72.1949 63.4705C71.9232 63.5433 71.4678 63.3031 71.2401 63.5361C71.0565 63.7253 71.174 64.082 71.1813 64.3076C71.196 64.5842 71.2034 64.8389 71.0197 65.0573C70.9757 65.1083 70.9242 65.1738 70.8655 65.232C70.7112 65.3048 70.5276 65.3121 70.2926 65.2902C70.0943 65.2757 69.8886 65.2684 69.8299 65.494C69.8005 65.6105 69.8519 65.7633 69.8372 65.8871C69.8299 66.0108 69.7784 66.1346 69.8078 66.251C69.8592 66.4111 69.9914 66.4694 70.131 66.4184C70.3146 66.4039 70.4542 66.3238 70.6525 66.4257C70.8214 66.5203 71.0785 66.7751 71.1152 66.9571C71.1373 67.0662 71.1372 67.1827 71.1372 67.2992C71.0858 67.5976 71.1372 67.9178 71.1372 68.2163C71.1372 68.6748 71.1373 69.1261 71.1519 69.5847C71.174 70.3489 71.1372 71.1059 71.6367 71.7392C72.1141 72.3506 72.8339 72.3797 73.5611 72.3579C74.1707 72.336 74.8905 72.3433 75.2871 71.812C75.3239 71.7683 75.3092 71.7246 75.2871 71.6955L75.3165 71.6882Z" fill="#171B1B" fill-opacity="0.66"/>
</g>
<defs>
<clipPath id="clip0_402_26052">
<rect width="108" height="75" fill="white"/>
</clipPath>
</defs>
</svg>
