<svg width="115" height="53" viewBox="0 0 115 53" fill="none" xmlns="http://www.w3.org/2000/svg">
<g clip-path="url(#clip0_402_26041)">
<path d="M22.606 26.1626C22.5354 26.1892 22.4736 26.2248 22.4119 26.2692C22.2353 26.3935 22.0058 26.4468 21.794 26.4735C21.335 26.5268 20.8584 26.4557 20.4083 26.3669C20.0375 26.2958 19.6757 26.2159 19.305 26.1892C19.1196 26.1803 18.9254 26.1892 18.7401 26.207C18.4488 26.2514 18.0869 26.2692 18.0692 26.6512C18.0163 27.6728 17.4073 28.2413 16.8688 29.0231C16.3657 29.7605 16.0568 30.5333 15.3772 31.1463C14.2915 32.1235 13.453 33.536 12.438 34.5576C12.0496 34.8597 11.5994 34.8952 11.1758 34.4599C10.3814 33.5893 9.35752 33.0652 8.86324 31.9014C8.56314 31.1907 8.316 30.5955 7.79524 30.0092C7.26565 29.4229 6.50658 28.8277 6.10056 28.0992C5.9152 27.5395 6.02995 26.971 6.03877 26.3847C6.12704 26.1093 5.9152 25.7362 5.56215 25.8516C4.52945 26.1715 3.54088 26.0293 2.48171 26.1181C1.72263 26.1803 1.043 25.7983 0.310399 25.9227C0.0191253 25.976 -0.0338335 26.2425 0.0544311 26.4646C0.354531 27.1309 1.59906 27.5218 2.10217 27.9748C2.68472 28.5079 3.00247 29.1741 3.07308 29.9648C3.15252 30.9242 2.92303 31.8748 2.84359 32.8253C2.82594 33.0296 2.80829 33.2251 2.79946 33.4205C2.79946 34.3622 2.83477 35.295 2.83477 36.2455C2.83477 37.0806 2.69354 37.9068 2.65824 38.7419C2.62293 39.6658 2.95834 41.1227 2.58763 41.9666C2.31401 42.5974 1.75794 42.9349 1.22835 43.3258C0.910598 43.5657 0.584019 43.8855 0.40749 44.2497C0.328052 44.4185 0.266266 44.614 0.38101 44.7827C0.539887 45.0137 0.795854 45.1203 1.06947 45.0226C1.36957 44.916 1.59906 44.8005 1.93447 44.8183C2.58763 44.8627 3.18783 45.2092 3.84098 45.2269C4.40588 45.2358 4.95312 45.1026 5.50036 44.996C6.02995 44.8894 6.63897 44.8361 7.16856 44.9071C7.37157 44.9338 7.52162 44.9427 7.67167 44.7827C7.80407 44.6406 7.8482 44.4274 7.73346 44.2586C7.45984 43.8588 7.06264 43.5923 6.65663 43.3436C6.45362 43.2192 6.24178 43.0949 6.0476 42.9527C5.78281 42.7573 5.6151 42.3842 5.46505 42.0999C5.315 41.8156 5.112 41.4336 5.12082 41.1138C5.1473 40.3853 5.17378 39.6746 5.16495 38.9551C5.16495 38.5286 5.09434 37.6314 5.10317 37.6136C5.16495 36.1478 4.39705 34.3444 5.72985 33.1896C6.14469 32.8253 6.4801 32.6299 6.76254 32.3278C6.93025 32.47 7.09795 32.621 7.25683 32.7898C7.91881 33.4738 8.12182 34.4066 8.72202 35.1351C9.13686 35.6414 9.56053 36.1389 9.97538 36.6453C10.0107 36.7075 10.046 36.7608 10.0813 36.8141C10.452 37.5692 10.9463 38.3154 11.5818 38.4043C12.641 38.5464 12.9411 36.9651 13.3824 36.3344C13.8061 35.7303 14.4151 35.295 14.8564 34.7087C15.1477 34.3178 15.3242 33.8825 15.642 33.5182C16.1274 32.9586 16.7718 32.7987 17.3896 32.47C17.4602 32.4344 17.5308 32.39 17.6014 32.3456C17.981 32.7187 18.3076 32.9763 18.5017 33.7226C18.6341 34.2201 18.7312 34.9841 18.7401 35.4638C18.7665 36.7253 18.59 37.9956 18.6165 39.2571C18.6165 39.6569 18.6518 40.0389 18.6606 40.3942C18.5988 41.025 18.4841 41.6379 18.2281 42.0821C17.7162 43.006 16.8159 43.5479 16.1274 44.2941C15.995 44.4452 15.995 44.6228 16.0656 44.765C16.1009 44.8805 16.1892 44.9871 16.3393 45.0226C17.1954 45.2181 17.8398 44.8894 18.6783 44.7827C19.8522 44.6406 21.3439 44.8094 22.4825 45.0581C22.5796 45.0759 22.6678 45.0581 22.7473 45.0315C22.9503 44.9782 23.1092 44.8005 23.0209 44.5518C22.8708 44.1076 22.6767 43.8055 22.3324 43.4768C21.4851 42.6596 20.9908 42.1265 20.8408 40.8828C20.6466 39.3015 20.9732 37.6936 20.7437 36.0945C20.5936 35.0285 20.6113 34.2201 20.7348 33.154C20.8319 32.2834 20.5407 31.5105 20.5495 30.6577C20.5495 29.7782 20.9643 29.1031 21.5822 28.5167C21.8646 28.2413 22.1647 27.9926 22.4295 27.7083C22.5972 27.5307 22.8179 27.3086 22.9591 27.1042C23.0209 27.0065 23.2239 26.7311 23.2239 26.5357C23.2239 26.4291 23.1621 26.3314 23.0915 26.2603C22.9503 26.127 22.7914 26.1181 22.6414 26.1803L22.606 26.1626Z" fill="#171B1B" fill-opacity="0.66"/>
<path d="M40.5926 42.2329C40.0454 41.7354 38.8097 40.6516 38.6773 39.9498C38.5802 39.4345 38.7744 38.8126 38.792 38.2885C38.8097 37.7022 38.7656 37.0981 38.7214 36.5118C38.6155 34.815 38.4125 32.9317 37.1327 31.6879C35.9146 30.5064 34.2111 30.2843 32.5959 30.1688C30.1686 30 28.2444 30.7374 26.0025 31.5458C25.6406 31.6791 25.6671 32.1499 25.9142 32.3187C26.1084 32.5319 26.3379 32.6118 26.585 32.7629C26.9205 32.9672 27.0882 33.3492 27.3794 33.5979C27.7501 33.9089 28.4651 34.0066 28.6151 34.513C28.6769 34.7173 28.8446 34.8061 29.0123 34.7972C29.1889 34.8239 29.383 34.7439 29.4448 34.513C29.9832 32.4075 32.6488 32.2032 34.317 32.9672C35.7116 33.6068 36.2589 34.8061 36.4707 36.1387C36.4972 36.2897 35.1379 36.3519 35.0143 36.3519C33.9375 36.3341 32.8607 36.112 31.7838 36.0676C30.6982 36.0321 29.586 36.1209 28.5622 36.5118C26.4615 37.3113 25.0316 39.2391 25.2434 41.5488C25.4553 43.7253 27.0882 44.969 29.0918 45.4576C30.0274 45.6886 31.0248 45.7686 31.978 45.6175C33.9728 45.2888 35.6145 43.9563 37.5828 45.1911C37.8653 45.3688 38.1301 45.1556 38.1742 44.898C38.5802 43.8408 39.8954 44.0629 40.4161 43.0146C40.4867 42.8636 40.6368 42.8103 40.7515 42.7037C40.8045 42.6593 40.8398 42.5971 40.831 42.526C40.8221 42.4638 40.7692 42.4017 40.725 42.3572C40.6809 42.3128 40.6368 42.2684 40.5838 42.224L40.5926 42.2329ZM34.3523 42.6415C33.0107 43.4055 30.8218 43.5299 29.383 42.988C28.1385 42.5171 27.6089 41.3356 28.0944 40.0919C28.5357 38.9637 29.5596 38.5017 30.6805 38.253C31.2189 38.1375 31.8456 38.0487 32.4988 38.022C33.5315 38.022 34.6171 38.1464 35.588 38.5284C35.9234 38.6794 36.2235 38.8748 36.4883 39.1058C36.2059 40.5094 35.6498 41.8864 34.3523 42.6237V42.6415Z" fill="#171B1B" fill-opacity="0.66"/>
<path d="M57.0899 42.9974C56.4279 43.5482 55.607 43.5038 54.8127 43.3883C54.4773 43.3439 54.186 43.335 53.9035 43.3439C53.1003 43.2639 52.2442 43.3439 51.4145 43.3794C50.0022 43.4416 48.4664 43.406 47.0807 43.1484C46.5952 43.0596 46.2245 42.9086 45.9244 42.7131C45.7655 42.5621 45.5978 42.4377 45.5272 42.1623C45.2183 40.963 46.5423 40.581 47.4426 40.5899C47.5308 40.5899 47.6103 40.5899 47.6985 40.5899C50.3112 41.114 53.9653 40.3412 55.3334 37.8004C55.9689 36.6189 55.8012 35.5085 55.8454 34.0693C55.8718 33.3142 56.3749 31.9017 56.7368 31.1555C57.0458 30.5158 57.4076 30.1871 57.4076 29.4587C57.4076 29.2632 57.2841 29.13 57.134 29.0856C57.0546 29.0234 56.9398 29.0056 56.8074 29.0589C56.1808 29.3165 55.7218 29.7607 55.0598 29.9828C54.1507 30.2849 53.1798 30.3648 52.2265 30.3826C50.32 30.4092 48.334 30.1072 46.507 30.8179C44.3268 31.6707 43.0823 33.9982 43.6119 36.2547C43.6119 36.308 43.6207 36.3524 43.6295 36.4057C43.7531 37.3207 43.8855 38.0136 43.4177 38.9287C43.2412 39.2751 42.9852 39.5594 42.8175 39.9059C42.1732 41.2295 42.535 43.255 43.6825 44.2056C44.6975 45.0495 46.1186 45.3249 47.3896 45.4848C48.9431 45.6803 50.5318 45.5914 52.0941 45.6092C52.915 45.6181 54.0359 45.627 54.5655 46.391C54.5655 46.391 54.5743 46.4087 54.5832 46.4176C54.9451 47.3593 54.8215 48.3009 53.9741 49.2071C53.268 49.9622 52.2883 50.3886 51.2909 50.5929C49.6845 50.9127 44.9182 50.6107 44.9358 48.3187C44.9358 48.0344 44.6975 47.9012 44.4857 47.9278C44.2739 47.9101 44.0355 48.0433 44.0267 48.3187C43.9914 48.9672 43.6825 49.5891 43.5677 50.2287C43.453 50.8683 43.2235 51.4991 42.5704 51.7567C42.2967 51.8633 42.2526 52.1742 42.3497 52.3785C42.3938 52.5385 42.5174 52.6717 42.7292 52.6628C46.5246 52.5385 50.8761 53.8088 54.5302 52.1476C56.0131 51.4724 57.0016 50.051 57.2135 48.5497C57.6195 46.9151 57.0899 45.2716 57.7607 43.6459C57.7872 43.5837 57.796 43.5215 57.7872 43.4682C57.9549 43.1395 57.4694 42.722 57.1164 43.0152L57.0899 42.9974ZM46.4717 33.8028C47.2572 32.6035 48.59 32.3192 49.9228 32.2393C51.2468 32.1593 52.509 32.3103 53.2327 33.5807C53.4799 34.1848 53.5328 34.8422 53.4799 35.5085C53.3651 36.8854 52.712 37.6139 51.4056 38.0314C50.47 38.3246 49.5168 38.3956 48.5547 38.218C47.5308 38.0314 46.7982 37.6228 46.3304 36.921C45.8979 35.8638 45.8361 34.7889 46.4805 33.7939L46.4717 33.8028Z" fill="#171B1B" fill-opacity="0.66"/>
<path d="M114.991 37.568C114.991 37.568 114.974 37.5058 114.965 37.4791C114.938 37.0705 114.877 36.6707 114.788 36.2709C114.762 36.0666 114.735 35.8623 114.682 35.6669C114.497 34.965 114.162 34.2099 113.756 33.6058C113.094 32.602 112.035 31.8913 110.949 31.4205C109.872 30.9585 108.654 30.8253 107.498 30.9852C106.659 31.1006 105.75 31.5182 104.903 31.2872C104.435 31.1628 104.126 30.8786 103.897 30.5321C103.491 29.7592 103.499 28.6399 103.543 27.6094C103.579 27.2274 103.623 26.872 103.649 26.5522C103.702 25.8504 103.649 25.7527 102.979 25.7971C102.396 25.8415 101.496 25.4595 101.134 26.1169C101.019 26.3301 101.01 26.5877 100.966 26.8276C100.887 27.3073 100.728 27.7604 100.437 28.1246C100.181 28.3467 99.907 28.5155 99.5274 28.6576C99.2626 28.7554 98.9978 28.8442 98.8478 29.1018C98.8125 29.1551 98.8125 29.2173 98.8213 29.2617C98.8213 29.3506 98.8654 29.4394 98.9802 29.466C100.234 29.777 101.028 30.7808 101.204 32.0157C101.204 32.7175 101.204 33.4282 101.204 34.13C101.187 34.8762 101.16 35.6135 101.143 36.3598C101.116 37.4702 101.496 39.3713 100.869 40.4374C100.719 40.5706 100.534 40.6861 100.322 40.9438C99.8275 41.539 99.5274 42.3118 99.042 42.9337C98.9184 43.1025 99.042 43.3157 99.2008 43.3246C99.2273 43.3423 99.2626 43.3601 99.2891 43.3601C102.096 45.2346 106.147 46.2118 109.466 45.5633C112.529 44.9592 114.585 41.921 114.938 38.9449C114.983 38.5363 115 38.1276 114.983 37.719C115 37.6746 115.009 37.6301 114.983 37.5768L114.991 37.568ZM103.649 39.5401C103.632 38.6784 103.614 37.8345 103.649 36.9727C103.676 36.493 103.711 35.9955 103.746 35.5069C104.02 34.5209 104.611 33.7657 105.865 33.3749C107.533 32.8507 109.846 32.984 111.064 34.3698C112.273 35.7557 112.538 37.4258 112.29 39.2114C112.176 40.0287 111.964 40.7128 111.514 41.4057C111.258 41.8055 110.975 42.0809 110.684 42.3296C109.616 43.1291 108.283 43.5644 106.792 43.4845C105.388 43.4134 104.161 43.2269 103.808 41.7077C103.694 41.2103 103.667 40.7039 103.632 40.1975C103.632 39.9754 103.641 39.7622 103.632 39.5401H103.649Z" fill="#171B1B" fill-opacity="0.66"/>
<path d="M83.2949 8.02284C83.9335 8.02284 84.4512 7.5018 84.4512 6.85907C84.4512 6.21635 83.9335 5.69531 83.2949 5.69531C82.6564 5.69531 82.1387 6.21635 82.1387 6.85907C82.1387 7.5018 82.6564 8.02284 83.2949 8.02284Z" fill="#171B1B" fill-opacity="0.66"/>
<path d="M83.418 39.4431C83.418 39.4431 84.4683 39.8517 85.8452 39.1855C87.2222 38.5192 87.0103 36.8668 88.8374 36.8224C88.8374 36.8224 90.2761 36.7513 90.841 37.4354C91.247 37.924 91.0529 39.6297 91.0529 39.6297L87.5576 41.744L86.8515 41.9838L83.5504 39.9584L83.418 39.4431Z" fill="#171B1B" fill-opacity="0.66"/>
<path d="M87.116 42.2695L83.4707 40.1552C83.3383 40.0752 83.25 39.9331 83.25 39.7821V35.5446C83.25 35.3847 83.3294 35.2425 83.4707 35.1714L87.116 33.0482C87.2484 32.9683 87.4161 32.9683 87.5485 33.0482L91.1938 35.1714C91.3262 35.2514 91.4145 35.3935 91.4145 35.5446V39.7821C91.4145 39.942 91.335 40.0841 91.1938 40.1552L87.5485 42.2695C87.4161 42.3495 87.2484 42.3495 87.116 42.2695ZM84.4504 39.5866L87.116 41.1413C87.2484 41.2212 87.4161 41.2212 87.5485 41.1413L90.2141 39.5866C90.3465 39.5067 90.4347 39.3645 90.4347 39.2135V36.1131C90.4347 35.9532 90.3553 35.8111 90.2141 35.74L87.5485 34.1854C87.4161 34.1054 87.2484 34.1054 87.116 34.1854L84.4504 35.74C84.318 35.82 84.2297 35.9621 84.2297 36.1131V39.2135C84.2297 39.3734 84.3092 39.5156 84.4504 39.5866Z" fill="#171B1B" fill-opacity="0.66"/>
<path d="M90.2506 9.25733C90.2506 8.17352 89.3944 7.28516 88.3353 7.28516C87.2761 7.28516 86.4199 8.16464 86.4199 9.25733C86.4199 10.35 87.2761 11.2295 88.3353 11.2295C89.3944 11.2295 90.2506 10.35 90.2506 9.25733Z" fill="#171B1B" fill-opacity="0.66"/>
<path d="M100.277 10.4023C100.101 10.58 99.9858 10.7843 99.8887 11.0153C99.7386 11.3262 99.6062 11.6816 99.4209 11.9748C99.2355 12.259 98.9178 12.3479 98.6353 12.4989C98.2293 12.721 97.9116 12.7565 97.4526 12.6943C97.2672 12.6677 97.0907 12.6499 96.9054 12.6499C96.6935 12.6499 96.464 12.7032 96.2787 12.57C96.0404 12.3923 95.908 12.1702 95.6167 12.0547C95.4666 11.9925 95.3078 11.957 95.1577 11.8681C95.0165 11.7882 94.8929 11.6727 94.7517 11.5928C94.4516 11.424 94.0456 11.3707 93.6572 11.3973V11.3795C93.7013 11.0864 93.7455 10.8288 93.8426 10.5534C93.922 10.3224 93.9573 10.0736 93.975 9.83379C94.0191 9.38072 93.9926 8.86547 94.2662 8.47459C94.4251 8.25249 94.6458 8.03929 94.8753 7.88826C95.0253 7.78166 95.193 7.70171 95.3431 7.5951C95.5284 7.53292 95.7049 7.44408 95.8462 7.30194C96.0139 7.12427 96.0757 6.88441 96.2257 6.69785C96.3846 6.50241 96.6582 6.43134 96.7994 6.20925C96.9848 5.91609 96.8612 5.67623 96.8436 5.3653C96.8259 5.06326 96.8965 4.77009 96.773 4.48582C96.7553 4.43251 96.72 4.3881 96.6847 4.35256C96.6847 4.34368 96.6847 4.33479 96.6759 4.31703C96.464 3.99721 95.9433 4.29926 96.1551 4.61907C96.2081 4.70791 96.2081 4.8767 96.1992 5.02772C96.1904 5.20539 96.1551 5.38307 96.0845 5.54297C95.9256 5.94274 95.5637 6.20037 95.2901 6.51129C95.1577 6.66232 95.043 6.76892 94.8488 6.82222C94.6546 6.88441 94.4516 6.92883 94.2486 6.98213C94.0897 7.02655 93.9485 7.08873 93.8161 7.1598C93.7367 6.93771 93.6131 6.73339 93.4983 6.53795C93.0747 5.86279 92.5009 5.29423 92.0684 4.62796C91.8654 4.30814 91.8478 4.0594 91.8037 3.69517C91.7595 3.33982 91.53 3.02889 91.5212 2.66466C91.5212 2.2649 91.7066 1.90955 91.8037 1.52755C91.8919 1.17221 91.9096 0.799092 91.9096 0.425978C91.9096 0.372676 91.9272 0.328257 91.9361 0.266072C91.9625 0.00844511 91.6977 -0.071508 91.5124 0.0173288C91.5036 0.0173288 91.4947 0.0262124 91.4859 0.0350961C91.4683 0.0350961 91.4594 0.0528635 91.4506 0.0617471C91.3976 0.0883982 91.3623 0.132817 91.3447 0.195002C91.3447 0.203886 91.3359 0.21277 91.327 0.221653C91.1328 0.896812 91.0093 1.56309 90.6297 2.16718C90.3296 2.63801 90.1001 3.10885 90.3032 3.66852C90.4267 4.0061 90.5856 4.30814 90.6827 4.66349C90.771 4.9833 90.868 5.28535 91.0358 5.56962C91.3447 6.09376 91.786 6.52018 92.1126 7.03543C92.4656 7.5951 92.5009 8.26138 92.6069 8.89212C92.7834 9.94928 92.4656 11.0331 91.8566 11.8948C91.7948 11.9659 91.7242 12.0369 91.6713 12.108C91.3712 12.4634 91.0711 12.8187 90.6827 13.103C89.9148 13.6538 88.9704 14.2667 88.5996 15.1818C88.2642 16.0079 88.4319 16.8874 88.5643 17.7314C88.7144 18.673 88.6526 19.5881 88.5467 20.5386C88.4408 21.5069 88.3172 22.493 88.4849 23.4702C88.5996 24.1276 88.7056 24.7939 88.5908 25.4602C88.4761 26.0909 88.2819 26.6062 88.2642 27.2636C88.2466 27.9298 88.4496 28.7649 88.4937 29.4223C88.5379 30.0974 88.2642 30.6571 88.4319 31.3412C88.5467 31.812 88.8291 32.0607 89.3058 32.3273C89.5882 32.4872 89.8707 32.6737 90.1619 32.8425C90.8504 33.2423 91.53 33.642 92.2185 34.0418C92.3421 34.1129 92.4656 34.1839 92.598 34.2639C92.7393 34.3438 92.8187 34.4949 92.8187 34.6459V40.5269C92.8187 40.6868 92.7304 40.8289 92.598 40.9089L87.5405 43.8494C87.3992 43.9293 87.2315 43.9293 87.0991 43.8494L82.0416 40.9089C81.9004 40.8289 81.8209 40.6779 81.8209 40.5269V34.6459C81.8209 34.486 81.9092 34.3438 82.0416 34.2639C82.9948 33.7131 83.9393 33.1623 84.8925 32.6115C85.378 32.3273 85.731 32.0341 85.9958 31.5188C86.3401 30.8437 86.1371 30.1063 85.9958 29.4045C85.7664 28.2941 86.4107 27.4146 86.4283 26.1353C86.4283 25.7089 86.2959 25.3003 86.2342 24.8827C86.1194 24.1365 86.1812 23.3814 86.2165 22.6263C86.243 22.1288 86.2606 21.6313 86.2077 21.1427C86.1635 20.7252 86.0135 20.3254 85.9694 19.9079C85.9252 19.5081 85.9252 19.0906 85.8105 18.6908C85.7046 18.3355 85.4663 18.0334 85.1838 17.8113C84.919 17.5892 84.6013 17.456 84.3188 17.2694C83.798 16.9407 83.3126 16.3278 83.4891 15.6792C83.5774 15.3328 83.851 15.0574 83.9834 14.7287C84.1246 14.3822 84.1511 14.0002 84.3188 13.6627C84.663 12.9875 85.0338 12.3834 85.0955 11.6016C85.2191 11.3085 84.8484 10.9709 84.6277 11.2552C84.2305 11.7527 84.3453 12.4456 83.8245 12.872C83.5686 13.0763 83.3038 13.2007 83.1537 13.5205C83.0919 13.6538 83.0655 13.787 83.0213 13.9292C82.9684 14.098 82.8713 14.2401 82.7654 14.3822C82.3858 14.8975 82.2358 15.4927 82.2005 16.1234C82.2005 16.1945 82.2005 16.2656 82.2005 16.3366C81.6091 16.1057 81.0795 15.8392 80.647 15.315C80.444 15.0663 80.2498 14.8442 79.985 14.6576C79.7026 14.4533 79.3672 14.3112 79.2348 13.9558C79.1112 13.6271 79.1377 13.2362 79.0847 12.8898C79.0141 12.49 78.8199 12.0991 78.8994 11.6905C78.97 11.2996 79.0847 11.0242 79.0141 10.6156C78.9611 10.3046 78.9082 9.96704 78.8994 9.63835C78.8994 9.60281 78.8994 9.56728 78.8994 9.53174C78.8994 9.1764 78.4051 9.14974 78.3168 9.45179C78.2992 9.48732 78.2903 9.53174 78.2903 9.58504C78.2903 9.6117 78.2903 9.62946 78.2903 9.65611C78.2815 10.2069 78.2109 10.7577 78.1315 11.2996C78.0697 11.6816 78.0079 12.0636 78.0079 12.4545C77.7961 12.5167 77.5489 12.4989 77.3371 12.4722C77.0458 12.4367 76.7369 12.3123 76.4456 12.3301C76.119 12.3568 75.916 12.5966 75.6865 12.8009C75.4835 12.9697 75.2629 13.0674 75.0245 13.1829C74.8921 13.2185 74.7774 13.2895 74.7156 13.4139C74.6274 13.6005 74.7244 13.7604 74.8657 13.8314C74.9098 13.8581 74.9628 13.8847 75.0245 13.8847C75.5541 13.8847 76.0396 13.5205 76.5162 13.3428C76.9664 13.174 77.4253 13.254 77.8049 13.5205C77.849 13.5738 77.902 13.6271 77.9461 13.6715C78.0962 13.8137 78.1756 13.9558 78.2727 14.1335C78.4669 14.4888 78.5463 14.8975 78.7758 15.2262C78.9965 15.546 79.3319 15.7858 79.579 16.0879C79.6496 16.1678 79.7026 16.2656 79.7644 16.3544C79.6496 16.4077 79.5437 16.4788 79.4378 16.5498C79.2436 16.692 79.0759 16.8519 78.9258 17.0384C78.7934 17.1984 78.661 17.3671 78.4933 17.4915C78.3345 17.5981 78.1579 17.6958 78.0079 17.8291C77.8402 17.989 77.7431 18.1844 77.6725 18.3976C77.593 18.6286 77.5577 18.8685 77.4165 19.0728C77.3459 19.1794 77.2665 19.2771 77.1959 19.3837C77.1694 19.4104 77.1429 19.437 77.1164 19.4637C76.8251 19.8013 76.7281 20.2543 76.375 20.5386C76.0484 20.8051 75.5983 20.7518 75.2099 20.8318C74.9892 20.8762 74.7774 20.965 74.5656 21.0272C74.3537 21.0805 74.1242 21.045 73.9036 21.0272C73.8948 21.0272 73.8859 21.0272 73.8683 21.0272C73.8506 21.0272 73.833 21.0272 73.8153 21.0272C73.427 20.9917 73.4358 21.5958 73.8153 21.6313C74.0448 21.6491 74.2743 21.6846 74.5126 21.6668C74.7951 21.6491 75.0687 21.5958 75.3599 21.5869C75.8542 21.5869 76.322 21.5958 76.7634 21.3115C77.1517 21.0539 77.4165 20.6452 77.7254 20.3076C77.8931 20.13 78.0167 19.9079 78.2197 19.7657C78.2286 19.7657 78.2374 19.748 78.255 19.748C78.361 19.9345 78.4845 20.1033 78.5022 20.3254C78.5287 20.5564 78.4404 20.7785 78.4139 21.0006C78.3609 21.4892 78.6169 21.809 78.8287 22.2176C79.0053 22.573 79.0318 23.0438 78.7846 23.3725C78.6964 23.488 78.714 23.6035 78.7846 23.6923C78.8994 23.8789 79.2524 23.9055 79.3407 23.6212C79.3583 23.5679 79.3848 23.5235 79.4113 23.4702C79.4201 23.4436 79.4378 23.4258 79.4466 23.408C79.4996 23.3192 79.5525 23.2304 79.579 23.1326C79.6408 22.9372 79.6584 22.724 79.632 22.5197C79.579 22.0844 79.3672 21.7379 79.376 21.2848C79.3936 20.8407 79.4996 20.4054 79.4643 19.9612C79.4378 19.5525 79.2171 19.135 79.2701 18.7175C79.3319 18.2733 79.6584 17.989 80.0115 17.7847C80.1792 17.687 80.3469 17.5537 80.5234 17.4649C80.7529 17.3583 81.0354 17.3671 81.2737 17.4204C81.6885 17.5004 82.0769 17.7669 82.4564 17.9446C82.8889 18.1489 83.2949 18.4243 83.6657 18.7263C84.0275 19.0195 84.2835 19.3749 84.4777 19.7746C84.663 20.2277 84.7601 20.7252 84.8043 21.1871C84.8661 21.8356 84.7248 22.4841 84.6807 23.1238C84.6277 23.79 84.7072 24.4563 84.716 25.1315C84.716 25.7711 84.6984 26.4374 84.46 27.0415C84.2305 27.6367 84.1599 27.9831 84.1599 28.6316C84.1599 29.1824 84.2923 29.7066 83.8951 30.1241C83.701 30.3284 83.3479 30.5683 83.039 30.7904C83.0037 30.817 82.9684 30.8437 82.9331 30.8703C82.8095 30.9503 82.7036 31.0302 82.6153 31.0924C82.58 31.1191 82.5535 31.1457 82.5182 31.1724C82.2887 31.3412 82.0769 31.5277 81.8739 31.7232C81.8298 31.7587 81.7856 31.7942 81.7415 31.8298C81.7238 31.8475 81.7062 31.8742 81.6885 31.892C80.2057 33.3755 79.2966 35.4099 79.2966 37.6219C79.2966 42.0904 82.9066 45.7238 87.3463 45.7238C88.2289 45.7238 89.0763 45.5728 89.8707 45.3063C90.3296 45.1553 90.7798 45.0043 91.2299 44.8799C92.1832 44.6311 93.1276 44.569 94.1603 45.2175C94.2045 45.2441 94.2486 45.253 94.2927 45.2619C94.381 45.2796 94.4692 45.2796 94.5399 45.2352C94.6458 45.173 94.7252 45.0576 94.7517 44.9332C94.9017 44.5334 95.1842 44.3202 95.5019 44.1514C95.6079 44.0981 95.7226 44.0448 95.8285 43.9915C96.2698 43.7872 96.7376 43.574 96.9936 43.0498C97.0024 43.0321 97.0201 43.0232 97.0289 43.0054C97.1084 42.8899 97.2319 42.8278 97.329 42.7389C97.3731 42.6945 97.4085 42.6412 97.4085 42.5612C97.4085 42.5168 97.3732 42.4813 97.3467 42.4458C97.329 42.428 97.3202 42.4102 97.3025 42.3925C97.2761 42.3658 97.2584 42.348 97.2319 42.3303C97.2055 42.3125 97.1878 42.2859 97.1613 42.2681C96.9583 42.0815 96.667 41.8239 96.3493 41.513C95.8462 41.0155 95.3254 40.4203 95.246 39.985C95.1489 39.4697 95.3431 38.8479 95.3607 38.3237C95.3607 38.1549 95.3607 38.0395 95.3607 37.9328C95.3607 37.8351 95.3784 37.7374 95.3784 37.6397C95.3784 37.5153 95.3607 37.3998 95.3607 37.2755C95.3607 37.1955 95.3607 37.1067 95.3431 37.0267C95.1754 34.8591 94.1691 32.9136 92.6069 31.5455C92.4921 31.43 92.3509 31.3145 92.192 31.199C92.1655 31.1724 92.1391 31.1457 92.1038 31.128C92.1038 31.128 92.1038 31.128 92.0861 31.1191C91.8654 30.968 91.6271 30.817 91.3888 30.6838C90.4179 30.1241 90.1001 29.3601 90.1266 28.3207C90.1531 27.379 90.4885 26.4729 90.4797 25.5312C90.4797 25.167 90.462 24.7939 90.4267 24.4297C90.3914 24.0565 90.312 23.7101 90.2414 23.337C90.0648 22.4131 90.0031 21.4536 90.1619 20.5297C90.259 19.9789 90.3826 19.4459 90.4091 18.8863C90.4356 18.291 90.3914 17.687 90.3296 17.0917C90.2855 16.6298 90.2325 15.9369 90.5503 15.5549C90.6739 15.4039 90.8239 15.2351 90.9828 15.1107C91.1152 15.0041 91.2741 14.9419 91.4153 14.8619C91.5742 14.7731 91.7066 14.6487 91.8566 14.551C92.0773 14.3911 92.3068 14.2401 92.5451 14.1157C92.7834 13.9913 93.0305 13.9114 93.2335 13.7337C93.5689 13.4672 93.7367 13.174 94.1956 13.1385C94.6899 13.103 95.0783 13.4939 95.4755 13.7337C95.8815 13.9736 96.3405 14.2134 96.8259 14.2223C96.9936 14.2223 97.1437 14.1779 97.2937 14.1157C97.5762 14.0624 97.8586 13.9736 98.1322 13.867C98.5824 13.6982 99.0767 13.5383 99.4562 13.2274C99.774 12.9697 100.003 12.6233 100.145 12.2413C100.251 11.9659 100.286 11.6638 100.383 11.3884C100.383 11.3795 100.392 11.3618 100.401 11.3529C100.401 11.344 100.401 11.3262 100.409 11.3174C100.471 11.1575 100.56 10.9975 100.692 10.8643C100.974 10.5978 100.542 10.1625 100.268 10.4379L100.277 10.4023Z" fill="#171B1B" fill-opacity="0.66"/>
<path d="M78.2392 44.7558C78.2039 43.9652 77.6567 43.2811 77.1712 42.6149C76.4828 41.4422 76.8446 41.0958 77.1271 39.4523C77.1712 39.2035 77.1536 38.9281 77.2242 38.6883C77.3213 38.3862 77.3566 38.2885 77.5155 38.0575C77.5861 37.9509 77.639 37.791 77.5772 37.6844C77.5066 37.5601 77.3742 37.5245 77.233 37.5156C77.0477 37.4979 76.9682 37.6134 76.8093 37.7022C76.7829 37.72 76.7387 37.7377 76.7034 37.7555C76.571 37.7999 76.4475 37.8443 76.3504 37.8532C76.1209 37.8621 75.9179 37.8976 75.6972 37.8532C75.1147 37.7377 74.5851 37.5689 74.0114 37.8177C73.8701 37.8799 73.8172 38.1108 73.9054 38.2352C74.1791 38.6172 74.5674 39.0436 74.6822 39.5322C74.6998 39.6033 74.7086 39.701 74.7086 39.7987C74.5851 41.3623 74.3644 42.9702 72.8374 43.1301C71.4958 43.2012 70.1454 43.0768 68.8037 43.1301C68.0358 43.1568 67.2415 43.3611 66.5795 42.7659C65.7763 42.0463 65.9528 40.7759 65.944 39.9409C65.9263 37.8532 66.0057 32.4164 66.0057 32.3009C66.0057 31.6524 66.0146 31.0039 66.0234 30.3554C66.0234 29.7957 66.0675 29.2805 66.3941 28.8096C66.8354 28.1878 67.3827 28.2411 68.0623 28.0012C68.8126 27.7347 69.6687 27.1573 69.6511 26.26C69.6511 25.9935 69.4392 25.8691 69.2362 25.8691C69.1568 25.8691 69.0774 25.878 68.9979 25.9402C67.8152 26.7486 66.4294 25.9846 65.1584 25.9402C64.6465 25.9224 64.2493 26.0646 63.755 26.1357C63.0665 26.2334 62.3428 26.0557 61.6455 26.0024C61.3983 25.878 61.0453 25.9935 61.0806 26.34C61.213 27.4949 61.619 27.8058 62.5546 28.3743C63.1372 28.7297 63.3931 29.2627 63.4108 29.9467C63.4196 30.3021 63.4019 31.3415 63.4019 31.4925C63.4019 31.6613 63.4019 31.8301 63.4019 31.9989C63.4019 32.3365 63.4019 32.6652 63.4019 33.0027C63.4019 33.518 63.4019 34.0244 63.4019 34.5396C63.4019 34.9394 63.4726 39.7899 63.4814 40.2518C63.5343 42.2595 63.3843 42.5882 62.2545 43.5654C61.7602 43.9918 61.4248 44.0984 61.1335 44.7469C61.0982 44.8358 61.0894 44.9157 61.0982 44.9957C61.0982 45.2355 61.2924 45.4665 61.5837 45.3688C62.6958 44.969 64.5494 45.3777 65.7498 45.3777C67.1444 45.3777 68.5478 45.3422 69.9512 45.3777C72.3785 45.4399 74.7793 45.1734 77.1977 45.2622C77.3919 45.28 77.5949 45.3066 77.7891 45.351C78.151 45.431 78.2834 45.0401 78.2569 44.7825L78.2392 44.7558Z" fill="#171B1B" fill-opacity="0.66"/>
</g>
<defs>
<clipPath id="clip0_402_26041">
<rect width="115" height="53" fill="white"/>
</clipPath>
</defs>
</svg>
