<svg width="97" height="59" viewBox="0 0 97 59" fill="none" xmlns="http://www.w3.org/2000/svg">
<g clip-path="url(#clip0_402_26024)">
<path d="M15.4565 20.3435C15.4072 20.3599 15.3661 20.3845 15.325 20.4173C15.2017 20.5076 15.0456 20.5404 14.9059 20.5568C14.5936 20.5896 14.2649 20.5486 13.9526 20.483C13.7061 20.4338 13.4514 20.3763 13.1966 20.3681C13.0652 20.3681 12.9419 20.3681 12.8104 20.3845C12.6132 20.4173 12.3667 20.4256 12.3502 20.6881C12.3091 21.3772 11.8983 21.7627 11.5285 22.296C11.1833 22.7964 10.9697 23.3214 10.5095 23.7316C9.76991 24.3961 9.19468 25.3559 8.50441 26.045C8.24145 26.2501 7.9374 26.2747 7.64157 25.9794C7.09921 25.3887 6.40072 25.036 6.05558 24.2402C5.85014 23.7562 5.68579 23.3542 5.32422 22.9605C4.96265 22.5667 4.44494 22.1565 4.16554 21.6643C4.03406 21.2787 4.11624 20.9014 4.12445 20.4994C4.18198 20.3107 4.04228 20.0646 3.79575 20.1384C3.08904 20.3517 2.4152 20.2615 1.69206 20.3189C1.17435 20.3599 0.705952 20.0974 0.204681 20.1876C0.0074601 20.2205 -0.0336277 20.4091 0.0238952 20.5568C0.229334 21.008 1.07574 21.2705 1.42088 21.5823C1.82354 21.9432 2.0372 22.3944 2.0865 22.9358C2.14402 23.5839 1.98789 24.232 1.93037 24.8801C1.92215 25.0195 1.90571 25.1508 1.8975 25.2903C1.8975 25.9301 1.92215 26.5618 1.92215 27.2099C1.92215 27.7759 1.82354 28.3338 1.8071 28.8998C1.78245 29.5315 2.01254 30.5159 1.7578 31.0902C1.5688 31.5168 1.19079 31.7465 0.829215 32.009C0.615559 32.1731 0.385468 32.3863 0.270422 32.6324C0.212899 32.7473 0.171811 32.8786 0.253987 32.9934C0.360815 33.1493 0.541601 33.2231 0.722387 33.1575C0.927826 33.0836 1.08396 33.0098 1.31405 33.018C1.7578 33.0426 2.16868 33.2805 2.62064 33.2969C3.00687 33.3051 3.37666 33.2149 3.75466 33.1411C4.11624 33.0754 4.53533 33.0344 4.8969 33.0836C5.0366 33.1001 5.13521 33.1083 5.24204 32.9934C5.33243 32.895 5.35709 32.7555 5.28313 32.6407C5.09413 32.3699 4.82295 32.1895 4.55177 32.0172C4.41207 31.9351 4.26415 31.8531 4.13267 31.7547C3.95189 31.6234 3.83684 31.3691 3.73001 31.1804C3.62318 30.9917 3.4917 30.7292 3.4917 30.5159C3.51636 29.7366 3.54923 28.9573 3.47527 28.1779C3.47527 28.1615 3.47527 28.1533 3.47527 28.1369C3.51636 27.1443 2.99043 25.9219 3.90258 25.1344C4.19019 24.8883 4.42029 24.757 4.60929 24.5437C4.72434 24.6422 4.83938 24.7406 4.94621 24.8555C5.39818 25.3231 5.53787 25.9548 5.94875 26.447C6.23637 26.7915 6.52398 27.1279 6.80338 27.4724C6.82803 27.5134 6.85268 27.5544 6.87733 27.5873C7.13208 28.1041 7.469 28.6045 7.90453 28.6619C8.62767 28.7604 8.83311 27.6857 9.13716 27.2591C9.42478 26.8489 9.84387 26.5536 10.1397 26.1516C10.3369 25.8891 10.4602 25.5938 10.6738 25.3477C11.0025 24.9703 11.4463 24.8555 11.8654 24.634C11.9147 24.6094 11.964 24.5766 12.0133 24.5437C12.2763 24.798 12.4899 24.9703 12.6296 25.4707C12.72 25.8071 12.7858 26.3239 12.794 26.6521C12.8104 27.5052 12.6871 28.3666 12.7118 29.2198C12.7118 29.4905 12.7365 29.7448 12.7447 29.9909C12.7036 30.4175 12.6214 30.8359 12.4488 31.1394C12.0955 31.7629 11.4874 32.132 11.019 32.6407C10.9286 32.7391 10.9286 32.8621 10.9779 32.9606C11.0025 33.0426 11.0601 33.1083 11.1669 33.1329C11.7503 33.2641 12.1941 33.0426 12.7693 32.9688C13.5746 32.8704 14.5936 32.9852 15.3743 33.1575C15.44 33.1739 15.5058 33.1575 15.5551 33.1411C15.6948 33.1083 15.8016 32.9852 15.7441 32.8129C15.6372 32.5094 15.5058 32.3043 15.2757 32.0828C14.7004 31.5332 14.3553 31.164 14.2567 30.3273C14.1252 29.2526 14.3471 28.1697 14.191 27.0786C14.0841 26.3567 14.1006 25.8071 14.1827 25.0852C14.2485 24.4945 14.0513 23.9695 14.0595 23.3952C14.0595 22.8046 14.3471 22.337 14.7662 21.9432C14.9552 21.7627 15.1606 21.5905 15.3496 21.3936C15.4647 21.2705 15.6208 21.1229 15.7112 20.9834C15.7523 20.9178 15.892 20.7291 15.892 20.5978C15.892 20.524 15.8509 20.4584 15.8016 20.4091C15.703 20.3189 15.5962 20.3189 15.4975 20.3517L15.4565 20.3435Z" fill="#171B1B" fill-opacity="0.68"/>
<path d="M27.759 31.2385C27.3892 30.9021 26.5428 30.1638 26.4524 29.688C26.3867 29.3353 26.5181 28.9169 26.5264 28.5641C26.5346 28.1622 26.5099 27.7602 26.4771 27.3582C26.4031 26.2097 26.2634 24.93 25.3923 24.085C24.5624 23.2892 23.3955 23.1334 22.2861 23.0595C20.6262 22.9447 19.3113 23.4451 17.7829 23.9947C17.5364 24.085 17.5528 24.4049 17.7254 24.5198C17.8568 24.6674 18.0212 24.7249 18.1855 24.8233C18.4156 24.9628 18.5307 25.2171 18.7279 25.3894C18.9826 25.6026 19.4675 25.6683 19.5661 26.0046C19.6072 26.1441 19.7222 26.2015 19.8373 26.2015C19.9605 26.2179 20.092 26.1605 20.1331 26.0046C20.5029 24.5772 22.3272 24.4377 23.4612 24.9546C24.4144 25.3894 24.7925 26.2015 24.9322 27.1039C24.9486 27.2105 24.02 27.2516 23.9378 27.2434C23.1982 27.2352 22.4669 27.0793 21.7273 27.0547C20.9877 27.0301 20.2235 27.0875 19.525 27.35C18.0869 27.8914 17.109 29.204 17.257 30.7627C17.3967 32.2393 18.5142 33.0761 19.8866 33.4124C20.5275 33.5683 21.2096 33.6257 21.8588 33.5191C23.2229 33.2976 24.3487 32.3952 25.6882 33.232C25.8772 33.3468 26.058 33.2073 26.0908 33.0351C26.3702 32.3132 27.2659 32.469 27.6275 31.7553C27.6768 31.6569 27.7754 31.6159 27.8576 31.542C27.8905 31.5092 27.9151 31.4682 27.9069 31.419C27.9069 31.3779 27.8658 31.3369 27.8329 31.3041C27.8001 31.2713 27.7672 31.2467 27.7426 31.2139L27.759 31.2385ZM23.4941 31.5174C22.5819 32.0342 21.0781 32.1163 20.1002 31.7553C19.2456 31.4354 18.8923 30.6314 19.221 29.7947C19.525 29.0317 20.2235 28.72 20.9877 28.5477C21.3575 28.4657 21.7848 28.4083 22.2286 28.3919C22.9353 28.3919 23.6749 28.4739 24.3405 28.7364C24.5706 28.843 24.776 28.9661 24.9568 29.1302C24.7596 30.0818 24.3816 31.017 23.4941 31.5174Z" fill="#171B1B" fill-opacity="0.68"/>
<path d="M39.0348 31.7555C38.5828 32.1247 38.024 32.1001 37.4817 32.018C37.2516 31.9852 37.0544 31.977 36.8571 31.9852C36.3066 31.9278 35.7231 31.9852 35.1561 32.0098C34.1864 32.0508 33.1428 32.0262 32.1896 31.854C31.8609 31.7883 31.6061 31.6899 31.4007 31.5586C31.2938 31.4602 31.1788 31.3699 31.1295 31.1813C30.9158 30.3691 31.8198 30.1066 32.4361 30.1148C32.4936 30.1148 32.5511 30.1148 32.6087 30.1148C34.3919 30.4676 36.89 29.9507 37.8268 28.228C38.2623 27.4322 38.1473 26.6693 38.1719 25.7013C38.1884 25.1845 38.5335 24.2328 38.78 23.7242C38.9937 23.2894 39.2402 23.0679 39.2402 22.5757C39.2402 22.4445 39.158 22.3542 39.0512 22.3214C38.9937 22.2804 38.9197 22.264 38.8293 22.305C38.402 22.4773 38.0898 22.7808 37.6378 22.9285C37.0133 23.1336 36.3559 23.191 35.6985 23.1992C34.3919 23.2156 33.036 23.0105 31.7869 23.4945C30.2913 24.0688 29.4449 25.6521 29.8065 27.1861C29.8065 27.2189 29.8065 27.2518 29.8147 27.2928C29.8969 27.908 29.9873 28.3838 29.6668 28.9991C29.5435 29.2288 29.3709 29.4257 29.2559 29.6636C28.8204 30.566 29.0587 31.936 29.8476 32.5841C30.5461 33.1583 31.5157 33.347 32.3786 33.4536C33.4468 33.5849 34.5233 33.5275 35.5916 33.5357C36.1504 33.5439 36.9229 33.5439 37.2844 34.0607C37.2844 34.0607 37.2844 34.0689 37.2927 34.0771C37.5392 34.717 37.457 35.3569 36.8736 35.9639C36.3887 36.4726 35.7231 36.7679 35.0411 36.8991C33.9399 37.1124 30.6857 36.9155 30.694 35.3569C30.694 35.1682 30.5296 35.078 30.3817 35.0944C30.2338 35.0862 30.0776 35.1682 30.0694 35.3569C30.0448 35.7999 29.8393 36.2182 29.7572 36.653C29.675 37.0878 29.5189 37.5144 29.0751 37.6867C28.8861 37.7605 28.8532 37.9738 28.9272 38.1133C28.9518 38.2199 29.0422 38.3102 29.1819 38.302C31.7787 38.2199 34.7534 39.0813 37.2516 37.9492C38.2623 37.4898 38.9444 36.53 39.0841 35.5127C39.3635 34.4053 39.0019 33.2896 39.4539 32.1903C39.4703 32.1493 39.4785 32.1083 39.4703 32.0672C39.5854 31.8457 39.2484 31.5586 39.0101 31.7555H39.0348ZM31.7787 25.5208C32.3128 24.7087 33.225 24.5118 34.1371 24.4625C35.0411 24.4133 35.9039 24.5118 36.4052 25.3731C36.5695 25.7833 36.6106 26.2263 36.5695 26.6857C36.4873 27.6209 36.0436 28.1131 35.1561 28.3921C34.5151 28.5889 33.8659 28.6382 33.2003 28.5233C32.5018 28.4003 32.0006 28.1213 31.6801 27.6455C31.3842 26.9236 31.3432 26.2017 31.7787 25.529V25.5208Z" fill="#171B1B" fill-opacity="0.68"/>
<path d="M60.867 32.0669C60.7766 31.7716 60.6616 31.4763 60.4233 31.263C60.2918 31.1399 60.1192 31.0743 59.9878 30.943C59.8727 30.8282 59.7905 30.6887 59.7084 30.5411C59.7001 30.5083 59.6837 30.4754 59.6508 30.4426C59.5522 30.3032 59.3879 30.3114 59.2728 30.3934C59.2153 30.4344 59.1742 30.5001 59.1578 30.5657C59.0674 30.7626 59.0181 31.0005 58.8866 31.1727C58.599 31.5419 58.0813 31.6321 57.6458 31.7142C56.7254 31.8865 55.616 31.8372 54.7532 31.4271C53.5288 30.8446 52.9371 29.4828 52.9535 28.1784C52.9782 26.6444 53.8082 25.2088 55.3448 24.7658C56.2488 24.5033 57.5225 24.5115 57.8923 25.5615C58.0895 26.1276 57.9991 26.8085 58.1388 27.3909C58.2045 27.6616 58.4922 27.6042 58.6565 27.4729C58.7962 27.3663 58.8373 27.1284 58.8866 26.9725C58.9523 26.7592 59.0099 26.5377 59.092 26.3244C59.2482 25.9307 59.5111 25.7092 59.8316 25.4631C60.2754 25.1103 60.5548 24.774 60.6123 24.1997C60.6287 24.0685 60.5548 23.9864 60.4644 23.9536C60.4315 23.9044 60.3904 23.8716 60.3247 23.847C59.2235 23.4614 58.2128 22.9282 57.0294 22.8789C56.1255 22.8461 55.1887 23.0184 54.3669 23.3794C53.4548 23.7813 52.6577 24.4376 52.0742 25.2416C50.554 27.3335 50.8416 30.4836 52.7317 32.2392C53.0357 32.5263 53.3808 32.7724 53.7588 32.9611C54.7039 33.4533 55.7968 33.6338 56.8486 33.56C57.3746 33.5272 57.8923 33.4369 58.3935 33.3057C59.092 33.1252 59.8481 32.6166 60.5548 32.5591C60.5959 32.5591 60.6287 32.5427 60.6616 32.5263C60.8013 32.5099 60.9081 32.4115 60.9163 32.2556C60.9163 32.2556 60.9163 32.2392 60.9163 32.231C60.9163 32.1572 60.8917 32.0915 60.8588 32.0505L60.867 32.0669Z" fill="#171B1B" fill-opacity="0.68"/>
<path d="M71.9121 32.9195C71.9121 32.9195 71.8957 32.8457 71.8875 32.8047C71.8546 32.6406 71.8135 32.4847 71.756 32.3288C71.6491 32.0253 71.5094 31.7382 71.3697 31.4429C71.0739 30.8276 71.1232 30.3354 71.2794 29.6873C71.3533 29.392 70.9753 29.2443 70.811 29.4166C70.811 29.4166 70.7945 29.4166 70.7863 29.433C70.0221 29.9744 69.7345 31.0737 68.773 31.3116C68.2142 31.4429 66.1516 31.7628 65.6996 31.1147C65.7489 31.0245 65.7982 30.9342 65.8475 30.8358C66.357 29.876 67.1706 29.0638 67.9512 28.3255C68.3457 27.9481 68.6169 27.4805 68.9867 27.095C69.3071 26.7586 69.6358 26.4797 69.8659 26.0695C69.9892 25.8644 70.1042 25.6676 70.2275 25.4707C70.3426 25.3394 70.4576 25.2082 70.5644 25.0605C70.8192 24.6995 71.0657 24.3222 71.4191 24.0515C71.5259 24.0186 71.6081 23.8956 71.6081 23.7889C71.6081 23.6249 71.4766 23.5264 71.3287 23.51C71.189 23.4936 71.0657 23.4116 70.9342 23.3706C70.7699 23.3131 70.5973 23.2885 70.4165 23.2803C70.0303 23.2557 69.6441 23.3295 69.2578 23.3624C68.4114 23.4362 67.565 23.3788 66.7186 23.4362C65.8886 23.4936 65.0504 23.5592 64.2123 23.5182C63.6124 23.4854 63.0289 23.2967 62.429 23.4198C62.24 23.4608 62.199 23.6331 62.2565 23.7725C62.2565 23.7971 62.2565 23.83 62.2729 23.8628C62.4208 24.2647 62.7742 24.5273 62.9139 24.9292C63.0125 25.2082 63.0207 25.4953 63.0618 25.7824C63.1029 26.0531 63.3083 26.4141 63.2426 26.6848C63.1768 26.9473 63.5302 27.1934 63.7439 26.9883C64.089 26.652 64.163 26.3238 64.3273 25.8891C64.7217 24.839 65.5517 24.757 66.5789 24.7652C67.0884 24.7652 67.5815 24.8964 68.0827 24.9456C67.9184 26.4797 66.7515 27.3575 65.8311 28.5552C65.2805 29.2689 64.7957 29.8678 64.1054 30.442C63.6206 30.844 63.259 31.2952 62.9221 31.812C62.7249 32.0663 62.7002 32.3535 62.5687 32.6406C62.5359 32.7062 62.5359 32.7718 62.5523 32.8293C62.503 33.0508 62.8071 33.2805 63.0289 33.0836C63.333 32.8047 64.2616 33.2148 64.6478 33.2312C65.4202 33.2641 66.168 32.9851 66.9487 33.0179C67.6801 33.0508 68.4032 33.2312 69.1346 33.2723C69.9481 33.3133 70.7616 33.0754 71.567 33.2641C71.6738 33.2887 71.7888 33.2476 71.8628 33.1656C71.9203 33.0918 71.9203 33.0097 71.9039 32.9277L71.9121 32.9195Z" fill="#171B1B" fill-opacity="0.68"/>
<path d="M85.6587 32.7151C85.6587 32.7151 85.6341 32.6658 85.6176 32.6412C85.4204 32.3787 85.1821 32.108 84.9602 31.8701C84.3028 31.1564 84.3768 31.181 84.3439 30.3935C84.3357 30.1309 84.2864 29.8766 84.27 29.6223C84.2289 28.966 84.4096 28.359 84.4014 27.7027C84.4014 27.153 84.3357 26.5542 84.2535 26.0128C84.1467 25.2744 83.629 24.6099 83.0455 24.1505C82.4621 23.6911 81.8786 23.4614 81.1555 23.2728C79.89 22.9282 78.4684 23.1989 77.4412 24.0357C77.1782 23.9208 76.9645 23.724 76.6851 23.6501C76.3482 23.5599 76.0277 23.6173 75.7319 23.3876C75.6744 23.3466 75.6169 23.322 75.5593 23.322C75.4114 23.2974 75.2306 23.3876 75.1978 23.5845C75.1402 24.0193 74.7951 24.167 74.4911 24.4213C74.3842 24.5115 74.2938 24.6099 74.2199 24.7248C74.1295 24.8643 74.0473 25.1186 73.8665 25.1514C73.6611 25.1842 73.62 25.4385 73.735 25.5944C73.8583 25.7666 74.1706 25.7502 74.3596 25.8159C74.8526 25.9881 75.1567 26.3655 75.206 26.8905C75.2389 27.2105 75.0992 27.5386 75.132 27.8668C75.1813 28.441 75.3128 28.9332 75.2799 29.5321C75.2471 30.1473 75.3375 30.9021 75.0252 31.4599C74.8609 31.747 74.6308 31.9931 74.4007 32.2311C74.2363 32.4115 74.0062 32.5756 73.9076 32.8135C73.8172 33.0268 73.9323 33.3303 74.2117 33.2483C74.5979 33.1334 74.9184 33.0432 75.3292 33.1006C75.584 33.1334 75.8223 33.2237 76.0853 33.2237C76.3236 33.2237 76.5372 33.1416 76.7673 33.1006C76.9563 33.0596 77.1371 33.0596 77.3261 33.0924C77.5233 33.1252 77.7123 33.2155 77.9178 33.1663C78.0986 33.117 78.2383 32.953 78.1068 32.7725C77.9753 32.592 77.8109 32.4443 77.6713 32.2639C77.5151 32.0588 77.4658 31.8127 77.3179 31.5994C77.1453 31.3615 76.9481 31.2466 76.8742 30.9349C76.8577 30.8857 76.8577 30.8364 76.8495 30.7872C76.8824 30.4099 76.9152 30.0325 76.9399 29.6469C76.981 29.0153 76.8659 28.4164 76.8659 27.7929C76.8824 26.3491 78.0821 25.1104 79.4545 24.7822C80.9418 24.4295 82.2649 25.3811 82.6182 26.7839C82.873 27.7847 82.8072 28.9086 82.7579 29.9751C82.7333 30.4263 82.6922 30.8775 82.5196 31.2794C82.3717 31.6158 82.1005 31.8619 81.8211 32.0916C81.5828 32.2803 81.2952 32.469 81.1637 32.7479C81.0322 33.0268 81.3116 33.3795 81.591 33.1416C81.9197 32.8627 82.3224 33.1088 82.684 33.1416C82.9469 33.1745 83.1688 33.1088 83.4235 33.076C83.9412 33.0104 84.7712 33.0104 85.2725 33.1416C85.3218 33.1498 85.3629 33.1498 85.404 33.1416C85.6176 33.0924 85.7327 32.9119 85.6505 32.7315L85.6587 32.7151Z" fill="#171B1B" fill-opacity="0.68"/>
<path d="M96.7703 23.4125C96.7128 23.3715 96.6388 23.3551 96.5566 23.3715C95.8746 23.5192 95.4062 23.4043 94.7323 23.3715C94.116 23.3387 93.4833 23.6915 92.8834 23.4289C92.8012 23.3879 92.719 23.3961 92.6451 23.4289C92.4972 23.47 92.415 23.6258 92.4478 23.7735C92.5629 24.2329 92.8587 24.5856 93.1956 24.9056C94.0338 25.7095 93.623 26.6037 93.2203 27.5553C92.9984 28.0804 92.7355 28.589 92.4725 29.0976C92.341 29.3601 92.2095 29.6226 92.0863 29.8851C91.8891 30.3117 91.6507 30.8204 91.0837 30.7629C90.9851 30.7465 90.8865 30.7055 90.7797 30.6399C90.2127 30.2953 90.0648 29.434 89.8018 28.8761C89.4649 28.1542 89.0869 27.4159 88.8321 26.6611C88.602 25.9885 88.7253 25.5619 88.865 25.0122C88.8814 24.9876 88.8896 24.963 88.9061 24.9384C89.1773 24.52 89.5306 24.2411 89.7278 23.7653C89.8264 23.5274 89.5717 23.3879 89.358 23.4536C88.4788 23.7653 87.7392 23.3879 86.8599 23.4536C86.5476 23.4782 86.2847 23.5848 85.9806 23.6504C85.6355 23.7325 85.3479 23.7571 85.0027 23.7653C84.822 23.7653 84.7316 23.9212 84.748 24.0852C84.7644 24.2985 84.9124 24.3642 85.0849 24.4298C85.5615 24.5939 86.0957 24.881 86.3669 25.3158C86.4983 25.5373 86.5559 25.8244 86.6627 26.0623C86.8846 26.5053 87.2215 26.8744 87.4351 27.3174C87.6652 27.7932 87.7228 28.3183 87.9857 28.7859C88.3226 29.3765 88.7006 29.8031 88.9472 30.4594C89.1033 30.8696 89.2348 31.2798 89.4402 31.6653C89.6785 32.1083 89.999 32.5267 90.2045 32.9943C90.2373 33.1009 90.2784 33.2076 90.3195 33.306C90.3935 33.4947 90.4181 33.6834 90.4181 33.8803C90.3442 34.6186 90.1058 35.3487 89.4156 35.7179C88.9883 35.9476 88.5609 36.0542 88.5774 36.6121C88.5774 36.7269 88.602 36.8664 88.6842 36.9074C88.8403 36.9894 89.0211 36.85 89.1773 36.8172C89.3663 36.7843 89.5553 36.7761 89.7443 36.7843C90.1223 36.809 90.5003 36.8746 90.8865 36.8254C91.5193 36.7433 92.1767 36.2921 92.8423 36.7351C93.2203 36.9894 93.5326 36.53 93.2532 36.3003C92.415 35.6276 91.6836 34.9467 91.9301 33.79C92.1109 32.9287 92.6533 32.0591 93.0477 31.2798C93.4504 30.484 93.7709 29.6554 94.1489 28.8515C94.2064 28.7202 94.2557 28.589 94.305 28.4495C94.6666 27.703 94.9953 26.9319 95.2993 26.1771C95.7102 25.1599 96.5895 24.7415 96.9757 23.7325C97.0415 23.552 96.9182 23.4289 96.7703 23.4043V23.4125Z" fill="#171B1B" fill-opacity="0.68"/>
<path d="M47.3 52.3543C47.111 52.4199 46.922 52.5266 46.8069 52.5512C46.3221 52.6332 45.8373 52.4281 45.3689 52.3379C44.4567 52.1656 43.5199 52.4281 42.6324 52.6906C42.5174 52.7234 42.3941 52.7645 42.3037 52.8465C42.0572 53.0762 42.2215 53.5192 42.5174 53.6751C42.8132 53.8309 43.1665 53.7981 43.4953 53.7735C43.824 53.7489 44.1937 53.7735 44.4403 54.0032C44.6457 54.2001 44.7032 54.5118 44.7443 54.7989C44.8347 55.5455 44.7936 56.4232 44.1937 56.8662C43.8815 57.1041 43.4788 57.1698 43.0844 57.2108C41.4491 57.4077 39.6494 57.342 38.3428 56.333C36.3542 54.7907 36.2309 51.8375 37.1513 49.6799C37.554 48.7201 38.2278 48.0802 39.1399 47.5716C40.2247 46.9727 41.4902 46.6528 42.7064 46.8579C43.3062 46.9563 43.9472 47.2435 44.1444 47.8177C44.2266 48.0474 44.2184 48.2935 44.2184 48.5314C44.2184 48.9088 44.2184 49.2862 44.2102 49.6635C44.2102 49.9096 44.3006 50.246 44.5389 50.2132C44.7114 50.1885 44.7854 49.9917 44.8676 49.8358C45.1059 49.3846 45.6482 49.1795 45.9441 48.7693C46.2646 48.3099 46.3057 47.5798 46.8316 47.3993C46.9466 47.3583 47.0699 47.3501 47.1521 47.2681C47.3328 47.0712 47.0781 46.7841 46.848 46.661C44.7854 45.4797 42.2955 44.9301 39.9781 45.4797C37.2335 46.136 35.0723 48.3756 34.7682 51.1976C34.686 52.0179 34.686 52.8465 34.8093 53.6587C34.9983 54.8482 35.4749 56.0049 36.272 56.8991C37.365 58.1214 38.992 58.7859 40.6273 58.9171C42.2626 59.0484 43.9061 58.6874 45.4428 58.1132C45.9194 57.9327 46.4043 57.7276 46.922 57.7358C47.0124 57.7358 47.111 57.7358 47.1849 57.6866C47.3657 57.5553 47.2014 57.2682 47.0534 57.0959C46.4371 56.3658 46.3057 55.2747 46.733 54.4216C47.0288 53.8309 47.5547 53.3551 47.7437 52.7234C47.7684 52.6332 47.7848 52.543 47.7437 52.4609C47.6615 52.2805 47.4808 52.2969 47.2835 52.3625L47.3 52.3543Z" fill="#171B1B" fill-opacity="0.68"/>
<path d="M60.5783 57.0148C60.2414 56.8836 60.0606 56.7851 59.8305 56.498C59.7812 56.4406 59.7401 56.3831 59.6908 56.3257C59.2881 55.7515 58.7458 55.2182 58.68 54.5291C58.7047 54.1436 58.7786 53.799 59.0991 53.4463C59.2306 53.2986 59.3785 53.1673 59.5182 53.0279C60.8001 52.0599 61.3261 50.1977 60.8823 48.68C60.34 46.8096 58.6143 45.7923 56.7571 45.6857C55.3848 45.6037 53.9385 46.0631 52.599 45.8662C52.1388 45.8006 51.6951 45.6529 51.2267 45.6939C50.5036 45.7513 49.8379 45.8252 49.1066 45.7595C48.8107 45.7349 48.8272 46.0877 48.8683 46.2928C48.9258 46.5635 49.1148 46.7768 49.3284 46.9409C49.7804 47.2854 50.3474 47.4823 50.5611 48.0483C50.9802 49.123 50.6679 50.575 50.7419 51.7153C50.824 52.9048 50.7501 54.1026 50.7912 55.3003C50.8158 56.0632 50.7665 56.6867 50.1666 57.2199C49.8379 57.507 49.4764 57.6711 49.2052 58.0157C49.1723 58.0649 49.1559 58.1141 49.1477 58.1551C49.1148 58.3028 49.1805 58.4751 49.3531 58.4915C49.4106 58.5079 49.4681 58.5079 49.5174 58.4751C49.7147 58.4422 49.7804 58.3602 50.0434 58.2946C50.52 58.1879 50.9309 58.4915 51.3746 58.5489C52.2128 58.6555 53.0839 58.1469 53.8974 58.5489C54.0864 58.6473 54.2672 58.5079 54.3083 58.352C54.3329 58.2946 54.3494 58.2372 54.3247 58.1551C54.0371 57.1543 52.8291 57.2527 52.5251 56.2601C52.3772 55.7761 52.3196 55.1936 52.5004 54.7178C52.7223 54.1518 53.3715 54.0041 53.9138 53.9795C54.1932 53.9631 54.4808 53.9795 54.752 54.0041C55.1136 54.0369 55.508 54.0041 55.8696 54.0944C56.2476 54.201 56.527 54.4717 56.7735 54.767C56.9708 55.0132 57.1926 55.2921 57.3323 55.5792C57.7021 56.3175 57.2419 56.6457 56.9543 57.2609C56.8639 57.4578 56.8393 57.6629 56.8229 57.868C56.8146 58.1059 56.7818 58.6883 57.2255 58.4833C57.9733 58.1469 58.5403 58.6227 59.2799 58.5243C59.8223 58.4504 60.4714 57.9582 60.9974 58.3766C61.0385 58.4094 61.0795 58.4258 61.1289 58.434C61.2932 58.5489 61.5808 58.4833 61.5808 58.2207C61.5808 57.6547 61.0631 57.1871 60.5783 56.9984V57.0148ZM55.2862 52.6915C54.826 52.6915 54.3576 52.7408 53.8974 52.6751C53.0099 52.5439 52.6155 51.8548 52.4593 51.0344C52.295 50.1566 52.1635 48.8523 52.5826 48.0237C53.2236 46.744 55.3273 47.2854 56.412 47.4659C56.527 47.4823 56.6503 47.5069 56.7653 47.5233C57.6857 47.6628 58.5978 47.8268 58.9594 48.8195C59.1977 49.4757 59.2059 50.2305 59.0087 50.895C58.4992 52.6259 56.7818 52.6915 55.2779 52.6915H55.2862Z" fill="#171B1B" fill-opacity="0.68"/>
<path d="M90.1871 51.2226C89.8583 48.7123 88.2477 46.5712 85.7578 45.9395C84.6649 45.6606 83.4815 45.6032 82.3639 45.7509C81.3203 45.8903 80.5889 45.7509 79.5618 45.6852C79.0605 45.6524 78.0908 46.0298 77.6882 45.8001C77.5402 45.7181 77.3677 45.7837 77.3019 45.9313C77.1376 46.2923 77.6799 46.6943 77.9429 46.8337C78.4113 47.0716 78.6003 47.0798 78.8715 47.5556C78.9537 47.7033 79.0276 47.8756 79.0851 48.0315C79.307 48.6467 79.1509 49.1225 79.1016 49.7624C79.0441 50.3941 79.1262 51.0011 79.1837 51.6246C79.2331 52.2153 79.1837 52.7895 79.1837 53.3802C79.1837 53.938 79.3399 54.4877 79.3317 55.0455C79.3317 55.8576 79.1509 56.7518 78.5757 57.3343C78.2963 57.6132 77.9922 57.8101 77.7457 58.13C77.4416 58.2449 77.5895 58.7453 77.9182 58.6551C79.5782 58.2039 81.3367 58.6551 83.0378 58.491C84.4348 58.3597 85.6674 58.6305 86.9493 58.048C88.0916 57.523 88.7079 57.0554 89.2996 55.9151C89.9898 54.6025 90.3678 52.6747 90.1788 51.2308L90.1871 51.2226ZM85.1826 56.8667C84.6566 57.0061 83.7116 57.039 83.161 57.0472C82.7091 57.0554 82.027 57.1128 81.649 56.8257C81.2381 56.5139 80.9834 56.0135 80.9259 55.4967C80.8519 54.8158 80.9916 54.1431 80.9423 53.4458C80.893 52.6829 80.967 51.9528 80.9587 51.1898C80.9587 50.8617 80.9177 50.5335 80.8683 50.2136C80.8437 49.7378 80.7944 49.2538 80.8355 48.778C80.8601 48.4662 80.9587 48.1627 81.1067 47.8838C81.2874 47.5556 81.3943 47.3424 81.7887 47.3259C82.2982 47.3013 82.8077 47.2603 83.3254 47.2603C84.3362 47.2603 85.3634 47.3916 86.2673 47.8674C87.993 48.7698 88.8065 51.2062 88.4449 52.9454C88.2888 53.7083 87.8533 54.8158 87.4342 55.4803C86.8672 56.3745 86.1604 56.5714 85.1661 56.8421L85.1826 56.8667Z" fill="#171B1B" fill-opacity="0.68"/>
<path d="M71.6574 41.5175C71.7067 41.3863 71.6246 41.2632 71.5095 41.1976C71.3616 41.1156 71.189 41.0499 71.0329 40.9761C70.9096 40.9187 70.7782 40.8695 70.6631 40.7956C70.5398 40.7054 70.4905 40.5823 70.3097 40.6234C70.1865 40.648 70.1454 40.7382 70.1125 40.8531C70.0714 41.0089 70.0386 41.255 69.9728 41.4027C69.8167 41.7637 69.7345 42.0508 69.5784 42.4117C69.4716 42.666 69.2497 42.8957 69.1429 43.1501C69.11 43.2321 69.0689 43.3223 69.036 43.4044C68.9456 43.6177 68.5265 44.0032 68.9621 44.1509C69.0114 44.1673 69.0607 44.1755 69.1264 44.1673C69.414 44.1181 69.8742 43.995 70.1454 44.1673C70.3015 44.2657 70.4494 44.1837 70.5152 44.0607C70.5891 43.9212 70.5234 43.831 70.5316 43.6751C70.5316 43.5274 70.6795 43.3387 70.7535 43.2157L71.0165 42.7071C71.1315 42.4856 71.2466 42.2723 71.3616 42.0508C71.4931 41.8703 71.6081 41.698 71.6656 41.5175H71.6574Z" fill="#171B1B" fill-opacity="0.68"/>
<path d="M32.6889 50.5824C32.1794 47.4158 29.0896 45.1188 25.9341 45.3321C24.2084 45.4469 22.3266 45.9966 21.1022 47.2763C20.3215 48.0967 19.8202 49.1549 19.508 50.2296C19.1711 51.3945 19.1793 52.5102 19.4587 53.7079C19.7792 55.0779 20.3215 56.4151 21.3734 57.3585C23.4524 59.2125 26.5586 59.434 29.0486 58.3019C32.0891 56.9155 33.2066 53.7407 32.6889 50.5824ZM21.0775 52.6579C21.0118 51.6488 21.1351 50.6726 21.6363 49.6882C22.228 48.5479 23.4442 47.4732 24.685 47.0958C26.0902 46.6693 27.9721 46.9974 29.1718 47.8424C30.5688 48.8268 30.8811 50.607 30.955 52.2067C31.029 53.7325 30.3798 55.3076 29.18 56.2838C28.2186 57.0714 26.6326 57.2437 25.4246 57.2519C22.6717 57.2765 21.398 55.0205 21.0693 52.6497L21.0775 52.6579Z" fill="#171B1B" fill-opacity="0.68"/>
<path d="M76.0854 50.5824C75.5759 47.4158 72.4861 45.1188 69.3306 45.3321C67.6049 45.4469 65.7231 45.9966 64.4987 47.2763C63.718 48.0967 63.2167 49.1549 62.9045 50.2296C62.5675 51.3945 62.5758 52.5102 62.8552 53.7079C63.1756 55.0779 63.718 56.4151 64.7699 57.3585C66.8489 59.2125 69.9551 59.434 72.445 58.3019C75.4855 56.9155 76.6031 53.7407 76.0854 50.5824ZM64.474 52.6579C64.4083 51.6488 64.5315 50.6726 65.0328 49.6882C65.6245 48.5479 66.8407 47.4732 68.0815 47.0958C69.4867 46.6693 71.3685 46.9974 72.5683 47.8424C73.9653 48.8268 74.2776 50.607 74.3515 52.2067C74.4255 53.7325 73.7763 55.3076 72.5765 56.2838C71.6151 57.0714 70.0291 57.2437 68.8211 57.2519C66.0682 57.2765 64.7945 55.0205 64.4658 52.6497L64.474 52.6579Z" fill="#171B1B" fill-opacity="0.68"/>
<path d="M45.9685 14.324C46.622 14.324 47.1518 13.784 47.1518 13.118C47.1518 12.452 46.622 11.9121 45.9685 11.9121C45.3149 11.9121 44.7852 12.452 44.7852 13.118C44.7852 13.784 45.3149 14.324 45.9685 14.324Z" fill="#171B1B" fill-opacity="0.68"/>
<path d="M63.4065 8.45874C63.4065 8.34389 63.2339 8.32748 63.2092 8.44233C63.1517 8.72125 63.0202 8.86891 62.8395 9.0658C62.7244 9.18885 62.5354 9.21346 62.4121 9.32011C62.3628 9.36113 62.3218 9.38574 62.2807 9.41035C62.2807 9.36933 62.2889 9.32011 62.2889 9.27909C62.2807 9.04939 62.2149 8.85251 62.2642 8.62281C62.2971 8.46694 62.33 8.27826 62.2724 8.12239C62.2314 8.01574 62.1492 7.93371 62.1081 7.81886C62.067 7.70401 61.9848 7.62197 61.878 7.59736C61.7712 7.57275 61.7136 7.71221 61.7794 7.77784C61.878 7.9255 61.9848 8.08137 61.952 8.26185C61.9273 8.40131 61.8862 8.6146 61.878 8.76227C61.878 9.00017 61.6726 9.22167 61.6068 9.45137C61.5246 9.73849 61.4507 10.001 61.2863 10.2143C61.2453 10.0174 61.1713 9.82053 61.1631 9.62364C61.1549 9.41035 61.0891 9.35292 61.0069 9.14783C60.9659 9.04119 61.0316 8.89352 60.9823 8.78688C60.9741 8.74586 60.9412 8.71305 60.9001 8.70484C60.8508 8.68843 60.7933 8.70484 60.7768 8.77047C60.6947 9.20526 60.8672 9.68927 60.8508 10.1323C60.8508 10.4768 60.6536 10.6737 60.4646 10.928C60.3331 11.1085 60.3167 11.5105 60.2016 11.7073C60.0784 11.9206 60.0044 11.9124 59.7907 12.0355C59.5771 12.1585 59.462 12.1503 59.1662 12.5769C59.0265 12.782 58.9443 12.9871 58.7471 13.1512C58.7142 13.1758 58.5417 13.3316 58.4924 13.307C58.3034 13.2086 58.1144 13.1102 57.9664 12.9625C57.9007 12.8887 57.8432 12.8148 57.7939 12.7328C57.761 12.5605 57.7199 12.3882 57.6788 12.2078C57.6213 11.9535 57.5556 11.7073 57.4652 11.4694C57.3255 11.1085 57.1858 10.7639 57.005 10.4358C56.9803 10.3456 56.9557 10.2471 56.931 10.1569C56.9064 9.93538 56.9228 9.70568 56.9064 9.47598C56.8899 9.2873 56.8653 9.13963 56.9064 8.95915C56.9393 8.81149 56.9886 8.68843 56.9886 8.54077C56.9886 8.52436 56.9886 8.51616 56.9886 8.49975C56.9968 8.40951 56.9721 8.31107 57.005 8.22083C57.0461 8.07317 57.0789 7.9255 57.0789 7.76964C57.0789 7.71221 57.0461 7.6794 57.005 7.67119C56.9721 7.64658 56.9228 7.64658 56.8899 7.6876C56.7831 7.81065 56.6681 7.96652 56.6105 8.12239C56.5777 8.21263 56.5777 8.33568 56.5695 8.43412C56.5366 8.67203 56.4709 8.72945 56.3887 8.93454C56.3476 9.03298 56.3065 9.15604 56.2654 9.28729C55.8052 8.71305 55.1725 8.05676 55.2711 7.4661C55.3368 7.07233 55.3779 6.63755 55.4601 6.24377C55.6162 5.52186 55.4026 5.43162 55.2053 4.70971C55.1889 4.63588 55.1396 4.59486 55.0821 4.57845C55.0574 4.57025 55.041 4.56204 55.0163 4.56204C54.9917 4.55384 54.9753 4.54564 54.9424 4.55384C54.8849 4.55384 54.8438 4.60306 54.8356 4.66049C54.8191 4.79995 54.8931 4.96402 54.8931 5.11989C54.8931 5.21833 54.9013 5.31677 54.9095 5.41521C54.9259 5.6203 54.9424 5.87461 54.8931 6.0797C54.852 6.24377 54.7534 6.36683 54.7205 6.5391C54.6959 6.67856 54.589 7.18718 54.5562 7.31024C54.4411 7.73682 54.5808 7.93371 54.5562 8.09778C54.5069 8.05676 54.1288 7.51533 54.1124 7.40048C54.096 7.31844 54.0795 7.24461 54.0631 7.16257C53.9727 6.7606 53.833 6.33401 54.0385 5.94024C54.1617 5.70234 53.8084 5.48905 53.6851 5.72695C53.4879 6.09611 53.4304 6.46527 53.5454 6.85084C53.6358 7.13796 53.5783 7.37587 53.6194 7.67119C53.6604 7.93371 53.8166 8.21263 53.9563 8.43412C54.2275 8.87712 54.7616 9.44316 55.2547 9.7631C55.7477 10.1733 56.175 10.6081 56.2243 11.3054C56.2654 11.8796 56.1832 12.3964 56.3969 12.9297C56.5448 13.2988 56.7749 13.6024 56.9886 13.9223C57.4076 14.554 57.7528 15.3579 57.4898 16.1455C57.268 16.81 56.3887 17.2283 55.871 17.5729C54.6794 18.3686 53.5207 17.9667 52.2224 17.9503C52.1566 17.9503 52.0909 17.9503 52.0252 17.9503C51.9019 17.9503 51.7786 17.9503 51.6471 17.9585C51.2281 18.0159 50.8829 18.1964 50.5049 18.3932C49.9215 18.6968 49.4038 18.7788 48.771 18.8608C48.0314 18.9511 47.4644 19.3285 46.9056 19.7796C46.3304 20.2473 45.7962 20.6902 45.032 20.477C44.7855 20.4113 44.5883 20.2883 44.4157 20.1324C43.9226 19.6812 43.9555 18.6968 43.9309 18.0815C43.898 17.1545 43.7172 16.1291 43.2324 15.3415C42.7393 14.554 42.0244 13.9551 41.3177 13.3973C41.3012 13.3809 41.293 13.3645 41.2766 13.3481C40.8739 12.9789 40.5699 12.5441 40.6767 11.9042C40.7342 11.5269 40.9397 11.2069 41.1287 10.8952C41.3999 10.4358 41.5067 9.95999 41.6875 9.45957C41.7861 9.18885 41.934 8.94275 42.0984 8.71305C42.4928 8.16341 42.9776 7.67119 43.2899 7.07233C43.3721 6.87545 43.4542 6.67856 43.5529 6.48168C43.709 6.11252 43.8733 5.75156 44.1856 5.49725C44.3089 5.39881 44.4404 5.31677 44.5801 5.25114C44.6376 5.22653 44.6951 5.20192 44.7526 5.17731C44.8841 5.12809 45.0238 5.07887 45.1799 5.05426C45.4265 5.02965 45.6894 5.05426 45.9359 4.98043C46.166 4.9148 46.4783 4.89839 46.6837 4.77534C46.9549 4.61127 47.0289 4.30773 47.1604 4.04522C47.1686 4.02881 47.1768 4.01241 47.185 3.97959C47.185 3.92217 47.1357 3.88115 47.0864 3.88115C47.0535 3.84833 46.996 3.84833 46.9549 3.88115C46.8481 3.9878 46.7741 4.12726 46.6427 4.20929C46.4701 4.31594 46.2071 4.38157 46.0099 4.4472C45.8127 4.51282 45.599 4.48821 45.3772 4.4636C45.4922 4.32414 45.6155 4.19288 45.7387 4.05342C45.8784 3.88115 45.9524 3.68426 46.0674 3.49558C46.1332 3.38894 46.1907 3.2987 46.2318 3.18385C46.3715 2.97055 46.4044 2.58499 46.3468 2.33068C46.3222 2.24044 46.2318 2.24044 46.1825 2.28145C46.1578 2.28966 46.1332 2.31427 46.1167 2.34708C46.0017 2.75726 45.8784 3.01157 45.5251 3.3069C45.3772 3.42995 45.221 3.51199 45.0649 3.61864C44.8594 3.7663 44.7197 3.94678 44.4732 4.03702C44.161 4.15187 43.824 4.14366 43.5529 4.37336C43.4132 4.49642 43.2735 4.63588 43.1502 4.78354C43.1666 4.53743 43.1831 4.29133 43.1502 4.03702C43.0598 3.41355 42.8215 2.79008 43.4378 2.3881C43.8076 2.14199 44.2513 2.02714 44.2678 1.47751C44.276 1.20679 43.8651 1.20679 43.8569 1.47751C43.8405 1.87128 43.3803 1.9205 43.1091 2.06816C43.1173 1.98613 43.1255 1.90409 43.142 1.83026C43.1584 1.73182 43.1913 1.64978 43.2159 1.55954C43.2406 1.52673 43.2652 1.49391 43.2899 1.4529C43.4542 1.19858 43.4296 0.895053 43.6679 0.673557C43.824 0.534097 44.0623 0.484875 44.2103 0.329008C44.391 0.132122 44.1034 -0.163206 43.9226 0.0336794C43.7829 0.181343 43.4871 0.263379 43.3228 0.419247C43.1009 0.632539 43.068 0.927867 42.9283 1.19038C42.9119 1.20679 42.9037 1.2232 42.8955 1.2396C42.879 1.26421 42.8708 1.28882 42.8544 1.31343C42.501 1.80565 42.3449 2.32247 42.3038 2.91313C42.2134 2.80648 42.1477 2.68343 42.1148 2.53577C42.0901 2.41271 42.0901 2.28145 42.0655 2.1502C42.0162 1.91229 41.8765 1.71541 41.819 1.48571C41.819 1.47751 41.819 1.4611 41.819 1.4529C41.8518 1.2232 42.1148 0.681761 42.2381 0.476672C42.3777 0.246972 42.0244 0.0336793 41.8847 0.263379C41.7203 0.534097 41.4985 0.993496 41.4163 1.30523C41.3259 1.64978 41.4985 1.97792 41.5067 2.32247C41.5067 2.77367 41.5889 3.01157 41.7696 3.42175C41.9751 3.87295 42.0244 4.25851 42.0984 4.72612C42.1394 5.10348 42.1559 5.48905 42.1805 5.82539C42.2627 6.94108 41.7614 7.65479 41.0876 8.43412C40.7178 8.86071 40.3809 9.32831 40.0768 9.80412C39.8057 10.2389 39.5016 10.6901 39.3701 11.1905C39.3044 11.4202 39.2879 11.6581 39.2633 11.896C39.2633 11.9699 39.2715 12.7 39.2715 12.7C39.1811 12.7492 39.0661 12.7902 38.9428 12.8148C38.4415 12.9215 37.891 12.7246 37.3979 12.6261C37.2993 12.6097 37.2089 12.5851 37.1185 12.5523C36.8227 12.4129 36.5762 12.216 36.3461 11.9699C36.2228 11.8386 36.116 11.6745 35.9763 11.5679C35.8366 11.4612 35.6722 11.4284 35.5161 11.3546C35.3928 11.2972 35.286 11.2151 35.1792 11.1331C35.1792 11.1167 35.1627 11.1003 35.1463 11.0921C34.9326 10.928 34.8176 10.7065 34.719 10.4522C34.6861 10.3702 34.645 10.2799 34.6039 10.1815C34.5793 10.0912 34.5464 10.0092 34.53 9.92717C34.4642 9.61544 34.4149 9.31191 34.3821 8.99197C34.3328 8.42592 34.4478 7.88449 34.456 7.31844C34.456 7.30203 34.456 7.27742 34.456 7.26102C34.456 7.24461 34.456 7.2282 34.456 7.20359C34.456 7.17898 34.456 7.15437 34.456 7.12976C34.4725 6.67036 34.4232 6.21916 34.1848 5.78438C34.1438 5.71054 34.0616 5.66132 33.9548 5.68593C33.8233 5.71054 33.774 5.88282 33.8315 5.99767C33.8644 6.05509 33.889 6.12072 33.9137 6.17815C33.9137 6.21096 33.9137 6.23557 33.9383 6.26838C34.0534 6.5227 33.9876 6.80982 34.0205 7.07233C34.0451 7.33485 34.0041 7.52353 33.9219 7.73682C33.889 7.6876 33.8479 7.63838 33.7986 7.58916C33.6918 7.4661 33.6343 7.33485 33.5685 7.19539C33.5603 7.12156 33.5521 7.03952 33.5439 6.94928C33.5274 6.82623 33.5192 6.73599 33.4124 6.67036C33.2316 6.54731 33.059 6.77701 33.1248 6.94108C33.1248 7.26102 33.1659 7.59736 33.3056 7.87628C33.4124 8.08958 33.5028 8.26185 33.4864 8.51616C33.4864 8.63921 33.4699 8.76227 33.4535 8.87712C33.3549 8.8279 33.2645 8.76227 33.1987 8.68843C33.0344 8.50796 32.9358 8.40131 32.7221 8.27005C32.4756 8.11419 32.2784 7.90089 32.2291 7.59736C32.2126 7.53173 32.1798 7.48251 32.1305 7.4661C32.0236 7.31024 31.736 7.34305 31.7607 7.57275C31.8428 8.41772 32.2209 8.72945 32.87 9.27089C33.2398 9.58262 33.4535 9.69747 33.6754 10.2143C33.774 10.444 33.7822 10.6819 33.9137 10.9034C34.1109 11.2315 34.341 11.5187 34.4314 11.8714C34.4149 11.8714 34.4067 11.8714 34.3903 11.8796C34.2013 11.9124 34.1027 11.8304 33.9383 11.7566C33.8233 11.7073 33.7082 11.6827 33.585 11.6581C33.4617 11.5843 33.3549 11.5105 33.2974 11.4284C33.1659 11.2315 32.9358 10.5424 32.5742 10.6655C32.566 10.6655 32.5578 10.6655 32.5496 10.6737C32.5331 10.6819 32.5249 10.6983 32.5167 10.7147C32.492 10.7475 32.4756 10.7885 32.4838 10.846C32.5085 11.0347 32.6646 11.1495 32.755 11.3054C32.8618 11.4858 32.9358 11.6745 33.059 11.8304C33.0837 11.8796 33.1166 11.9206 33.1494 11.9617C33.2316 12.0437 33.3302 12.1011 33.4288 12.1585C33.4864 12.1996 33.5521 12.2406 33.6096 12.2734C33.6754 12.3226 33.7411 12.3718 33.7904 12.4375C33.6507 12.4703 33.5192 12.4621 33.3713 12.4703C33.2234 12.4785 33.0837 12.4949 32.944 12.4949C32.6646 12.4129 32.4509 12.2324 32.1222 12.1175C32.1222 12.1175 32.1058 12.1175 32.0812 12.1175C32.0318 12.1093 31.9908 12.1175 31.9579 12.1421C31.8593 12.1914 31.7935 12.3062 31.8757 12.4211C32.0072 12.6097 32.2291 12.6343 32.4099 12.7574C32.5824 12.8723 32.7303 12.9871 32.9358 13.0445C33.1577 13.1102 33.4042 13.1184 33.6425 13.0937C33.6836 13.0937 33.7329 13.0773 33.7986 13.0609C33.9794 13.0527 34.152 13.0117 34.3492 13.0445C34.5711 13.0855 34.7847 13.143 35.0066 13.184C34.7026 13.5367 34.267 13.5039 33.8397 13.6926C33.6178 13.7911 33.4288 13.8977 33.1905 13.9633C33.0673 13.9961 32.9851 14.029 32.8865 14.0782C32.87 14.0782 32.8454 14.0782 32.829 14.0864C32.5742 14.152 32.681 14.554 32.9358 14.4966C33.322 14.3981 33.7 14.3899 34.0698 14.2751C34.4725 14.152 34.834 13.9141 35.2778 13.8567C36.0584 13.75 36.494 13.9305 37.1514 14.2505C37.3157 14.3325 37.4801 14.4227 37.6609 14.4391C37.891 14.5048 38.1293 14.5376 38.3922 14.513C38.6305 14.4966 38.8606 14.4309 39.0825 14.3899C39.6167 14.3571 40.044 14.4391 40.5617 14.7591C40.8822 14.956 41.3012 15.2759 41.6793 15.6697C41.7203 15.7107 41.7614 15.7517 41.8025 15.7927C42.7064 16.7525 42.8461 17.86 42.5339 19.148C42.4106 19.6402 42.2134 20.1652 42.0655 20.682C42.0408 20.7395 42.0162 20.7969 41.9997 20.8543C41.8847 21.2071 41.7121 21.6419 41.7943 22.0274C41.934 22.6837 42.5257 22.5935 43.0105 22.6919C43.4871 22.9216 43.2981 23.299 43.2242 23.7666C43.1255 24.3572 43.4625 24.6115 43.898 24.7592C43.5529 25.1038 43.6186 25.5303 43.635 25.7765C43.6515 26.0226 43.7994 26.2276 43.9391 26.4245C44.087 26.6214 44.3253 26.7363 44.4732 26.9167C44.7773 27.3105 44.7855 27.7945 44.6129 28.2375C44.4814 28.5739 44.202 28.8364 44.0706 29.1727C43.9309 29.5255 43.8816 29.8782 43.9555 30.2474C44.0048 30.4689 44.087 30.6658 44.1692 30.8627C44.276 31.2892 44.3993 31.6994 44.3993 32.167C44.3993 33.414 43.6433 34.6117 43.2159 35.752C42.9694 36.4165 42.8872 37.204 42.3777 37.729C41.8518 38.2705 41.1122 38.5248 40.4713 38.8857C39.6988 39.3287 39.0579 40.026 38.1868 40.2967C37.25 40.5921 36.3296 40.6905 35.4093 41.0925C34.3245 41.5683 33.3302 42.0359 32.1387 42.1179C31.0293 42.1918 29.9035 41.9703 28.8188 41.7816C27.2574 41.5109 25.8605 41.5601 24.636 42.7086C24.5539 42.7906 24.5457 42.8891 24.595 42.9711C24.595 42.9711 24.595 42.9875 24.595 43.0121C24.6443 43.209 24.8415 43.2664 25.0058 43.1844C25.729 42.8234 25.918 42.8317 26.7397 42.9301C26.9945 42.9629 27.2657 42.9957 27.5286 42.9629C27.7258 42.9383 27.9149 42.9055 28.1039 42.8645C28.1285 42.8645 28.1449 42.8645 28.1696 42.8645C28.2764 42.8481 28.3915 42.8399 28.4983 42.8316C28.7777 42.8152 29.0735 42.8152 29.3611 42.8727C29.5091 42.8891 29.6652 42.9219 29.8213 42.9793C30.1336 43.1024 30.4376 43.3075 30.7663 43.3813C31.284 43.4961 31.9004 43.3895 32.4099 43.3485C33.133 43.291 33.8397 43.5372 34.5546 43.4141C35.1545 43.3075 35.7544 43.1024 36.2557 42.7496C37.6116 42.1179 39.1976 41.6503 40.6767 41.6914C41.9915 41.7324 43.1338 41.3386 44.4239 41.1499C46.1167 40.9038 47.752 41.0351 49.338 41.6749C50.3323 42.0769 51.5074 42.6594 52.5922 42.5855C53.2167 42.5445 53.7919 42.2902 54.4165 42.2902C55.1232 42.2902 55.7066 42.602 56.3887 42.7086C57.1118 42.8234 57.8514 42.725 58.4924 42.3805C58.5088 42.3805 58.5252 42.3722 58.5335 42.364C58.9361 42.1672 59.3799 42.0359 59.7907 42.0523C60.1523 42.0031 60.5139 42.0031 60.859 42.1097C60.9001 42.1261 60.9412 42.1261 60.9741 42.1179C61.2206 42.1179 61.3767 41.7324 61.122 41.5765C60.744 41.3468 60.3413 41.2484 59.9058 41.1909C59.7086 41.1663 59.5031 41.1745 59.2977 41.1909C58.517 41.314 57.7528 41.2894 56.9557 41.1089C56.7831 41.0679 56.6023 41.0269 56.4298 40.9776C56.2161 40.9202 55.9942 40.8546 55.7724 40.7726C54.5726 40.3378 53.529 40.7069 52.3046 40.5839C50.85 40.4362 49.7735 39.5584 48.7053 38.6396C48.2204 38.2212 47.8424 37.8767 47.752 37.204C47.6452 36.4657 47.7767 35.7192 47.9082 34.989C48.0479 34.2015 47.8671 33.2909 47.6616 32.528C47.4233 31.6256 47.3905 30.9119 47.5466 30.0013C47.7602 28.7625 48.4998 27.7043 48.1958 26.3589C48.1547 26.1948 48.13 25.9651 48.0889 25.7354C48.0479 25.3006 48.0068 24.8577 47.9657 24.4229C47.9246 23.9717 47.8917 23.6189 48.0725 23.1923C48.3355 22.5607 48.656 21.929 49.1901 21.4942C49.7242 21.0594 50.4063 21.0266 51.0884 20.9856C51.5321 20.9528 51.8033 20.7395 52.1731 20.5016C53.3728 19.7386 54.7616 20.1488 56.06 19.7714C56.9146 19.5171 57.7117 19.0249 58.2952 18.303C58.9772 17.458 59.0429 16.5803 59.3388 15.563C59.5113 14.9806 59.8811 14.4884 60.0619 13.9059C60.1934 13.4875 60.2674 13.1184 60.5221 12.7574C60.7111 12.4867 60.9494 12.2652 61.1549 12.0109C61.5082 11.5679 61.7219 11.0675 61.8616 10.5342C62.0341 10.1815 62.3382 9.85334 62.6422 9.62364C63.0449 9.32011 63.2832 9.08221 63.3736 8.55718C63.3736 8.53257 63.3736 8.3849 63.3736 8.3685L63.4065 8.45874Z" fill="#171B1B" fill-opacity="0.68"/>
</g>
<defs>
<clipPath id="clip0_402_26024">
<rect width="97" height="59" fill="white"/>
</clipPath>
</defs>
</svg>
