<svg width="22" height="23" viewBox="0 0 22 23" fill="none" xmlns="http://www.w3.org/2000/svg">
<path d="M4.12656 17.8485C3.7599 17.8485 3.45043 17.7224 3.19816 17.4701C2.94626 17.2182 2.82031 16.9165 2.82031 16.5648V6.43604C2.82031 6.08441 2.94626 5.78264 3.19816 5.53074C3.45043 5.27848 3.7599 5.15234 4.12656 5.15234H17.8766C18.2432 5.15234 18.5527 5.27848 18.805 5.53074C19.0569 5.78264 19.1828 6.08441 19.1828 6.43604V16.5648C19.1828 16.9165 19.0569 17.2182 18.805 17.4701C18.5527 17.7224 18.2432 17.8485 17.8766 17.8485H4.12656ZM11.0016 11.4086L18.4497 6.48169L18.1516 5.88604L11.0016 10.561L3.85156 5.88604L3.55346 6.48169L11.0016 11.4086Z" fill="black"/>
</svg>
