<svg width="416" height="450" viewBox="0 0 416 450" fill="none" xmlns="http://www.w3.org/2000/svg">
<g clip-path="url(#clip0_449_10924)">
<path d="M208.08 226.726C213.942 226.726 218.694 221.937 218.694 216.029C218.694 210.121 213.942 205.331 208.08 205.331C202.217 205.331 197.465 210.121 197.465 216.029C197.465 221.937 202.217 226.726 208.08 226.726Z" fill="#266647" fill-opacity="0.05"/>
<path d="M137.443 236.759C120.99 236.759 106.129 232.885 94.1958 228.217C67.1605 217.649 48.9064 200.792 48.7295 200.63C48.4078 200.322 48.2148 199.917 48.2148 199.463C48.2148 199.026 48.3757 198.588 48.6973 198.28C49.5176 197.453 69.2352 178.084 95.2734 177.825C95.8685 177.857 96.3831 178.116 96.6726 178.619C97.0103 179.186 131.09 235.349 194.231 215.769C195.003 215.526 195.824 215.899 196.161 216.628C196.499 217.358 196.258 218.233 195.598 218.67C175.495 232.075 155.52 236.743 137.459 236.743L137.443 236.759Z" fill="#216648" fill-opacity="0.05"/>
<path d="M174.099 216.028C146.549 216.028 122.602 202.624 104.026 176.544C86.6565 152.166 79.9821 124.968 79.9177 124.693C79.8052 124.207 79.9177 123.704 80.2233 123.315C80.5289 122.926 80.9953 122.699 81.4939 122.699H119.996C120.849 122.699 121.54 123.364 121.605 124.223C121.653 125.017 127.33 204.326 194.862 210.404C195.65 210.469 196.277 211.117 196.326 211.911C196.374 212.706 195.843 213.419 195.071 213.597C187.898 215.234 180.886 216.045 174.115 216.045L174.099 216.028Z" fill="#216648" fill-opacity="0.05"/>
<path d="M197.757 207.34C197.757 207.34 197.676 207.34 197.644 207.34C178.715 205.963 163.162 198.166 151.374 184.195C134.905 164.663 128.858 136.282 126.686 115.908C124.338 93.9287 125.866 76.2613 125.882 76.083C125.93 75.6292 126.156 75.2078 126.509 74.9322C126.863 74.6567 127.33 74.5432 127.78 74.6243C128.809 74.8188 153.368 79.5841 170.368 93.8963C170.898 94.3502 171.091 95.0957 170.834 95.7441C170.544 96.5059 141.708 171.617 198.561 204.293C199.22 204.666 199.526 205.444 199.301 206.173C199.092 206.854 198.464 207.324 197.757 207.324V207.34Z" fill="#216648" fill-opacity="0.05"/>
<path d="M230.225 85.3222C220.479 65.5153 209.462 51.43 209.35 51.2841C209.334 51.2517 209.301 51.2517 209.269 51.2193C209.205 51.1544 209.173 51.0734 209.108 51.0248C209.06 50.9761 208.996 50.9761 208.932 50.9437C208.867 50.8951 208.803 50.8627 208.722 50.8465C208.61 50.7978 208.497 50.7492 208.369 50.733C208.272 50.7168 208.176 50.7168 208.079 50.7168C207.983 50.7168 207.886 50.7168 207.79 50.733C207.677 50.7492 207.564 50.7978 207.436 50.8465C207.372 50.8789 207.291 50.9113 207.227 50.9437C207.179 50.9761 207.114 50.9923 207.05 51.0248C206.986 51.0734 206.937 51.1544 206.889 51.2193C206.873 51.2517 206.841 51.2517 206.809 51.2841C206.696 51.43 195.679 65.5153 185.933 85.3222C176.894 103.687 167.116 130.901 171.86 156.251C175.56 176.042 187.445 191.975 207.195 203.597C207.452 203.759 207.757 203.856 208.063 203.856C208.369 203.856 208.674 203.759 208.932 203.597C228.681 191.959 240.567 176.026 244.266 156.251C248.994 130.901 239.216 103.687 230.193 85.3222H230.225Z" fill="#216648" fill-opacity="0.05"/>
<path d="M36.3151 202.251C39.5483 202.251 42.1693 199.61 42.1693 196.351C42.1693 193.093 39.5483 190.451 36.3151 190.451C33.0819 190.451 30.4609 193.093 30.4609 196.351C30.4609 199.61 33.0819 202.251 36.3151 202.251Z" fill="#98AD8F" fill-opacity="0.05"/>
<path d="M18.4805 198.005C20.9053 198.005 22.8711 196.024 22.8711 193.58C22.8711 191.136 20.9053 189.155 18.4805 189.155C16.0556 189.155 14.0898 191.136 14.0898 193.58C14.0898 196.024 16.0556 198.005 18.4805 198.005Z" fill="#98AD8F" fill-opacity="0.05"/>
<path d="M3.55432 194.844C5.51732 194.844 7.10864 193.24 7.10864 191.262C7.10864 189.283 5.51732 187.68 3.55432 187.68C1.59132 187.68 0 189.283 0 191.262C0 193.24 1.59132 194.844 3.55432 194.844Z" fill="#98AD8F" fill-opacity="0.05"/>
<path d="M70.6198 121.954C73.853 121.954 76.474 119.312 76.474 116.054C76.474 112.795 73.853 110.154 70.6198 110.154C67.3866 110.154 64.7656 112.795 64.7656 116.054C64.7656 119.312 67.3866 121.954 70.6198 121.954Z" fill="#98AD8F" fill-opacity="0.05"/>
<path d="M55.1328 111.142C57.5577 111.142 59.5234 109.161 59.5234 106.717C59.5234 104.274 57.5577 102.292 55.1328 102.292C52.7079 102.292 50.7422 104.274 50.7422 106.717C50.7422 109.161 52.7079 111.142 55.1328 111.142Z" fill="#98AD8F" fill-opacity="0.05"/>
<path d="M42.1871 102.471C44.1501 102.471 45.7415 100.867 45.7415 98.8887C45.7415 96.9104 44.1501 95.3066 42.1871 95.3066C40.2241 95.3066 38.6328 96.9104 38.6328 98.8887C38.6328 100.867 40.2241 102.471 42.1871 102.471Z" fill="#98AD8F" fill-opacity="0.05"/>
<path d="M121.12 70.086C124.353 70.086 126.974 67.4445 126.974 64.1861C126.974 60.9276 124.353 58.2861 121.12 58.2861C117.887 58.2861 115.266 60.9276 115.266 64.1861C115.266 67.4445 117.887 70.086 121.12 70.086Z" fill="#98AD8F" fill-opacity="0.05"/>
<path d="M113.352 52.2078C115.776 52.2078 117.742 50.2267 117.742 47.7829C117.742 45.339 115.776 43.3579 113.352 43.3579C110.927 43.3579 108.961 45.339 108.961 47.7829C108.961 50.2267 110.927 52.2078 113.352 52.2078Z" fill="#98AD8F" fill-opacity="0.05"/>
<path d="M106.855 37.6203C108.818 37.6203 110.409 36.0165 110.409 34.0382C110.409 32.0598 108.818 30.4561 106.855 30.4561C104.892 30.4561 103.301 32.0598 103.301 34.0382C103.301 36.0165 104.892 37.6203 106.855 37.6203Z" fill="#98AD8F" fill-opacity="0.05"/>
<path d="M220.417 218.687C219.742 218.249 219.517 217.374 219.854 216.644C220.192 215.915 221.012 215.558 221.784 215.785C284.926 235.365 319.005 179.202 319.343 178.635C319.633 178.133 320.147 177.873 320.742 177.841C346.797 178.1 366.498 197.469 367.318 198.296C367.624 198.604 367.801 199.042 367.801 199.479C367.801 199.917 367.608 200.338 367.286 200.646C367.109 200.808 348.855 217.665 321.82 228.233C309.886 232.902 295.026 236.775 278.573 236.775C260.512 236.775 240.537 232.107 220.433 218.703L220.417 218.687Z" fill="#216648" fill-opacity="0.05"/>
<path d="M220.945 213.581C220.173 213.403 219.642 212.69 219.691 211.895C219.739 211.101 220.366 210.453 221.154 210.388C288.686 204.31 294.363 125.001 294.412 124.207C294.46 123.348 295.168 122.683 296.02 122.683H334.522C335.021 122.683 335.487 122.91 335.793 123.299C336.098 123.688 336.211 124.207 336.098 124.677C336.034 124.952 329.36 152.15 311.99 176.528C293.398 202.624 269.467 216.012 241.917 216.012C235.146 216.012 228.15 215.202 220.961 213.565L220.945 213.581Z" fill="#216648" fill-opacity="0.05"/>
<path d="M216.701 206.19C216.475 205.461 216.797 204.683 217.44 204.31C274.293 171.617 245.457 96.5063 245.167 95.7607C244.91 95.1124 245.103 94.3668 245.634 93.9129C262.633 79.5845 287.176 74.8354 288.221 74.6409C288.655 74.5598 289.122 74.6733 289.492 74.9488C289.862 75.2244 290.087 75.6458 290.119 76.0996C290.119 76.2779 291.663 93.9453 289.315 115.924C287.144 136.298 281.08 164.68 264.628 184.211C252.855 198.183 237.287 205.963 218.357 207.357C218.325 207.357 218.277 207.357 218.244 207.357C217.537 207.357 216.91 206.887 216.701 206.206V206.19Z" fill="#CD9CA1" fill-opacity="0.05"/>
<path d="M379.686 202.251C382.919 202.251 385.54 199.61 385.54 196.351C385.54 193.093 382.919 190.451 379.686 190.451C376.453 190.451 373.832 193.093 373.832 196.351C373.832 199.61 376.453 202.251 379.686 202.251Z" fill="#98AD8F" fill-opacity="0.05"/>
<path d="M397.52 198.005C399.944 198.005 401.91 196.024 401.91 193.58C401.91 191.136 399.944 189.155 397.52 189.155C395.095 189.155 393.129 191.136 393.129 193.58C393.129 196.024 395.095 198.005 397.52 198.005Z" fill="#98AD8F" fill-opacity="0.05"/>
<path d="M412.445 194.844C414.408 194.844 415.999 193.24 415.999 191.262C415.999 189.283 414.408 187.68 412.445 187.68C410.482 187.68 408.891 189.283 408.891 191.262C408.891 193.24 410.482 194.844 412.445 194.844Z" fill="#98AD8F" fill-opacity="0.05"/>
<path d="M345.382 121.954C348.615 121.954 351.236 119.312 351.236 116.054C351.236 112.795 348.615 110.154 345.382 110.154C342.148 110.154 339.527 112.795 339.527 116.054C339.527 119.312 342.148 121.954 345.382 121.954Z" fill="#98AD8F" fill-opacity="0.05"/>
<path d="M360.852 111.142C363.276 111.142 365.242 109.161 365.242 106.717C365.242 104.274 363.276 102.292 360.852 102.292C358.427 102.292 356.461 104.274 356.461 106.717C356.461 109.161 358.427 111.142 360.852 111.142Z" fill="#98AD8F" fill-opacity="0.05"/>
<path d="M373.816 102.471C375.779 102.471 377.37 100.867 377.37 98.8887C377.37 96.9104 375.779 95.3066 373.816 95.3066C371.853 95.3066 370.262 96.9104 370.262 98.8887C370.262 100.867 371.853 102.471 373.816 102.471Z" fill="#98AD8F" fill-opacity="0.05"/>
<path d="M294.862 70.086C298.095 70.086 300.716 67.4445 300.716 64.1861C300.716 60.9276 298.095 58.2861 294.862 58.2861C291.629 58.2861 289.008 60.9276 289.008 64.1861C289.008 67.4445 291.629 70.086 294.862 70.086Z" fill="#98AD8F" fill-opacity="0.05"/>
<path d="M302.633 52.2078C305.058 52.2078 307.023 50.2267 307.023 47.7829C307.023 45.339 305.058 43.3579 302.633 43.3579C300.208 43.3579 298.242 45.339 298.242 47.7829C298.242 50.2267 300.208 52.2078 302.633 52.2078Z" fill="#98AD8F" fill-opacity="0.05"/>
<path d="M309.144 37.6203C311.107 37.6203 312.698 36.0165 312.698 34.0382C312.698 32.0598 311.107 30.4561 309.144 30.4561C307.181 30.4561 305.59 32.0598 305.59 34.0382C305.59 36.0165 307.181 37.6203 309.144 37.6203Z" fill="#98AD8F" fill-opacity="0.05"/>
<path d="M208.096 42.8883C211.33 42.8883 213.951 40.2468 213.951 36.9883C213.951 33.7299 211.33 31.0884 208.096 31.0884C204.863 31.0884 202.242 33.7299 202.242 36.9883C202.242 40.2468 204.863 42.8883 208.096 42.8883Z" fill="#98AD8F" fill-opacity="0.05"/>
<path d="M208.098 23.2269C210.523 23.2269 212.488 21.2457 212.488 18.8019C212.488 16.3581 210.523 14.377 208.098 14.377C205.673 14.377 203.707 16.3581 203.707 18.8019C203.707 21.2457 205.673 23.2269 208.098 23.2269Z" fill="#98AD8F" fill-opacity="0.05"/>
<path d="M208.097 7.16421C210.06 7.16421 211.652 5.56045 211.652 3.58211C211.652 1.60376 210.06 0 208.097 0C206.134 0 204.543 1.60376 204.543 3.58211C204.543 5.56045 206.134 7.16421 208.097 7.16421Z" fill="#98AD8F" fill-opacity="0.05"/>
<path d="M226.496 424.601C225.917 422.705 225.08 420.922 224.485 419.025C223.89 417.129 223.343 415.265 222.378 413.531C221.558 412.056 219.467 412.801 219.387 414.341C219.323 415.557 219.548 416.886 219.307 418.069C219.114 418.993 218.438 419.69 218.036 420.533C217.071 422.51 217.232 424.958 216.798 427.065C216.315 429.367 215.624 431.636 214.739 433.824C213.951 435.769 213.163 437.617 212.825 439.675C212.15 440.875 211.539 442.107 210.944 443.322C210.043 445.186 212.809 446.839 213.726 444.959C213.871 444.651 214.031 444.327 214.192 444.003C216.283 444.278 218.502 442.269 219.934 441.053C221.928 439.351 224.115 437.487 225.45 435.202C227.364 431.944 227.638 428.167 226.528 424.601H226.496Z" fill="#98AC8F" fill-opacity="0.04"/>
<path d="M298.835 263.277C279.503 247.214 248.173 248.77 223.422 258.673C215.943 249.208 211.167 237.764 209.494 224.911C209.382 224.019 208.577 223.387 207.693 223.517C206.808 223.63 206.197 224.441 206.31 225.332C208.015 238.461 212.823 250.196 220.334 259.97C216.941 261.461 213.692 263.098 210.652 264.881C209.687 265.432 208.722 266 207.757 266.551C198.686 259.516 189.793 254.621 181.156 251.882C168.386 247.83 132.152 243.178 118.208 255.675C113.447 259.954 111.71 265.757 113.061 272.937C115.297 284.785 129.289 290.621 152.496 289.34C173.436 288.189 191.176 279.696 207.484 270.441C215.799 277.103 224.306 285.612 232.943 295.921C233.892 297.055 234.969 298.336 236.16 299.714C232.235 301.205 228.44 302.907 224.789 304.657C220.929 306.505 217.037 308.709 212.92 311.043C210.347 312.502 207.757 313.977 205.136 315.371C204.428 314.561 203.736 313.75 203.061 312.956C198.799 307.915 187.493 296.115 174.675 295.272C168.981 294.9 163.787 296.796 159.283 300.913C154.764 305.03 154.523 309.277 155.118 312.113C156.469 318.548 163.015 323.459 168.531 325.275C181.011 329.408 193.154 325.161 204.396 319.407C206.873 322.179 209.494 324.934 212.293 327.511C209.14 329.748 206.358 332.487 204.508 335.648C202.916 338.371 201.276 343.12 200.89 347.837C199.137 349.782 197.818 352.165 197.046 354.256C191.642 368.762 199.185 378.779 206.471 388.472C211.923 395.717 217.552 403.206 217.922 412.72C218.179 419.204 215.799 425.282 213.499 431.166C211.344 436.693 209.108 442.398 209.06 448.395C209.06 448.444 209.076 448.493 209.092 448.541C209.092 448.655 209.124 448.752 209.156 448.865C209.189 448.963 209.221 449.06 209.269 449.157C209.317 449.238 209.365 449.319 209.43 449.4C209.494 449.498 209.575 449.562 209.655 449.643C209.687 449.676 209.719 449.724 209.751 449.741C209.816 449.789 209.88 449.805 209.928 449.838C209.993 449.87 210.041 449.903 210.105 449.919C210.282 449.984 210.459 450.032 210.636 450.032C210.636 450.032 210.636 450.032 210.652 450.032C210.893 450.032 211.118 449.968 211.328 449.87C211.392 449.838 211.424 449.806 211.488 449.757C211.633 449.66 211.778 449.546 211.874 449.416C211.907 449.384 211.939 449.368 211.955 449.335C212.614 448.379 214.801 446.645 216.908 444.975C219.08 443.257 221.556 441.296 223.502 439.351C233.763 429.123 228.874 420.695 223.695 411.78C221.91 408.684 220.061 405.491 218.71 402.055C216.362 396.366 212.63 391.39 208.979 386.527C201.903 377.126 195.229 368.244 200.005 355.406C200.279 354.661 200.616 353.899 201.018 353.153C201.147 353.948 201.356 354.71 201.614 355.423C202.595 358.162 204.46 360.107 207.001 361.031C210.507 362.311 213.82 361.128 215.654 357.967C217.536 354.726 217.455 349.604 214.062 346.621C210.926 343.882 208.031 343.882 206.165 344.368C205.602 344.514 205.039 344.725 204.525 344.984C205.136 341.953 206.197 339.101 207.259 337.285C208.996 334.319 211.681 331.758 214.737 329.7C218.887 333.249 223.374 336.345 228.215 338.485C233.956 341.029 246.211 344.401 251.583 338.987C255.459 335.081 254.993 331.872 253.915 329.862C250.055 322.681 231.512 320.104 226.51 321.141C222.988 321.887 218.903 323.443 215.075 325.68C212.341 323.2 209.751 320.526 207.323 317.835C209.751 316.522 212.148 315.177 214.48 313.848C218.549 311.546 222.393 309.358 226.156 307.559C230.08 305.678 234.197 303.847 238.443 302.291C246.758 311.53 259.126 322.957 272.877 322.957C274.775 322.957 276.688 322.746 278.634 322.276C286 320.493 287.625 316.83 287.689 314.074C287.882 306.975 277.525 298.498 270.722 296.472C260.3 293.36 249.557 295.062 239.44 298.514C238.073 296.958 236.722 295.402 235.404 293.814C226.976 283.764 218.661 275.384 210.491 268.707C211.086 268.366 211.681 268.026 212.276 267.669C215.477 265.805 218.887 264.087 222.473 262.563C228.601 269.76 236.272 275.79 245.343 280.377C260.67 288.141 276.672 291.074 290.375 288.676C298.915 287.168 304.608 283.327 305.975 278.091C307.214 273.358 304.689 268.091 298.867 263.244L298.835 263.277ZM152.303 286.098C139.92 286.779 118.754 285.904 116.197 272.321C115.055 266.259 116.406 261.607 120.331 258.09C126.925 252.19 139.26 250.861 149.006 250.861C149.537 250.861 150.068 250.861 150.583 250.861C162.58 251.039 174.337 253.098 180.175 254.962C188.104 257.474 196.306 261.931 204.685 268.269C189.037 277.07 172.053 284.996 152.287 286.082L152.303 286.098ZM169.512 322.195C164.816 320.639 159.267 316.344 158.254 311.432C157.643 308.531 158.72 305.792 161.438 303.312C164.977 300.086 168.949 298.466 173.308 298.466C173.694 298.466 174.08 298.466 174.466 298.498C186.383 299.276 197.48 311.351 200.6 315.047C201.115 315.663 201.646 316.279 202.176 316.895C191.562 322.276 180.674 325.907 169.512 322.195ZM221.251 437.017C219.433 438.832 217.037 440.729 214.93 442.398C214.11 443.046 213.338 443.662 212.646 444.23C213.338 440.291 214.866 436.385 216.458 432.333C218.758 426.465 221.106 420.387 221.106 413.676C226.124 422.332 229.646 428.653 221.267 437.017H221.251ZM206.969 347.513C208.642 347.075 210.282 347.594 211.971 349.069C214.078 350.917 214.094 354.272 212.904 356.314C212.293 357.368 210.861 358.956 208.111 357.967C206.454 357.368 205.329 356.168 204.669 354.304C204.139 352.829 203.962 351.063 204.01 349.215C204.927 348.388 205.924 347.772 206.969 347.513ZM227.169 324.318C231.817 323.33 248.19 326.036 251.084 331.402C251.39 331.969 252.307 333.671 249.315 336.702C245.504 340.543 235.146 338.015 229.517 335.518C225.304 333.654 221.347 330.996 217.648 327.933C220.865 326.182 224.226 324.95 227.169 324.335V324.318ZM269.789 299.584C275.418 301.27 284.585 308.693 284.456 313.993C284.392 316.36 282.173 318.078 277.863 319.115C264.932 322.244 252.628 312.794 241.805 301.124C250.988 298.158 260.606 296.829 269.805 299.568L269.789 299.584ZM302.823 277.281C301.81 281.171 296.921 284.234 289.78 285.499C276.753 287.784 261.458 284.948 246.742 277.492C238.411 273.277 231.319 267.799 225.577 261.283C249.203 252.076 278.651 250.715 296.76 265.773C301.569 269.76 303.708 273.845 302.807 277.281H302.823Z" fill="#266647" fill-opacity="0.05"/>
</g>
<defs>
<clipPath id="clip0_449_10924">
<rect width="416" height="450" fill="white"/>
</clipPath>
</defs>
</svg>
