<svg width="50" height="11" viewBox="0 0 50 11" fill="none" xmlns="http://www.w3.org/2000/svg">
<path d="M48.66 4.85304C47.45 3.71304 45.63 2.00304 43.49 1.10304C40.22 -0.266959 37.02 0.443044 30.05 4.15304C29.69 4.21304 29.32 4.26304 28.97 4.32304C27.17 4.64304 25.61 4.91305 23.79 4.45305C20.74 3.68305 18.06 4.09305 15.23 4.53305L14.38 4.66304C13.92 4.73304 13.51 4.78305 13.11 4.83305C13.86 3.80305 14.72 2.64304 16.29 1.90304C16.79 1.66304 17 1.07304 16.77 0.573042C16.53 0.0730419 15.94 -0.136954 15.44 0.0930461C13.41 1.05305 12.35 2.49304 11.5 3.65304C11.03 4.29304 10.62 4.83305 10.22 5.03305C8.65999 5.02305 7.7 4.77305 6.66 4.50305C5.33 4.15305 3.83 3.76305 1 3.75305C0.45 3.75305 0 4.20305 0 4.75305C0 5.30305 0.44 5.75305 1 5.75305C3.57 5.76305 4.89 6.10305 6.16 6.44305C7.33 6.75305 8.46 7.04304 10.32 7.04304C10.35 7.04304 10.39 7.04304 10.42 7.04304C10.42 7.04304 10.44 7.04304 10.45 7.04304C10.46 7.04304 10.47 7.04304 10.48 7.04304C11.58 7.04304 12.92 6.92304 14.68 6.66304L15.54 6.53305C16.4 6.40305 17.22 6.27304 18.02 6.18304C20.1 6.21304 21.21 7.95304 22.19 9.49304C22.39 9.80304 22.58 10.0931 22.76 10.3631C22.95 10.6431 23.26 10.793 23.58 10.793C23.78 10.793 23.98 10.7331 24.15 10.6131C24.6 10.2931 24.71 9.67305 24.4 9.22305C24.23 8.98305 24.06 8.71304 23.88 8.43304C23.45 7.76304 22.93 6.94304 22.26 6.21304C22.57 6.26304 22.88 6.32304 23.19 6.40304C23.23 6.42304 23.27 6.45304 23.31 6.46304C25.54 7.07304 27.38 6.78305 29.33 6.48305C29.56 6.44305 29.79 6.41304 30.03 6.37304C30.06 6.37304 30.09 6.37305 30.12 6.36305C30.42 6.32305 30.73 6.27304 31.05 6.24304C33.16 6.00304 34.54 6.75304 36.46 7.79304C36.77 7.96304 37.09 8.13305 37.42 8.31305C38.94 9.11305 40.23 9.41304 41.4 9.41304C43.03 9.41304 44.42 8.83304 45.86 8.24304C46.79 7.86304 47.75 7.46304 48.87 7.16304C49.22 7.06304 49.5 6.78304 49.58 6.43304C49.66 6.07304 49.55 5.70305 49.28 5.45305C49.1 5.29305 48.9 5.10305 48.68 4.89305L48.66 4.85304ZM45.08 6.36305C42.71 7.34305 41.15 7.99304 38.34 6.51304C38.02 6.34304 37.71 6.17304 37.41 6.01304C36.27 5.39304 35.16 4.78305 33.9 4.44305C38.75 2.14305 40.75 2.12305 42.72 2.94305C44.23 3.57305 45.59 4.72305 46.67 5.72305C46.1 5.93305 45.58 6.15304 45.08 6.35304V6.36305Z" fill="white"/>
</svg>
