<svg width="51" height="11" viewBox="0 0 51 11" fill="none" xmlns="http://www.w3.org/2000/svg">
<path d="M50.136 5.55056C49.966 5.38056 49.766 5.18057 49.556 4.96057C48.396 3.78057 46.636 2.00056 44.536 1.02056C41.256 -0.509436 37.966 0.130563 30.536 3.77056C30.336 3.79056 30.136 3.81057 29.946 3.84057C28.516 4.01057 27.236 4.15057 25.876 3.93057C27.046 3.28057 28.126 2.44057 28.806 1.65057C29.166 1.23057 29.116 0.600565 28.696 0.240565C28.276 -0.119435 27.646 -0.0694193 27.286 0.350581C26.246 1.56058 23.786 3.05057 22.266 3.09057C19.736 2.71057 17.426 2.97057 15.266 3.34057C14.846 3.41057 14.356 3.53059 13.786 3.67059C11.156 4.31059 6.75597 5.38059 1.37597 3.17059C0.865965 2.96059 0.285962 3.20057 0.0759622 3.71057C-0.134038 4.22057 0.105971 4.81058 0.615971 5.01058C6.29597 7.34058 10.906 6.41057 13.816 5.71057C15.076 5.62057 15.356 5.88057 16.146 6.62057C17.086 7.50057 18.506 8.83058 22.236 10.0106C22.336 10.0406 22.436 10.0606 22.536 10.0606C22.956 10.0606 23.356 9.79056 23.486 9.36056C23.656 8.83056 23.366 8.27058 22.836 8.10058C19.536 7.05058 18.366 5.96058 17.506 5.16058C17.466 5.12058 17.426 5.08056 17.386 5.05056C19.666 4.78056 21.796 4.83058 24.146 5.57058C26.346 6.27058 28.196 6.05058 30.166 5.82058C30.406 5.79058 30.646 5.76056 30.886 5.74056C30.906 5.74056 30.926 5.74056 30.946 5.74056C31.256 5.71056 31.576 5.68057 31.896 5.65057C34.016 5.50057 35.366 6.30058 37.236 7.41058C37.536 7.59058 37.846 7.78057 38.176 7.96057C39.776 8.88057 41.136 9.22058 42.386 9.22058C43.906 9.22058 45.236 8.72057 46.616 8.21057C47.556 7.86057 48.526 7.50056 49.666 7.24056C50.026 7.16056 50.306 6.89058 50.406 6.54058C50.506 6.19058 50.406 5.81056 50.136 5.55056ZM45.916 6.33056C43.516 7.22056 41.926 7.81058 39.176 6.22058C38.866 6.04058 38.556 5.86057 38.266 5.68057C37.146 5.01057 36.066 4.36059 34.816 3.98059C39.746 1.87059 41.756 1.93058 43.686 2.82058C45.166 3.51058 46.476 4.71057 47.526 5.75057C46.946 5.94057 46.416 6.14058 45.916 6.32058V6.33056Z" fill="#1E6848"/>
</svg>
