<svg width="101" height="80" viewBox="0 0 101 80" fill="none" xmlns="http://www.w3.org/2000/svg">
<path d="M15.1404 40.4802C14.9604 40.2702 14.7404 40.0902 14.5404 39.9102C14.6804 39.7002 14.7204 39.4302 14.5804 39.1402C14.0704 38.0902 13.1604 37.2602 12.4904 36.3202C11.7604 35.2802 11.0804 34.2102 10.2604 33.2302C9.49037 32.3002 8.64037 31.4302 7.72037 30.6302C6.76037 29.8002 5.66037 29.2602 4.63037 28.5302C4.63037 28.5302 4.62037 28.5302 4.61037 28.5202C4.61037 28.5002 4.61037 28.4802 4.60037 28.4602C4.42037 27.4102 2.78037 27.6902 2.97037 28.7402C3.14037 29.7302 3.38037 30.6902 3.63037 31.6602C3.63037 32.0102 3.68037 32.3602 3.75037 32.7102C3.75037 32.7302 3.73037 32.7502 3.73037 32.7702C3.52037 33.7902 4.12037 34.8702 4.49037 35.7902C4.89037 36.7902 5.05037 37.8302 5.92037 38.5602C6.00037 38.6202 6.09037 38.6602 6.19037 38.6902C6.45037 39.0302 6.75037 39.3402 7.11037 39.5002C7.51037 40.0202 8.09037 40.4102 8.70037 40.3202C8.74037 40.3202 8.77037 40.3002 8.80037 40.2902C9.10037 40.5202 9.48037 40.6202 9.93037 40.5202C10.0404 40.5002 10.1404 40.4502 10.2204 40.4002C10.2204 40.4002 10.2404 40.4102 10.2504 40.4102C10.3404 40.4502 10.4404 40.4602 10.5504 40.4602C10.9004 40.7302 11.3304 40.9202 11.8004 41.0402C12.5404 41.2202 13.4104 41.1902 14.0204 41.7002C14.7404 42.3102 15.7504 41.1902 15.1304 40.4902L15.1404 40.4802Z" fill="#C8D4BF"/>
<path d="M39.9706 8.24971C38.4306 8.69971 37.1306 9.97971 36.0706 11.1297C34.5606 12.7697 32.9506 14.3397 31.5506 16.0797C30.2006 17.7697 28.9406 19.5397 28.0106 21.4997C27.0206 23.5697 26.2906 25.7597 25.2206 27.7897C25.1906 27.8297 25.1506 27.8497 25.1206 27.8897C25.1006 27.9397 25.0706 27.9797 25.0406 28.0197C24.6806 28.5297 25.0006 29.1697 25.5006 29.4197C25.6606 29.8897 26.0906 30.2397 26.6506 30.0197C29.0006 29.0697 31.1106 27.6897 33.3406 26.4897C34.9706 25.6197 36.4906 24.6197 37.5406 23.0597C38.7706 21.2097 39.0506 19.0597 39.1106 16.8897C39.1506 15.5597 39.1806 14.2397 39.6606 12.9797C40.1106 11.7797 40.7806 10.6897 41.2006 9.46971C41.4506 8.73971 40.6706 8.03971 39.9706 8.23971V8.24971Z" fill="#C8D4BF"/>
<path d="M61.6403 0.580547C59.8903 0.580547 58.1303 0.700548 56.4103 0.930548C55.8603 1.00055 55.4803 1.51055 55.5503 2.05055C55.6203 2.60055 56.1303 2.98055 56.6703 2.91055C58.3103 2.69055 59.9803 2.58055 61.6403 2.58055C64.1803 2.58055 66.6603 2.84055 69.0503 3.32055C68.7803 4.06055 68.0003 4.69055 67.3203 4.95055C66.4703 5.27055 65.5203 5.07055 64.6403 5.09055C63.6303 5.12055 62.7203 5.44055 61.7303 5.59055C60.6103 5.76055 59.4603 5.72055 58.3303 5.88055C57.1703 6.04055 56.1203 5.96055 54.9603 5.93055C53.8003 5.90055 52.7403 6.20055 51.6403 6.55055C50.7003 6.85055 48.8603 7.76055 49.8103 9.03055C50.2203 9.58055 51.0603 9.62055 51.6703 9.46055C52.6103 9.20055 53.2603 8.69055 54.1803 9.22055C54.8603 9.61055 55.3103 9.66055 56.0903 9.69055C56.6403 9.71055 56.7403 9.71055 56.7103 10.3105C56.6803 10.8605 56.3303 11.3705 56.1503 11.8805C56.1503 11.9105 56.1303 11.9405 56.1203 11.9705C56.0003 12.1305 55.8903 12.2805 55.8003 12.4105C55.4603 12.9005 55.1503 13.4105 54.7903 13.9005C54.4303 14.4005 53.9803 14.7705 53.5203 15.1705C52.7203 15.8705 52.1803 16.8005 52.1603 17.8905C52.1503 18.7205 52.7803 19.4605 53.6603 19.2305C54.7703 18.9405 55.6203 17.5005 56.2903 16.6605C56.6903 16.1505 56.9103 15.8605 57.5403 15.6605C58.5603 15.3305 59.6303 15.3605 60.6203 14.9205C62.5103 14.0705 63.2803 11.2605 65.3103 10.7405C65.3603 10.7405 65.4203 10.7405 65.4703 10.7405C66.7403 10.9005 68.7003 11.4305 69.3903 9.85055C69.5703 9.44055 69.5203 9.04055 69.3003 8.75055C69.3003 8.72055 69.3003 8.69055 69.3003 8.66055C69.3003 8.64055 69.3003 8.60055 69.3003 8.59055C69.3003 8.56055 69.3103 8.53055 69.3203 8.49055C69.3203 8.46055 69.3403 8.43055 69.3403 8.41055C69.3403 8.41055 69.3703 8.35055 69.3703 8.33055C69.3703 8.31055 69.3703 8.31055 69.3803 8.30055C69.3803 8.30055 69.3803 8.30055 69.4003 8.28055C69.4403 8.24055 69.4703 8.20055 69.5103 8.17055C69.5503 8.14055 69.6003 8.12055 69.6503 8.10055C69.8003 8.10055 69.9403 8.08055 70.0903 8.06055C70.7703 7.94055 71.3103 7.65055 71.8603 7.22055C72.4803 6.73055 72.9103 6.19055 73.7103 6.02055C74.5303 5.84055 75.4303 5.91055 76.2803 5.90055C76.7503 6.03055 77.2103 6.17055 77.6703 6.33055C77.9403 6.42055 78.2103 6.53055 78.4803 6.64055C79.5003 7.16055 80.4903 7.72055 81.4503 8.32055C81.6303 8.56055 81.8103 8.80055 81.9203 9.10055C82.1103 9.65055 82.1103 10.2505 82.3803 10.7705C82.5103 11.0205 82.7203 11.2205 82.8803 11.4605C83.0303 11.6905 83.1703 11.9505 83.2603 12.2105C83.3303 12.4205 83.3603 12.7805 83.2903 13.0705C83.0203 13.4505 82.6003 13.7205 82.1003 13.8105C81.9803 13.8305 81.8503 13.8505 81.7303 13.8305C81.5503 13.8105 81.5103 13.7305 81.4203 13.5905C81.4003 13.5705 81.4003 13.5605 81.3903 13.5505C81.3903 13.5505 81.3903 13.5505 81.3903 13.5205C81.3603 13.4305 81.3203 13.3305 81.2603 13.2505C81.1303 13.0505 80.9203 12.9105 80.6703 12.9105C80.4303 12.9105 80.2703 13.0205 80.1703 13.1705C80.1003 13.2305 80.0403 13.3005 80.0203 13.4005C79.9703 13.6505 79.9603 13.9005 79.8903 14.1505C79.8303 14.3705 79.7403 14.4405 79.5203 14.5405C79.2503 14.6705 78.9203 14.8205 78.6203 14.7705C78.4103 14.7305 78.2403 14.5905 78.1103 14.4305C77.8003 14.0505 77.7303 13.5605 77.4703 13.1505C77.3803 13.0105 77.2703 12.9105 77.1503 12.8305C77.1103 12.7905 77.0603 12.7605 77.0103 12.7405C76.9903 12.7305 76.9803 12.7105 76.9503 12.6905C76.9203 12.6705 76.9003 12.6505 76.8703 12.6405C76.6803 12.5805 76.4803 12.5405 76.2803 12.5305C76.2203 12.5305 76.1603 12.5305 76.1003 12.5405C76.0403 12.5305 75.9803 12.5105 75.9303 12.4705C75.9303 12.4405 75.9303 12.4005 75.9303 12.3805C75.9703 12.3005 76.0703 12.2705 76.1703 12.2405C76.2903 12.2305 76.4003 12.2105 76.5203 12.2605C76.6803 12.3105 76.8103 12.3905 76.9703 12.4405C77.2803 12.5305 77.5703 12.4705 77.8903 12.4605C78.2603 12.5205 78.6303 12.5605 79.0103 12.4805C79.5203 12.3705 79.4503 11.6605 79.0103 11.5205C78.6503 11.4005 78.2903 11.3005 77.9303 11.1705C77.5703 11.0505 77.2403 10.8305 76.8803 10.7405C76.5603 10.6605 76.2403 10.6805 75.9203 10.7405C75.5903 10.8005 75.2603 11.0005 74.9203 10.9505C74.6003 10.9005 74.3403 10.7105 74.0303 10.6105C73.6903 10.5005 73.3503 10.5505 73.0403 10.7105C72.7203 10.8805 72.4503 11.1205 72.0803 11.1905C71.9103 11.2205 71.7403 11.2305 71.5803 11.2705C71.5203 11.2705 71.4603 11.2705 71.3903 11.2705C70.9603 11.3005 70.5103 11.3005 70.1303 11.5305C69.5603 11.8805 69.3803 12.5905 68.8003 12.9305C68.6403 13.0205 68.4703 13.1005 68.2903 13.1305C68.0803 13.1705 67.8703 13.1805 67.6803 13.2805C67.4003 13.4205 67.2903 13.7705 67.0003 13.8805C66.7103 13.9805 66.4103 13.9605 66.2903 14.3305C66.2303 14.5205 66.2903 14.7405 66.4203 14.8905V14.9105C66.4203 14.9205 66.4403 14.9305 66.4503 14.9405C66.4503 14.9405 66.4503 14.9405 66.4503 14.9505C66.4703 14.9805 66.5003 15.0005 66.5203 15.0305C66.5203 15.0405 66.5203 15.0605 66.5403 15.0705C66.5603 15.1005 66.5803 15.1305 66.6003 15.1605C66.6003 15.1705 66.6303 15.2505 66.6303 15.2705C66.6303 15.2905 66.6303 15.3105 66.6403 15.3405C66.6403 15.3905 66.6403 15.4405 66.6403 15.4805C66.6403 15.5105 66.6503 15.5505 66.6603 15.5805C66.6603 15.5905 66.6603 15.6105 66.6603 15.6205C66.6403 15.6805 66.6303 15.7405 66.6103 15.8005C66.5403 16.0605 66.4703 16.3405 66.6103 16.5905C66.7903 16.9205 67.2303 16.9605 67.4903 16.7105C67.5703 16.6305 67.6403 16.5405 67.6903 16.4305C67.7203 16.3705 67.7503 16.3005 67.7703 16.2305C67.7703 16.2105 67.7903 16.1905 67.7903 16.1705C67.7903 16.1705 67.7903 16.1505 67.8003 16.1305C67.8003 16.1305 67.8403 16.0705 67.8303 16.0705C67.8603 16.0505 67.8803 16.0205 67.8303 16.0705C67.9103 16.0105 68.0003 15.9505 68.0903 15.8805C68.2403 15.7705 68.3503 15.6205 68.4803 15.4905C68.4803 15.4905 68.5003 15.4705 68.5103 15.4605C68.5303 15.4505 68.5503 15.4305 68.5703 15.4305C68.5703 15.4305 68.5703 15.4305 68.5603 15.4305C68.5603 15.4305 68.5803 15.4305 68.5903 15.4305C68.6103 15.4305 68.6403 15.4305 68.6603 15.4305C68.6703 15.4305 68.6803 15.4305 68.6903 15.4305C68.7103 15.4305 68.7203 15.4405 68.7403 15.4505C68.7803 15.4705 68.8203 15.4905 68.8603 15.5205C68.8803 15.5305 68.9103 15.5605 68.9303 15.5705C69.0003 15.6305 69.0603 15.6905 69.1203 15.7505C69.1603 15.8305 69.2003 15.9005 69.2303 15.9905C69.2303 16.0005 69.2303 16.0105 69.2303 16.0205C69.2303 16.0605 69.2303 16.1005 69.2303 16.1305C69.2703 16.5605 69.4903 17.0205 70.0103 16.9005C70.1003 16.8805 70.1903 16.8405 70.2703 16.8005C70.2903 16.8005 70.3303 16.7805 70.3503 16.7705C70.4903 16.7605 70.6903 16.8405 70.8503 16.8405C71.0303 16.8405 71.2003 16.7705 71.3203 16.6405C71.4903 16.4605 71.4803 16.2505 71.5303 16.0305C71.6103 15.7005 71.7303 15.3505 71.6703 15.0105C71.6703 14.9205 71.6403 14.8505 71.5903 14.7705C71.5903 14.7605 71.5703 14.7405 71.5603 14.7305C71.5603 14.7205 71.5603 14.7105 71.5503 14.6905C71.4503 14.5405 71.3703 14.4805 71.3403 14.2905C71.3203 14.1705 71.3303 14.0805 71.4003 13.9805C71.5003 13.8505 71.6403 13.7305 71.7803 13.6205C71.8203 13.6005 71.8603 13.5905 71.9003 13.5705C72.0403 13.5005 72.1703 13.4205 72.3003 13.3205C72.3703 13.2705 72.4403 13.2105 72.5203 13.1605C72.5903 13.1105 72.6703 13.0605 72.7503 13.0305C72.7703 13.0305 72.7803 13.0205 72.8003 13.0105C72.8303 13.0005 72.8703 12.9805 72.9003 12.9705C73.0203 12.9305 73.1203 12.9005 73.2503 12.9905C73.3003 13.0305 73.3103 13.0205 73.3203 13.0605C73.4503 13.3705 73.3203 13.0605 73.3203 13.0905C73.3203 13.1005 73.3203 13.1805 73.3203 13.2005C73.3203 13.2105 73.2903 13.2505 73.2803 13.2805C73.2803 13.2805 73.2603 13.2905 73.2503 13.2905C72.9403 13.3905 72.6003 13.4905 72.4003 13.7605C72.4003 13.7605 72.4003 13.7705 72.4003 13.7805C72.4003 13.7805 72.4003 13.7805 72.4003 13.7905C72.2903 13.9605 72.2503 14.1505 72.3103 14.3505C72.3903 14.5805 72.5703 14.6705 72.7403 14.7805C72.9103 14.8905 73.0403 15.0305 73.2703 15.0305C73.4903 15.0305 73.7003 14.9105 73.9103 14.8505C74.4903 14.6905 75.4903 14.6205 75.8603 15.2305C75.9603 15.4105 75.9803 15.6405 76.0603 15.8305C76.1403 16.0205 76.2703 16.2005 76.3103 16.4005C76.3403 16.5505 76.2403 16.6305 76.1103 16.6805C75.9503 16.7205 75.7803 16.7505 75.6303 16.7405C75.3603 16.7105 75.0803 16.6205 74.8103 16.6405C74.7903 16.6405 74.7803 16.6405 74.7603 16.6405C74.7203 16.6405 74.6903 16.6505 74.6503 16.6605C74.5103 16.6905 74.3703 16.7505 74.2403 16.8705C73.9003 17.1805 73.6803 17.5605 73.3103 17.8405C72.8603 18.2005 72.3903 18.3605 71.8103 18.3605C71.3003 18.3605 70.7603 18.2905 70.2903 18.0905C69.8803 17.9105 69.4903 17.6205 69.0203 17.6105C68.5703 17.6005 68.2103 17.8605 68.0203 18.2605C67.9703 18.3705 67.9303 18.4905 67.8903 18.6105C67.6003 18.9305 67.2703 19.2205 66.8803 19.4405C66.3503 19.7305 65.7703 19.8205 65.2103 20.0305C64.7903 20.1805 64.4403 20.5105 64.0203 20.6405C63.6703 20.7505 63.3103 20.6005 62.9503 20.7005C62.2503 20.8905 62.0103 21.8005 62.6103 22.2605C62.8603 22.4505 63.1903 22.5305 63.5003 22.5605C63.8303 22.6005 64.3603 22.4505 64.6603 22.5905C65.1503 22.8205 64.4803 23.6705 64.3403 24.0105C64.1303 24.4905 64.0303 25.0605 63.6103 25.4205C63.2403 25.7405 62.6903 25.7405 62.2303 25.9005C62.1903 25.9005 62.1503 25.8805 62.1003 25.8905C61.7803 25.9105 61.4403 26.0705 61.2603 26.3505C61.0503 26.6805 61.0203 27.0705 61.1303 27.4405C61.1803 27.6005 61.2003 27.7605 61.2203 27.9205C61.2203 28.0005 61.2203 28.0805 61.2003 28.1505C61.2003 28.1805 61.1803 28.2105 61.1703 28.2505C61.1303 28.3005 61.0703 28.3405 61.0303 28.3905C60.7903 28.7505 60.7303 29.2105 60.8303 29.6305C60.9203 30.0105 61.1803 30.3905 61.0303 30.8005C60.8603 31.2605 60.4903 31.5705 60.3603 32.0705C60.2403 32.5105 60.2703 32.9405 59.8303 33.1605C59.4603 33.3505 59.0603 33.4605 58.7203 33.7405C58.3103 34.0905 58.1503 34.5305 57.9403 35.0005C57.7303 35.4805 57.3403 35.8206 57.0803 36.2606C56.5403 37.1706 56.9503 37.9906 57.0803 38.9406C57.1703 39.6006 56.5503 39.8805 56.1703 40.3505C56.0203 40.4905 55.9203 40.6706 55.9203 40.8706C55.9203 40.9206 55.8903 40.9506 55.8903 41.0005C55.8403 41.7705 56.1603 42.3406 56.6503 42.7606C56.8203 42.9906 57.0303 43.2006 57.2103 43.4706C57.5603 43.9906 57.6303 44.6405 57.8503 45.2105C58.2403 46.2305 59.2003 47.5405 60.4003 47.5605C61.0403 47.5605 61.6003 47.1606 62.2303 47.0806C62.7303 47.0106 63.2303 47.0506 63.7203 47.0506C63.7903 47.0806 63.8503 47.0706 63.9203 47.0506C63.9703 47.0506 64.0303 47.0506 64.0803 47.0506C64.5903 47.0106 65.7403 46.5906 66.2103 46.8706C66.4003 46.9806 66.4303 47.2406 66.5303 47.4406C66.6603 47.6906 66.8203 47.9005 67.0203 48.1005C67.2803 48.3505 67.8603 48.6405 67.9903 48.9905C68.0603 49.1905 67.9903 49.3405 67.8603 49.4605C67.7803 49.4805 67.7003 49.4905 67.6203 49.5205C67.2603 49.6505 66.9103 49.9506 66.9103 50.3205C66.4403 51.0505 66.6603 51.9305 67.3403 52.6305C67.7103 53.0105 68.2203 53.3006 68.5403 53.7306C68.8603 54.1506 69.0003 54.7206 69.0803 55.2306C69.1803 55.8206 69.1603 56.4105 68.9103 56.9605C68.8903 57.0005 68.8703 57.0305 68.8503 57.0705C68.8003 57.1405 68.7503 57.2206 68.6803 57.2906C67.6303 58.5806 67.1003 59.5905 68.0603 61.1105C68.4603 61.7406 68.9903 62.2705 68.6903 63.0406C68.3703 63.8506 67.9703 64.4605 68.2403 65.3605C68.5203 66.3205 69.6303 66.9406 69.1103 68.0406C68.7403 68.8205 68.1303 69.2805 68.0703 70.2005C68.0303 70.8005 68.5903 71.3405 69.2003 71.2005C69.7503 71.0705 70.1403 70.8006 70.5603 70.4305C71.1703 69.9006 71.5703 69.7206 72.3803 69.5705C73.6103 69.3505 74.5903 68.9205 75.4103 67.9505C76.2103 67.0105 76.6603 65.9006 77.6203 65.1005C78.0703 64.7206 78.4703 64.3505 78.7503 63.8205C79.0403 63.2605 79.0703 62.5806 79.3903 62.0406C79.9803 61.0505 81.3803 60.8505 82.0103 59.8105C82.7603 58.5805 82.5203 56.9605 82.5303 55.5905C82.5403 54.3505 82.7503 53.3706 83.4603 52.4706C83.6203 52.3306 83.7703 52.1905 83.9503 52.0705C84.2303 51.8806 84.5403 51.7306 84.8303 51.5506C85.2103 51.3206 85.6003 51.0905 85.9703 50.8505C86.5303 50.5305 87.0703 50.1206 87.3603 49.5406C87.5203 49.2406 87.6003 48.9006 87.7703 48.6105C87.9503 48.3005 88.2303 48.0606 88.4103 47.7505C88.6003 47.4205 88.6103 47.0705 88.7003 46.7105C88.7903 46.3105 89.1303 46.0305 89.3103 45.6805C89.6403 45.0505 89.9503 44.2706 89.9003 43.5506C89.8503 42.7506 89.0303 42.8505 88.5703 43.2505C88.1003 43.6605 87.9403 44.2906 87.5403 44.7505C87.3103 45.0205 86.9803 45.1206 86.6603 45.2206C86.3103 45.3405 85.9203 45.5506 85.5303 45.4706C84.5903 45.2906 85.6203 44.5105 85.7603 44.1005C85.8803 43.7605 85.7603 43.4106 85.4403 43.2306C85.1103 43.0406 84.7503 43.1505 84.4103 43.0905C84.1603 43.0005 83.9003 42.9405 83.7103 42.8905C83.6403 42.8705 83.5703 42.8605 83.5003 42.8306C83.4503 42.8006 83.4003 42.7705 83.3503 42.7405C83.1903 42.6105 83.1203 42.4005 83.0503 42.2105C82.8803 41.6905 82.7403 41.2205 82.3603 40.8105C82.1303 40.5605 81.9203 40.4006 81.8803 40.0506C81.8503 39.7606 81.8803 39.4605 81.8903 39.1705C81.9003 38.8305 81.9103 38.4905 81.8203 38.1705C81.8303 38.1205 81.8503 38.0706 81.8503 38.0106C81.8503 37.7506 81.7303 37.5205 81.5403 37.3505C81.3703 37.1905 81.1403 37.1105 80.9703 36.9605C80.6803 36.7205 80.5003 36.3605 80.3503 36.0205C80.0903 35.3905 80.0503 34.7105 79.8203 34.0705C79.6503 33.5805 79.2303 33.1805 78.6803 33.3306C78.4503 33.3906 78.2503 33.5405 78.0603 33.6705C77.7303 33.8905 77.6903 33.7805 77.3703 33.6105C77.0603 33.4506 76.7103 33.4105 76.4103 33.2305C76.0903 33.0305 75.8403 32.7305 75.5903 32.4605C75.2303 32.0605 74.7803 31.5305 74.1703 31.6805C73.4503 31.8705 73.5403 32.6505 73.5903 33.2105C73.5903 33.3105 73.6403 33.5005 73.5603 33.5905C73.4203 33.7605 73.1503 33.5605 73.0203 33.4805C72.9403 33.4305 72.8503 33.3705 72.7703 33.3105C72.6003 33.1605 72.4303 33.0205 72.2503 32.8705C71.8403 32.5305 71.4203 32.2806 70.9203 32.0805C70.7203 32.0005 70.5203 31.9305 70.3403 31.8105C70.2703 31.7705 70.2103 31.7205 70.1503 31.6805C70.1003 31.5905 70.0503 31.5005 70.0403 31.3805C70.0003 31.0905 70.1303 30.8005 70.0603 30.5005C69.9603 30.0605 69.6203 29.7205 69.2003 29.5905C68.6903 29.4305 67.9903 29.4505 67.4103 29.5305C67.3603 29.5305 67.3103 29.5305 67.2603 29.5305C66.8203 29.5805 66.3703 29.6705 65.9503 29.8105C65.7303 29.8805 65.5203 29.9605 65.3003 30.0005C65.2803 30.0005 65.1903 30.0005 65.1703 30.0005C65.1703 30.0005 65.1603 30.0005 65.1503 30.0005C65.1403 30.0005 65.1203 30.0005 65.1103 29.9905C65.1103 29.9905 65.1003 29.9705 65.0903 29.9705C65.0803 29.9505 65.0703 29.9405 65.0703 29.9305C65.0703 29.9105 65.0603 29.9005 65.0503 29.8805L65.0403 29.8405C65.0403 29.8305 65.0403 29.8305 65.0403 29.8205C65.0403 29.8005 65.0403 29.7905 65.0503 29.7705C65.0503 29.7605 65.0703 29.7205 65.0703 29.7105C65.0903 29.6805 65.1003 29.6505 65.1203 29.6305C65.1203 29.6305 65.1903 29.5405 65.1503 29.5805C65.1303 29.6005 65.2103 29.5105 65.2303 29.5005C65.4303 29.2905 65.6503 29.1005 65.8603 28.8905C66.1803 28.5605 66.4803 28.2205 66.6603 27.7905C66.7203 27.6405 66.7503 27.4905 66.7603 27.3305C66.8703 27.0405 66.9403 26.7205 66.9703 26.3705C67.0303 25.6805 66.9303 24.8005 67.4003 24.2305C67.4203 24.2105 67.4403 24.2005 67.4603 24.1805C67.4803 24.1805 67.5003 24.1705 67.5203 24.1605C67.6103 24.1305 67.7003 24.1105 67.7803 24.0805C67.8003 24.0805 67.8103 24.0805 67.8203 24.0805C67.8303 24.0805 67.8403 24.0805 67.8603 24.0805C67.8703 24.0805 67.9403 24.0805 67.9603 24.0805C67.9803 24.0805 68.0603 24.1005 68.0703 24.1005C68.0803 24.1005 68.0903 24.1005 68.0903 24.1005C68.0903 24.1005 68.0903 24.1005 68.1003 24.1005C68.1203 24.1105 68.1503 24.1305 68.1703 24.1405C68.1703 24.1405 68.2103 24.1705 68.2303 24.1905C68.2503 24.2105 68.2703 24.2305 68.2803 24.2505C68.2503 24.2105 68.2403 24.2005 68.2603 24.2305C68.2603 24.2605 68.3003 24.3105 68.3203 24.3405C68.3203 24.3405 68.3303 24.3805 68.3403 24.4005C68.3503 24.4405 68.3603 24.4905 68.3703 24.5305C68.4603 24.9405 68.5503 25.3605 68.8703 25.6505C69.0103 25.7805 69.1803 25.8605 69.3503 25.9305C69.5303 26.0705 69.7203 26.1905 69.9203 26.2905C70.3603 26.5105 70.6603 26.6705 70.6003 27.1805C70.5303 27.7205 70.2503 28.4005 70.6203 28.8905C70.7703 29.0905 71.0603 29.2405 71.3003 29.0705C71.5603 28.9005 71.7203 28.6605 71.8503 28.3805C71.9103 28.2505 71.9603 28.1205 72.0203 28.0005C72.0503 27.9405 72.0803 27.8905 72.1103 27.8305C72.1103 27.8105 72.1103 27.8105 72.1203 27.8005C72.1203 27.8005 72.1203 27.8005 72.1403 27.7805C72.3703 27.4905 72.6303 27.1605 72.6603 26.8105C72.6703 26.7905 72.6903 26.7705 72.7003 26.7505C72.8503 26.4405 72.8603 26.0705 72.6703 25.7805C72.5003 25.5205 72.2203 25.3905 71.9403 25.2905C71.8403 25.2505 71.7403 25.2205 71.6303 25.1905C71.5803 25.1705 71.5203 25.1505 71.4703 25.1405C71.5803 25.1805 71.4203 25.1105 71.3803 25.0905C71.1303 24.9605 70.8903 24.8305 70.7103 24.6605C70.5503 24.5105 70.4303 24.2905 70.4003 24.0805C70.3803 23.8605 70.4703 23.6605 70.6703 23.5105C70.8503 23.3705 71.1203 23.3205 71.3903 23.3505C71.4803 23.3605 71.5703 23.4005 71.6703 23.4205C71.7303 23.4605 71.8003 23.4905 71.8603 23.5305C71.8903 23.5505 71.8903 23.5505 71.8603 23.5305C71.8703 23.5405 71.8903 23.5505 71.9003 23.5605C71.9303 23.5905 71.9703 23.6105 72.0003 23.6405C72.0803 23.7005 72.1603 23.7705 72.2403 23.8305C72.3603 23.9105 72.4903 23.9905 72.6103 24.0605C72.8003 24.1605 72.9803 24.2605 73.1703 24.3705C73.4303 24.6605 73.7803 24.8805 73.8403 25.3005C73.9403 25.9505 73.4803 27.2705 74.3503 27.5805C74.5503 27.6505 74.7603 27.6005 74.9303 27.6105C75.0603 27.6105 75.2603 27.6805 75.4203 27.6805C75.8703 27.6905 76.2103 27.3905 76.2903 26.9505C76.3303 26.7305 76.2903 26.5306 76.1903 26.3305C76.1103 26.1605 75.9703 26.0205 75.9003 25.8505C75.7703 25.5505 76.0103 25.5805 76.2503 25.5105C76.3503 25.4805 76.4503 25.4505 76.5503 25.4205C76.7403 25.4705 76.8503 25.5905 76.9503 25.8405C77.1903 26.4005 77.2903 27.0405 77.6503 27.5405C78.0203 28.0505 78.6003 28.2605 79.1803 27.9605C79.3703 27.8605 79.5703 27.6305 79.7903 27.5905C79.9203 27.5705 80.0203 27.6305 80.1403 27.6805C80.3503 27.7705 80.5603 27.8405 80.8003 27.8505C80.8603 27.8505 80.9203 27.8505 80.9803 27.8405C81.0603 27.8605 81.1503 27.8705 81.2303 27.8905C81.3903 27.9305 81.4503 27.9305 81.5703 28.0505C81.9703 28.4505 81.0503 29.1805 80.8403 29.4705C80.6003 29.8005 80.5803 30.1305 80.5003 30.5105C80.4203 30.8905 80.1803 31.1105 79.9403 31.3905C79.6603 31.7205 79.5003 32.1505 79.7303 32.5605C79.9503 32.9505 80.4003 33.0005 80.7803 32.8405C81.1703 32.6805 81.4503 32.4805 81.9003 32.5705C82.1203 32.6105 82.2603 32.7606 82.4003 32.9006C82.4403 33.0106 82.4703 33.1206 82.5203 33.2206C82.8203 33.8205 83.4303 34.0005 83.8003 34.5005C84.1903 35.0305 84.1403 35.7805 84.5203 36.3405C84.9403 36.9505 85.5603 37.3205 85.8903 38.0005C86.2603 38.7605 86.4903 39.5405 86.6803 40.3505C86.8103 40.8905 87.0203 41.6205 87.7003 41.6405C88.2103 41.6505 88.5903 41.1905 88.8603 40.8205C89.0403 40.5805 89.1703 40.2906 89.3803 40.0806C89.6303 39.8206 89.9803 39.6806 90.3103 39.5506C90.9903 39.2906 92.2303 38.9305 92.7803 38.2405C92.7803 38.2405 92.8003 38.2305 92.8003 38.2206C93.0003 38.0205 93.1503 37.9005 93.4103 37.7705C93.5303 37.7105 93.5303 37.7106 93.6603 37.6606C93.7903 37.6106 93.9303 37.5606 94.0403 37.4806C94.0403 37.4806 94.0503 37.4705 94.0603 37.4605C94.0803 37.4605 94.1003 37.4406 94.1203 37.4406C94.2003 37.4006 94.2503 37.3406 94.3003 37.2606C94.4003 37.1306 94.4803 36.9905 94.5403 36.8405C94.6203 36.6505 94.6603 36.4805 94.6803 36.2805C94.6803 36.3205 94.6703 36.3706 94.6603 36.4106C94.6903 36.1706 94.7703 35.9305 94.7703 35.6805C94.7703 35.4006 94.6603 35.1206 94.4003 34.9806C94.0803 34.8106 93.6903 34.8106 93.3303 34.8605C93.1803 34.8306 93.0403 34.7906 92.9003 34.7105C92.6503 34.5805 92.2903 34.1906 92.0103 34.2206C91.7903 34.2505 91.4803 34.6005 91.2703 34.7405C90.9603 34.9605 90.5903 35.0706 90.2203 34.9406C89.8203 34.8006 89.6103 34.4405 89.4503 34.0705C89.3503 33.8305 89.2403 33.3505 89.1103 33.2405C89.0003 33.1405 88.8303 33.1105 88.7003 33.0605C88.6103 33.0205 88.5203 32.9705 88.4403 32.9205C88.3203 32.8105 88.2203 32.6805 88.1603 32.4505C88.0403 31.9905 88.0903 31.3605 88.4603 31.0105C89.2503 30.2605 89.7403 31.3205 89.9903 31.9405C90.2303 32.5305 90.5703 33.0105 91.2803 32.9405C91.6803 32.9005 92.0303 32.6705 92.4203 32.6005C92.8903 32.5005 93.1003 32.7805 93.4203 33.0605C94.0403 33.6105 94.6603 33.6605 95.4603 33.4905C96.1603 33.3405 96.8903 33.3005 97.4803 33.7705C98.1003 34.2605 98.4103 35.0505 98.6203 35.8605C98.7603 37.1805 98.8403 38.5106 98.8403 39.8605C98.8403 60.4305 82.1103 77.1606 61.5403 77.1606C55.0403 77.1606 48.9203 75.4806 43.5903 72.5406C38.6503 69.4605 36.2103 62.8305 35.5903 57.5905C35.5203 57.0405 35.0303 56.6605 34.4803 56.7206C33.9303 56.7906 33.5403 57.2806 33.6103 57.8306C33.8103 59.5106 34.4903 63.5905 36.5503 67.5205C29.0003 60.6905 24.2503 50.8205 24.2503 39.8605C24.2503 38.1105 24.3803 36.3706 24.6103 34.6606C25.5703 30.8806 27.8403 30.0405 30.7003 28.9805C32.4903 28.3205 34.5203 27.5705 36.3803 25.9805C39.8003 23.0505 39.9903 20.5205 40.2203 17.6005C40.4303 14.9105 40.6603 11.8705 43.2603 7.21055C43.5303 6.73055 43.3603 6.12055 42.8703 5.85055C42.5003 5.64055 42.0503 5.70055 41.7503 5.96055C41.6803 5.98055 41.6103 5.99055 41.5503 6.03055C38.3103 7.95055 35.3703 10.3205 32.8003 13.0805C29.5803 16.5405 27.0303 20.4905 25.2403 24.8405C23.9803 27.8805 23.1203 31.0406 22.6603 34.2906C22.6603 34.3205 22.6403 34.3505 22.6303 34.3805C22.6203 34.4305 22.6303 34.4906 22.6303 34.5406C22.3903 36.2906 22.2603 38.0706 22.2603 39.8706C22.2603 47.0306 24.2003 53.7505 27.5603 59.5406C26.7903 59.0005 26.0503 58.4506 25.4703 57.9406C22.6303 55.4206 20.4603 52.3205 18.8503 48.4605C18.2303 46.9905 17.7403 45.4606 17.2603 43.9806C16.4403 41.4606 15.6003 38.8505 14.1103 36.3805C12.3603 33.4705 10.7803 31.2905 8.33028 29.4205C7.24028 28.5905 6.24028 28.0105 4.86028 27.2105C4.16028 26.8005 3.34028 26.3305 2.33028 25.7205C1.97028 25.5005 1.52028 25.5305 1.19028 25.7905C0.860276 26.0505 0.730278 26.4905 0.860278 26.8805C1.25028 28.0805 1.52028 29.5705 1.81028 31.1405C2.46028 34.7205 3.19028 38.7906 5.82028 40.7606C6.84028 41.5205 8.22028 41.7705 9.68028 42.0406C11.6603 42.4006 13.7103 42.7706 15.2803 44.3706C15.3003 44.4506 15.3303 44.5205 15.3503 44.6005C15.8403 46.1205 16.3503 47.6905 17.0003 49.2405C17.2903 49.9405 17.6103 50.6005 17.9303 51.2505C17.1803 51.0305 16.4303 50.8905 15.7103 50.7805C15.2303 50.7105 14.6903 50.6705 14.1503 50.6305C13.1403 50.5605 12.0903 50.4906 11.4303 50.1606C10.9303 49.9106 10.3303 50.1105 10.0903 50.6105C9.84028 51.1006 10.0403 51.7005 10.5403 51.9505C11.5603 52.4605 12.8103 52.5505 14.0203 52.6305C14.5103 52.6605 14.9903 52.7006 15.4203 52.7606C17.0003 53.0006 18.6303 53.3806 19.8303 54.5106C21.0703 56.3406 22.5003 57.9805 24.1403 59.4305C25.0103 60.2006 26.1403 60.9906 27.2303 61.7505C28.5103 62.6405 29.8303 63.5705 30.6803 64.4205C30.8003 64.5405 30.9503 64.6105 31.1003 64.6606C34.2703 68.5506 38.1803 71.8205 42.6003 74.2705C42.6603 74.3005 42.7103 74.3505 42.7603 74.3805C42.8003 74.4005 42.8403 74.4106 42.8803 74.4305C48.4403 77.4505 54.8003 79.1606 61.5603 79.1606C83.2303 79.1606 100.86 61.5305 100.86 39.8605C100.86 18.1905 83.2303 0.560547 61.5603 0.560547L61.6403 0.580547ZM34.3403 14.4605C36.0703 12.6105 37.9803 10.9505 40.0303 9.49055C38.6703 12.8305 38.4703 15.3505 38.3103 17.4605C38.1003 20.2505 37.9503 22.0905 35.1703 24.4805C33.5903 25.8405 31.8103 26.4905 30.1003 27.1305C28.6503 27.6705 27.1803 28.2205 25.9003 29.1805C26.2603 27.9805 26.6803 26.7905 27.1603 25.6305C28.8703 21.5105 31.2803 17.7505 34.3403 14.4705V14.4605ZM10.1103 40.0806C8.83028 39.8506 7.73028 39.6505 7.09028 39.1705C5.09028 37.6705 4.46028 34.1805 3.85028 30.8005C3.72028 30.0705 3.59028 29.3605 3.45028 28.6705C3.62028 28.7705 3.77028 28.8605 3.93028 28.9505C5.30028 29.7405 6.21028 30.2705 7.20028 31.0205C9.40028 32.6905 10.8503 34.7105 12.4803 37.4205C13.2203 38.6505 13.7903 39.9206 14.2803 41.2306C12.8703 40.5806 11.4003 40.3106 10.1203 40.0806H10.1103ZM84.2103 25.5905C83.7903 25.7205 83.3703 25.7905 82.9203 25.7505C82.3203 25.6905 81.8003 25.4605 81.2903 25.1605C80.8303 24.8905 80.3503 24.6505 79.8003 24.7205C79.2703 24.7905 78.9103 25.0805 78.4103 24.7105C78.0503 24.4405 77.5303 23.8805 77.5903 23.4105C77.6203 23.1405 77.7603 22.8805 77.7803 22.6105C77.8003 22.3905 77.7803 22.1705 77.8103 21.9405C77.8303 21.7805 77.8603 21.6005 77.9103 21.4305C77.9803 21.2805 78.0603 21.1405 78.1803 21.0205C78.3703 20.8405 78.6403 20.7805 78.8603 20.8705C78.9503 20.9605 79.0403 21.0505 79.0903 21.1705C79.2203 21.4905 79.0003 21.8005 79.0003 22.1305C79.0003 22.6905 79.5803 22.8705 79.9703 22.5405C80.1303 22.4005 80.2503 22.2305 80.3703 22.0705C80.5303 21.8605 80.7603 21.9105 81.0003 21.8505C81.4803 21.7405 81.9503 21.5005 82.4603 21.5005C82.8103 21.5005 83.1803 21.8205 82.9703 22.1905C82.7903 22.5005 82.3803 22.6605 82.1903 23.0005C81.9403 23.4505 82.1903 23.9506 82.6803 24.0805C82.9103 24.1405 83.1603 24.1205 83.4003 24.0905C83.6503 24.0605 83.7803 24.0305 83.9703 24.1005C84.1903 24.1905 84.3903 24.3505 84.5503 24.5405C84.7503 24.9205 84.5803 25.3805 84.2103 25.5905Z" fill="white"/>
<path d="M43.2304 36.5104C42.6704 36.0404 41.9404 35.9004 41.3104 35.7904C40.7504 35.6904 40.2704 35.4604 39.9604 34.9704C39.9204 34.9004 39.8804 34.8404 39.8504 34.7704C39.8504 34.7704 39.8504 34.7704 39.8504 34.7604C39.8204 34.6504 39.8104 34.5404 39.7904 34.4304C39.7504 34.2004 39.7204 33.9604 39.6204 33.7504C39.3004 33.0304 38.5104 32.9704 37.9204 33.3904C37.5004 33.6804 37.1904 34.0804 36.8104 34.4104C36.7604 34.4504 36.7604 34.4504 36.8104 34.4104C36.7304 34.4604 36.6504 34.5104 36.5704 34.5604C36.4504 34.6304 36.3304 34.7004 36.1904 34.7204C36.0104 34.7404 35.8504 34.6404 35.6904 34.4604C35.3804 34.1204 35.1904 33.6804 35.0204 33.2404C34.9604 33.0104 34.8704 32.7904 34.7404 32.6004C34.5804 32.3204 34.3204 32.1204 34.0104 32.0904C32.8304 31.7904 32.4804 33.1104 32.2004 33.9504C32.0104 34.5304 31.8604 35.1404 31.6104 35.7004C31.4104 36.1404 31.3204 36.2004 30.8804 36.2404C29.7804 36.3204 29.2804 37.5004 29.8704 38.4104C30.3504 39.1604 31.1604 39.1104 31.8804 39.4004C33.0904 39.9004 32.3104 41.3704 32.0604 42.2204C31.7904 43.1304 31.5804 44.4204 32.3204 45.1704C32.6704 45.5304 33.1804 45.6904 33.6504 45.8204C33.9604 45.9104 34.2404 46.0304 34.5204 46.1704C34.5304 46.1804 34.5404 46.2004 34.5504 46.2104C34.6404 46.3104 34.7404 46.4004 34.8404 46.4904C34.9904 46.6904 35.1504 46.8804 35.3204 47.0604C35.4704 47.3304 35.6104 47.5804 35.7304 47.7804C36.1704 48.4904 36.7104 49.0304 37.4304 49.4704C38.2004 49.9504 39.0804 50.2904 39.6404 51.0504C40.1504 51.7604 40.3004 52.6604 40.4904 53.5004C40.6904 54.3904 40.9504 55.2304 41.3804 56.0304C41.8504 56.8904 42.2604 57.8004 42.7404 58.6504C43.2404 59.5404 43.9604 60.3004 44.4804 61.1904C44.8304 61.7904 45.2204 62.3204 45.8104 62.6104C45.9304 62.7304 46.0604 62.8404 46.2104 62.9304C46.6404 63.1704 47.1304 63.2104 47.6204 63.2704C48.4004 63.3704 49.0804 63.7204 49.8504 63.8504C51.3404 64.1004 53.5104 62.7104 51.7804 61.3204C51.4104 61.0204 51.0004 60.8904 50.5404 60.8004C49.8004 60.6504 49.6004 60.7104 49.2804 59.9204C49.1004 59.4704 49.0504 59.0904 48.7004 58.7204C48.5304 58.5404 48.0904 58.3404 48.1004 58.0404C48.1004 57.7504 48.7404 57.3804 48.9104 57.1704C49.2204 56.7804 49.2204 56.4504 49.2904 55.9904C49.3704 55.4904 49.6004 55.3704 49.8804 54.9404C50.4904 54.0404 50.4604 52.6504 50.5504 51.5904C50.6004 51.0204 50.3704 50.3904 50.5504 49.8304C50.7104 49.3104 51.1804 49.0104 51.5704 48.6804C52.2904 48.0704 52.9004 47.3704 52.9004 46.3704C52.9004 45.7304 52.6304 45.1304 52.3904 44.5504C52.0104 43.6504 51.8304 42.8104 51.9804 41.8404C52.0604 41.3204 52.1404 40.8304 52.1004 40.3704C52.1004 40.0704 52.0704 39.7704 51.9704 39.4704C51.5104 38.0604 49.9804 37.8504 48.6904 37.9404C48.0704 37.9904 47.4504 38.0404 46.8304 37.9404C46.2004 37.8404 45.5904 37.6204 45.0004 37.3704C44.4204 37.1204 43.8604 36.8304 43.3004 36.5904C43.2804 36.5704 43.2604 36.5404 43.2404 36.5204L43.2304 36.5104Z" fill="white"/>
</svg>
