<svg width="69" height="182" viewBox="0 0 69 182" fill="none" xmlns="http://www.w3.org/2000/svg">
<path d="M55.6498 63.1808C54.4098 60.8508 52.3798 58.9808 49.8198 58.2208C47.2098 57.4408 44.3998 57.8008 41.7898 58.3608C39.1898 58.9308 36.4098 59.5808 34.4998 61.5708C32.3998 63.7508 31.4998 66.7608 30.9098 69.6508C30.1198 73.5408 30.3398 77.3408 30.2298 81.2608C30.1798 83.0408 30.0198 84.8208 29.8598 86.5908C29.5898 89.0208 29.3798 91.4608 29.3698 93.9108C29.3698 94.5908 29.9198 94.9008 30.4498 94.8608C30.3998 95.8908 30.3498 96.9108 30.2998 97.9408C30.1598 101.001 29.9498 104.041 29.5598 107.081C29.2498 109.451 28.6498 112.081 29.3998 114.421C29.5298 114.821 29.8298 115.021 30.1598 115.081C30.3998 115.241 30.6898 115.321 30.9798 115.231C32.8098 114.671 34.6698 114.531 36.5298 114.851C36.5298 114.851 36.5298 114.861 36.5398 114.871C36.9998 115.381 37.6398 115.381 38.2598 115.291C39.3098 115.131 39.1098 113.801 38.2998 113.451C38.7998 107.811 38.8598 102.141 38.5398 96.4908C38.3898 93.7608 37.9598 90.9808 38.2998 88.2508C38.4598 86.9208 38.8698 85.6408 39.0398 84.3108C39.2198 84.4808 39.4598 84.5908 39.7498 84.6208C50.5598 85.6808 61.1698 73.5308 55.6598 63.1708L55.6498 63.1808ZM38.7498 76.6908C38.3698 73.0308 38.2098 69.1608 40.7798 66.3008C42.2398 64.6808 45.6598 62.0808 47.9198 63.4808C48.7298 63.9808 49.2598 64.9008 49.5498 65.9208C49.6298 66.5908 49.7198 67.2608 49.8098 67.9308C49.8098 68.3108 49.7798 68.6808 49.7098 69.0008C48.7998 73.4808 43.2798 75.0108 39.4498 75.8908C39.0798 75.9808 38.8098 76.3208 38.7498 76.6908Z" fill="white"/>
<path d="M52.8096 21.1804C52.8096 21.1804 52.7696 21.1604 52.7496 21.1504C52.7296 21.1504 52.7496 21.1904 52.8496 21.2304C52.8396 21.2104 52.8196 21.1904 52.8096 21.1804V21.1804Z" fill="white"/>
<path d="M59.6498 21.6697C59.5998 21.5297 59.5298 21.4097 59.4398 21.3097C59.3798 20.5297 59.3498 19.7397 59.3598 18.9497C59.3598 18.9097 59.3398 18.8797 59.3398 18.8397C59.5098 18.4697 59.4698 17.9997 59.1598 17.7097C58.6298 17.2197 57.9398 17.1597 57.2998 17.4897C57.0198 17.6397 56.7798 17.8597 56.5598 18.0997C56.5398 18.0997 56.5198 18.0997 56.4998 18.0997C56.2698 18.1197 56.0298 18.1397 55.7998 18.1597C54.7498 18.2497 53.5698 18.4397 52.8698 19.3197C52.7798 19.4297 52.7098 19.5397 52.6598 19.6597C52.2798 20.0797 52.2498 20.8097 52.7598 21.1497C52.7698 21.1497 52.7898 21.1497 52.8198 21.1797C52.8998 21.2297 52.9798 21.2797 53.0898 21.3097C52.9798 21.2797 52.9198 21.2597 52.8698 21.2397C52.8898 21.2797 52.9098 21.3197 52.8998 21.3797C52.8998 21.4797 53.0098 21.6997 53.0398 21.8097C53.1798 22.2597 53.2798 22.7197 53.3898 23.1797C53.5498 23.9097 53.6798 24.6397 53.8298 25.3697C54.4598 28.4797 54.7198 31.4997 54.0398 34.6297C52.8498 40.1397 48.4398 44.0497 42.8098 44.6197C41.1198 44.7897 39.5098 44.7197 37.9898 44.2897C38.1298 44.1297 38.2398 43.9397 38.3598 43.7397C38.5698 43.6997 38.7698 43.6097 38.8898 43.4697C41.4798 40.3197 44.2298 37.6197 45.6698 33.7097C46.9298 30.2997 47.2698 26.3197 45.7198 22.9497C44.3298 19.9197 41.0898 17.6097 37.7998 17.1697C34.1098 16.6897 29.9998 18.2397 27.0398 20.3797C23.4198 22.9897 21.1998 27.0097 20.0698 31.2597C19.9498 31.7197 20.1298 32.0697 20.4298 32.2797C20.4698 34.8697 20.6398 37.4797 21.4498 39.9497C22.3498 42.6997 24.0298 45.0797 26.0698 47.0997C27.5498 48.5597 29.2698 49.7497 31.1498 50.6197C31.1798 50.8097 31.2698 50.9897 31.4498 51.1297C32.4298 51.8997 33.6198 52.0997 34.8198 52.2497C35.4698 52.4197 36.1198 52.5797 36.7698 52.6797C37.4498 52.7797 38.1398 52.7897 38.8298 52.8097C39.8498 53.0197 40.8698 53.1697 41.9198 53.1997C42.1498 53.1997 42.3298 53.1297 42.4798 53.0297C42.5598 53.0297 42.6398 53.0397 42.7098 53.0497C44.6898 53.2297 46.6098 52.9897 48.4498 52.2297C50.1098 51.5497 51.7398 50.9297 53.1298 49.7797C54.6198 48.5497 55.8298 47.0297 57.0498 45.5397C58.2698 44.0497 59.2598 42.4797 59.9298 40.6697C60.3698 39.4997 60.6098 38.2697 60.7798 37.0297C60.8498 36.4797 60.9398 35.8397 60.8998 35.2397C61.2798 33.7697 61.3998 32.2197 61.3698 30.7197C61.3098 27.6297 60.6998 24.5697 59.6798 21.6597L59.6498 21.6697ZM31.3998 37.6597C30.9198 37.7797 30.7098 38.1397 30.6898 38.5097C30.1898 37.7797 29.7498 37.0097 29.3698 36.1897C28.1998 33.5997 26.8298 30.2697 27.8698 27.4397C28.8198 24.8797 31.4298 22.2097 34.3798 23.0597C37.5598 23.9797 37.4898 28.3397 36.7498 30.8997C36.2798 32.5097 35.4898 33.7797 34.2098 34.8497C33.6498 35.3197 33.0498 35.7597 32.5698 36.3197C32.2498 36.6897 31.8698 37.5297 31.3898 37.6497L31.3998 37.6597Z" fill="white"/>
<path d="M28.6302 73.5801C26.7702 73.2401 24.8102 71.4201 23.8002 69.8601C22.6702 68.1101 22.5102 65.9601 22.5002 63.9401C22.4802 61.5401 22.9902 59.4101 24.3402 57.4101C25.7202 55.3601 27.3402 53.5001 29.0502 51.7301C29.4002 51.3701 29.4702 50.6701 29.0502 50.3201C27.8202 49.2801 26.4402 48.4901 24.9702 47.8401C24.9202 47.8001 24.8702 47.7501 24.8102 47.7101L24.7002 47.6401C24.4902 47.5001 24.2602 47.4801 24.0302 47.5301C23.7402 47.4601 23.4202 47.5001 23.1402 47.7801C22.0802 48.8401 21.4302 50.2401 20.7502 51.5501C19.9502 53.0801 18.9702 54.4901 18.1902 56.0201C16.5202 59.2701 15.6302 62.8001 15.8202 66.4701C15.9002 68.0301 16.1002 69.6001 16.8702 70.9801C17.5902 72.2801 18.6802 73.3201 19.7102 74.3801C22.1302 76.8801 24.5802 79.7401 27.6002 81.5301C28.2802 81.9301 29.0702 81.4101 29.1002 80.6701C29.1902 78.7201 29.0102 76.7501 29.3202 74.8101C29.4002 74.3201 29.2002 73.6801 28.6202 73.5801H28.6302Z" fill="white"/>
<path d="M43.36 146.12C41.91 141.85 39.3 137.99 38.12 133.64C36.86 128.96 38.84 124.08 38.77 119.36C38.77 118.78 38.13 118.14 37.5 118.4C36.6 118.77 35.52 118.85 34.56 118.94C33.94 119 33.31 119.05 32.69 119.05C32.44 119.05 32.12 118.98 31.87 119.02C31.91 119.13 31.94 119.28 31.93 119.55C31.94 119.33 31.88 119.16 31.8 119.02C31.51 119.04 31.56 118.88 31.69 118.86C31.62 118.79 31.54 118.75 31.45 118.7C31.33 117.6 29.54 117.64 29.48 118.86C29.36 121.17 29.4 123.34 28.82 125.6C28.29 127.67 27.91 129.78 27.18 131.8C25.91 135.29 23.54 138.24 21.53 141.32C19.49 144.45 17.83 147.82 17.59 151.6C17.36 155.25 18.58 159.17 21.04 161.91C23.22 164.35 26.42 165.73 29.57 166.39C32.6 167.02 36.01 167.29 38.94 166.08C42.32 164.68 43.68 161.42 44.26 157.99C44.93 154.05 44.65 149.9 43.36 146.12V146.12Z" fill="#256547"/>
<path d="M31.8699 119.009C31.8699 119.009 31.8699 119.009 31.8799 119.009C31.8299 118.879 31.7599 118.839 31.6899 118.849C31.7399 118.899 31.7699 118.949 31.7999 119.009C31.8199 119.009 31.8399 119.009 31.8699 119.009Z" fill="#256547"/>
<path d="M65.5699 152.2C64.6299 150.75 63.7799 149.35 63.0699 147.77C62.4299 146.36 61.6299 145.1 60.5099 144.03C59.4299 143 58.1899 142.18 57.0099 141.28C55.5199 140.16 54.2099 138.84 52.8799 137.54C50.3199 135.03 47.7799 132.45 45.0199 130.17C42.7799 128.32 39.9999 126.29 39.4399 123.25C39.2299 122.13 37.4499 122.4 37.4799 123.52C37.5199 125.59 37.3599 127.67 37.5799 129.73C37.7999 131.77 38.3799 133.75 39.0699 135.68C40.4799 139.61 42.3499 143.35 43.6699 147.31C45.5799 153.04 46.5699 160.78 41.9999 165.43C41.5899 165.64 41.1799 165.86 40.7599 166.06C38.9899 166.93 37.0699 167.47 35.0999 167.62C31.7199 167.87 28.2999 167.09 25.2999 165.55C22.1999 163.96 20.0299 161.68 18.6299 158.49C17.8799 156.78 17.5399 155.01 17.2599 153.18C16.9799 151.32 16.5099 149.25 17.3899 147.49C17.5099 147.25 17.5099 147.01 17.4599 146.8C18.4499 144.61 19.6799 142.5 20.8799 140.45C22.0499 138.45 23.2399 136.45 24.3599 134.42C25.3399 132.66 26.8499 131.24 27.6599 129.38C27.7199 129.24 27.7299 129.1 27.7299 128.95C28.6599 128.4 28.1499 126.76 26.9999 127.14C24.5599 127.95 22.9699 129.98 21.2499 131.77C19.1299 133.97 16.6399 135.81 14.2599 137.71C11.8499 139.63 9.38991 141.6 7.52991 144.08C5.85991 146.31 4.74991 148.86 3.71991 151.43C2.60991 154.2 1.60991 157.09 1.55991 160.11C1.50991 163.07 2.49991 165.75 4.13991 168.18C7.02991 172.48 11.3599 175.55 16.0599 177.6C21.6599 180.05 28.1199 180.44 34.1599 180.54C37.5699 180.6 41.0099 180.39 44.3499 179.67C47.4999 178.99 50.5199 177.77 53.4899 176.55C58.3599 174.55 63.0699 171.61 65.5399 166.79C66.7099 164.52 67.4999 162.01 67.6699 159.45C67.8499 156.73 67.0399 154.46 65.5799 152.2H65.5699Z" fill="white"/>
<path d="M40.39 174.229C41.2737 174.229 41.99 173.513 41.99 172.629C41.99 171.746 41.2737 171.029 40.39 171.029C39.5064 171.029 38.79 171.746 38.79 172.629C38.79 173.513 39.5064 174.229 40.39 174.229Z" fill="#256547"/>
<path d="M25.15 174.231C26.3484 174.231 27.32 173.259 27.32 172.061C27.32 170.862 26.3484 169.891 25.15 169.891C23.9515 169.891 22.98 170.862 22.98 172.061C22.98 173.259 23.9515 174.231 25.15 174.231Z" fill="#256547"/>
<path d="M65.0998 148.5C62.1598 143.95 57.9498 140.44 53.8698 137.06C52.4698 135.9 51.0198 134.69 49.6698 133.48C49.1698 133.03 48.6698 132.6 48.1698 132.17C43.9198 128.49 39.8998 125.02 39.7898 114.41C39.7898 113.86 39.3398 113.42 38.7898 113.42C38.2398 113.42 37.7898 113.88 37.7998 114.43C37.8098 115.8 37.8898 117.05 38.0298 118.22C37.9498 118.32 37.8798 118.44 37.8398 118.58C34.8598 129.39 38.2398 137.48 40.9498 143.98C41.7298 145.86 42.4698 147.63 42.9698 149.27C43.3998 150.69 45.3898 158.01 42.2798 162.57C40.7698 164.79 38.2098 166.05 34.6798 166.33C28.3598 166.82 22.3498 163.88 19.7198 159C15.9598 152.01 19.5498 145.86 23.7198 138.74C27.2698 132.66 30.9498 126.38 30.4798 118.77C30.4698 118.56 30.3798 118.39 30.2598 118.24C30.3898 117.06 30.4698 115.8 30.4898 114.42C30.4898 113.87 30.0498 113.42 29.4998 113.41C28.9498 113.41 28.5098 113.85 28.4998 114.4C28.3898 125.01 24.3798 128.48 20.1198 132.16C19.6198 132.59 19.1198 133.03 18.6198 133.47C17.2698 134.68 15.8198 135.89 14.4198 137.05C10.3398 140.44 6.12982 143.94 3.18982 148.49C-0.970176 154.94 -0.970176 163.47 3.18982 169.23C11.4298 180.64 24.0498 181.26 32.3398 181.26C32.8598 181.26 33.3698 181.26 33.8498 181.26H34.1598H34.4698C34.9598 181.26 35.4598 181.26 35.9798 181.26C44.2698 181.26 56.8898 180.64 65.1298 169.23C69.2898 163.47 69.2898 154.94 65.1298 148.49L65.0998 148.5ZM63.4798 168.07C55.5398 179.07 42.9498 179.31 35.0898 179.27C35.0798 179.27 35.0598 179.27 35.0498 179.27H34.1398H33.2298C33.2298 179.27 33.1998 179.27 33.1898 179.27C25.3298 179.31 12.7398 179.07 4.79982 168.07C1.10982 162.96 1.13982 155.36 4.85982 149.58C7.62982 145.28 11.7298 141.88 15.6898 138.59C17.1098 137.41 18.5698 136.2 19.9498 134.96C20.4398 134.52 20.9298 134.09 21.4198 133.67C23.4198 131.94 25.4498 130.17 27.0798 127.68C25.8198 131.18 23.8898 134.49 21.9898 137.73C17.7098 145.05 13.6598 151.97 17.9598 159.95C20.7398 165.11 26.7798 168.38 33.2998 168.38C33.8098 168.38 34.3198 168.36 34.8298 168.32C38.9898 167.99 42.0498 166.44 43.9198 163.69C47.4598 158.51 45.5398 150.89 44.8698 148.68C44.3398 146.94 43.5798 145.12 42.7798 143.2C40.5198 137.78 37.7798 131.21 38.9598 122.89C40.6098 128.25 43.7698 131 46.8498 133.67C47.3398 134.09 47.8298 134.52 48.3198 134.96C49.6998 136.2 51.1598 137.41 52.5798 138.59C56.5398 141.88 60.6398 145.28 63.4098 149.58C67.1298 155.36 67.1598 162.96 63.4698 168.07H63.4798Z" fill="#98AD8F"/>
<path d="M52.8501 4.63902C52.4601 3.71902 51.7501 2.95902 51.1101 2.17902C50.8001 1.80902 50.5501 1.38902 50.1301 1.10902C49.6901 0.829023 49.1401 0.769023 48.6201 0.849023C48.0601 0.929023 47.5501 1.13902 47.0501 1.38902C46.9401 1.43902 46.8201 1.48902 46.7101 1.52902C46.3901 1.66902 46.0701 1.81902 45.7601 1.96902C45.4301 2.13902 45.1001 2.30902 44.7801 2.49902C44.5101 2.66902 44.2201 2.83902 43.9901 3.05902C43.8301 3.21902 43.7201 3.40902 43.7001 3.59902C43.6501 3.70902 43.6301 3.82902 43.7001 3.95902C44.3001 5.15902 45.0601 6.29902 45.9301 7.35902C46.6701 8.25902 47.5701 9.26902 48.9401 8.79902C49.5201 8.59902 50.0401 8.25902 50.6001 8.01902C51.1701 7.77902 51.7401 7.52902 52.2201 7.14902C53.0401 6.49902 53.2401 5.52902 52.8501 4.61902V4.63902Z" fill="white"/>
<path d="M55.66 6.97046C55.66 6.97046 55.66 6.97046 55.65 6.97046C55.47 6.89046 55.26 6.93046 55.09 7.07046C53.82 8.16046 52.18 8.81046 50.7 9.55046C49.21 10.2805 47.66 10.9105 46.28 11.8605C46.2 11.9105 46.15 11.9805 46.12 12.0505C46.01 12.1605 45.94 12.3105 46.01 12.5105C46.88 15.0905 49.64 12.1605 50.91 11.5805C51.67 11.2305 52.39 10.9205 53.11 10.4705C53.75 10.0705 54.51 9.89046 55.2 9.58046C55.73 9.34046 56.32 8.95046 56.47 8.35046C56.62 7.76046 56.25 7.11046 55.66 6.97046Z" fill="#98AD8F"/>
<path d="M56.9201 10.1594C56.7501 9.98943 56.5401 9.98943 56.3701 10.0694C56.1501 10.1394 55.9301 10.2994 55.7201 10.4294C55.1101 10.8094 54.3801 11.0494 53.7101 11.3294C53.0301 11.6094 52.4001 11.9394 51.8101 12.3594C51.2001 12.7994 50.6301 13.2494 49.9501 13.5894C49.5401 13.7994 49.1001 13.9394 48.6401 14.1594C48.3401 14.3094 48.0101 14.5294 47.8901 14.8494C47.8501 14.9294 47.8301 15.0194 47.8501 15.1294C47.8501 15.2494 47.9001 15.3294 47.9601 15.4094C48.6001 16.5394 49.6801 17.2294 51.0401 17.0694C51.7001 16.9894 52.2401 16.6394 52.7901 16.2794C53.5701 15.7694 54.3901 15.3094 55.2601 14.9694C56.3501 14.5494 57.9201 14.1994 58.4601 13.0194C59.0201 11.7794 57.6601 10.8894 56.9101 10.1594H56.9201Z" fill="white"/>
<path d="M48.9199 57.0003C42.3599 56.0903 37.5599 57.0703 34.2399 59.9903C30.9599 62.8703 29.4899 67.3603 28.8399 72.6903C25.5399 70.6803 23.7299 68.1203 23.4999 65.0703C23.1499 60.3103 26.6499 55.1703 30.2099 52.1903C33.2199 53.7903 36.5399 54.6803 40.0599 54.7903C40.3299 54.7903 40.5899 54.8003 40.8499 54.8003C47.8999 54.8003 53.5599 51.8503 55.5399 49.9203C67.0299 38.6903 60.7999 20.1803 59.3799 16.4403C59.3699 16.4003 59.3499 16.3603 59.3399 16.3303C59.1199 15.8503 58.5599 15.6203 58.0699 15.8203L51.3399 18.4603C51.0799 18.5603 50.8699 18.7803 50.7699 19.0403C50.6699 19.3103 50.6899 19.6003 50.8199 19.8503C52.5199 23.0803 53.3999 26.6203 53.3699 30.1003C53.3399 33.6003 53.0699 37.2103 50.2299 39.5503C47.1199 42.1203 44.5399 43.2103 41.4099 43.2103C41.3599 43.2103 41.3199 43.2103 41.2699 43.2103C44.7399 40.1903 48.4399 34.3403 48.2299 27.5003C48.0599 22.0803 45.2499 18.0603 40.4999 16.4803C34.5199 14.4903 26.8899 16.9203 22.7499 22.1203C19.3299 26.4203 16.5799 38.2703 22.9999 46.2603C18.9799 50.4703 14.9699 57.1603 14.5999 63.2903C14.1999 69.9703 16.3699 75.9503 28.2899 83.4503C28.2999 83.4503 28.3199 83.4603 28.3299 83.4703C28.3299 84.8303 28.3399 86.2203 28.3499 87.6103C28.3499 88.7903 28.3699 89.9803 28.3699 91.1703C28.4099 104.24 28.4499 114.43 28.4499 114.43C28.4499 114.98 28.8999 115.43 29.4499 115.43C29.9999 115.43 30.4499 114.98 30.4499 114.43C30.4499 114.43 30.4099 104.24 30.3699 91.1703C30.3699 89.9803 30.3599 88.7803 30.3499 87.6003C30.2599 76.6103 30.1699 66.2303 35.5399 61.5103C38.3999 59.0003 42.6799 58.1803 48.6199 59.0003C50.3899 59.2503 53.0899 60.5103 54.8499 63.2503C56.1299 65.2503 57.3299 68.7303 55.7499 73.9703C54.3799 78.5003 51.2099 81.4803 46.3199 82.8503C43.2999 83.7003 40.4999 83.6403 39.5099 83.5803L39.4499 76.6103C41.6199 76.2603 46.9999 75.0803 49.4499 71.7703C50.5799 70.2403 50.9599 68.4603 50.5699 66.4903C50.0399 63.8303 48.1399 62.3503 45.5999 62.6003C41.7099 63.0003 37.3999 67.3703 37.4299 73.0203L37.4499 75.5303C37.4299 75.6303 37.4199 75.7303 37.4399 75.8403C37.4399 75.8803 37.4399 75.9203 37.4599 75.9603L37.7799 114.42C37.7799 114.97 38.2299 115.41 38.7799 115.41C39.3299 115.41 39.7799 114.95 39.7699 114.4L39.5299 85.5703C42.3599 85.6903 54.3399 85.5503 57.6599 74.5303C59.4599 68.5603 58.0399 64.5003 56.5299 62.1503C54.4099 58.8403 51.1899 57.3203 48.8899 57.0003H48.9199ZM24.3199 23.3503C27.1099 19.8403 31.6899 17.7603 36.0199 17.7603C37.3399 17.7603 38.6499 17.9503 39.8699 18.3603C43.8299 19.6803 46.0899 22.9403 46.2299 27.5403C46.4599 35.0803 41.3999 41.0403 38.3899 42.8303C35.9799 42.1903 33.4999 40.6803 32.1799 38.9703C32.0099 38.7603 31.8599 38.5403 31.6999 38.3203C33.5099 37.0103 34.7599 35.9403 35.8699 34.5303C37.3999 32.5803 38.2199 30.2603 38.3599 27.4303C38.5099 24.4903 36.8999 22.3203 34.2799 21.9003C31.5799 21.4603 29.1599 23.4303 28.1499 25.5903C26.8799 28.3103 26.8999 30.6403 27.3099 33.3203C27.7399 36.1403 29.5499 38.8303 30.5899 40.1903C32.5499 42.7303 36.4299 44.8103 39.8299 45.1203C44.1699 45.5203 47.5399 44.3503 51.4999 41.0703C54.9999 38.1803 55.3299 33.8903 55.3699 30.0903C55.3999 26.6403 54.6099 23.1403 53.0799 19.8903L57.8399 18.0203C59.5299 22.8203 64.0699 38.7503 54.1399 48.4603C52.1899 50.3703 46.5699 52.9703 40.1199 52.7603C34.2499 52.5803 29.1999 50.1703 25.0899 45.6203C18.7299 38.5603 21.2399 27.2003 24.3099 23.3403L24.3199 23.3503ZM30.6399 36.6303C29.9299 35.3503 29.4599 34.1003 29.2999 33.0203C28.9399 30.6403 28.9199 28.7103 29.9799 26.4403C30.5999 25.1203 32.0099 23.8503 33.5399 23.8503C33.6799 23.8503 33.8299 23.8603 33.9699 23.8803C36.3299 24.2603 36.3999 26.6203 36.3699 27.3403C36.2499 29.7803 35.5999 31.6703 34.3099 33.3003C33.3499 34.5203 32.2699 35.4403 30.6399 36.6303V36.6303ZM16.5999 63.3903C16.9299 57.8203 20.6199 51.6803 24.3399 47.7303C25.5999 49.0203 26.9599 50.1403 28.3999 51.0903C24.5399 54.5303 21.1199 59.9403 21.5099 65.2003C21.7999 69.1103 24.0999 72.3103 28.3399 74.7203C28.4299 74.7703 28.5199 74.8003 28.6199 74.8203C28.4599 76.8203 28.3799 78.9203 28.3599 81.0803C17.0099 73.6503 16.3299 68.0503 16.6099 63.3803L16.5999 63.3903ZM45.8099 64.5703C45.9299 64.5603 46.0499 64.5503 46.1699 64.5503C47.4799 64.5503 48.3199 65.3403 48.6199 66.8603C48.8999 68.2703 48.6499 69.4803 47.8599 70.5503C45.9599 73.1303 41.5299 74.1803 39.4499 74.5503V72.9803C39.4099 68.1703 43.1299 64.8303 45.8099 64.5603V64.5703Z" fill="#98AD8F"/>
<path d="M34.1302 119.84C31.3202 119.84 28.4702 118.82 28.4702 116.88C28.4702 112.99 39.8002 112.99 39.8002 116.88C39.8002 118.82 36.9502 119.84 34.1402 119.84H34.1302ZM34.1302 115.92C31.8502 115.92 30.5802 116.64 30.4602 116.92C30.5802 117.12 31.8502 117.84 34.1302 117.84C36.4102 117.84 37.5602 117.19 37.7802 116.88C37.5602 116.57 36.3102 115.92 34.1302 115.92V115.92Z" fill="#98AD8F"/>
<path d="M50.0699 150.15C51.4285 150.15 52.5299 149.049 52.5299 147.69C52.5299 146.332 51.4285 145.23 50.0699 145.23C48.7112 145.23 47.6099 146.332 47.6099 147.69C47.6099 149.049 48.7112 150.15 50.0699 150.15Z" fill="#256547"/>
<path d="M52.3399 163.271C53.8035 163.271 54.9899 162.084 54.9899 160.621C54.9899 159.157 53.8035 157.971 52.3399 157.971C50.8764 157.971 49.6899 159.157 49.6899 160.621C49.6899 162.084 50.8764 163.271 52.3399 163.271Z" fill="#256547"/>
<path d="M14.1202 164.32C15.5838 164.32 16.7702 163.133 16.7702 161.67C16.7702 160.206 15.5838 159.02 14.1202 159.02C12.6567 159.02 11.4702 160.206 11.4702 161.67C11.4702 163.133 12.6567 164.32 14.1202 164.32Z" fill="#256547"/>
<path d="M34.13 159.21C35.5935 159.21 36.78 158.024 36.78 156.56C36.78 155.097 35.5935 153.91 34.13 153.91C32.6664 153.91 31.48 155.097 31.48 156.56C31.48 158.024 32.6664 159.21 34.13 159.21Z" fill="white"/>
<path d="M53.7099 154.819C54.5935 154.819 55.3099 154.103 55.3099 153.219C55.3099 152.335 54.5935 151.619 53.7099 151.619C52.8262 151.619 52.1099 152.335 52.1099 153.219C52.1099 154.103 52.8262 154.819 53.7099 154.819Z" fill="#256547"/>
<path d="M28.4599 149.29C29.3435 149.29 30.0599 148.574 30.0599 147.69C30.0599 146.806 29.3435 146.09 28.4599 146.09C27.5762 146.09 26.8599 146.806 26.8599 147.69C26.8599 148.574 27.5762 149.29 28.4599 149.29Z" fill="white"/>
<path d="M33.4799 142.421C34.3635 142.421 35.0799 141.704 35.0799 140.821C35.0799 139.937 34.3635 139.221 33.4799 139.221C32.5962 139.221 31.8799 139.937 31.8799 140.821C31.8799 141.704 32.5962 142.421 33.4799 142.421Z" fill="white"/>
<path d="M11.4701 171.03C12.3538 171.03 13.0701 170.314 13.0701 169.43C13.0701 168.546 12.3538 167.83 11.4701 167.83C10.5865 167.83 9.87012 168.546 9.87012 169.43C9.87012 170.314 10.5865 171.03 11.4701 171.03Z" fill="#256547"/>
<path d="M11.4701 155.511C12.3538 155.511 13.0701 154.794 13.0701 153.911C13.0701 153.027 12.3538 152.311 11.4701 152.311C10.5865 152.311 9.87012 153.027 9.87012 153.911C9.87012 154.794 10.5865 155.511 11.4701 155.511Z" fill="#256547"/>
<path d="M59.35 164.87C60.2337 164.87 60.95 164.154 60.95 163.27C60.95 162.386 60.2337 161.67 59.35 161.67C58.4663 161.67 57.75 162.386 57.75 163.27C57.75 164.154 58.4663 164.87 59.35 164.87Z" fill="#256547"/>
</svg>
