<svg width="80" height="86" viewBox="0 0 80 86" fill="none" xmlns="http://www.w3.org/2000/svg">
<g clip-path="url(#clip0_449_10924)">
<path d="M40.0159 43.3301C41.1433 43.3301 42.0572 42.4148 42.0572 41.2857C42.0572 40.1565 41.1433 39.2412 40.0159 39.2412C38.8885 39.2412 37.9746 40.1565 37.9746 41.2857C37.9746 42.4148 38.8885 43.3301 40.0159 43.3301Z" fill="#266647"/>
<path d="M26.4317 45.2474C23.2677 45.2474 20.4099 44.5071 18.115 43.615C12.9159 41.5953 9.40545 38.3737 9.37143 38.3428C9.30958 38.2839 9.27246 38.2065 9.27246 38.1197C9.27246 38.0361 9.30339 37.9525 9.36525 37.8936C9.52298 37.7356 13.3148 34.0339 18.3222 33.9844C18.4366 33.9906 18.5356 34.0401 18.5913 34.1362C18.6562 34.2446 25.21 44.9779 37.3526 41.236C37.501 41.1895 37.6588 41.2607 37.7237 41.4001C37.7887 41.5395 37.7423 41.7068 37.6155 41.7904C33.7494 44.3522 29.908 45.2443 26.4348 45.2443L26.4317 45.2474Z" fill="#216648"/>
<path d="M33.4804 41.2855C28.1823 41.2855 23.577 38.7237 20.0048 33.7396C16.6645 29.0807 15.3809 23.8829 15.3686 23.8302C15.3469 23.7373 15.3686 23.6413 15.4273 23.5669C15.4861 23.4926 15.5758 23.4492 15.6717 23.4492H23.076C23.2399 23.4492 23.3729 23.5762 23.3853 23.7404C23.3945 23.8922 24.4863 39.049 37.4733 40.2106C37.6248 40.223 37.7454 40.3469 37.7547 40.4987C37.764 40.6505 37.6619 40.7868 37.5135 40.8208C36.1341 41.1337 34.7856 41.2886 33.4835 41.2886L33.4804 41.2855Z" fill="#216648"/>
<path d="M38.0301 39.6253C38.0301 39.6253 38.0147 39.6253 38.0085 39.6253C34.3682 39.362 31.3774 37.872 29.1103 35.2018C25.9432 31.4692 24.7803 26.0452 24.3628 22.1514C23.9112 17.951 24.205 14.5746 24.2081 14.5405C24.2174 14.4538 24.2607 14.3732 24.3287 14.3206C24.3968 14.2679 24.4865 14.2462 24.5731 14.2617C24.771 14.2989 29.4938 15.2096 32.763 17.9448C32.865 18.0316 32.9022 18.1741 32.8527 18.298C32.797 18.4436 27.2515 32.7981 38.1848 39.0429C38.3116 39.1142 38.3703 39.2628 38.327 39.4022C38.2868 39.5323 38.1662 39.6222 38.0301 39.6222V39.6253Z" fill="#216648"/>
<path d="M44.2739 16.3059C42.3996 12.5205 40.281 9.82868 40.2593 9.8008C40.2562 9.7946 40.2501 9.79461 40.2439 9.78841C40.2315 9.77602 40.2253 9.76053 40.2129 9.75124C40.2037 9.74194 40.1913 9.74194 40.1789 9.73575C40.1665 9.72646 40.1542 9.72026 40.1387 9.71716C40.1171 9.70787 40.0954 9.69858 40.0707 9.69548C40.0521 9.69238 40.0336 9.69238 40.015 9.69238C39.9964 9.69238 39.9779 9.69238 39.9593 9.69548C39.9377 9.69858 39.916 9.70787 39.8913 9.71716C39.8789 9.72336 39.8634 9.72955 39.8511 9.73575C39.8418 9.74194 39.8294 9.74504 39.8171 9.75124C39.8047 9.76053 39.7954 9.77602 39.7861 9.78841C39.783 9.79461 39.7768 9.7946 39.7707 9.8008C39.749 9.82868 37.6304 12.5205 35.7561 16.3059C34.0179 19.8155 32.1375 25.0164 33.0499 29.8612C33.7612 33.6434 36.0469 36.6884 39.8449 38.9094C39.8944 38.9404 39.9531 38.959 40.0119 38.959C40.0707 38.959 40.1294 38.9404 40.1789 38.9094C43.977 36.6853 46.2626 33.6403 46.9739 29.8612C47.8832 25.0164 46.0028 19.8155 44.2677 16.3059H44.2739Z" fill="#216648"/>
<path d="M6.98322 38.6525C7.60499 38.6525 8.10903 38.1477 8.10903 37.525C8.10903 36.9023 7.60499 36.3975 6.98322 36.3975C6.36146 36.3975 5.85742 36.9023 5.85742 37.525C5.85742 38.1477 6.36146 38.6525 6.98322 38.6525Z" fill="#98AD8F"/>
<path d="M3.55334 37.8407C4.01966 37.8407 4.39769 37.4621 4.39769 36.9951C4.39769 36.528 4.01966 36.1494 3.55334 36.1494C3.08701 36.1494 2.70898 36.528 2.70898 36.9951C2.70898 37.4621 3.08701 37.8407 3.55334 37.8407Z" fill="#98AD8F"/>
<path d="M0.683523 37.2363C1.06102 37.2363 1.36705 36.9299 1.36705 36.5518C1.36705 36.1737 1.06102 35.8672 0.683523 35.8672C0.306024 35.8672 0 36.1737 0 36.5518C0 36.9299 0.306024 37.2363 0.683523 37.2363Z" fill="#98AD8F"/>
<path d="M13.5809 23.3068C14.2026 23.3068 14.7067 22.802 14.7067 22.1793C14.7067 21.5566 14.2026 21.0518 13.5809 21.0518C12.9591 21.0518 12.4551 21.5566 12.4551 22.1793C12.4551 22.802 12.9591 23.3068 13.5809 23.3068Z" fill="#98AD8F"/>
<path d="M10.6022 21.2401C11.0685 21.2401 11.4465 20.8615 11.4465 20.3945C11.4465 19.9274 11.0685 19.5488 10.6022 19.5488C10.1358 19.5488 9.75781 19.9274 9.75781 20.3945C9.75781 20.8615 10.1358 21.2401 10.6022 21.2401Z" fill="#98AD8F"/>
<path d="M8.11223 19.583C8.48973 19.583 8.79576 19.2765 8.79576 18.8984C8.79576 18.5204 8.48973 18.2139 8.11223 18.2139C7.73473 18.2139 7.42871 18.5204 7.42871 18.8984C7.42871 19.2765 7.73473 19.583 8.11223 19.583Z" fill="#98AD8F"/>
<path d="M23.2928 13.3938C23.9146 13.3938 24.4186 12.8889 24.4186 12.2662C24.4186 11.6435 23.9146 11.1387 23.2928 11.1387C22.671 11.1387 22.167 11.6435 22.167 12.2662C22.167 12.8889 22.671 13.3938 23.2928 13.3938Z" fill="#98AD8F"/>
<path d="M21.7985 9.97745C22.2648 9.97745 22.6428 9.59883 22.6428 9.13179C22.6428 8.66475 22.2648 8.28613 21.7985 8.28613C21.3321 8.28613 20.9541 8.66475 20.9541 9.13179C20.9541 9.59883 21.3321 9.97745 21.7985 9.97745Z" fill="#98AD8F"/>
<path d="M20.5488 7.18947C20.9263 7.18947 21.2323 6.88298 21.2323 6.50489C21.2323 6.12681 20.9263 5.82031 20.5488 5.82031C20.1713 5.82031 19.8652 6.12681 19.8652 6.50489C19.8652 6.88298 20.1713 7.18947 20.5488 7.18947Z" fill="#98AD8F"/>
<path d="M42.3881 41.7934C42.2582 41.7097 42.2149 41.5425 42.2798 41.4031C42.3448 41.2637 42.5025 41.1955 42.651 41.2389C54.7936 44.9809 61.3473 34.2475 61.4123 34.1391C61.468 34.0431 61.5669 33.9935 61.6814 33.9873C66.6918 34.0369 70.4806 37.7386 70.6383 37.8965C70.6971 37.9554 70.7311 38.039 70.7311 38.1227C70.7311 38.2063 70.694 38.2868 70.6321 38.3457C70.5981 38.3767 67.0877 41.5982 61.8886 43.6179C59.5937 44.51 56.7359 45.2504 53.5719 45.2504C50.0986 45.2504 46.2573 44.3582 42.3912 41.7965L42.3881 41.7934Z" fill="#216648"/>
<path d="M42.4899 40.8179C42.3414 40.7838 42.2394 40.6475 42.2486 40.4957C42.2579 40.344 42.3785 40.2201 42.5301 40.2077C55.517 39.046 56.6088 23.8893 56.6181 23.7375C56.6274 23.5733 56.7634 23.4463 56.9274 23.4463H64.3317C64.4276 23.4463 64.5172 23.4897 64.576 23.564C64.6348 23.6383 64.6564 23.7375 64.6348 23.8273C64.6224 23.88 63.3389 29.0778 59.9986 33.7367C56.4232 38.7239 51.821 41.2825 46.523 41.2825C45.2209 41.2825 43.8755 41.1277 42.493 40.8148L42.4899 40.8179Z" fill="#216648"/>
<path d="M41.673 39.4052C41.6297 39.2658 41.6915 39.1171 41.8152 39.0458C52.7485 32.7979 47.203 18.4434 47.1473 18.3009C47.0978 18.177 47.1349 18.0345 47.237 17.9478C50.5062 15.2094 55.2259 14.3018 55.4269 14.2647C55.5104 14.2492 55.6001 14.2709 55.6713 14.3235C55.7424 14.3762 55.7857 14.4567 55.7919 14.5435C55.7919 14.5775 56.0888 17.954 55.6372 22.1544C55.2197 26.0481 54.0537 31.4721 50.8897 35.2048C48.6257 37.8749 45.6318 39.3618 41.9915 39.6282C41.9853 39.6282 41.9761 39.6282 41.9699 39.6282C41.8338 39.6282 41.7132 39.5384 41.673 39.4083V39.4052Z" fill="#CD9CA1"/>
<path d="M73.0164 38.6525C73.6382 38.6525 74.1422 38.1477 74.1422 37.525C74.1422 36.9023 73.6382 36.3975 73.0164 36.3975C72.3947 36.3975 71.8906 36.9023 71.8906 37.525C71.8906 38.1477 72.3947 38.6525 73.0164 38.6525Z" fill="#98AD8F"/>
<path d="M76.4459 37.8407C76.9122 37.8407 77.2903 37.4621 77.2903 36.9951C77.2903 36.528 76.9122 36.1494 76.4459 36.1494C75.9796 36.1494 75.6016 36.528 75.6016 36.9951C75.6016 37.4621 75.9796 37.8407 76.4459 37.8407Z" fill="#98AD8F"/>
<path d="M79.3163 37.2363C79.6938 37.2363 79.9999 36.9299 79.9999 36.5518C79.9999 36.1737 79.6938 35.8672 79.3163 35.8672C78.9388 35.8672 78.6328 36.1737 78.6328 36.5518C78.6328 36.9299 78.9388 37.2363 79.3163 37.2363Z" fill="#98AD8F"/>
<path d="M66.4188 23.3068C67.0405 23.3068 67.5446 22.802 67.5446 22.1793C67.5446 21.5566 67.0405 21.0518 66.4188 21.0518C65.797 21.0518 65.293 21.5566 65.293 22.1793C65.293 22.802 65.797 23.3068 66.4188 23.3068Z" fill="#98AD8F"/>
<path d="M69.3942 21.2401C69.8605 21.2401 70.2385 20.8615 70.2385 20.3945C70.2385 19.9274 69.8605 19.5488 69.3942 19.5488C68.9278 19.5488 68.5498 19.9274 68.5498 20.3945C68.5498 20.8615 68.9278 21.2401 69.3942 21.2401Z" fill="#98AD8F"/>
<path d="M71.8876 19.583C72.2651 19.583 72.5711 19.2765 72.5711 18.8984C72.5711 18.5204 72.2651 18.2139 71.8876 18.2139C71.5101 18.2139 71.2041 18.5204 71.2041 18.8984C71.2041 19.2765 71.5101 19.583 71.8876 19.583Z" fill="#98AD8F"/>
<path d="M56.7049 13.3938C57.3267 13.3938 57.8307 12.8889 57.8307 12.2662C57.8307 11.6435 57.3267 11.1387 56.7049 11.1387C56.0831 11.1387 55.5791 11.6435 55.5791 12.2662C55.5791 12.8889 56.0831 13.3938 56.7049 13.3938Z" fill="#98AD8F"/>
<path d="M58.1988 9.97745C58.6652 9.97745 59.0432 9.59883 59.0432 9.13179C59.0432 8.66475 58.6652 8.28613 58.1988 8.28613C57.7325 8.28613 57.3545 8.66475 57.3545 9.13179C57.3545 9.59883 57.7325 9.97745 58.1988 9.97745Z" fill="#98AD8F"/>
<path d="M59.4511 7.18947C59.8286 7.18947 60.1346 6.88298 60.1346 6.50489C60.1346 6.12681 59.8286 5.82031 59.4511 5.82031C59.0736 5.82031 58.7676 6.12681 58.7676 6.50489C58.7676 6.88298 59.0736 7.18947 59.4511 7.18947Z" fill="#98AD8F"/>
<path d="M40.0184 8.19649C40.6401 8.19649 41.1442 7.69168 41.1442 7.06895C41.1442 6.44622 40.6401 5.94141 40.0184 5.94141C39.3966 5.94141 38.8926 6.44622 38.8926 7.06895C38.8926 7.69168 39.3966 8.19649 40.0184 8.19649Z" fill="#98AD8F"/>
<path d="M40.0182 4.43936C40.4845 4.43936 40.8625 4.06075 40.8625 3.5937C40.8625 3.12666 40.4845 2.74805 40.0182 2.74805C39.5519 2.74805 39.1738 3.12666 39.1738 3.5937C39.1738 4.06075 39.5519 4.43936 40.0182 4.43936Z" fill="#98AD8F"/>
<path d="M40.0185 1.36916C40.396 1.36916 40.702 1.06266 40.702 0.68458C40.702 0.306497 40.396 0 40.0185 0C39.641 0 39.335 0.306497 39.335 0.68458C39.335 1.06266 39.641 1.36916 40.0185 1.36916Z" fill="#98AD8F"/>
<path d="M43.5572 81.1461C43.4459 80.7837 43.2851 80.4429 43.1706 80.0805C43.0562 79.7181 42.951 79.3618 42.7655 79.0304C42.6077 78.7485 42.2057 78.891 42.1902 79.1853C42.1778 79.4176 42.2211 79.6716 42.1747 79.8977C42.1376 80.0743 42.0077 80.2075 41.9304 80.3686C41.7448 80.7465 41.7757 81.2142 41.6922 81.6169C41.5994 82.0568 41.4665 82.4905 41.2963 82.9087C41.1448 83.2804 40.9932 83.6335 40.9283 84.0269C40.7984 84.2561 40.6809 84.4916 40.5664 84.7239C40.3932 85.0801 40.9252 85.3961 41.1015 85.0367C41.1293 84.9779 41.1603 84.9159 41.1912 84.854C41.5933 84.9066 42.0201 84.5225 42.2953 84.2902C42.6789 83.9649 43.0995 83.6087 43.3562 83.172C43.7242 82.5493 43.7768 81.8276 43.5634 81.1461H43.5572Z" fill="#98AC8F"/>
<path d="M57.4683 50.3146C53.7506 47.2449 47.7257 47.5423 42.9658 49.4349C41.5276 47.6259 40.6091 45.4389 40.2874 42.9825C40.2658 42.8121 40.1111 42.6913 39.941 42.7161C39.7709 42.7378 39.6534 42.8927 39.675 43.0631C40.0029 45.5722 40.9276 47.8148 42.372 49.6827C41.7194 49.9677 41.0946 50.2806 40.5101 50.6213C40.3245 50.7266 40.139 50.8351 39.9534 50.9404C38.209 49.596 36.4987 48.6605 34.8378 48.137C32.3821 47.3626 25.4138 46.4736 22.7323 48.8619C21.8168 49.6796 21.4828 50.7886 21.7426 52.1608C22.1725 54.4252 24.8633 55.5404 29.3263 55.2957C33.3532 55.0757 36.7646 53.4526 39.9008 51.6838C41.4998 52.9569 43.1359 54.5832 44.7968 56.5533C44.9793 56.7702 45.1865 57.0149 45.4154 57.2782C44.6607 57.5631 43.9308 57.8884 43.2287 58.2229C42.4864 58.5761 41.738 58.9974 40.9462 59.4434C40.4513 59.7222 39.9534 60.0041 39.4492 60.2705C39.3132 60.1156 39.1802 59.9607 39.0503 59.8089C38.2307 58.8456 36.0564 56.5905 33.5914 56.4294C32.4965 56.3582 31.4975 56.7206 30.6315 57.5074C29.7624 58.2942 29.716 59.1058 29.8304 59.6479C30.0902 60.8776 31.349 61.8162 32.4099 62.1632C34.81 62.9531 37.1451 62.1415 39.307 61.0418C39.7833 61.5715 40.2874 62.0981 40.8256 62.5906C40.2194 63.0181 39.6843 63.5416 39.3286 64.1456C39.0224 64.6661 38.707 65.5737 38.6327 66.4751C38.2956 66.8468 38.042 67.3022 37.8935 67.7017C36.8543 70.4741 38.3049 72.3885 39.706 74.2409C40.7544 75.6255 41.8369 77.0566 41.9081 78.875C41.9576 80.114 41.4998 81.2756 41.0575 82.4001C40.6431 83.4564 40.2132 84.5468 40.2039 85.6929C40.2039 85.7022 40.207 85.7115 40.2101 85.7208C40.2101 85.7425 40.2163 85.761 40.2225 85.7827C40.2286 85.8013 40.2348 85.8199 40.2441 85.8385C40.2534 85.854 40.2627 85.8695 40.275 85.8849C40.2874 85.9035 40.3029 85.9159 40.3183 85.9314C40.3245 85.9376 40.3307 85.9469 40.3369 85.95C40.3493 85.9593 40.3616 85.9624 40.3709 85.9686C40.3833 85.9748 40.3926 85.981 40.4049 85.9841C40.439 85.9964 40.473 86.0057 40.507 86.0057C40.507 86.0057 40.507 86.0057 40.5101 86.0057C40.5565 86.0057 40.5998 85.9934 40.64 85.9748C40.6524 85.9686 40.6586 85.9624 40.6709 85.9531C40.6988 85.9345 40.7266 85.9128 40.7452 85.888C40.7513 85.8818 40.7575 85.8787 40.7606 85.8725C40.8874 85.6898 41.3081 85.3583 41.7132 85.0393C42.1308 84.7109 42.6071 84.3361 42.9813 83.9644C44.9545 82.0098 44.0143 80.399 43.0184 78.6953C42.6751 78.1036 42.3194 77.4934 42.0596 76.8367C41.6081 75.7494 40.8905 74.7985 40.1884 73.8692C38.8276 72.0725 37.544 70.375 38.4626 67.9217C38.5152 67.7792 38.5802 67.6336 38.6575 67.4911C38.6822 67.6429 38.7224 67.7885 38.7719 67.9248C38.9606 68.4483 39.3193 68.82 39.808 68.9966C40.4823 69.2413 41.1194 69.0152 41.472 68.4111C41.8338 67.7916 41.8184 66.8127 41.1658 66.2428C40.5627 65.7193 40.006 65.7193 39.6472 65.8122C39.5389 65.8401 39.4307 65.8803 39.3317 65.9299C39.4492 65.3506 39.6534 64.8054 39.8575 64.4585C40.1915 63.8916 40.708 63.4022 41.2957 63.0088C42.0936 63.6872 42.9566 64.2788 43.8875 64.6877C44.9917 65.1741 47.3484 65.8184 48.3814 64.7838C49.1268 64.0372 49.0371 63.4239 48.8299 63.0398C48.0876 61.6675 44.5215 61.175 43.5597 61.3733C42.8823 61.5157 42.0967 61.8131 41.3606 62.2406C40.8348 61.7667 40.3369 61.2555 39.8699 60.7413C40.3369 60.4904 40.7977 60.2333 41.2462 59.9793C42.0287 59.5394 42.7679 59.1213 43.4916 58.7774C44.2463 58.4181 45.038 58.0681 45.8546 57.7707C47.4536 59.5363 49.832 61.7202 52.4764 61.7202C52.8413 61.7202 53.2094 61.6799 53.5836 61.5901C55.0002 61.2493 55.3125 60.5493 55.3249 60.0227C55.362 58.6659 53.3702 57.0458 52.0619 56.6586C50.0578 56.0639 47.9917 56.3891 46.0463 57.0489C45.7834 56.7516 45.5236 56.4542 45.27 56.1506C43.6494 54.2301 42.0503 52.6286 40.4792 51.3524C40.5936 51.2873 40.708 51.2223 40.8225 51.1541C41.438 50.7979 42.0936 50.4695 42.7834 50.1784C43.9617 51.5537 45.437 52.706 47.1814 53.5827C50.1289 55.0664 53.2063 55.6271 55.8414 55.1687C57.4837 54.8806 58.5786 54.1464 58.8415 53.1459C59.0796 52.2414 58.5941 51.2347 57.4745 50.3085L57.4683 50.3146ZM29.2892 54.6761C26.9077 54.8062 22.8375 54.639 22.3457 52.0431C22.1261 50.8846 22.3859 49.9956 23.1406 49.3234C24.4087 48.1959 26.7809 47.9419 28.6552 47.9419C28.7572 47.9419 28.8593 47.9419 28.9583 47.9419C31.2655 47.9759 33.5264 48.3693 34.6491 48.7256C36.1739 49.2057 37.7513 50.0575 39.3626 51.2687C36.3533 52.9507 33.0872 54.4655 29.2861 54.673L29.2892 54.6761ZM32.5986 61.5746C31.6954 61.2772 30.6284 60.4563 30.4335 59.5178C30.316 58.9633 30.5232 58.4398 31.0459 57.9658C31.7264 57.3494 32.4903 57.0396 33.3285 57.0396C33.4027 57.0396 33.4769 57.0396 33.5512 57.0458C35.843 57.1945 37.977 59.5023 38.5771 60.2085C38.676 60.3262 38.7781 60.444 38.8802 60.5617C36.8389 61.5901 34.745 62.284 32.5986 61.5746ZM42.5483 83.5183C42.1988 83.8653 41.738 84.2277 41.3328 84.5468C41.1751 84.6707 41.0266 84.7884 40.8936 84.8968C41.0266 84.1441 41.3204 83.3975 41.6266 82.6231C42.0689 81.5018 42.5205 80.3402 42.5205 79.0577C43.4854 80.7119 44.1628 81.9199 42.5514 83.5183H42.5483ZM39.8018 66.4131C40.1235 66.3295 40.439 66.4286 40.7637 66.7105C41.1689 67.0636 41.172 67.7048 40.9431 68.0951C40.8256 68.2965 40.5503 68.6001 40.0214 68.4111C39.7029 68.2965 39.4864 68.0673 39.3596 67.711C39.2575 67.4292 39.2235 67.0915 39.2327 66.7384C39.409 66.5804 39.6008 66.4627 39.8018 66.4131ZM43.6865 61.9804C44.5803 61.7914 47.7288 62.3087 48.2856 63.3341C48.3443 63.4425 48.5206 63.7677 47.9453 64.347C47.2123 65.0811 45.2205 64.5979 44.138 64.1209C43.3277 63.7646 42.5669 63.2566 41.8555 62.6712C42.4741 62.3366 43.1205 62.1012 43.6865 61.9835V61.9804ZM51.8826 57.2534C52.9651 57.5755 54.728 58.9943 54.7032 60.0072C54.6909 60.4594 54.2641 60.7878 53.4352 60.986C50.9485 61.5839 48.5825 59.778 46.501 57.5477C48.267 56.9808 50.1165 56.7268 51.8856 57.2503L51.8826 57.2534ZM58.2353 52.991C58.0404 53.7345 57.1002 54.3199 55.727 54.5615C53.2218 54.9983 50.2805 54.4562 47.4505 53.0313C45.8484 52.2259 44.4844 51.1789 43.3803 49.9336C47.9237 48.1742 53.5867 47.914 57.0693 50.7917C57.9941 51.5537 58.4054 52.3343 58.2322 52.991H58.2353Z" fill="#266647"/>
</g>
<defs>
<clipPath id="clip0_449_10924">
<rect width="80" height="86" fill="white"/>
</clipPath>
</defs>
</svg>
