<svg width="94" height="88" viewBox="0 0 94 88" fill="none" xmlns="http://www.w3.org/2000/svg">
<g clip-path="url(#clip0_205_8119)">
<path d="M44.8142 53.0264C44.7662 52.6796 44.6968 52.3379 44.622 51.991C44.5313 51.7019 43.752 48.8059 43.1275 48.1016C43.0421 48.0018 42.9194 47.965 42.7913 47.9597V47.9492C42.7486 47.9492 42.7112 47.9597 42.6738 47.9755C42.5724 47.9965 42.471 48.0333 42.3963 48.1016C41.8252 48.6483 41.2967 49.2474 40.6722 49.7467C40.3893 49.9728 40.1118 50.204 39.8289 50.4353C39.4232 50.6508 39.0229 50.861 38.6653 51.0818C36.8986 52.1592 34.9343 52.8057 33.0342 53.6046C31.4649 54.2668 29.853 55.0973 28.8762 56.5374C27.8514 58.0511 28.2517 59.8276 29.4633 61.1101C30.1038 61.7881 30.9045 62.2243 31.7371 62.6395C32.6659 63.1021 33.616 63.5278 34.5981 63.8642C36.3328 64.4528 38.313 64.4423 39.9463 65.3148C41.5209 66.1558 42.3482 67.9901 42.1668 69.714C42.1507 70.0136 42.1134 70.1292 42.108 70.166C41.8892 71.1962 41.4355 72.1685 41.158 73.1777C40.8804 74.1763 40.6936 75.2117 40.6989 76.2471C40.7096 78.6176 42.0493 80.6621 42.3109 82.98C42.423 83.9576 42.3909 84.8826 42.1614 85.8287C42.1507 85.855 42.1401 85.8812 42.1347 85.9075C42.1187 85.9916 42.092 86.0757 42.076 86.1598C42.0226 86.3543 41.9586 86.5698 41.9106 86.7853C41.8518 86.9745 41.7878 87.1637 41.7131 87.3529C41.665 87.4685 41.7024 87.642 41.7664 87.7471C41.8305 87.8522 41.9533 87.9521 42.076 87.9836C42.2095 88.0152 42.3589 88.0046 42.4763 87.9311C42.5991 87.8522 42.6631 87.7576 42.7165 87.6262C42.9033 87.1584 43.0528 86.6802 43.1382 86.1808C43.1382 86.1703 43.1382 86.1598 43.1382 86.1493C43.1756 86.0389 43.2076 85.9338 43.2289 85.8497C43.3197 85.4765 43.4478 84.5935 43.4531 84.5042C43.5012 83.1587 43.8748 81.8552 43.9495 80.5149C44.0242 79.1274 43.8428 77.7346 43.72 76.3575C43.5972 74.9857 43.4905 73.6087 43.4638 72.2316C43.4424 71.1804 43.3303 70.0662 43.4371 69.0045C43.8481 67.4592 44.211 65.9035 44.4299 64.3109C44.6861 62.4346 44.8302 60.5424 44.9049 58.6503C44.9743 56.7897 45.0917 54.866 44.8249 53.0212L44.8142 53.0264ZM42.866 80.9617C42.5297 79.8737 42.1187 78.8015 41.8839 77.6715C41.5209 75.9265 41.8999 74.2341 42.4283 72.5785C42.4657 73.7558 42.5457 74.9331 42.6525 76.1105C42.7752 77.4928 42.9621 78.8856 42.914 80.2784C42.9087 80.5044 42.8873 80.7357 42.866 80.9617Z" fill="white"/>
<path d="M43.4635 44.3334C43.4635 43.4451 42.855 42.6568 42.2999 42.0103C41.6274 41.2324 40.8107 40.5912 39.9781 39.9867C37.8644 38.4468 35.4838 37.1538 33.0499 36.1709C28.102 34.1737 22.6416 33.79 17.4322 34.899C16.37 35.125 15.2331 35.4877 14.4858 36.3076C14.1282 36.6965 13.872 37.1906 13.8613 37.7267C13.8613 38.1419 14.0855 39.088 14.1122 39.1773C14.2723 39.7239 14.2136 40.3336 14.3737 40.896C14.5499 41.5267 14.8007 42.1364 15.169 42.683C15.8896 43.75 16.845 44.7381 17.7844 45.6158C19.8287 47.5237 22.6043 49.0059 23.9013 50.9821C24.2216 51.5182 24.7607 52.2331 25.2837 52.6115C26.1431 53.2317 27.1999 53.4735 28.2514 53.5208C30.8401 53.6469 33.2581 52.8112 35.5052 51.6181C36.9623 50.8402 38.5049 50.157 39.8713 49.2319C41.6968 47.9968 42.8016 46.5251 43.1699 45.5948C43.2874 45.3005 43.4688 44.7591 43.4688 44.3334H43.4635ZM18.8253 45.1743C17.8859 44.3334 16.9678 43.3926 16.2152 42.3834C15.8149 41.8473 15.5427 41.2587 15.3665 40.6227C15.2971 40.3652 15.2704 40.1076 15.2491 39.8448C15.2865 39.8606 15.3292 39.8764 15.3612 39.8921C15.8095 40.0866 16.2312 40.3336 16.6529 40.5807C17.6563 41.1641 18.521 41.8053 19.3003 42.6673C20.2077 43.6764 21.0244 44.7591 21.6435 45.9627C22.0545 46.7669 22.4068 47.5973 22.7537 48.4278C21.4727 47.3135 20.0849 46.3096 18.8253 45.1796V45.1743ZM40.4478 42.0155C39.3963 41.285 38.2327 40.7278 37.1065 40.1234C34.87 38.9198 32.7243 37.7793 30.253 37.1065C26.0043 35.9502 21.5101 35.4561 17.1546 36.3286C16.5408 36.4495 15.8629 36.6597 15.3025 36.9909C15.4146 36.87 15.548 36.7596 15.6814 36.665C16.4447 36.1341 17.4268 35.9607 18.3235 35.7925C20.544 35.372 22.8925 35.2038 25.1503 35.3668C29.7726 35.7084 34.1388 37.4954 38.0085 39.9237C39.0493 40.5754 40.0848 41.2955 40.9709 42.1469C41.3392 42.5043 41.8622 42.9984 42.1611 43.5345C41.6167 42.9984 41.0883 42.4518 40.4531 42.0155H40.4478Z" fill="white"/>
<path d="M46.8 43.019C46.7893 42.5722 46.5811 42.5617 46.3623 42.5301C45.6524 42.4198 45.156 42.7299 44.8091 43.2082C44.334 43.9072 43.7202 44.9584 43.7896 45.7941C43.859 46.6298 44.302 46.5509 45.0226 46.5457C45.3001 46.5457 45.5777 46.5457 45.8552 46.5352C46.2662 46.5247 46.5384 46.3039 46.6612 45.9202C46.784 45.526 46.8106 45.1476 46.8267 44.7376C46.8427 44.2541 46.816 43.5078 46.8053 43.0137L46.8 43.019Z" fill="white"/>
<path d="M46.6076 47.8977C46.6289 47.4299 46.4688 47.1409 45.7642 47.2092C45.2252 47.2617 44.8729 47.2933 44.5046 47.4509C43.9708 47.6822 44.1737 47.8714 44.5366 49.3694C44.8675 50.7464 45.3853 52.0762 45.7055 53.4585C45.7749 53.7581 46.0204 53.8527 46.2606 53.8211C46.5382 53.8369 46.8264 53.6687 46.8264 53.3166C46.8264 52.2969 46.6129 48.1868 46.6183 47.8977H46.6076Z" fill="white"/>
<path d="M46.4157 40.8641C45.6044 39.5186 44.1312 38.8511 42.7221 38.2729C42.4659 38.1678 42.1243 38.3885 42.0656 38.6408C41.9962 38.9457 42.1617 39.1717 42.4392 39.2873C42.4766 39.3031 42.514 39.3188 42.5513 39.3346C42.5567 39.3346 42.5513 39.3346 42.5567 39.3346C42.562 39.3346 42.5673 39.3346 42.578 39.3451C42.6527 39.3767 42.7275 39.4082 42.8075 39.4397C42.9623 39.5081 43.1118 39.5711 43.2612 39.6447C43.5708 39.7919 43.8804 39.9496 44.1739 40.1335C44.3181 40.2229 44.4568 40.3122 44.5903 40.4121C44.6009 40.4173 44.5956 40.4121 44.6009 40.4173C44.6063 40.4226 44.6063 40.4226 44.6223 40.4331C44.6543 40.4594 44.6863 40.4857 44.7184 40.5119C44.7824 40.5645 44.8465 40.6171 44.9052 40.6749C45.028 40.7853 45.14 40.9061 45.2468 41.0323C45.2575 41.048 45.2788 41.0691 45.2842 41.0796C45.3055 41.1059 45.3269 41.1321 45.3429 41.1584C45.3962 41.232 45.4443 41.3108 45.4923 41.3897C45.6364 41.6262 45.978 41.7313 46.2236 41.5789C46.4638 41.4265 46.5705 41.1111 46.4157 40.8588V40.8641Z" fill="white"/>
<path d="M49.0572 58.662C49.1319 60.5541 49.276 62.441 49.5322 64.3226C49.751 65.9152 50.114 67.4657 50.525 69.0162C50.6317 70.0779 50.5197 71.1921 50.4983 72.2433C50.4716 73.6204 50.3649 74.9974 50.2421 76.3692C50.1193 77.7463 49.9325 79.1391 50.0126 80.5267C50.0873 81.8669 50.4609 83.1704 50.509 84.5159C50.509 84.6053 50.6424 85.483 50.7332 85.8614C50.7545 85.9455 50.7865 86.0506 50.8239 86.161C50.8239 86.1715 50.8239 86.182 50.8239 86.1926C50.9093 86.6866 51.0588 87.1702 51.2456 87.6379C51.2989 87.7693 51.363 87.8639 51.4858 87.9428C51.6032 88.0164 51.7526 88.0216 51.8861 87.9953C52.0088 87.9691 52.1316 87.8692 52.1957 87.7588C52.2544 87.659 52.2917 87.4803 52.249 87.3646C52.1743 87.1807 52.1103 86.9862 52.0515 86.797C52.0035 86.5815 51.9448 86.3713 51.8861 86.1715C51.8701 86.0874 51.8434 86.0033 51.8274 85.9192C51.8274 85.893 51.8114 85.8667 51.8007 85.8404C51.5765 84.8943 51.5445 83.964 51.6512 82.9917C51.9128 80.6738 53.2525 78.6293 53.2632 76.2588C53.2685 75.2234 53.0764 74.1828 52.8041 73.1894C52.5266 72.175 52.0729 71.2027 51.8541 70.1777C51.8487 70.141 51.8114 70.0253 51.7953 69.7257C51.6139 68.0018 52.4412 66.1727 54.0158 65.3265C55.6437 64.454 57.6293 64.4645 59.364 63.8759C60.3461 63.5395 61.2962 63.1138 62.225 62.6513C63.0523 62.236 63.8583 61.7998 64.4988 61.1218C65.7104 59.8393 66.1107 58.0628 65.0859 56.5491C64.1145 55.109 62.5025 54.2786 60.9279 53.6163C59.0278 52.8122 57.0635 52.1657 55.2968 51.0935C54.9392 50.8727 54.5388 50.6677 54.1332 50.447C53.8503 50.2157 53.5727 49.9897 53.2899 49.7585C52.6707 49.2592 52.1423 48.66 51.5658 48.1134C51.4911 48.045 51.395 48.003 51.2883 47.9872C51.2509 47.9715 51.2135 47.9662 51.1762 47.9609V47.9714C51.0427 47.9714 50.92 48.0135 50.8346 48.1134C50.2101 48.8229 49.4308 51.7189 49.3401 52.0027C49.2653 52.3444 49.1959 52.6913 49.1479 53.0382C48.881 54.8883 48.9931 56.8067 49.0678 58.6673L49.0572 58.662ZM51.0374 80.2796C50.9947 78.8921 51.1815 77.494 51.2989 76.1117C51.4004 74.9344 51.4858 73.757 51.5231 72.5797C52.0515 74.2353 52.4305 75.9277 52.0676 77.6727C51.8327 78.8027 51.4217 79.8697 51.0854 80.9629C51.0641 80.7369 51.0427 80.5109 51.0374 80.2796Z" fill="white"/>
<path d="M50.7867 45.5948C51.155 46.5251 52.2599 47.9968 54.0854 49.2319C55.4518 50.157 56.9943 50.8455 58.4515 51.6181C60.6986 52.8112 63.1165 53.6469 65.7052 53.5208C66.7514 53.4682 67.8136 53.2317 68.6729 52.6115C69.196 52.2331 69.7351 51.5182 70.0554 50.9821C71.3524 49.0059 74.1279 47.5237 76.1722 45.6158C77.1116 44.7381 78.0671 43.75 78.7876 42.683C79.1559 42.1364 79.4121 41.5267 79.5829 40.896C79.7377 40.3336 79.679 39.7239 79.8445 39.1773C79.8712 39.088 80.1007 38.1419 80.0953 37.7267C80.09 37.1958 79.8285 36.7018 79.4708 36.3076C78.7236 35.4877 77.5867 35.125 76.5245 34.899C71.3097 33.79 65.8547 34.1737 60.9068 36.1709C58.4728 37.1538 56.0923 38.4468 53.9786 39.9867C53.1459 40.5912 52.3346 41.2324 51.6568 42.0103C51.0963 42.6515 50.4932 43.4451 50.4932 44.3334C50.4932 44.7591 50.68 45.3005 50.7921 45.5948H50.7867ZM71.1976 48.4225C71.5446 47.5921 71.8915 46.7616 72.3078 45.9575C72.927 44.7539 73.7436 43.6711 74.651 42.662C75.4303 41.8 76.295 41.1536 77.2985 40.5754C77.7201 40.3336 78.1418 40.0866 78.5902 39.8869C78.6222 39.8711 78.6649 39.8553 78.7022 39.8396C78.6809 40.1024 78.6542 40.3599 78.5848 40.6175C78.4087 41.2587 78.1365 41.8421 77.7361 42.3782C76.9835 43.3873 76.0655 44.3281 75.1261 45.1691C73.8664 46.2991 72.4786 47.303 71.1976 48.4173V48.4225ZM51.7955 43.5345C52.0944 42.9984 52.6122 42.5043 52.9858 42.1469C53.8718 41.2955 54.9073 40.5754 55.9482 39.9237C59.8179 37.4902 64.1894 35.7032 68.8064 35.3668C71.0642 35.1986 73.4127 35.372 75.6331 35.7925C76.5298 35.9607 77.512 36.1341 78.2752 36.665C78.414 36.7596 78.5421 36.87 78.6542 36.9909C78.0938 36.6597 77.4105 36.4495 76.8021 36.3286C72.4466 35.4561 67.9524 35.9502 63.7037 37.1065C61.2324 37.7793 59.0867 38.925 56.8502 40.1234C55.724 40.7278 54.5604 41.285 53.5089 42.0155C52.8737 42.457 52.3453 42.9984 51.8009 43.5345H51.7955Z" fill="white"/>
<path d="M47.1259 44.7435C47.1419 45.1535 47.1632 45.5319 47.2913 45.9261C47.4141 46.3045 47.6863 46.5253 48.0973 46.541C48.3749 46.5515 48.6524 46.5463 48.93 46.5515C49.6505 46.5568 50.0936 46.6409 50.1629 45.7999C50.2323 44.959 49.6185 43.9131 49.1435 43.214C48.7965 42.7357 48.3001 42.4256 47.5902 42.536C47.3767 42.5675 47.1632 42.5781 47.1526 43.0248C47.1419 43.5189 47.1099 44.2652 47.1312 44.7488L47.1259 44.7435Z" fill="white"/>
<path d="M47.3438 47.8977C47.3225 47.4299 47.4826 47.1409 48.1872 47.2092C48.7263 47.2617 49.0786 47.2933 49.4468 47.4509C49.9806 47.6822 49.7778 47.8714 49.4148 49.3694C49.0839 50.7464 48.5661 52.0762 48.2459 53.4585C48.1765 53.7581 47.931 53.8527 47.6908 53.8211C47.4132 53.8369 47.125 53.6687 47.125 53.3166C47.125 52.2969 47.3385 48.1868 47.3332 47.8977H47.3438Z" fill="white"/>
<path d="M47.5363 40.8641C48.3476 39.5186 49.8208 38.8511 51.2299 38.2729C51.4861 38.1678 51.8277 38.3885 51.8864 38.6408C51.9558 38.9457 51.7904 39.1717 51.5128 39.2873C51.4754 39.3031 51.4381 39.3188 51.4007 39.3346C51.3954 39.3346 51.4007 39.3346 51.3954 39.3346C51.39 39.3346 51.3847 39.3346 51.374 39.3451C51.2993 39.3767 51.2246 39.4082 51.1445 39.4397C50.9897 39.5081 50.8403 39.5711 50.6908 39.6447C50.3812 39.7919 50.0717 39.9496 49.7781 40.1335C49.634 40.2229 49.4952 40.3122 49.3618 40.4121C49.3511 40.4173 49.3564 40.4121 49.3511 40.4173C49.3458 40.4226 49.3458 40.4226 49.3297 40.4331C49.2977 40.4594 49.2657 40.4857 49.2337 40.5119C49.1696 40.5645 49.1056 40.6171 49.0469 40.6749C48.9241 40.7853 48.812 40.9061 48.7052 41.0323C48.6946 41.048 48.6732 41.0691 48.6679 41.0796C48.6465 41.1059 48.6252 41.1321 48.6092 41.1584C48.5558 41.232 48.5078 41.3108 48.4597 41.3897C48.3156 41.6262 47.974 41.7313 47.7285 41.5789C47.4883 41.4265 47.3815 41.1111 47.5363 40.8588V40.8641Z" fill="white"/>
<path d="M38.1799 36.5924C36.6854 35.5885 35.5165 34.222 34.0967 33.1393C32.6769 32.0618 30.9315 31.3995 29.2715 30.7636C28.3481 30.4114 27.414 30.0908 26.5173 29.6809C25.7807 29.3445 25.0655 28.966 24.3609 28.5666C24.1368 27.8308 23.95 27.0897 23.7418 26.3486C23.5283 25.597 23.16 24.94 22.7917 24.2515C22.4127 23.5472 22.0551 22.8271 21.8149 22.0598C21.5587 21.2451 21.532 20.3884 21.3239 19.5632C21.2491 19.2636 20.8221 19.3477 20.8008 19.6315C20.7688 20.073 20.7527 20.5093 20.7154 20.9508C20.678 21.387 20.5926 21.8232 20.5499 22.2595C20.4699 23.0636 20.5926 23.8152 20.9075 24.5616C21.1958 25.2501 21.5801 25.9018 22.0017 26.522C22.2686 26.9162 22.5675 27.2894 22.8558 27.6731C22.4928 27.4471 22.1405 27.2106 21.8042 26.953C21.1317 26.4379 20.5286 25.8388 19.9201 25.2501C19.3009 24.6509 18.6658 24.0623 17.9612 23.5577C17.9505 23.0374 17.9078 22.517 17.8278 21.9967C17.737 21.408 17.5822 20.8299 17.5395 20.236C17.4595 19.1217 17.6516 18.018 17.7477 16.9142C17.8117 16.1521 17.8171 15.3742 17.7157 14.6121C17.6249 13.9078 17.4435 13.1615 16.931 12.6306C16.915 12.6149 16.8937 12.6043 16.8777 12.5938C16.7069 12.4414 16.3546 12.5781 16.44 12.8514C16.7069 13.7396 16.3493 14.7908 16.093 15.6475C15.7995 16.6304 15.4312 17.5975 15.3458 18.6276C15.2711 19.5842 15.5219 20.4882 15.981 21.3239C16.2799 21.8653 16.6375 22.3804 16.9524 22.9112C16.7763 22.8061 16.6001 22.701 16.424 22.6011C16.0343 22.3015 15.6927 21.9441 15.3725 21.5815C14.7747 20.9035 14.3156 20.1413 13.91 19.3372C13.104 17.7341 12.6717 16.0049 11.9671 14.3651C11.6202 13.5609 11.1665 12.8146 10.7074 12.0682C10.2751 11.3745 9.78937 10.749 9.13819 10.2392C8.39627 9.66103 7.59029 9.16171 6.84837 8.57831C6.20252 8.06848 5.6314 7.53238 5.35385 6.74924C4.9909 5.72434 4.83611 4.64687 4.6653 3.57466C4.57456 3.01228 4.53186 2.44989 4.46248 1.88751C4.39309 1.34089 4.25965 0.804788 4.2383 0.252915C4.23296 0.116261 4.14222 0.0374224 4.03547 0.0111428C3.87534 -0.0729521 3.62982 -0.004625 3.62982 0.226636C3.62982 2.01365 3.52306 3.81118 3.70988 5.59294C3.80062 6.43914 3.95007 7.28009 4.21695 8.09476C4.52119 9.02506 4.94819 9.90806 5.26311 10.8331C5.86092 12.5886 6.2986 14.3966 7.23268 16.0207C8.05466 17.4556 9.07948 18.8221 10.4085 19.8365C12.1593 21.1715 14.2462 21.9757 16.1624 23.0479C16.408 23.2318 16.6748 23.3948 16.9577 23.5209C17.4915 23.8573 18.0092 24.2147 18.495 24.6299C19.2422 25.2764 19.9361 25.9807 20.6673 26.6324C20.63 26.6272 20.5926 26.6166 20.5553 26.6114C19.8454 26.4695 19.1622 26.2435 18.4843 25.9912C17.0752 25.4603 15.7835 24.672 14.3637 24.1779C13.6111 23.9151 12.8265 23.7732 12.0258 23.7837C11.2038 23.7995 10.3872 23.9519 9.58655 24.1201C8.78591 24.283 8.00129 24.4144 7.18464 24.4775C6.4267 24.5406 5.65809 24.5931 4.91617 24.7876C3.36827 25.1923 2.00719 26.5746 0.336533 26.4274C0.224444 26.4169 0.155055 26.4695 0.112355 26.5431C-0.00507195 26.6587 -0.0370974 26.8532 0.155055 26.9373C0.726176 27.1843 1.35067 27.1002 1.95382 27.0844C2.72777 27.0687 3.45901 26.9267 4.21161 26.7743C4.9482 26.6272 5.69546 26.522 6.45339 26.5536C7.222 26.5851 7.94791 26.7743 8.65781 27.0529C10.1043 27.6153 11.5775 28.1093 13.1147 28.3406C14.6519 28.5719 16.1037 28.0936 17.5982 27.8255C18.5216 27.6573 19.4931 27.5469 20.4325 27.6048C20.7848 27.6258 21.1317 27.6994 21.484 27.7414C21.7242 27.7677 22.1192 27.7624 22.3167 27.9201C22.3327 27.9306 22.3433 27.9359 22.3594 27.9411C22.3807 27.9517 22.3967 27.9674 22.4181 27.9779C22.9358 28.3038 23.4642 28.6139 23.9927 28.9187C24.0087 28.9293 24.0247 28.9398 24.046 28.9503C25.1349 29.5705 26.2558 30.1434 27.4354 30.5954C29.4263 31.368 31.5453 32.0197 33.3387 33.1971C34.1554 33.7332 34.8493 34.4217 35.5645 35.084C36.3011 35.7672 37.0857 36.4452 37.9291 37.0076C38.2119 37.1968 38.4788 36.7448 38.1959 36.5556L38.1799 36.5924ZM5.14035 9.05659C4.75071 8.13681 4.46248 7.21176 4.30769 6.22365C4.17425 5.36693 4.13155 4.51022 4.12087 3.64825C4.24364 4.50496 4.38241 5.37219 4.61193 6.20788C4.84678 7.07511 5.17771 7.82145 5.83957 8.45216C6.47474 9.05659 7.21666 9.5454 7.93724 10.05C8.74321 10.6124 9.45311 11.18 10.0029 11.9999C10.4833 12.7147 10.9476 13.4663 11.3159 14.2442C11.7056 15.0799 11.9831 15.9576 12.282 16.8301C12.5863 17.7184 12.9225 18.5803 13.3389 19.4213C13.499 19.7472 13.6751 20.0678 13.8566 20.3779C13.515 20.0888 13.1787 19.7997 12.8745 19.4791C12.0472 18.5961 11.3586 17.5765 10.7662 16.5305C10.1737 15.4951 9.75735 14.3809 9.1969 13.3297C8.70051 12.3994 8.0173 11.6951 7.24869 10.9855C6.90708 10.6702 6.57616 10.3496 6.2132 10.0552C5.957 9.85024 5.66343 9.61372 5.3325 9.53488C5.27379 9.38246 5.21507 9.22478 5.14569 9.07236L5.14035 9.05659ZM11.9351 20.2675C11.2572 19.8575 10.606 19.4055 10.0242 18.8694C9.42108 18.3123 8.91935 17.6605 8.44964 16.993C7.96392 16.2993 7.52624 15.5739 7.16863 14.8066C6.77365 13.9551 6.50677 13.0511 6.22921 12.1628C6.02105 11.5059 5.81288 10.8541 5.57803 10.2076C5.73282 10.3233 5.87693 10.4599 5.98368 10.5493C6.28793 10.8068 6.57082 11.0801 6.86438 11.3482C7.61698 12.042 8.27884 12.72 8.75389 13.6345C9.2823 14.6384 9.68796 15.7001 10.2431 16.6935C10.7928 17.6763 11.4333 18.6066 12.1593 19.4686C12.8265 20.2622 13.7285 20.8456 14.4277 21.5972C13.5844 21.1768 12.7411 20.7563 11.9297 20.2727L11.9351 20.2675ZM16.5307 21.2556C16.013 20.3568 15.7621 19.4265 15.8956 18.3911C16.0343 17.3505 16.4507 16.3623 16.7229 15.3532C16.8456 14.8959 16.9737 14.4071 17.0271 13.9131C17.1392 14.2915 17.1872 14.7015 17.2139 15.0694C17.2726 15.7947 17.2406 16.52 17.1659 17.2453C17.0591 18.286 16.9044 19.3267 17.0004 20.3726C17.0645 21.1137 17.2193 21.8285 17.3207 22.5591C17.0591 22.1228 16.7816 21.6971 16.5254 21.2609L16.5307 21.2556ZM13.4189 24.4827C14.8814 24.8244 16.1571 25.639 17.5289 26.2119C17.8865 26.3591 18.2441 26.501 18.6124 26.6377C17.9238 26.5904 17.2727 26.4379 16.6001 26.2067C15.6073 25.8651 14.6306 25.4341 13.5844 25.2711C12.7677 25.145 11.9404 25.2186 11.1131 25.2291C10.3285 25.2396 9.49581 25.2081 8.79659 24.8454C10.3391 24.5774 11.8497 24.1201 13.4243 24.488L13.4189 24.4827ZM16.6055 27.5207C15.8315 27.6889 15.0522 27.8781 14.2516 27.9149C13.4509 27.9517 12.6503 27.7835 11.8764 27.5943C11.1291 27.4103 10.3979 27.179 9.68262 26.9162C8.94604 26.6482 8.2308 26.3223 7.45685 26.1752C6.74696 26.0385 6.02105 26.0227 5.30048 26.0963C4.41444 26.1909 3.56043 26.4432 2.67973 26.5483C2.54629 26.5641 2.41285 26.5693 2.27407 26.5746C2.87722 26.3066 3.45901 25.9649 4.03547 25.6863C5.27913 25.0872 6.65622 25.0977 8.00662 24.9505C9.34102 26.0438 11.1611 25.6811 12.7624 25.7231C14.7853 25.7757 16.5094 27.0687 18.5216 27.179C18.5857 27.179 18.6497 27.179 18.7138 27.179C18.0039 27.2526 17.3047 27.3682 16.6055 27.5154V27.5207ZM21.4199 24.4722C21.0997 23.7364 20.9876 23.0058 21.073 22.2069C21.0944 22.0072 21.1157 21.8127 21.1371 21.6183C21.1744 21.797 21.2118 21.9757 21.2652 22.1491C21.4947 22.9007 21.8363 23.6155 22.2046 24.3146C22.5729 25.0136 22.9785 25.6758 23.1974 26.4379C23.3308 26.89 23.4482 27.3472 23.571 27.7992C23.2347 27.3262 22.8558 26.8794 22.5248 26.4012C22.1032 25.7915 21.7082 25.1555 21.4146 24.4775L21.4199 24.4722Z" fill="white"/>
<path d="M56.0873 37.0486C56.9253 36.4862 57.7099 35.8082 58.4518 35.125C59.1617 34.4627 59.8609 33.7742 60.6776 33.2381C62.471 32.0608 64.59 31.409 66.5809 30.6364C67.7552 30.1791 68.8761 29.6115 69.9703 28.9913C69.9916 28.986 70.0077 28.9755 70.0237 28.9598C70.5521 28.6549 71.0805 28.3448 71.5983 28.019C71.6196 28.0084 71.6356 27.9927 71.657 27.9822C71.673 27.9716 71.6837 27.9716 71.6997 27.9611C71.8972 27.8035 72.2921 27.8087 72.5323 27.7824C72.8846 27.7404 73.2315 27.6668 73.5838 27.6458C74.5232 27.588 75.4947 27.6983 76.4181 27.8665C77.9126 28.1346 79.3644 28.6129 80.9016 28.3816C82.4442 28.1504 83.9174 27.6563 85.3585 27.0939C86.0684 26.8153 86.7943 26.6261 87.5629 26.5946C88.3209 26.5631 89.0681 26.6682 89.8047 26.8153C90.5573 26.9678 91.2939 27.1044 92.0625 27.1254C92.6656 27.1412 93.2955 27.2253 93.8613 26.9783C94.0534 26.8942 94.0267 26.6945 93.904 26.5841C93.8666 26.5105 93.7919 26.4579 93.6798 26.4685C92.0091 26.6156 90.6427 25.2333 89.1001 24.8286C88.3582 24.6341 87.5896 24.5816 86.8317 24.5185C86.015 24.4502 85.2304 24.324 84.4298 24.1611C83.6291 23.9929 82.8125 23.8405 81.9905 23.8247C81.1899 23.809 80.4052 23.9561 79.6526 24.2189C78.2328 24.713 76.9358 25.5014 75.532 26.0322C74.8595 26.2898 74.171 26.5105 73.4611 26.6524C73.4237 26.6577 73.3863 26.6682 73.349 26.6734C74.0802 26.0164 74.7688 25.3174 75.5214 24.6709C76.0017 24.2557 76.5248 23.8983 77.0586 23.5619C77.3468 23.4358 77.6084 23.2728 77.8539 23.0889C79.7701 22.0167 81.8571 21.2125 83.6078 19.8775C84.9368 18.8631 85.9617 17.4966 86.7836 16.0617C87.7124 14.4376 88.1554 12.6296 88.7532 10.8741C89.0681 9.94907 89.5005 9.06082 89.7994 8.13578C90.0609 7.32636 90.2157 6.48016 90.3064 5.63395C90.4986 3.85219 90.3918 2.05467 90.3865 0.267651C90.3865 0.0363906 90.141 -0.0319364 89.9809 0.0521584C89.8741 0.0784381 89.7834 0.157277 89.778 0.293931C89.7567 0.845803 89.6286 1.38191 89.5538 1.92852C89.4791 2.49091 89.4418 3.05329 89.351 3.61568C89.1749 4.68263 89.0254 5.76535 88.6625 6.79026C88.3849 7.57339 87.8138 8.11475 87.1679 8.61932C86.426 9.20273 85.6254 9.69679 84.8781 10.2802C84.2269 10.79 83.7412 11.4102 83.3089 12.1093C82.8445 12.8503 82.3908 13.5967 82.0492 14.4061C81.3447 16.0512 80.9123 17.7751 80.1063 19.3782C79.7007 20.1824 79.247 20.9445 78.6438 21.6225C78.3183 21.9904 77.9766 22.3478 77.5923 22.6421C77.4109 22.742 77.2401 22.8471 77.0639 22.9522C77.3788 22.4161 77.7365 21.9063 78.0354 21.3649C78.4944 20.524 78.7453 19.6252 78.6705 18.6687C78.5905 17.6385 78.2222 16.6714 77.9233 15.6885C77.6671 14.8318 77.3095 13.7806 77.5763 12.8924C77.6564 12.6191 77.3095 12.4824 77.1387 12.6349C77.1226 12.6454 77.1013 12.6559 77.0853 12.6716C76.5729 13.1972 76.3967 13.9488 76.3006 14.6531C76.1992 15.4152 76.2046 16.1879 76.2686 16.9552C76.3647 18.059 76.5569 19.1627 76.4768 20.277C76.4341 20.8709 76.2793 21.449 76.1886 22.0377C76.1085 22.5528 76.0605 23.0731 76.0551 23.5987C75.3506 24.1033 74.7207 24.6919 74.0962 25.2911C73.4878 25.8798 72.8846 26.4737 72.2121 26.994C71.8758 27.2516 71.5235 27.4881 71.1606 27.7141C71.4488 27.3357 71.7477 26.9573 72.0146 26.5631C72.4362 25.9429 72.8206 25.2964 73.1088 24.6026C73.4184 23.8563 73.5465 23.1047 73.4664 22.3005C73.4237 21.8643 73.3383 21.428 73.3009 20.9918C73.2636 20.5503 73.2476 20.114 73.2155 19.6725C73.1942 19.3887 72.7672 19.3046 72.6925 19.6042C72.479 20.4294 72.4576 21.2809 72.2014 22.1008C71.9612 22.8629 71.6036 23.5829 71.2246 24.2925C70.8563 24.981 70.488 25.6328 70.2745 26.3896C70.0664 27.1307 69.8796 27.8718 69.6554 28.6076C68.9508 29.0071 68.2356 29.3855 67.499 29.7219C66.6023 30.1318 65.6629 30.4524 64.7448 30.8046C63.0848 31.4353 61.3394 32.0976 59.9196 33.1803C58.4945 34.263 57.3256 35.6295 55.8364 36.6334C55.5535 36.8226 55.8204 37.2799 56.1033 37.0854L56.0873 37.0486ZM88.6731 9.52334C88.3422 9.60218 88.0486 9.8387 87.7924 10.0437C87.4295 10.338 87.0986 10.6586 86.757 10.974C85.983 11.6835 85.3051 12.3878 84.8087 13.3181C84.2483 14.3693 83.832 15.4836 83.2395 16.519C82.647 17.5649 81.9531 18.5846 81.1312 19.4676C80.8269 19.7934 80.4906 20.0825 80.149 20.3663C80.3305 20.0562 80.5067 19.7356 80.6668 19.4097C81.0778 18.5688 81.4194 17.7016 81.7236 16.8186C82.0172 15.9513 82.2947 15.0683 82.6897 14.2327C83.0527 13.4548 83.5224 12.7032 84.0028 11.9884C84.5525 11.1684 85.2624 10.6061 86.0684 10.0384C86.7836 9.53911 87.5309 9.04505 88.1661 8.44062C88.8279 7.80991 89.1589 7.06357 89.3937 6.19634C89.6179 5.36065 89.7567 4.49342 89.8848 3.6367C89.8741 4.49867 89.8261 5.36065 89.698 6.21211C89.5485 7.20022 89.2549 8.12526 88.8653 9.04505C88.8013 9.19747 88.7425 9.35515 88.6785 9.50757L88.6731 9.52334ZM79.5672 21.5962C80.2665 20.8394 81.1685 20.2559 81.8357 19.4676C82.5616 18.6056 83.2021 17.6753 83.7519 16.6924C84.3123 15.6991 84.7127 14.6374 85.2411 13.6335C85.7215 12.7242 86.378 12.0409 87.1306 11.3471C87.4242 11.0791 87.707 10.8058 88.0113 10.5482C88.118 10.4589 88.2621 10.317 88.4169 10.2066C88.1821 10.8531 87.9739 11.5101 87.7658 12.1618C87.4829 13.0553 87.2213 13.9541 86.8263 14.8055C86.4687 15.5729 86.031 16.2982 85.5453 16.992C85.0756 17.6595 84.5739 18.3113 83.9707 18.8684C83.389 19.4045 82.7378 19.8565 82.0599 20.2665C81.2539 20.75 80.4106 21.1705 79.5619 21.591L79.5672 21.5962ZM76.6743 22.558C76.7757 21.8275 76.9305 21.1127 76.9945 20.3716C77.0853 19.3256 76.9305 18.285 76.8291 17.2443C76.7543 16.5242 76.7277 15.7937 76.781 15.0683C76.8077 14.7004 76.8558 14.2957 76.9678 13.912C77.0159 14.4008 77.1493 14.8896 77.2721 15.3522C77.5443 16.3613 77.9606 17.3494 78.0994 18.3901C78.2382 19.4255 77.982 20.3611 77.4642 21.2546C77.208 21.6961 76.9305 22.1218 76.6689 22.5528L76.6743 22.558ZM85.2037 24.8391C84.5098 25.2018 83.6718 25.2333 82.8872 25.2228C82.0652 25.2123 81.2379 25.1387 80.4159 25.2648C79.3698 25.4278 78.393 25.8535 77.4002 26.2004C76.7277 26.4317 76.0711 26.5893 75.3879 26.6314C75.7509 26.5 76.1138 26.3581 76.4715 26.2057C77.8432 25.6328 79.1189 24.8233 80.5814 24.4765C82.156 24.1085 83.6665 24.5658 85.2091 24.8339L85.2037 24.8391ZM75.2812 27.1833C75.3452 27.1833 75.4093 27.1833 75.4733 27.1833C77.4803 27.0676 79.2096 25.7799 81.2326 25.7274C82.8338 25.6853 84.654 26.048 85.9883 24.9547C87.3334 25.1019 88.7158 25.0861 89.9595 25.6906C90.5306 25.9691 91.1124 26.3108 91.7209 26.5788C91.5875 26.5736 91.454 26.5683 91.3152 26.5525C90.4345 26.4527 89.5805 26.1951 88.6945 26.1005C87.9739 26.0217 87.248 26.0427 86.5381 26.1794C85.7642 26.3265 85.0489 26.6524 84.3124 26.9205C83.5918 27.1833 82.8605 27.4145 82.1186 27.5985C81.3447 27.7877 80.544 27.9559 79.7434 27.9191C78.9481 27.8823 78.1688 27.6931 77.3895 27.5249C76.6956 27.3725 75.9911 27.2568 75.2812 27.1885V27.1833ZM71.4595 26.4001C71.1285 26.8784 70.7549 27.3252 70.4133 27.7982C70.5361 27.3462 70.6588 26.8889 70.7869 26.4369C71.0111 25.6748 71.4114 25.0126 71.7797 24.3135C72.148 23.6197 72.4896 22.8997 72.7191 22.1481C72.7725 21.9746 72.8152 21.7959 72.8472 21.6172C72.8686 21.8117 72.8846 22.0114 72.9113 22.2059C73.002 23.0048 72.8846 23.7354 72.5644 24.4712C72.2708 25.1492 71.8758 25.7852 71.4541 26.3949L71.4595 26.4001Z" fill="white"/>
</g>
<defs>
<clipPath id="clip0_205_8119">
<rect width="94" height="88" fill="white"/>
</clipPath>
</defs>
</svg>
