<svg width="56" height="46" viewBox="0 0 56 46" fill="none" xmlns="http://www.w3.org/2000/svg">
<path d="M39.54 45.192C48.556 38.724 55.416 27.748 55.416 15.792C55.416 6.188 49.732 0.896005 43.264 0.896005C37.384 0.896004 32.876 5.6 32.876 11.284C32.876 17.164 36.796 21.28 42.284 21.28C43.264 21.28 44.636 21.084 44.832 21.084C44.244 27.356 38.56 35.196 32.288 39.312L39.54 45.192ZM8.18 45.192C17.196 38.724 24.056 27.748 24.056 15.792C24.056 6.188 18.372 0.896003 11.904 0.896002C6.024 0.896002 1.32 5.6 1.32 11.284C1.32 17.164 5.436 21.28 10.924 21.28C11.904 21.28 13.276 21.084 13.472 21.084C12.688 27.356 7.2 35.196 0.927999 39.312L8.18 45.192Z" fill="#CCB667"/>
<path d="M39.54 45.192L38.9102 45.9688L39.5029 46.4493L40.1229 46.0045L39.54 45.192ZM44.832 21.084L45.8276 21.1773L45.9301 20.084L44.832 20.084L44.832 21.084ZM32.288 39.312L31.7393 38.476L30.5952 39.2268L31.6582 40.0888L32.288 39.312ZM8.18 45.192L7.5502 45.9688L8.1429 46.4493L8.76291 46.0045L8.18 45.192ZM13.472 21.084L14.4643 21.208L14.6048 20.084L13.472 20.084L13.472 21.084ZM0.927999 39.312L0.379344 38.4759L-0.764848 39.2268L0.298197 40.0888L0.927999 39.312ZM40.1229 46.0045C49.352 39.3837 56.416 28.1259 56.416 15.792L54.416 15.792C54.416 27.3701 47.76 38.0643 38.9571 44.3795L40.1229 46.0045ZM56.416 15.792C56.416 10.7923 54.9341 6.81855 52.5149 4.0804C50.0933 1.33941 46.7812 -0.103995 43.264 -0.103995L43.264 1.896C46.2149 1.89601 48.9787 3.09859 51.0161 5.40461C53.056 7.71346 54.416 11.1877 54.416 15.792L56.416 15.792ZM43.264 -0.103995C36.8194 -0.103996 31.876 5.06008 31.876 11.284L33.876 11.284C33.876 6.13992 37.9486 1.896 43.264 1.896L43.264 -0.103995ZM31.876 11.284C31.876 14.4488 32.9338 17.2029 34.795 19.1736C36.6597 21.148 39.2794 22.28 42.284 22.28L42.284 20.28C39.8006 20.28 37.7163 19.354 36.249 17.8004C34.7782 16.2431 33.876 13.9992 33.876 11.284L31.876 11.284ZM42.284 22.28C42.8271 22.28 43.4571 22.2265 43.9515 22.177C44.2012 22.1521 44.4287 22.1268 44.5955 22.1089C44.8011 22.0869 44.8515 22.084 44.832 22.084L44.832 20.084C44.7146 20.084 44.5199 20.1056 44.3825 20.1203C44.2063 20.1392 43.9928 20.1629 43.7525 20.187C43.2669 20.2355 42.7209 20.28 42.284 20.28L42.284 22.28ZM43.8364 20.9907C43.5643 23.8926 42.094 27.2557 39.872 30.4335C37.6579 33.5998 34.7577 36.4952 31.7393 38.476L32.8367 40.148C36.0903 38.0128 39.1681 34.9302 41.511 31.5796C43.846 28.2403 45.5117 24.5474 45.8276 21.1773L43.8364 20.9907ZM31.6582 40.0888L38.9102 45.9688L40.1698 44.4153L32.9178 38.5352L31.6582 40.0888ZM8.76291 46.0045C17.992 39.3837 25.056 28.1259 25.056 15.792L23.056 15.792C23.056 27.3701 16.4 38.0643 7.59709 44.3795L8.76291 46.0045ZM25.056 15.792C25.056 10.7923 23.5741 6.81855 21.1549 4.0804C18.7333 1.33941 15.4212 -0.103998 11.904 -0.103998L11.904 1.896C14.8548 1.896 17.6187 3.09859 19.6561 5.4046C21.6959 7.71345 23.056 11.1877 23.056 15.792L25.056 15.792ZM11.904 -0.103998C5.48392 -0.103998 0.320003 5.03559 0.320003 11.284L2.32 11.284C2.32 6.16441 6.56408 1.896 11.904 1.896L11.904 -0.103998ZM0.320003 11.284C0.320002 17.6895 4.85735 22.28 10.924 22.28L10.924 20.28C6.01465 20.28 2.32 16.6385 2.32 11.284L0.320003 11.284ZM10.924 22.28C11.4671 22.28 12.0971 22.2265 12.5915 22.177C12.8412 22.1521 13.0687 22.1268 13.2355 22.1089C13.4411 22.0869 13.4915 22.084 13.472 22.084L13.472 20.084C13.3546 20.084 13.1599 20.1056 13.0225 20.1203C12.8463 20.1392 12.6328 20.1629 12.3925 20.187C11.9069 20.2355 11.3609 20.28 10.924 20.28L10.924 22.28ZM12.4797 20.96C12.1141 23.8847 10.6329 27.2611 8.43559 30.4376C6.24418 33.6056 3.39318 36.4981 0.379344 38.4759L1.47666 40.148C4.73482 38.0099 7.76382 34.9244 10.0804 31.5754C12.3911 28.2349 14.0459 24.5553 14.4643 21.208L12.4797 20.96ZM0.298197 40.0888L7.5502 45.9688L8.8098 44.4152L1.5578 38.5352L0.298197 40.0888Z" fill="black"/>
</svg>
